<?xml version="1.0" encoding="UTF-8" standalone="no"?>
<svg width="13px" height="14px" viewBox="0 0 13 14" version="1.1" xmlns="http://www.w3.org/2000/svg" xmlns:xlink="http://www.w3.org/1999/xlink">
    <!-- Generator: Sketch 41 (35326) - http://www.bohemiancoding.com/sketch -->
    <title>noun_705308_cc</title>
    <desc>Created with Sketch.</desc>
    <defs></defs>
    <g id="Symbols" stroke="none" stroke-width="1" fill="none" fill-rule="evenodd">
        <g id="noun_705308_cc" fill="#000000">
            <g id="Group">
                <g transform="translate(0.000000, 0.372050)" id="Shape">
                    <path d="M0.585332682,0.211283333 C0.4325295,0.211283333 0.291438136,0.28035 0.174851773,0.395266667 C-0.0582795909,0.625216667 -0.0582914091,0.993416667 0.174851773,1.223425 L5.66036723,6.633725 L0.174851773,12.0440833 C-0.0582914091,12.2740917 -0.0582795909,12.6422333 0.174851773,12.872125 C0.408030409,13.102075 0.781295864,13.102075 1.0144745,12.872125 L6.49998995,7.461825 L11.9855113,12.872125 C12.218684,13.102075 12.5919909,13.1020167 12.8251281,12.872125 C13.0583009,12.642175 13.0582831,12.2740917 12.8251281,12.0440833 L7.33961268,6.633725 L12.8251281,1.223425 C13.0582831,0.993416667 13.0583009,0.625275 12.8251281,0.395266667 C12.5919909,0.165375 12.218684,0.165316667 11.9855113,0.395266667 L6.49998995,5.805625 L1.0144745,0.395266667 C0.897882227,0.28035 0.738135864,0.211283333 0.585332682,0.211283333 L0.585332682,0.211283333 Z"></path>
                </g>
            </g>
        </g>
    </g>
</svg>