<?xml version="1.0" encoding="UTF-8" standalone="no"?>
<svg width="13px" height="13px" viewBox="0 0 13 13" version="1.1" xmlns="http://www.w3.org/2000/svg" xmlns:xlink="http://www.w3.org/1999/xlink">
    <!-- Generator: Sketch 41.2 (35397) - http://www.bohemiancoding.com/sketch -->
    <title>Flag</title>
    <desc>Created with Sketch.</desc>
    <defs>
        <circle id="path-1" cx="6.5" cy="6.5" r="6.5"></circle>
        <path d="M13.5,7.5 L27,7.5 L27,15 L13.5,7.5 Z M13.5,7.5 L13.5,15 L0,15 L13.5,7.5 Z M13.5,7.5 L0,7.5 L0,0 L13.5,7.5 Z M13.5,7.5 L13.5,0 L27,0 L13.5,7.5 Z" id="path-3"></path>
    </defs>
    <g id="Final-Screens" stroke="none" stroke-width="1" fill="none" fill-rule="evenodd">
        <g id="Menu-Swicth-Language" transform="translate(-58.000000, -417.000000)">
            <g id="Group-5" transform="translate(58.000000, 197.000000)">
                <g id="Deutschland-Copy-8" transform="translate(0.000000, 216.000000)">
                    <g id="Flag" transform="translate(0.000000, 4.000000)">
                        <mask id="mask-2" fill="white">
                            <use xlink:href="#path-1"></use>
                        </mask>
                        <use id="Oval" fill="#D8D8D8" xlink:href="#path-1"></use>
                        <g id="british-flag" mask="url(#mask-2)">
                            <g transform="translate(-7.000000, -1.000000)" id="Group">
                                <g>
                                    <polygon id="Shape" fill="#00247D" points="0 0 0 15 27 15 27 0"></polygon>
                                    <path d="M0,0 L27,15 M27,0 L0,15" id="Shape" stroke="#FFFFFF" stroke-width="2.4" fill="#000000"></path>
                                    <g id="Clipped">
                                        <mask id="mask-4" fill="white">
                                            <use xlink:href="#path-3"></use>
                                        </mask>
                                        <g id="Shape"></g>
                                        <path d="M0,0 L27,15 M27,0 L0,15" id="Shape" stroke="#CF142B" stroke-width="1.6" fill="#000000" mask="url(#mask-4)"></path>
                                    </g>
                                    <path d="M13.5,0 L13.5,15 M0,7.5 L27,7.5" id="Shape" stroke="#FFFFFF" stroke-width="4" fill="#000000"></path>
                                    <path d="M13.5,0 L13.5,15 M0,7.5 L27,7.5" id="Shape" stroke="#CF142B" stroke-width="2.4" fill="#000000"></path>
                                </g>
                            </g>
                        </g>
                    </g>
                </g>
            </g>
        </g>
    </g>
</svg>