<?xml version="1.0" encoding="UTF-8" standalone="no"?>
<svg width="674px" height="100px" viewBox="0 0 674 100" version="1.1" xmlns="http://www.w3.org/2000/svg" xmlns:xlink="http://www.w3.org/1999/xlink">
    <!-- Generator: Sketch 41.2 (35397) - http://www.bohemiancoding.com/sketch -->
    <title>logo-white</title>
    <desc>Created with Sketch.</desc>
    <defs></defs>
    <g id="Final-Screens" stroke="none" stroke-width="1" fill="none" fill-rule="evenodd">
        <g id="logo-white" fill="#000000">
            <g id="Ebene_1">
                <path d="M233.62,67.59 C233.62,58.76 227.15,51.41 218.03,51.41 C208.91,51.41 202.59,58.62 202.59,67.41 L202.59,67.56 C202.59,76.38 209.06,83.74 218.18,83.74 C227.3,83.74 233.62,76.53 233.62,67.74 L233.62,67.59 Z M218.03,94.21 C202.15,94.21 190.75,82.37 190.75,67.74 L190.75,67.59 C190.75,52.96 202.3,40.97 218.18,40.97 C234.06,40.97 245.46,52.78 245.46,67.44 L245.46,67.59 C245.46,82.22 233.92,94.21 218.03,94.21 L218.03,94.21 Z" id="Shape"></path>
                <path d="M277,94.13 C263.18,94.13 254.72,86.41 254.72,71.26 L254.72,41.85 L266.04,41.85 L266.04,70.97 C266.04,79.35 270.23,83.69 277.14,83.69 C284.05,83.69 288.2,79.5 288.2,71.34 L288.2,41.85 L299.52,41.85 L299.52,70.85 C299.52,86.44 290.77,94.09 276.95,94.09" id="Shape"></path>
                <polygon id="Shape" points="334.42 52.3 334.42 93.33 323.1 93.33 323.1 52.3 307.44 52.3 307.44 41.85 350.08 41.85 350.08 52.3"></polygon>
                <polygon id="Shape" points="370.08 52.15 370.08 63.1 394.64 63.1 394.64 73.4 370.08 73.4 370.08 93.33 358.76 93.33 358.76 41.85 397.95 41.85 397.95 52.15"></polygon>
                <rect id="Rectangle-path" x="407.51" y="41.85" width="11.33" height="51.47"></rect>
                <polygon id="Shape" points="455.01 52.3 455.01 93.33 443.68 93.33 443.68 52.3 428.02 52.3 428.02 41.85 470.67 41.85 470.67 52.3"></polygon>
                <polygon id="Shape" points="502.65 52.3 502.65 93.33 491.33 93.33 491.33 52.3 475.67 52.3 475.67 41.85 518.31 41.85 518.31 52.3"></polygon>
                <polygon id="Shape" points="526.99 93.32 526.99 41.85 565.81 41.85 565.81 51.93 538.24 51.93 538.24 62.37 562.51 62.37 562.51 72.44 538.24 72.44 538.24 83.25 566.18 83.25 566.18 93.32"></polygon>
                <path d="M607.73,59.43 C607.73,54.58 604.35,52.08 598.83,52.08 L587.58,52.08 L587.58,66.86 L599.05,66.86 C604.56,66.86 607.73,63.92 607.73,59.58 L607.73,59.43 Z M607.51,93.33 L596.51,76.86 L587.61,76.86 L587.61,93.33 L576.26,93.33 L576.26,41.85 L599.79,41.85 C611.92,41.85 619.2,48.25 619.2,58.85 L619.2,59 C619.2,67.31 614.71,72.53 608.2,75 L620.77,93.38 L607.51,93.33 Z" id="Shape"></path>
                <polygon id="Shape" points="653.39 72.81 653.39 93.33 642.07 93.33 642.07 73.03 622.29 41.85 635.52 41.85 647.8 62.52 660.31 41.85 673.17 41.85"></polygon>
                <path d="M167.85,51.63 C167.85,51.63 164.97,48.06 165.62,44.74 C166.04,42.64 162.62,39.6 162.5,39.28 C163.291198,38.2680966 163.984322,37.1832079 164.57,36.04 C165.047862,34.9921027 165.422951,33.9003239 165.69,32.78 L165.51,32.22 C163.870244,32.1164852 162.224079,32.2444079 160.62,32.6 C159.727221,32.798035 158.848613,33.0552702 157.99,33.37 L152.57,27.42 L151.42,27.58 C150.690007,29.2959453 150.632884,31.2238441 151.26,32.98 C151.26,32.98 145.14,36.38 135.16,36.38 C135.16,29.81 131.16,32.47 120.23,26.16 C116.3,23.92 118.51,20.07 118.51,20.07 C97.45,12.87 68.29,0.01 68.29,0.01 L67.2,1.64 C67.2,1.64 76.64,10.41 91.68,25.29 L90.68,27.63 C85.9674024,25.4328412 81.7491212,22.3031487 78.28,18.43 L77.2,19.78 C77.2,19.78 83.03,34.68 94.42,46.69 C105.81,58.7 114.9,57.69 114.9,57.69 L114.9,59.32 C89.9,59.32 77.61,38.32 77.61,38.32 C73.0807267,38.6938349 68.5933039,39.4668361 64.2,40.63 C60.9254278,41.447785 57.7956916,42.7630836 54.92,44.53 C54.92,44.53 44.78,69.62 31.29,77.9 C16.9,86.72 0.01,86.62 0.01,86.62 L0.01,87.78 C0.01,87.78 21.32,89.99 35.01,81.06 C42.2995384,76.1468174 48.2159078,69.456054 52.2,61.62 L52.87,61.89 C51.8304073,65.4521251 50.291811,68.8491571 48.3,71.98 C44.98,77.26 42.03,81.85 42.03,81.85 C42.03,81.85 41.55,84.85 41.42,87.77 C41.29,90.69 41.42,94.48 41.81,95.32 C42.8102639,96.6973979 43.9241589,97.9885794 45.14,99.18 L50.93,99.18 C53.71,99.18 49.1,94.77 48.79,93.6 C48.48,92.43 49.23,85.5 49.23,85.5 C49.23,85.5 56.47,77.88 62.2,74.08 C65.3533003,71.9255656 68.7012172,70.0708196 72.2,68.54 L72.61,69.31 C71.0219424,70.1603417 69.5067966,71.1403366 68.08,72.24 C65.04,74.47 63.2,76.18 63.2,76.18 C62.7812425,77.9343917 62.6029431,79.7375707 62.67,81.54 C62.67,85.21 62.4,86.54 63.78,88.14 C65.16,89.74 72.53,99.14 72.53,99.14 L77.2,99.14 C79.43,99.14 80.42,94.82 80.42,94.82 C78.8965284,93.9184881 77.1853559,93.3811799 75.42,93.25 C75.42,93.25 71.58,86.63 71.32,85.8 C71.06,84.97 72.72,80.89 74.45,77.96 C75.5137568,76.1331478 76.7892307,74.4381101 78.25,72.91 C79.4310394,73.3008024 80.6518752,73.5590561 81.89,73.68 C83.1230644,73.79932 84.363722,73.8193846 85.6,73.74 C85.6,66.65 103.85,72.59 103.85,72.59 C101.842156,75.0276167 100.161274,77.7170275 98.85,80.59 C97.7465536,82.7364736 96.9103205,85.0100872 96.36,87.36 C96.0803922,88.4129091 95.863346,89.481444 95.71,90.56 L100.8,99.51 L110.26,99.51 C112.26,99.51 113.03,95.59 113.03,95.59 C111.42868,94.567912 109.595523,93.9660311 107.7,93.84 L106.14,89.6 C106.14,89.6 107.81,83.72 116.6,76.6 C121.362838,72.6359411 126.531588,69.1867553 132.02,66.31 L133.02,68.26 L127.69,76.52 C139.64,82.77 144.18,99.43 144.18,99.43 C144.18,99.43 150.81,99.48 153.8,99.48 C156.79,99.48 156.43,93.28 156.43,93.28 C154.261126,92.2486821 151.916393,91.6378978 149.52,91.48 L141.2,70.29 C141.021765,68.4854949 140.991664,66.6694207 141.11,64.86 C141.263143,63.289708 141.598739,61.742609 142.11,60.25 C142.11,60.25 148.54,56.06 152.34,58.76 C156.14,61.46 158.34,61.57 158.34,61.57 L160.44,60.35 C160.44,60.35 153.44,55.51 158.6,53.05 C162.36,51.26 165.99,55.95 165.99,55.95 C168.26,53.31 167.99,51.64 167.99,51.64" id="Shape"></path>
            </g>
        </g>
    </g>
</svg>