<?xml version="1.0" encoding="UTF-8" standalone="no"?>
<svg width="60px" height="37px" viewBox="0 0 60 37" version="1.1" xmlns="http://www.w3.org/2000/svg" xmlns:xlink="http://www.w3.org/1999/xlink">
    <!-- Generator: Sketch 40.3 (33839) - http://www.bohemiancoding.com/sketch -->
    <title>Group 10</title>
    <desc>Created with Sketch.</desc>
    <defs></defs>
    <g id="Page-1" stroke="none" stroke-width="1" fill="none" fill-rule="evenodd">
        <g id="Add-Payment-Method-New" transform="translate(-770.000000, -601.000000)">
            <g id="Payment-Method" transform="translate(490.000000, 180.000000)">
                <g id="Group-2" transform="translate(68.000000, 330.000000)">
                    <g id="Group-4" transform="translate(0.000000, 55.000000)">
                        <g id="Group-8">
                            <g id="Group-13" transform="translate(0.000000, 36.000000)">
                                <g id="Group-12">
                                    <g id="Group-10" transform="translate(212.000000, 0.000000)">
                                        <rect id="base" fill="#F8F8F8" x="0" y="0" width="59.7619048" height="36.3375651"></rect>
                                        <g id="AmericanExpress-light" transform="translate(8.000000, 10.000000)" fill="#0072CE">
                                            <path d="M42.6359505,10.8711281 L40.465654,10.8711281 C40.2489699,10.8711281 40.1050147,10.8792325 39.9837498,10.9610274 C39.8581272,11.0416217 39.8097414,11.1612374 39.8097414,11.319124 C39.8097414,11.5068771 39.9158295,11.6345972 40.070153,11.6898276 C40.1957756,11.7335015 40.3307148,11.7462585 40.5290663,11.7462585 L41.1744602,11.763518 C41.8257145,11.7795768 42.260435,11.8913882 42.5255048,12.1640879 C42.5737403,12.2020588 42.6027416,12.2446822 42.6359505,12.2873056 L42.6359505,10.8711281 L42.6359505,10.8711281 Z M42.6359505,14.1523796 C42.3466878,14.5748615 41.7830388,14.7890292 41.0199864,14.7890292 L38.7203106,14.7890292 L38.7203106,13.7217932 L41.0106699,13.7217932 C41.2378726,13.7217932 41.3968543,13.6919268 41.492574,13.5985756 C41.5755211,13.5215833 41.6333736,13.4097719 41.6333736,13.2739473 C41.6333736,13.1289677 41.5755211,13.0138545 41.4879157,12.9448166 C41.4015127,12.8688749 41.2757397,12.8343559 41.0683722,12.8343559 C39.9502404,12.7963851 38.5553181,12.8688749 38.5553181,11.2939102 C38.5553181,10.5720138 39.0142315,9.81214665 40.2638462,9.81214665 L42.6358003,9.81214665 L42.6358003,8.82190295 L40.4319943,8.82190295 C39.7669155,8.82190295 39.2838093,8.98099028 38.9416529,9.22832609 L38.9416529,8.82190295 L35.6819255,8.82190295 C35.1606516,8.82190295 34.548767,8.95097378 34.2593541,9.22832609 L34.2593541,8.82190295 L28.4383372,8.82190295 L28.4383372,9.22832609 C27.9750661,8.89454283 27.1933807,8.82190295 26.8325912,8.82190295 L22.992986,8.82190295 L22.992986,9.22832609 C22.6264865,8.87383145 21.8114419,8.82190295 21.3146614,8.82190295 L17.0174953,8.82190295 L16.0341524,9.88478652 L15.1131701,8.82190295 L8.69409315,8.82190295 L8.69409315,15.7665158 L14.992356,15.7665158 L16.0056018,14.686823 L16.9600935,15.7665158 L20.8423743,15.7699678 L20.8423743,14.1363208 L21.2240508,14.1363208 C21.7391638,14.1442751 22.3466906,14.1235638 22.8826906,13.8921367 L22.8826906,15.7663658 L26.084866,15.7663658 L26.084866,13.956372 L26.2393397,13.956372 C26.4364891,13.956372 26.4558735,13.9644764 26.4558735,14.1612345 L26.4558735,15.7662157 L36.1835144,15.7662157 C36.8011091,15.7662157 37.4466532,15.608329 37.8041368,15.3218217 L37.8041368,15.7662157 L40.8897055,15.7662157 C41.5317935,15.7662157 42.1588549,15.6763163 42.6359505,15.4460899 L42.6359505,14.1523796 L42.6359505,14.1523796 L42.6359505,14.1523796 Z M37.8858817,12.1640879 C38.1177426,12.4037695 38.2420128,12.7063356 38.2420128,13.2185669 C38.2420128,14.2892548 37.5722758,14.7890292 36.3713473,14.7890292 L34.0519866,14.7890292 L34.0519866,13.7217932 L36.3620308,13.7217932 C36.5878811,13.7217932 36.748065,13.6919268 36.8484429,13.5985756 C36.9303381,13.5215833 36.9890922,13.4097719 36.9890922,13.2739473 C36.9890922,13.1289677 36.9255296,13.0138545 36.8437847,12.9448166 C36.7527233,12.8688749 36.6271007,12.8343559 36.4197331,12.8343559 C35.3061093,12.7963851 33.9114876,12.8688749 33.9114876,11.2939102 C33.9114876,10.5720138 34.3655924,9.81214665 35.6140051,9.81214665 L38.0012862,9.81214665 L38.0012862,10.8714282 L35.8168646,10.8714282 C35.6003308,10.8714282 35.4595313,10.8795327 35.339769,10.9613276 C35.2093378,11.0419218 35.1609521,11.1615375 35.1609521,11.3194242 C35.1609521,11.5071773 35.2716984,11.6348974 35.4215139,11.6901277 C35.5471366,11.7338017 35.6820757,11.7465587 35.8849352,11.7465587 L36.5259714,11.7638182 C37.1724171,11.7795768 37.6161536,11.8912382 37.8858817,12.1640879 L37.8858817,12.1640879 L37.8858817,12.1640879 Z M27.1406372,11.8567192 C26.9813548,11.951121 26.7843557,11.9592255 26.552645,11.9592255 L25.1060311,11.9592255 L25.1060311,10.8414118 L26.5723299,10.8414118 C26.7843557,10.8414118 26.9965318,10.8459142 27.1406372,10.9313111 C27.2949607,11.0119054 27.3872242,11.1660399 27.3872242,11.3790069 C27.3872242,11.5919738 27.2949607,11.763518 27.1406372,11.8567192 L27.1406372,11.8567192 L27.1406372,11.8567192 Z M27.8598118,12.4761092 C28.1248816,12.5738129 28.3415657,12.7489591 28.4431457,12.8939386 C28.6112937,13.1369221 28.6356368,13.3636966 28.6404453,13.8023874 L28.6404453,14.7890292 L27.4449265,14.7890292 L27.4449265,14.1663373 C27.4449265,13.8669229 27.4737776,13.4235794 27.2524353,13.1921524 C27.0784269,13.0138545 26.8132068,12.9712311 26.3787869,12.9712311 L25.1061814,12.9712311 L25.1061814,14.7890292 L23.9096106,14.7890292 L23.9096106,9.81199655 L26.6588834,9.81199655 C27.2617518,9.81199655 27.70083,9.83856111 28.0916728,10.0468755 C28.4674888,10.27365 28.7038578,10.5843206 28.7038578,11.1520823 C28.7037075,11.9464684 28.1732674,12.351841 27.8598118,12.4761092 L27.8598118,12.4761092 L27.8598118,12.4761092 Z M29.364128,9.81199655 L33.3385221,9.81199655 L33.3385221,10.8412617 L30.5500298,10.8412617 L30.5500298,11.7461084 L33.2704514,11.7461084 L33.2704514,12.761566 L30.5500298,12.761566 L30.5500298,13.7518097 L33.3385221,13.7563121 L33.3385221,14.7890292 L29.364128,14.7890292 L29.364128,9.81199655 L29.364128,9.81199655 L29.364128,9.81199655 Z M21.3298383,12.1088576 L19.7909609,12.1088576 L19.7909609,10.8414118 L21.3436628,10.8414118 C21.7735748,10.8414118 22.0720037,11.0164078 22.0720037,11.4516468 C22.0720037,11.8820831 21.7873993,12.1088576 21.3298383,12.1088576 L21.3298383,12.1088576 L21.3298383,12.1088576 Z M18.6049088,14.3363806 L16.7766184,12.3090676 L18.6049088,10.3461398 L18.6049088,14.3363806 L18.6049088,14.3363806 L18.6049088,14.3363806 Z M13.8833905,13.7518097 L10.9556014,13.7518097 L10.9556014,12.761566 L13.569935,12.761566 L13.569935,11.7461084 L10.9556014,11.7461084 L10.9556014,10.8412617 L13.9410928,10.8412617 L15.2436013,12.291658 L13.8833905,13.7518097 L13.8833905,13.7518097 L13.8833905,13.7518097 Z M23.3504696,11.4516468 C23.3504696,12.8342058 22.3176892,13.1196626 21.2767943,13.1196626 L19.7909609,13.1196626 L19.7909609,14.7890292 L17.4764087,14.7890292 L16.0101098,13.1414246 L14.486259,14.7890292 L9.76939901,14.7890292 L9.76939901,9.81199655 L14.5588377,9.81199655 L16.0239343,11.4433922 L17.5386189,9.81199655 L21.3436628,9.81199655 C22.2886878,9.81199655 23.3504696,10.07329 23.3504696,11.4516468 L23.3504696,11.4516468 L23.3504696,11.4516468 Z" id="EXPRESS"></path>
                                            <path d="M4.08797947,4.07644745 L3.27293493,2.09280837 L2.46254863,4.07644745 L4.08797947,4.07644745 L4.08797947,4.07644745 Z M22.0433028,3.28656375 C21.8796628,3.38576825 21.6861198,3.38907003 21.4542588,3.38907003 L20.0076449,3.38907003 L20.0076449,2.28386326 L21.4739437,2.28386326 C21.6814615,2.28386326 21.8979953,2.29316837 22.0386446,2.37361255 C22.1931184,2.44610234 22.2886878,2.60038702 22.2886878,2.81350406 C22.2886878,3.03097342 22.1977766,3.20596954 22.0433028,3.28656375 L22.0433028,3.28656375 L22.0433028,3.28656375 Z M32.3632936,4.07644745 L31.5392331,2.09280837 L30.7196806,4.07644745 L32.3632936,4.07644745 L32.3632936,4.07644745 L32.3632936,4.07644745 Z M13.1261985,6.22352628 L11.9054349,6.22352628 L11.9009269,2.32648665 L10.1742165,6.22352628 L9.12866338,6.22352628 L7.39744505,2.32303477 L7.39744505,6.22352628 L4.97545242,6.22352628 L4.51789144,5.11366695 L2.03849707,5.11366695 L1.57627784,6.22352628 L0.282935577,6.22352628 L2.41536498,1.24769434 L4.18460072,1.24769434 L6.20989027,5.95878092 L6.20989027,1.24769434 L8.15343493,1.24769434 L9.71184701,4.62319766 L11.1434343,1.24769434 L13.1260482,1.24769434 L13.1260482,6.22352628 L13.1261985,6.22352628 L13.1261985,6.22352628 Z M17.9916719,6.22352628 L14.0136714,6.22352628 L14.0136714,1.24769434 L17.9916719,1.24769434 L17.9916719,2.28386326 L15.204532,2.28386326 L15.204532,3.18075569 L17.9248033,3.18075569 L17.9248033,4.20071569 L15.204532,4.20071569 L15.204532,5.19441126 L17.9916719,5.19441126 L17.9916719,6.22352628 L17.9916719,6.22352628 L17.9916719,6.22352628 Z M23.6005128,2.58778012 C23.6005128,3.38111569 23.0703732,3.79099071 22.7614256,3.91405828 C23.0219874,4.01311268 23.2445319,4.18810874 23.3504696,4.33308837 C23.5186176,4.58057422 23.547619,4.8016456 23.547619,5.24603963 L23.547619,6.22352628 L22.3465403,6.22352628 L22.3420323,5.59603175 C22.3420323,5.29661742 22.3707332,4.86603095 22.1540491,4.62664954 C21.9800407,4.45165348 21.7148206,4.41368258 21.2861108,4.41368258 L20.0077952,4.41368258 L20.0077952,6.22352628 L18.8170848,6.22352628 L18.8170848,1.24769434 L21.5559891,1.24769434 C22.1645678,1.24769434 22.6129625,1.26375317 22.9979448,1.48602517 C23.3746625,1.70829723 23.6005128,2.03277538 23.6005128,2.58778012 L23.6005128,2.58778012 L23.6005128,2.58778012 Z M25.5061903,6.22352628 L24.2911368,6.22352628 L24.2911368,1.24769434 L25.5061903,1.24769434 L25.5061903,6.22352628 L25.5061903,6.22352628 L25.5061903,6.22352628 Z M39.6023739,6.22352628 L37.914883,6.22352628 L35.6577326,2.48887582 L35.6577326,6.22352628 L33.2325843,6.22352628 L32.769163,5.11366695 L30.2954787,5.11366695 L29.8458819,6.22352628 L28.4524622,6.22352628 C27.8736363,6.22352628 27.1407874,6.09565612 26.7257519,5.67317415 C26.3072601,5.25069218 26.0895242,4.678428 26.0895242,3.77358117 C26.0895242,3.03562597 26.2196549,2.3610056 26.7314619,1.82791292 C27.1164443,1.43079489 27.7193128,1.24769434 28.5399172,1.24769434 L29.6927605,1.24769434 L29.6927605,2.31387975 L28.5641101,2.31387975 C28.1295399,2.31387975 27.884155,2.37841514 27.647786,2.60864154 C27.4447762,2.81815662 27.3054793,3.21422406 27.3054793,3.73576043 C27.3054793,4.26885311 27.4115673,4.65321415 27.6329096,4.90430197 C27.8162346,5.10121009 28.149375,5.16094289 28.4628306,5.16094289 L28.9976284,5.16094289 L30.6759531,1.24784443 L32.4602154,1.24784443 L34.4763387,5.95427846 L34.4763387,1.24784443 L36.2894522,1.24784443 L38.3826621,4.71324708 L38.3826621,1.24784443 L39.6023739,1.24784443 L39.6023739,6.22352628 L39.6023739,6.22352628 L39.6023739,6.22352628 Z M0.269111077,7.20086289 L2.30371714,7.20086289 L2.76248021,6.09565612 L3.78955056,6.09565612 L4.24711154,7.20086289 L8.25035674,7.20086289 L8.25035674,6.35589895 L8.60769006,7.20446486 L10.6858734,7.20446486 L11.0432067,6.34329206 L11.0432067,7.20086289 L20.9920396,7.20086289 L20.9873813,5.38666683 L21.1798726,5.38666683 C21.3146614,5.39131938 21.3540312,5.40377625 21.3540312,5.62604825 L21.3540312,7.20086289 L26.499601,7.20086289 L26.499601,6.77853102 C26.9146366,7.00065298 27.5601807,7.20086289 28.4096363,7.20086289 L30.574373,7.20086289 L31.0376441,6.09565612 L32.0647144,6.09565612 L32.5177674,7.20086289 L36.6893109,7.20086289 L36.6893109,6.15103649 L37.3210305,7.20086289 L40.6638552,7.20086289 L40.6638552,0.261052615 L37.3555918,0.261052615 L37.3555918,1.08065262 L36.8923207,0.261052615 L33.4976541,0.261052615 L33.4976541,1.08065262 L33.0722501,0.261052615 L28.4868732,0.261052615 C27.7193128,0.261052615 27.044617,0.368061354 26.499601,0.666275138 L26.499601,0.261052615 L23.3352927,0.261052615 L23.3352927,0.666275138 C22.988478,0.358906338 22.5158904,0.261052615 21.9904091,0.261052615 L10.4299698,0.261052615 L9.65429501,2.05348677 L8.85773322,0.261052615 L5.21647958,0.261052615 L5.21647958,1.08065262 L4.8164706,0.261052615 L1.71106675,0.261052615 L0.268960761,3.56061422 L0.268960761,7.20086289 L0.269111077,7.20086289 L0.269111077,7.20086289 Z" id="AMERICAN"></path>
                                        </g>
                                    </g>
                                </g>
                            </g>
                        </g>
                    </g>
                </g>
            </g>
        </g>
    </g>
</svg>