<?xml version="1.0" encoding="UTF-8" standalone="no"?>
<svg width="29px" height="19px" viewBox="0 0 29 19" version="1.1" xmlns="http://www.w3.org/2000/svg" xmlns:xlink="http://www.w3.org/1999/xlink">
    <!-- Generator: Sketch 41.1 (35376) - http://www.bohemiancoding.com/sketch -->
    <title>money</title>
    <desc>Created with Sketch.</desc>
    <defs></defs>
    <g id="Page-1" stroke="none" stroke-width="1" fill="none" fill-rule="evenodd">
        <g id="A4" transform="translate(-41.000000, -129.000000)">
            <g id="money" transform="translate(42.000000, 130.000000)">
                <polygon id="Stroke-1" stroke="#333332" stroke-width="2" points="0 16.148 22.157 16.148 22.157 3.804 0 3.804"></polygon>
                <polyline id="Stroke-3" stroke="#333332" stroke-width="2" points="4.625 2.2497 4.625 -0.0003 26.782 -0.0003 26.782 12.3437 24.24 12.3437"></polyline>
                <path d="M-0.0001,6.9824 C1.7579,6.9824 3.1829,5.5594 3.1829,3.8034 L-0.0001,3.8034 L-0.0001,6.9824 Z" id="Fill-4" fill="#333332"></path>
                <path d="M-0.0001,6.9824 C1.7579,6.9824 3.1829,5.5594 3.1829,3.8034 L-0.0001,3.8034 L-0.0001,6.9824 L-0.0001,6.9824 Z" id="Stroke-5" stroke="#333332"></path>
                <path d="M18.989,3.8038 C18.989,5.5588 20.414,6.9828 22.172,6.9828 L22.172,3.8038 L18.989,3.8038 Z" id="Fill-6" fill="#333332"></path>
                <path d="M18.989,3.8038 C18.989,5.5588 20.414,6.9828 22.172,6.9828 L22.172,3.8038 L18.989,3.8038 L18.989,3.8038 Z" id="Stroke-7" stroke="#333332"></path>
                <path d="M22.1718,12.9694 C20.4138,12.9694 18.9888,14.3924 18.9888,16.1484 L22.1718,16.1484 L22.1718,12.9694 Z" id="Fill-8" fill="#333332"></path>
                <path d="M22.1718,12.9694 C20.4138,12.9694 18.9888,14.3924 18.9888,16.1484 L22.1718,16.1484 L22.1718,12.9694 L22.1718,12.9694 Z" id="Stroke-9" stroke="#333332"></path>
                <path d="M-0.0001,12.9694 L-0.0001,16.1484 L3.1829,16.1484 C3.1829,14.3924 1.7579,12.9694 -0.0001,12.9694" id="Fill-10" fill="#333332"></path>
                <path d="M-0.0001,12.9694 L-0.0001,16.1484 L3.1829,16.1484 C3.1829,14.3924 1.7579,12.9694 -0.0001,12.9694 L-0.0001,12.9694 Z" id="Stroke-11" stroke="#333332"></path>
                <path d="M13.3784,9.9759 C13.3784,11.1009 12.4654,12.0129 11.3384,12.0129 C10.2124,12.0129 9.2994,11.1009 9.2994,9.9759 C9.2994,8.8509 10.2124,7.9389 11.3384,7.9389 C12.4654,7.9389 13.3784,8.8509 13.3784,9.9759" id="Fill-12" fill="#333332"></path>
                <path d="M13.3784,9.9759 C13.3784,11.1009 12.4654,12.0129 11.3384,12.0129 C10.2124,12.0129 9.2994,11.1009 9.2994,9.9759 C9.2994,8.8509 10.2124,7.9389 11.3384,7.9389 C12.4654,7.9389 13.3784,8.8509 13.3784,9.9759 L13.3784,9.9759 Z" id="Stroke-13" stroke="#333332"></path>
            </g>
        </g>
    </g>
</svg>