<?xml version="1.0" encoding="UTF-8" standalone="no"?>
<svg width="61px" height="37px" viewBox="0 0 61 37" version="1.1" xmlns="http://www.w3.org/2000/svg" xmlns:xlink="http://www.w3.org/1999/xlink">
    <!-- Generator: Sketch 40.3 (33839) - http://www.bohemiancoding.com/sketch -->
    <title>Group 11</title>
    <desc>Created with Sketch.</desc>
    <defs></defs>
    <g id="Page-1" stroke="none" stroke-width="1" fill="none" fill-rule="evenodd">
        <g id="Add-Payment-Method-New" transform="translate(-699.000000, -601.000000)">
            <g id="Payment-Method" transform="translate(490.000000, 180.000000)">
                <g id="Group-2" transform="translate(68.000000, 330.000000)">
                    <g id="Group-4" transform="translate(0.000000, 55.000000)">
                        <g id="Group-8">
                            <g id="Group-13" transform="translate(0.000000, 36.000000)">
                                <g id="Group-12">
                                    <g id="Group-11" transform="translate(141.333333, 0.000000)">
                                        <rect id="base" fill="#F8F8F8" x="0" y="0" width="59.7619048" height="36.3375651"></rect>
                                        <g id="Maestro-light" transform="translate(9.000000, 6.000000)">
                                            <path d="M40.7897923,12.7949591 C40.7897923,19.5360179 35.3277017,25 28.5882178,25 C21.8500839,25 16.3872219,19.5360179 16.3872219,12.7949591 C16.3872219,6.05370756 21.8500839,0.589532555 28.5882178,0.589532555 C35.3277017,0.589532555 40.7897923,6.05370756 40.7897923,12.7949591" id="Fill-356" fill="#CC0000"></path>
                                            <path d="M19.1628139,20.545759 C18.8259169,20.1370405 18.5156322,19.705176 18.2335026,19.2530589 L22.5578184,19.2530589 C22.8173853,18.8387468 23.0516898,18.4070752 23.2609246,17.9605517 L17.530782,17.9605517 C17.3354319,17.542382 17.161873,17.1110962 17.0141552,16.6684302 L23.7765873,16.6684302 C24.1838722,15.4513402 24.4039062,14.1493817 24.4039062,12.7949591 C24.4039062,11.9080843 24.3094131,11.0431982 24.1300689,10.2103305 L16.6616378,10.2103305 C16.756131,9.76997921 16.875308,9.33907921 17.0156979,8.91782329 L23.775816,8.91782329 C23.6275195,8.47515744 23.4549249,8.04406451 23.2597676,7.62589476 L17.5319391,7.62589476 C17.7411739,7.17937122 17.976057,6.74847116 18.2348526,6.33319463 L22.5564685,6.33319463 C22.2745317,5.88223482 21.9634757,5.45114189 21.6271571,5.04184476 L19.1643567,5.04184476 C19.5432936,4.58181939 19.9550138,4.14995494 20.3958533,3.75010909 C18.2302243,1.78598415 15.3558965,0.589532555 12.2031032,0.589532555 C5.46400501,0.589532555 0.00114304328,6.05370756 0.00114304328,12.7949591 C0.00114304328,19.5360179 5.46400501,25 12.2031032,25 C15.3560894,25 18.23061,23.8035484 20.3958533,21.8401951 C20.8372714,21.4395776 21.2495701,21.0067487 21.628507,20.545759 L19.1628139,20.545759" id="Fill-357" fill="#0066CC"></path>
                                            <path d="M20.2219088,16.093254 C19.7004608,16.231358 19.1961758,16.298867 18.6631573,16.2977096 C16.9624731,16.2961666 16.0767444,15.5213566 16.0767444,14.0396315 C16.0767444,12.3085089 17.2042985,11.0352899 18.7348949,11.0352899 C19.9868329,11.0352899 20.7859751,11.749149 20.7859751,12.867676 C20.7859751,13.2387823 20.731979,13.6004374 20.5994957,14.1115767 L17.575136,14.1115767 C17.4675295,14.8352727 17.995727,15.1529506 18.8949548,15.1529506 C19.4335658,15.1529506 19.9204949,15.0561235 20.4600701,14.8391304 L20.2219088,16.093254 L20.2219088,16.093254 L20.2219088,16.093254 Z M19.408689,13.0906484 C19.408689,12.9814768 19.5768483,12.2045451 18.701533,12.1877643 C18.218268,12.1877643 17.8717288,12.509107 17.7315318,13.0906484 L19.408689,13.0906484 L19.408689,13.0906484 L19.408689,13.0906484 Z" id="Fill-359" fill="#000066"></path>
                                            <path d="M21.2464847,12.7511748 C21.2464847,13.390581 21.60633,13.8324754 22.4245637,14.1613405 C23.0499542,14.4174887 23.1483042,14.4917486 23.1483042,14.7207004 C23.1483042,15.0379925 22.8721528,15.1834261 22.2585257,15.1795684 C21.7978234,15.1762894 21.3772323,15.1201605 20.8810468,14.9826351 L20.6613984,16.1489971 C21.1026236,16.2514178 21.7210717,16.2849794 22.269325,16.2977096 C23.9025139,16.2977096 24.6565308,15.7628458 24.6565308,14.6067067 C24.6565308,13.9115573 24.3420036,13.5028388 23.5663883,13.1980841 C22.9180495,12.9388497 22.8420693,12.8831066 22.8420693,12.6483683 C22.8420693,12.3729317 23.0989363,12.2336704 23.5997501,12.2336704 C23.9034782,12.2336704 24.3190552,12.2614455 24.7136124,12.3092804 L24.9348036,11.1365534 C24.5329183,11.0808103 23.923341,11.0360615 23.5702451,11.0360615 C21.840056,11.0360615 21.2412779,11.8151149 21.2464847,12.7511748" id="Fill-360" fill="#000066"></path>
                                            <path d="M15.2477115,16.2141914 L13.9789961,16.2141914 L14.0092725,15.6826066 C13.6224291,16.1019337 13.1069592,16.2973238 12.4077098,16.2973238 C11.5800268,16.2973238 11.0130678,15.731213 11.0130678,14.917055 C11.0130678,13.6795194 11.9986894,12.9656604 13.6933953,12.9656604 C13.8675327,12.9656604 14.0891096,12.9787764 14.3166646,13.0044298 C14.3637183,12.8387435 14.376446,12.767377 14.376446,12.6774936 C14.376446,12.3387915 14.1097438,12.2139963 13.3966097,12.2139963 C12.6935034,12.2166967 12.2191091,12.3210463 11.7788481,12.4392834 L11.9956039,11.3039756 C12.7569489,11.1103213 13.2552556,11.0352899 13.8193219,11.0352899 C15.1316199,11.0352899 15.8246983,11.5502869 15.8246983,12.5174009 C15.8356904,12.7756709 15.7460183,13.2937539 15.7007001,13.520584 C15.6494039,13.8502206 15.2857016,15.7628458 15.2477115,16.2141914 L15.2477115,16.2141914 L15.2477115,16.2141914 Z M14.134042,13.9563061 C13.9734037,13.9404898 13.9034016,13.9356677 13.7932881,13.9356677 C12.9280007,13.9356677 12.4892825,14.193359 12.4892825,14.7019908 C12.4892825,15.0214046 12.7033384,15.2210382 13.03715,15.2210382 C13.6588765,15.2210382 14.1078154,14.7008335 14.134042,13.9563061 L14.134042,13.9563061 L14.134042,13.9563061 Z" id="Fill-361" fill="#000066"></path>
                                            <path d="M27.3297232,16.1339522 C26.9135675,16.2479459 26.5890124,16.2977096 26.2382307,16.2977096 C25.4610726,16.2977096 25.0366247,15.9003712 25.0366247,15.1928773 C25.0121337,14.9984515 25.2020842,14.1003895 25.2452811,13.8502206 C25.2880923,13.5992802 25.9613079,9.94106622 25.9613079,9.94106622 L27.47127,9.94106622 L27.2429437,11.1515982 L28.017402,11.1515982 L27.80701,12.3866264 L27.0290806,12.3866264 C27.0290806,12.3866264 26.6023187,14.5309038 26.6023187,14.6948541 C26.6023187,14.9546671 26.7596787,15.0676964 27.1212596,15.0676964 C27.2940472,15.0676964 27.4276875,15.0514943 27.5308586,15.020633 L27.3297232,16.1339522" id="Fill-362" fill="#000066"></path>
                                            <path d="M34.0767279,11.0352899 C32.9700008,11.0352899 32.105292,11.4914576 31.6029354,12.2521871 L32.0389539,11.1234374 C31.2355692,10.8285197 30.7175923,11.2495827 30.2495619,11.8479049 C30.2495619,11.8479049 30.1710747,11.9472395 30.0927804,12.0380873 L30.0927804,11.1510196 L28.6749973,11.1510196 C28.4829254,12.7166488 28.1433286,14.3044595 27.8777835,15.8735605 L27.8135667,16.2147701 L29.3387635,16.2147701 C29.4835888,15.4185501 29.6023801,14.772393 29.7207859,14.2570103 C30.0447624,12.8431798 30.590123,12.4111225 31.4087423,12.6024622 C31.219756,13.0084804 31.1161992,13.4791142 31.1161992,13.9997048 C31.1161992,15.2636653 31.8019496,16.2977096 33.5057192,16.2977096 C35.2247234,16.2977096 36.4695263,15.3792021 36.4695263,13.2846884 C36.4695263,12.0214994 35.6399148,11.0352899 34.0767279,11.0352899 L34.0767279,11.0352899 L34.0767279,11.0352899 Z M33.6328029,15.0692395 C33.0941918,15.0775335 32.7675155,14.6254163 32.7675155,13.9487837 C32.7675155,13.147163 33.244031,12.2411928 34.0098113,12.2411928 C34.6276809,12.2411928 34.8392299,12.7313079 34.8392299,13.2534414 C34.8392299,14.3937641 34.3719708,15.0692395 33.6328029,15.0692395 L33.6328029,15.0692395 L33.6328029,15.0692395 Z" id="Fill-363" fill="#000066"></path>
                                            <polyline id="Fill-364" fill="#000066" points="10.3024407 16.2147701 8.78341489 16.2147701 9.68611384 11.4575103 7.60784275 16.2147701 6.22322863 16.2147701 5.97021837 11.4854783 5.06462677 16.2147701 3.68656928 16.2147701 4.86021294 10.0267062 7.23391981 10.0267062 7.43158406 13.4764138 8.93537527 10.0267062 11.4996112 10.0267062 10.3024407 16.2147701"></polyline>
                                            <path d="M20.6029669,15.7119248 C20.0819046,15.8502217 19.5774268,15.9177307 19.0446011,15.9165734 C17.343917,15.9150303 16.4581882,15.1400274 16.4581882,13.6584952 C16.4581882,11.9273726 17.5855495,10.6541537 19.1159531,10.6541537 C20.3680839,10.6541537 21.1674189,11.3680127 21.1674189,12.4863468 C21.1674189,12.8574532 21.11323,13.2183368 20.9809396,13.7304404 L17.9567726,13.7304404 C17.8489733,14.4533649 18.3767851,14.7716214 19.2760129,14.7716214 C19.814624,14.7716214 20.3019387,14.6747943 20.8413211,14.4574154 L20.6029669,15.7119248 L20.6029669,15.7119248 L20.6029669,15.7119248 Z M19.7897472,12.7095121 C19.7897472,12.6001476 19.9579064,11.8234088 19.0829769,11.8064351 C18.5997119,11.8064351 18.2531726,12.1277778 18.1125899,12.7095121 L19.7897472,12.7095121 L19.7897472,12.7095121 L19.7897472,12.7095121 Z" id="Fill-366" fill="#FFFFFF"></path>
                                            <path d="M21.6279285,12.3696527 C21.6279285,13.0092519 21.987581,13.4507605 22.8056218,13.7800113 C23.4313981,14.0363524 23.5295552,14.1104194 23.5295552,14.3387926 C23.5295552,14.6566633 23.2532109,14.8020969 22.6401624,14.7984321 C22.1788815,14.7949602 21.7582905,14.7388313 21.2624906,14.601306 L21.0424566,15.7672821 C21.4838746,15.8700886 22.1027084,15.9036502 22.6503831,15.9165734 C24.2835721,15.9165734 25.0379747,15.3815166 25.0379747,14.2249918 C25.0379747,13.5302282 24.7232546,13.1211238 23.9476393,12.8167549 C23.2993005,12.5577134 23.2231274,12.5011988 23.2231274,12.267232 C23.2231274,11.9917954 23.4803802,11.8519555 23.9810011,11.8519555 C24.2847292,11.8519555 24.7001134,11.8803092 25.0948634,11.9281441 L25.3160545,10.7554171 C24.9141694,10.6989025 24.304592,10.6547323 23.9518818,10.6547323 C22.221307,10.6547323 21.6225289,11.4333999 21.6279285,12.3696527" id="Fill-367" fill="#FFFFFF"></path>
                                            <path d="M15.6291553,15.8328623 L14.3600543,15.8328623 L14.3907164,15.3012774 C14.00368,15.7202187 13.4885959,15.915416 12.7891536,15.915416 C11.9616635,15.915416 11.394126,15.3494981 11.394126,14.5353401 C11.394126,13.2981902 12.3799404,12.5843312 14.0746464,12.5843312 C14.2487837,12.5843312 14.4701678,12.5976401 14.6981084,12.6223291 C14.7451622,12.4570286 14.757697,12.3862407 14.757697,12.2961644 C14.757697,11.9566908 14.4911877,11.8324743 13.7782464,11.8324743 C13.0749472,11.8353676 12.600553,11.9397171 12.1604848,12.0581471 L12.376662,10.9226465 C13.1381998,10.7289922 13.6363138,10.6541537 14.2007658,10.6541537 C15.5130637,10.6541537 16.2059493,11.168572 16.2059493,12.1360717 C16.2173271,12.3945346 16.1270765,12.9116532 16.0823368,13.1392548 C16.030462,13.4688915 15.6669526,15.3815166 15.6291553,15.8328623 L15.6291553,15.8328623 L15.6291553,15.8328623 Z M14.515293,13.5751698 C14.3548475,13.5585819 14.2846526,13.5543385 14.1743463,13.5543385 C13.3094446,13.5543385 12.8705335,13.8116441 12.8705335,14.3198901 C12.8705335,14.6398825 13.0849751,14.8399019 13.4182081,14.8399019 C14.0403203,14.8399019 14.4892592,14.3191185 14.515293,13.5751698 L14.515293,13.5751698 L14.515293,13.5751698 Z" id="Fill-368" fill="#FFFFFF"></path>
                                            <path d="M27.7109741,15.752623 C27.2946257,15.8668096 26.9702634,15.9165734 26.6192889,15.9165734 C25.8421307,15.9165734 25.4180686,15.519042 25.4180686,14.8115482 C25.3933846,14.6171224 25.5833352,13.7190604 25.6263392,13.4688915 C25.6695361,13.217951 26.3427517,9.55973707 26.3427517,9.55973707 L27.8525211,9.55973707 L27.6243875,10.7698834 L28.3988458,10.7698834 L28.188261,12.0052973 L27.4105244,12.0052973 C27.4105244,12.0052973 26.9833768,14.1495746 26.9833768,14.3127534 C26.9833768,14.5735309 27.1409297,14.6857886 27.5025107,14.6857886 C27.6752981,14.6857886 27.8087456,14.670358 27.9124953,14.639111 L27.7109741,15.752623" id="Fill-369" fill="#FFFFFF"></path>
                                            <path d="M35.2208665,12.8713407 C35.2208665,14.0126279 34.753029,14.6881032 34.013861,14.6881032 C33.47525,14.6958185 33.1487664,14.2442801 33.1487664,13.5676474 C33.1487664,12.7660268 33.625282,11.8598637 34.3908695,11.8598637 C35.0089319,11.8598637 35.2208665,12.3499787 35.2208665,12.8713407 L35.2208665,12.8713407 L35.2208665,12.8713407 Z M36.8507772,12.9033593 C36.8507772,11.6403631 36.020973,10.6541537 34.4581718,10.6541537 C32.6602946,10.6541537 31.4974502,11.852727 31.4974502,13.6185684 C31.4974502,14.8823361 32.1832006,15.9165734 33.887163,15.9165734 C35.6061673,15.9165734 36.8507772,14.9980658 36.8507772,12.9033593 L36.8507772,12.9033593 L36.8507772,12.9033593 Z" id="Fill-370" fill="#FFFFFF"></path>
                                            <path d="M29.0560554,10.7693047 C28.8641764,12.3353196 28.5243867,13.9229374 28.2590345,15.4918455 L28.1950105,15.8336338 L29.7200145,15.8336338 C30.2696176,12.8032531 30.4541685,11.9401029 31.6060209,12.2438932 L32.1600594,10.8101958 C31.3564819,10.5152781 30.8394692,10.936534 30.3714388,11.535242 C30.4136715,11.2657848 30.4931229,11.005586 30.4740314,10.7693047 L29.0560554,10.7693047" id="Fill-371" fill="#FFFFFF"></path>
                                            <polyline id="Fill-372" fill="#FFFFFF" points="10.6836917 15.8336338 9.16505151 15.8336338 10.0675576 11.076374 7.98909374 15.8336338 6.60447961 15.8336338 6.35127653 11.1041491 5.44568487 15.8336338 4.06782026 15.8336338 5.2412711 9.64537695 7.6151708 9.64537695 7.74051887 13.4764138 9.41150514 9.64537695 11.8808622 9.64537695 10.6836917 15.8336338"></polyline>
                                        </g>
                                    </g>
                                </g>
                            </g>
                        </g>
                    </g>
                </g>
            </g>
        </g>
    </g>
</svg>