<?xml version="1.0" encoding="UTF-8" standalone="no"?>
<svg width="61px" height="37px" viewBox="0 0 61 37" version="1.1" xmlns="http://www.w3.org/2000/svg" xmlns:xlink="http://www.w3.org/1999/xlink">
    <!-- Generator: Sketch 40.3 (33839) - http://www.bohemiancoding.com/sketch -->
    <title>Group 9</title>
    <desc>Created with Sketch.</desc>
    <defs></defs>
    <g id="Page-1" stroke="none" stroke-width="1" fill="none" fill-rule="evenodd">
        <g id="Add-Payment-Method-New" transform="translate(-628.000000, -601.000000)">
            <g id="Payment-Method" transform="translate(490.000000, 180.000000)">
                <g id="Group-2" transform="translate(68.000000, 330.000000)">
                    <g id="Group-4" transform="translate(0.000000, 55.000000)">
                        <g id="Group-8">
                            <g id="Group-13" transform="translate(0.000000, 36.000000)">
                                <g id="Group-12">
                                    <g id="Group-9" transform="translate(70.666667, 0.000000)">
                                        <g id="visa" fill="#F8F8F8">
                                            <rect id="base" x="0" y="0" width="59.7619048" height="36.3375651"></rect>
                                        </g>
                                        <g id="MasterCard-light" transform="translate(6.000000, 4.000000)">
                                            <g id="Payment-badge-set">
                                                <g>
                                                    <g id="Light-Payment-badges">
                                                        <g id="MasterCard-light">
                                                            <path d="M27.5030242,14.734611 C27.5030242,19.9441013 23.2220654,24.1666667 17.9408713,24.1666667 C12.659526,24.1666667 8.378265,19.9441013 8.378265,14.734611 C8.378265,9.52526987 12.659526,5.30225729 17.9408713,5.30225729 C23.2220654,5.30225729 27.5030242,9.52526987 27.5030242,14.734611" id="Fill-333" fill="#CC0000"></path>
                                                            <path d="M30.778912,5.30225729 C28.3075646,5.30225729 26.056544,6.22687512 24.3592116,7.74370741 C24.0139121,8.05285741 23.6915821,8.38675128 23.3940352,8.74225885 L25.3260504,8.74225885 C25.5898985,9.05915997 25.8330438,9.39230854 26.0550329,9.74125752 L22.6649015,9.74125752 C22.4621042,10.0618851 22.2777429,10.3950337 22.1139334,10.7402561 L26.6056988,10.7402561 C26.7592324,11.0635668 26.8943299,11.3965664 27.010689,11.7388076 L21.7089431,11.7388076 C21.5986287,12.064056 21.5055414,12.3973537 21.4311924,12.73721 L27.2881376,12.73721 C27.428373,13.3811482 27.5030242,14.0492342 27.5030242,14.734611 C27.5030242,15.781756 27.3299967,16.7896982 27.010689,17.7310107 L21.7089431,17.7310107 C21.8253023,18.0729538 21.9603998,18.4064006 22.1136312,18.7301584 L26.6056988,18.7301584 C26.441587,19.0744865 26.2581325,19.4079332 26.0541262,19.729008 L22.6649015,19.729008 C22.885984,20.0769135 23.1295826,20.4105093 23.3940352,20.7269632 L25.3254459,20.7269632 C25.0285034,21.0827689 24.7058712,21.4166628 24.3595139,21.7258128 C26.0566952,23.2426451 28.3075646,24.1666667 30.778912,24.1666667 C36.0599551,24.1666667 40.341065,19.9441013 40.341065,14.734611 C40.341065,9.52571705 36.0599551,5.30225729 30.778912,5.30225729" id="Fill-334" fill="#FF9900"></path>
                                                            <path d="M15.7078335,15.7672972 C15.598879,15.7550743 15.5508242,15.7511987 15.4760219,15.7511987 C14.887577,15.7511987 14.5900301,15.9503426 14.5900301,16.3437113 C14.5900301,16.5859335 14.7352524,16.7399122 14.961926,16.7399122 C15.3848991,16.7399122 15.6896996,16.342817 15.7078335,15.7672972 L15.7078335,15.7672972 L15.7078335,15.7672972 Z M16.462959,17.5010115 L15.6025058,17.5010115 L15.622302,17.0978048 C15.359965,17.4161965 15.0098297,17.5682375 14.5342684,17.5682375 C13.9718155,17.5682375 13.5860168,17.1350697 13.5860168,16.5055903 C13.5860168,15.5580172 14.2568198,15.0054526 15.4084731,15.0054526 C15.5264946,15.0054526 15.6773081,15.016185 15.8317484,15.0354137 C15.8637849,14.9069241 15.8722474,14.8523683 15.8722474,14.7830555 C15.8722474,14.5254802 15.691513,14.4288894 15.2065824,14.4288894 C14.6986823,14.4238214 14.2797894,14.5485844 14.1076685,14.6043328 C14.1185488,14.5396408 14.2516818,13.7292028 14.2516818,13.7292028 C14.7688001,13.5792487 15.1100195,13.5232022 15.4940047,13.5232022 C16.3855877,13.5232022 16.8578245,13.9179125 16.8567667,14.6641058 C16.8585801,14.8642931 16.8248813,15.1103907 16.7727464,15.4350429 C16.6826814,15.9984889 16.4892531,17.2069166 16.462959,17.5010115 L16.462959,17.5010115 L16.462959,17.5010115 Z" id="Fill-336" fill="#000066"></path>
                                                            <polyline id="Fill-337" fill="#000066" points="13.151559 17.5010115 12.1132425 17.5010115 12.7083364 13.8234086 11.3801799 17.5010115 10.672807 17.5010115 10.5853109 13.8439789 9.96029605 17.5010115 8.98862164 17.5010115 9.80026445 12.7166397 11.2931372 12.7166397 11.3833533 15.3946477 12.2941281 12.7166397 13.9544371 12.7166397 13.151559 17.5010115"></polyline>
                                                            <path d="M32.0615827,15.7672972 C31.9526282,15.7550743 31.9051779,15.7511987 31.8305267,15.7511987 C31.2416285,15.7511987 30.9443838,15.9503426 30.9443838,16.3437113 C30.9443838,16.5859335 31.0890016,16.7399122 31.3162798,16.7399122 C31.7389506,16.7399122 32.0439022,16.342817 32.0615827,15.7672972 L32.0615827,15.7672972 L32.0615827,15.7672972 Z M32.8171616,17.5010115 L31.9570106,17.5010115 L31.9765046,17.0978048 C31.7141676,17.4161965 31.3641834,17.5682375 30.8889243,17.5682375 C30.3257158,17.5682375 29.9403706,17.1350697 29.9403706,16.5055903 C29.9403706,15.5580172 30.6114758,15.0054526 31.7628268,15.0054526 C31.8806971,15.0054526 32.0312085,15.016185 32.1857999,15.0354137 C32.2179876,14.9069241 32.2262989,14.8523683 32.2262989,14.7830555 C32.2262989,14.5254802 32.0455644,14.4288894 31.5606339,14.4288894 C31.0527338,14.4238214 30.633992,14.5485844 30.4612666,14.6043328 C30.4727515,14.5396408 30.6061867,13.7292028 30.6061867,13.7292028 C31.1230026,13.5792487 31.4645243,13.5232022 31.847905,13.5232022 C32.7400925,13.5232022 33.2117249,13.9179125 33.2108182,14.6641058 C33.2126316,14.8642931 33.179235,15.1103907 33.1267979,15.4350429 C33.037035,15.9984889 32.8431535,17.2069166 32.8171616,17.5010115 L32.8171616,17.5010115 L32.8171616,17.5010115 Z" id="Fill-338" fill="#000066"></path>
                                                            <path d="M21.0765237,17.4418347 C20.7922749,17.5300781 20.5708903,17.5682375 20.3306162,17.5682375 C19.8000487,17.5682375 19.5103597,17.2674348 19.5103597,16.7133796 C19.5029551,16.5413646 19.5866732,16.0889682 19.6525597,15.6763707 C19.7127038,15.3128139 20.1028847,13.0211689 20.1028847,13.0211689 L21.1345521,13.0211689 L21.0141128,13.6101041 L21.6374654,13.6101041 L21.4967766,14.5453051 L20.8713084,14.5453051 C20.7514736,15.2850888 20.5805617,16.2068745 20.5785972,16.3291035 C20.5785972,16.5297379 20.6870983,16.6173851 20.9341726,16.6173851 C21.0524962,16.6173851 21.1440724,16.6054603 21.214039,16.5807164 L21.0765237,17.4418347" id="Fill-339" fill="#000066"></path>
                                                            <path d="M24.2402835,17.4103831 C23.8857659,17.517259 23.5440932,17.5694299 23.1815664,17.5682375 C22.0262863,17.5667469 21.4240899,16.9719983 21.4240899,15.8324363 C21.4240899,14.502525 22.1900958,13.5232022 23.2302257,13.5232022 C24.0808564,13.5232022 24.6244198,14.0714441 24.6244198,14.9309227 C24.6244198,15.2166704 24.5872453,15.495114 24.4970292,15.8880356 L22.4421569,15.8880356 C22.3727948,16.452525 22.7387972,16.6875923 23.3394824,16.6875923 C23.708356,16.6875923 24.0417174,16.6124661 24.4121022,16.4429852 L24.2402835,17.4103831 L24.2402835,17.4103831 L24.2402835,17.4103831 Z M23.6603012,15.1038321 C23.6661947,15.0225945 23.7695579,14.4092135 23.179753,14.4092135 C22.8515296,14.4092135 22.6162423,14.6563547 22.5208882,15.1038321 L23.6603012,15.1038321 L23.6603012,15.1038321 L23.6603012,15.1038321 Z" id="Fill-340" fill="#000066"></path>
                                                            <path d="M17.085556,14.8402944 C17.085556,15.3320426 17.3273412,15.6714518 17.8758915,15.926493 C18.2961445,16.1216123 18.3615776,16.1792984 18.3615776,16.3559343 C18.3615776,16.5981564 18.1760074,16.7081625 17.7654259,16.7081625 C17.4554874,16.7081625 17.1674608,16.6601652 16.8351572,16.5541838 C16.8351572,16.5541838 16.6990018,17.4121718 16.6925039,17.4531633 C16.9283956,17.5035455 17.1387488,17.5504993 17.7728306,17.5682375 C18.8681177,17.5682375 19.3740533,17.1568324 19.3740533,16.2676908 C19.3740533,15.7331625 19.1624913,15.4193916 18.6423507,15.183281 C18.2072884,14.986373 18.1569669,14.9422513 18.1569669,14.7606965 C18.1569669,14.5503731 18.3296922,14.442901 18.6650181,14.442901 C18.8688733,14.442901 19.1470774,14.4643657 19.4110767,14.5011834 L19.5587168,13.5987755 C19.290033,13.5565916 18.8823226,13.5232022 18.6450708,13.5232022 C17.4838972,13.5232022 17.0817781,14.1213791 17.085556,14.8402944" id="Fill-341" fill="#000066"></path>
                                                            <path d="M29.2892127,13.6259044 C29.5775416,13.6259044 29.8468299,13.699838 30.2169125,13.884225 L30.3869177,12.8458746 C30.2342908,12.7868469 29.6991898,12.4408792 29.2458425,12.4408792 C28.5513144,12.4408792 27.963474,12.7813317 27.5507768,13.3419455 C26.9481271,13.1451866 26.7001461,13.5428781 26.3967057,13.9393771 L26.126964,14.001386 C26.1473646,13.8709587 26.1659518,13.7414257 26.1600584,13.6101041 L25.2062156,13.6101041 C25.076256,14.8146561 24.8455022,16.0342633 24.6649189,17.2392625 L24.6176196,17.5010115 L25.6562383,17.5010115 C25.8295682,16.3899199 25.9243177,15.6787557 25.982044,15.1969945 L26.3731316,14.9832428 C26.4319156,14.7684476 26.6143124,14.6963027 26.9812215,14.7050972 C26.9333178,14.958797 26.9073259,15.2260611 26.9073259,15.502567 C26.9073259,16.7756866 27.604574,17.5682375 28.7216219,17.5682375 C29.0094974,17.5682375 29.2567228,17.5309725 29.6394991,17.4281213 L29.8214425,16.337898 C29.4772007,16.5046959 29.1953698,16.5832504 28.9398331,16.5832504 C28.3362766,16.5832504 27.9710298,16.1436731 27.9710298,15.417603 C27.9710298,14.3638994 28.5138376,13.6259044 29.2892127,13.6259044" id="Fill-342" fill="#000066"></path>
                                                            <path d="M38.0784085,12.7166397 L37.8476547,14.0988711 C37.5643126,13.7305444 37.259361,13.4637273 36.8567885,13.4637273 C36.3330213,13.4637273 35.856251,13.8554564 35.5440458,14.4323178 C35.1092857,14.3433291 34.6600185,14.1920334 34.6600185,14.1920334 L34.6597163,14.1957599 C34.6943218,13.8733436 34.70898,13.677181 34.7055044,13.6101041 L33.7518127,13.6101041 C33.6223065,14.8146561 33.3912505,16.0342633 33.2108182,17.2392625 L33.1630656,17.5010115 L34.2019866,17.5010115 C34.342222,16.6030754 34.4493631,15.856584 34.5283966,15.2654129 C34.8835188,14.9488099 35.0612309,14.6734965 35.4192241,14.6913837 C35.2604015,15.0702937 35.1677675,15.5064426 35.1677675,15.95392 C35.1677675,16.926237 35.6661473,17.5682375 36.4211218,17.5682375 C36.8016313,17.5682375 37.093587,17.4387045 37.3782891,17.1387962 L37.3293276,17.5007134 L38.3115801,17.5007134 L39.102369,12.7166397 L38.0784085,12.7166397 L38.0784085,12.7166397 L38.0784085,12.7166397 Z M36.7801728,16.602181 C36.4268642,16.602181 36.2479431,16.3437113 36.2479431,15.8351194 C36.2479431,15.0702937 36.5823623,14.5281633 37.0530879,14.5281633 C37.4098723,14.5281633 37.6033005,14.7958746 37.6033005,15.2901568 C37.6033005,16.0615412 37.26329,16.602181 36.7801728,16.602181 L36.7801728,16.602181 L36.7801728,16.602181 Z" id="Fill-343" fill="#000066"></path>
                                                            <polyline id="Fill-344" fill="#FFFFFF" points="13.4501638 17.2170526 12.4121495 17.2170526 13.0070923 13.5394497 11.679238 17.2170526 10.9715628 17.2170526 10.8842179 13.5607653 10.2590519 17.2170526 9.28737748 17.2170526 10.0990203 12.433128 11.5918931 12.433128 11.633601 15.3946477 12.6409388 12.433128 14.253193 12.433128 13.4501638 17.2170526"></polyline>
                                                            <path d="M16.0065894,15.4839345 C15.897786,15.4714135 15.8497312,15.4679852 15.7749289,15.4679852 C15.1864841,15.4679852 14.888786,15.6668309 14.888786,16.0599015 C14.888786,16.3018255 15.0341594,16.4566987 15.2609841,16.4566987 C15.6838061,16.4566987 15.9886066,16.0596034 16.0065894,15.4839345 L16.0065894,15.4839345 L16.0065894,15.4839345 Z M16.7615638,17.2170526 L15.9015639,17.2170526 L15.921209,16.814144 C15.658872,17.1323866 15.3087367,17.2845767 14.8331754,17.2845767 C14.2705714,17.2845767 13.8849239,16.8508127 13.8849239,16.2214823 C13.8849239,15.2737603 14.5558779,14.721941 15.7075312,14.721941 C15.8252505,14.721941 15.976064,14.7325242 16.1306554,14.7522001 C16.1626919,14.6234124 16.1711544,14.5687075 16.1711544,14.4990966 C16.1711544,14.2416704 15.99042,14.1458249 15.5054894,14.1458249 C14.9974382,14.1398625 14.5786964,14.2646256 14.4064244,14.3202248 C14.4174559,14.255831 14.5504377,13.445393 14.5504377,13.445393 C15.067707,13.295737 15.4089265,13.2392433 15.7929117,13.2392433 C16.6843436,13.2392433 17.1564293,13.6344008 17.1556737,14.3802959 C17.157336,14.5801851 17.1239394,14.8274753 17.0716534,15.1512331 C16.9814373,15.7142319 16.788009,16.9234048 16.7615638,17.2170526 L16.7615638,17.2170526 L16.7615638,17.2170526 Z" id="Fill-345" fill="#FFFFFF"></path>
                                                            <path d="M30.6855225,12.5619157 L30.5155172,13.600117 C30.1448302,13.4163264 29.8762975,13.3419455 29.5882708,13.3419455 C28.813198,13.3419455 28.2694835,14.0808349 28.2694835,15.1346875 C28.2694835,15.8607577 28.6348814,16.2994406 29.2384378,16.2994406 C29.4941257,16.2994406 29.7765611,16.2214823 30.1200473,16.0540882 L29.9376505,17.1443114 C29.5554787,17.2470136 29.3081022,17.2845767 29.0203777,17.2845767 C27.9025744,17.2845767 27.206384,16.4918768 27.206384,15.2190553 C27.206384,13.5087434 28.1688404,12.3134331 29.5445984,12.3134331 C29.9979457,12.3134331 30.5333489,12.502888 30.6855225,12.5619157" id="Fill-346" fill="#FFFFFF"></path>
                                                            <path d="M32.3601875,15.4839345 C32.2519886,15.4714135 32.2037827,15.4679852 32.1291315,15.4679852 C31.5409889,15.4679852 31.2431397,15.6668309 31.2431397,16.0599015 C31.2431397,16.3018255 31.3883619,16.4566987 31.6150356,16.4566987 C32.0377065,16.4566987 32.3428092,16.0596034 32.3601875,15.4839345 L32.3601875,15.4839345 L32.3601875,15.4839345 Z M33.1157664,17.2170526 L32.2557665,17.2170526 L32.2752605,16.814144 C32.0129234,17.1323866 31.6627882,17.2845767 31.1876802,17.2845767 C30.6244717,17.2845767 30.2392776,16.8508127 30.2392776,16.2214823 C30.2392776,15.2737603 30.9096272,14.721941 32.0615827,14.721941 C32.1793019,14.721941 32.3298132,14.7325242 32.4842535,14.7522001 C32.5164412,14.6234124 32.5249037,14.5687075 32.5249037,14.4990966 C32.5249037,14.2416704 32.3446226,14.1458249 31.8593898,14.1458249 C31.351792,14.1398625 30.9332012,14.2646256 30.760627,14.3202248 C30.7715074,14.255831 30.9046404,13.445393 30.9046404,13.445393 C31.4219096,13.295737 31.7628268,13.2392433 32.146812,13.2392433 C33.038244,13.2392433 33.510783,13.6344008 33.5095741,14.3802959 C33.5116897,14.5801851 33.4779909,14.8274753 33.4257049,15.1512331 C33.3357909,15.7142319 33.1423627,16.9234048 33.1157664,17.2170526 L33.1157664,17.2170526 L33.1157664,17.2170526 Z" id="Fill-347" fill="#FFFFFF"></path>
                                                            <path d="M21.3751284,17.1580249 C21.0911819,17.2462683 20.869495,17.2845767 20.6295232,17.2845767 C20.0988046,17.2845767 19.8089645,16.983625 19.8089645,16.430166 C19.8017109,16.2575548 19.8855802,15.8059037 19.9516178,15.392859 C20.0113085,15.0290041 20.4016406,12.7376572 20.4016406,12.7376572 L21.4336102,12.7376572 L21.3128687,13.3264433 L21.8426806,13.3264433 L21.7015385,14.2613462 L21.1700643,14.2613462 C21.0502295,15.0018752 20.8793176,15.9230647 20.877202,16.0452937 C20.877202,16.2465244 20.9861564,16.3335753 21.2329285,16.3335753 C21.3512521,16.3335753 21.4426771,16.3220977 21.512946,16.2967575 L21.3751284,17.1580249" id="Fill-348" fill="#FFFFFF"></path>
                                                            <path d="M24.5394928,17.1271695 C24.184824,17.2343435 23.8423957,17.2848748 23.4803223,17.2845767 C22.3248911,17.2838314 21.723148,16.6883376 21.723148,15.5489246 C21.723148,14.2185661 22.4890028,13.2392433 23.5283771,13.2392433 C24.3799145,13.2392433 24.9231757,13.7874852 24.9231757,14.6480073 C24.9231757,14.9331586 24.8853968,15.2114533 24.7962385,15.6045239 L22.7410639,15.6045239 C22.6713995,16.1690133 23.0378553,16.4045277 23.637936,16.4045277 C24.0071119,16.4045277 24.3403222,16.3291035 24.7111603,16.1591754 L24.5394928,17.1271695 L24.5394928,17.1271695 L24.5394928,17.1271695 Z M23.9593593,14.8198732 C23.9649506,14.7384866 24.0687671,14.1254037 23.4791134,14.1254037 C23.1505877,14.1254037 22.9153004,14.372992 22.8196441,14.8198732 L23.9593593,14.8198732 L23.9593593,14.8198732 L23.9593593,14.8198732 Z" id="Fill-349" fill="#FFFFFF"></path>
                                                            <path d="M17.3841608,14.5563355 C17.3841608,15.0489781 17.6262482,15.3876419 18.1749496,15.6429813 C18.5952026,15.8379515 18.6603335,15.8956377 18.6603335,16.0724225 C18.6603335,16.3149428 18.4749144,16.4243527 18.0640307,16.4243527 C17.7543944,16.4243527 17.4662166,16.3769517 17.1337619,16.2712683 C17.1337619,16.2712683 16.9977577,17.1286601 16.9914109,17.1690554 C17.2271515,17.2200338 17.4376558,17.2665405 18.0714353,17.2845767 C19.1670247,17.2845767 19.6729603,16.8733208 19.6729603,15.9841792 C19.6729603,15.4493527 19.461096,15.1357309 18.9411066,14.9002164 C18.5058932,14.7027122 18.4558739,14.6590377 18.4558739,14.4771848 C18.4558739,14.2668615 18.6284481,14.158644 18.9640762,14.158644 C19.167478,14.158644 19.4459844,14.181003 19.7098326,14.2176717 L19.8576238,13.3154129 C19.5887888,13.2735271 19.1813807,13.2392433 18.9439778,13.2392433 C17.7825019,13.2392433 17.3806851,13.8375693 17.3841608,14.5563355" id="Fill-350" fill="#FFFFFF"></path>
                                                            <path d="M38.610336,17.2170526 L37.6283857,17.2170526 L37.677045,16.8549864 C37.3921917,17.1550437 37.1003871,17.2845767 36.7198776,17.2845767 C35.9655077,17.2845767 35.4663723,16.6433215 35.4663723,15.6699612 C35.4663723,14.3758241 36.2402362,13.2850047 37.1555444,13.2850047 C37.5581169,13.2850047 37.8629174,13.4471817 38.1468639,13.8156575 L38.3771644,12.433128 L39.4009737,12.433128 L38.610336,17.2170526 L38.610336,17.2170526 L38.610336,17.2170526 Z M37.0787776,16.3180731 C37.5624992,16.3180731 37.9019052,15.7777313 37.9019052,15.0070923 C37.9019052,14.512661 37.7086282,14.2440553 37.3518438,14.2440553 C36.8809671,14.2440553 36.546699,14.7863348 36.546699,15.5514586 C36.546699,16.0606468 36.7257712,16.3180731 37.0787776,16.3180731 L37.0787776,16.3180731 L37.0787776,16.3180731 Z" id="Fill-351" fill="#FFFFFF"></path>
                                                            <path d="M34.0508708,13.3264433 C33.9210624,14.5306973 33.6901575,15.7503044 33.5095741,16.9554527 L33.4622749,17.2170526 L34.5005913,17.2170526 C34.8720339,14.8377604 34.9613433,14.3734392 35.5440458,14.4314235 C35.6366798,13.9444452 35.8094051,13.5179851 35.9380046,13.3030409 C35.5032445,13.213605 35.2604015,13.4559763 34.9421517,13.916571 C34.9675391,13.7172781 35.0133272,13.5239475 35.0047136,13.3264433 L34.0508708,13.3264433" id="Fill-352" fill="#FFFFFF"></path>
                                                            <path d="M25.5054248,13.3264433 C25.3750119,14.5306973 25.1438047,15.7503044 24.9635236,16.9554527 L24.9163755,17.2170526 L25.9549942,17.2170526 C26.3265879,14.8377604 26.4155951,14.3734392 26.9973908,14.4314235 C27.0906293,13.9444452 27.2636568,13.5179851 27.3919541,13.3030409 C26.9576474,13.213605 26.714351,13.4559763 26.3967057,13.916571 C26.4217909,13.7172781 26.4678812,13.5239475 26.4588142,13.3264433 L25.5054248,13.3264433" id="Fill-353" fill="#FFFFFF"></path>
                                                        </g>
                                                    </g>
                                                </g>
                                            </g>
                                        </g>
                                    </g>
                                </g>
                            </g>
                        </g>
                    </g>
                </g>
            </g>
        </g>
    </g>
</svg>