<?xml version="1.0" encoding="UTF-8" standalone="no"?>
<svg width="60px" height="37px" viewBox="0 0 60 37" version="1.1" xmlns="http://www.w3.org/2000/svg" xmlns:xlink="http://www.w3.org/1999/xlink">
    <!-- Generator: Sketch 40.3 (33839) - http://www.bohemiancoding.com/sketch -->
    <title>paypal</title>
    <desc>Created with Sketch.</desc>
    <defs></defs>
    <g id="Page-1" stroke="none" stroke-width="1" fill="none" fill-rule="evenodd">
        <g id="Add-Payment-Method-New" transform="translate(-558.000000, -786.000000)">
            <g id="Payment-Method" transform="translate(490.000000, 180.000000)">
                <g id="Group-2" transform="translate(68.000000, 330.000000)">
                    <g id="Group-7" transform="translate(0.000000, 276.000000)">
                        <g id="Group-14">
                            <g id="paypal">
                                <rect id="base" fill="#F8F8F8" x="0" y="0" width="59.8864087" height="36.3375651"></rect>
                                <g id="Paypal-light" transform="translate(8.000000, 12.000000)">
                                    <g id="Payment-badge-set">
                                        <g>
                                            <g id="Light-Payment-badges">
                                                <g id="Paypal-light" transform="translate(21.500000, 6.000000) scale(1, -1) translate(-21.500000, -6.000000) ">
                                                    <path d="M29.2475667,8.5002508 C29.0670685,7.3242798 28.1620231,7.3242798 27.2863512,7.3242798 L26.7882782,7.3242798 L27.1377807,9.51993253 C27.1586402,9.6525672 27.2740058,9.7501424 27.4093795,9.7501424 L27.6379822,9.7501424 C28.233967,9.7501424 28.7967469,9.7501424 29.0870765,9.41348693 C29.2607636,9.21200047 29.3131251,8.91293893 29.2475667,8.5002508 M28.8665622,11.5685889 L25.5648066,11.5685889 C25.3387581,11.5685889 25.1467659,11.4055412 25.1114325,11.1842019 L23.7764267,2.78344353 C23.750033,2.6178614 23.8794469,2.4679082 24.0480254,2.4679082 L25.7423249,2.4679082 C25.9002609,2.4679082 26.0347832,2.58195707 26.059474,2.73655673 L26.43835,5.1184894 C26.4732577,5.33982873 26.6656756,5.50287647 26.8912984,5.50287647 L27.9359745,5.50287647 C30.1108932,5.50287647 31.3662926,6.5470576 31.6940842,8.61725653 C31.8418033,9.5220446 31.700044,10.2333719 31.2730635,10.7313855 C30.8035127,11.2788202 29.9712626,11.5685889 28.8665622,11.5685889" id="Shape" fill="#0079C1"></path>
                                                    <path d="M5.69778225,8.5002508 C5.51728398,7.3242798 4.61223852,7.3242798 3.73656663,7.3242798 L3.23849367,7.3242798 L3.58799619,9.51993253 C3.60885562,9.6525672 3.72422127,9.7501424 3.85959494,9.7501424 L4.08819765,9.7501424 C4.68418242,9.7501424 5.24696233,9.7501424 5.53729208,9.41348693 C5.71097902,9.21200047 5.76334052,8.91293893 5.69778225,8.5002508 M5.31677766,11.5685889 L2.01502213,11.5685889 C1.78897361,11.5685889 1.59698137,11.4055412 1.561648,11.1842019 L0.226642116,2.78344353 C0.200248514,2.6178614 0.329236622,2.4679082 0.498240866,2.4679082 L2.0750463,2.4679082 C2.30066904,2.4679082 2.49266129,2.63095587 2.52799472,2.85187287 L2.88856545,5.1184894 C2.92347318,5.33982873 3.11589106,5.50287647 3.34151387,5.50287647 L4.38619007,5.50287647 C6.56110871,5.50287647 7.81650809,6.5470576 8.14429971,8.61725653 C8.29201875,9.5220446 8.15025951,10.2333719 7.72327905,10.7313855 C7.25372818,11.2788202 6.42147803,11.5685889 5.31677766,11.5685889" id="Shape" fill="#00457C"></path>
                                                    <path d="M12.9821209,5.4843752 C12.8292934,4.5880352 12.1124088,3.9861104 11.1975722,3.9861104 C10.7390896,3.9861104 10.3717076,4.1326844 10.1358679,4.409781 C9.90215677,4.6843432 9.81403613,5.07591113 9.88810854,5.511409 C10.0302935,6.40014567 10.7590977,7.02107867 11.6598861,7.02107867 C12.1090032,7.02107867 12.4734053,6.87323747 12.7139277,6.59360647 C12.956153,6.3118634 13.0515105,5.91818347 12.9821209,5.4843752 M15.1855617,8.5379292 L13.6044992,8.5379292 C13.4691256,8.5379292 13.3537599,8.440354 13.3324748,8.30729693 L13.2630851,7.86884227 L13.1528279,8.02766593 C12.8101367,8.52061067 12.0468505,8.68577033 11.2848414,8.68577033 C9.53818032,8.68577033 8.04608992,7.37209587 7.75576017,5.52999473 C7.60463546,4.610845 7.81919001,3.7326684 8.34450797,3.11976107 C8.82682997,2.5566974 9.51519238,2.32226353 10.3355228,2.32226353 C11.7437497,2.32226353 12.5244897,3.21944827 12.5244897,3.21944827 L12.4538229,2.783528 C12.4274293,2.61794587 12.5564174,2.46799267 12.7258474,2.46799267 L14.1493996,2.46799267 C14.3754481,2.46799267 14.5674404,2.630618 14.6027737,2.85195733 L15.4575862,8.22239387 C15.4839798,8.387976 15.3545659,8.5379292 15.1855617,8.5379292" id="Shape" fill="#00457C"></path>
                                                    <path d="M36.5319479,5.4843752 C36.3791204,4.5880352 35.6622359,3.9861104 34.7473993,3.9861104 C34.2889168,3.9861104 33.9215347,4.1326844 33.685695,4.409781 C33.4515581,4.6843432 33.3638633,5.07591113 33.4379356,5.511409 C33.5801205,6.40014567 34.3089248,7.02107867 35.2097132,7.02107867 C35.6588303,7.02107867 36.0232324,6.87323747 36.2637548,6.59360647 C36.50598,6.3118634 36.6013376,5.91818347 36.5319479,5.4843752 M38.7353888,8.5379292 L37.1543263,8.5379292 C37.0189526,8.5379292 36.9035871,8.440354 36.8823019,8.30729693 L36.8129122,7.86884227 L36.7022293,8.02766593 C36.3599638,8.52061067 35.5966776,8.68577033 34.8346685,8.68577033 C33.0880074,8.68577033 31.595917,7.37209587 31.3055873,5.52999473 C31.1544626,4.610845 31.3690171,3.7326684 31.8943351,3.11976107 C32.376657,2.5566974 33.0650194,2.32226353 33.8853499,2.32226353 C35.2935768,2.32226353 36.0743168,3.21944827 36.0743168,3.21944827 L36.0036501,2.783528 C35.9772564,2.61794587 36.1062446,2.46799267 36.2756745,2.46799267 L37.6992267,2.46799267 C37.9252752,2.46799267 38.1172674,2.630618 38.1526008,2.85195733 L39.0074132,8.22239387 C39.0338069,8.387976 38.904393,8.5379292 38.7353888,8.5379292" id="Shape" fill="#0079C1"></path>
                                                    <path d="M23.606273,8.53788693 L22.0171222,8.53788693 C21.8651461,8.53788693 21.7229611,8.46312153 21.6378204,8.33809013 L19.4454479,5.13458293 L18.5165631,8.21305873 C18.4582417,8.40567467 18.2794463,8.53788693 18.0768115,8.53788693 L16.5149057,8.53788693 C16.3263191,8.53788693 16.1934996,8.35371907 16.2543752,8.17673207 L18.0040162,3.08001293 L16.3582468,0.775802533 C16.2292587,0.595013867 16.3595239,0.344951067 16.5830183,0.344951067 L18.1704662,0.344951067 C18.3207395,0.344951067 18.4616473,0.418026867 18.5476394,0.5405238 L23.8323215,8.10914753 C23.9587554,8.29035853 23.8284902,8.53788693 23.606273,8.53788693" id="Shape" fill="#00457C"></path>
                                                    <path d="M40.5988629,11.3377455 L39.2438489,2.78323233 C39.2174553,2.6176502 39.3464435,2.467697 39.5154477,2.467697 L40.87855,2.467697 C41.1041728,2.467697 41.2965907,2.63074467 41.3314984,2.85208407 L42.6677814,11.2528424 C42.694175,11.4184245 42.5651869,11.5683777 42.3957569,11.5683777 L40.8708873,11.5683777 C40.7350879,11.5683777 40.6197223,11.4708025 40.5988629,11.3377455" id="Shape" fill="#0079C1"></path>
                                                </g>
                                            </g>
                                        </g>
                                    </g>
                                </g>
                            </g>
                        </g>
                    </g>
                </g>
            </g>
        </g>
    </g>
</svg>