<?xml version="1.0" encoding="UTF-8" standalone="no"?>
<svg width="60px" height="37px" viewBox="0 0 60 37" version="1.1" xmlns="http://www.w3.org/2000/svg" xmlns:xlink="http://www.w3.org/1999/xlink">
    <!-- Generator: Sketch 40.3 (33839) - http://www.bohemiancoding.com/sketch -->
    <title>Group 3</title>
    <desc>Created with Sketch.</desc>
    <defs></defs>
    <g id="Page-1" stroke="none" stroke-width="1" fill="none" fill-rule="evenodd">
        <g id="Add-Payment-Method-New" transform="translate(-558.000000, -601.000000)">
            <g id="Payment-Method" transform="translate(490.000000, 180.000000)">
                <g id="Group-2" transform="translate(68.000000, 330.000000)">
                    <g id="Group-4" transform="translate(0.000000, 55.000000)">
                        <g id="Group-8">
                            <g id="Group-13" transform="translate(0.000000, 36.000000)">
                                <g id="Group-12">
                                    <g id="Group-3">
                                        <g id="visa" fill="#F8F8F8">
                                            <rect id="base" x="0" y="0" width="59.7619048" height="36.3375651"></rect>
                                        </g>
                                        <g id="Visa-light" transform="translate(12.000000, 13.000000)">
                                            <polyline id="Fill-1" fill="#26337A" points="13.0349125 11.7280564 14.899917 0.28360566 17.8810599 0.28360566 16.0162258 11.7280564 13.0349125 11.7280564"></polyline>
                                            <path d="M26.8297742,0.56450706 C26.2403318,0.33481692 25.3132857,0.08433804 24.1584424,0.08433804 C21.2110599,0.08433804 19.1363318,1.63740846 19.1191106,3.8612958 C19.1003548,5.50630986 20.5996221,6.42371832 21.7299125,6.97047888 C22.891576,7.53092958 23.2818664,7.88957748 23.2772626,8.3907042 C23.2692489,9.15718308 22.3500461,9.50839434 21.4929079,9.50839434 C20.2993594,9.50839434 19.6652442,9.33549294 18.6848295,8.90822538 L18.3013594,8.72602818 L17.8844701,11.2877746 C18.5796267,11.6065352 19.868318,11.8832113 21.2057742,11.8977465 C24.3381567,11.8977465 26.3734977,10.3634366 26.3973687,7.98861972 C26.4081106,6.68416902 25.6137189,5.69543664 23.8933042,4.8790986 C22.8515069,4.34839434 22.212106,3.9968451 22.2194378,3.45971832 C22.2201198,2.98411266 22.7596037,2.47487322 23.927235,2.47487322 C24.902364,2.45932392 25.6082626,2.68208448 26.158318,2.9146479 L26.4260138,3.04546476 L26.8297742,0.56450706" id="Fill-2" fill="#26337A"></path>
                                            <path d="M30.7993456,7.67053524 C31.0464101,7.01273238 31.9869263,4.47160566 31.9869263,4.47160566 C31.9695346,4.50185916 32.2326267,3.80873238 32.3831843,3.37977462 L32.5843825,4.36681692 C32.5843825,4.36681692 33.1564332,7.09842252 33.2742535,7.67053524 L30.7993456,7.67053524 L30.7993456,7.67053524 L30.7993456,7.67053524 Z M34.4771797,0.29526762 L32.1732903,0.29526762 C31.4586958,0.29526762 30.9238157,0.4977465 30.610765,1.24394364 L26.183553,11.7321127 L29.3147419,11.7321127 C29.3147419,11.7321127 29.8255806,10.3211831 29.9415253,10.0115493 C30.2830507,10.0115493 33.325576,10.0174648 33.7598572,10.0174648 C33.8492028,10.4168451 34.1228664,11.7321127 34.1228664,11.7321127 L36.8898525,11.7321127 L34.4771797,0.29526762 L34.4771797,0.29526762 L34.4771797,0.29526762 Z" id="Fill-3" fill="#26337A"></path>
                                            <path d="M10.533917,0.29323944 L7.61603226,8.09560566 L7.30349308,6.50957748 C6.75974654,4.6821972 5.0671244,2.70152112 3.17381566,1.70907042 L5.84327189,11.7180845 L8.99833182,11.7162254 L13.6930691,0.29323944 L10.533917,0.29323944" id="Fill-4" fill="#26337A"></path>
                                            <path d="M4.90735943,0.28546476 L0.0999170443,0.28546476 L0.0603594344,0.52259154 C3.80111063,1.47059154 6.27618893,3.75887322 7.30349308,6.50957748 L6.25879723,1.25104224 C6.07857145,0.5258028 5.55477421,0.31081692 4.90735943,0.28546476" id="Fill-5" fill="#ED982D"></path>
                                        </g>
                                    </g>
                                </g>
                            </g>
                        </g>
                    </g>
                </g>
            </g>
        </g>
    </g>
</svg>