<?xml version="1.0" encoding="UTF-8" standalone="no"?>
<svg width="40px" height="40px" viewBox="0 0 47 47" version="1.1" xmlns="http://www.w3.org/2000/svg" xmlns:xlink="http://www.w3.org/1999/xlink">
    <!-- Generator: Sketch 41 (35326) - http://www.bohemiancoding.com/sketch -->
    <title>Icon</title>
    <desc>Created with Sketch.</desc>
    <defs></defs>
    <g id="Page-1" stroke="none" stroke-width="1" fill="none" fill-rule="evenodd">
        <g id="Settings-Main" transform="translate(-697.000000, -560.000000)">
            <g id="Address" transform="translate(490.000000, 530.000000)">
                <g id="Icon" transform="translate(207.000000, 30.000000)">
                    <g id="XMLID_1151_" transform="translate(5.000000, 5.000000)" fill="#83B6CB" opacity="0.119999997">
                        <path d="M21,0.446808511 C9.56170213,0.446808511 0.268085106,9.74042553 0.268085106,21.1787234 C0.268085106,32.6170213 9.56170213,41.9106383 21,41.9106383 C32.4382979,41.9106383 41.7319149,32.6170213 41.7319149,21.1787234 C41.7319149,9.74042553 32.4382979,0.446808511 21,0.446808511 Z" id="XMLID_1152_"></path>
                    </g>
                    <g id="XMLID_1151_" fill="#3B434D">
                        <path d="M21,0.446808511 C9.56170213,0.446808511 0.268085106,9.74042553 0.268085106,21.1787234 C0.268085106,32.6170213 9.56170213,41.9106383 21,41.9106383 C32.4382979,41.9106383 41.7319149,32.6170213 41.7319149,21.1787234 C41.7319149,9.74042553 32.4382979,0.446808511 21,0.446808511 L21,0.446808511 Z M21.4468085,40.0340426 L21.4468085,36.3702128 L20.5531915,36.3702128 L20.5531915,40.0340426 C10.4553191,39.7659574 2.32340426,31.6340426 2.14468085,21.6255319 L5.80851064,21.6255319 L5.80851064,20.7319149 L2.14468085,20.7319149 C2.41276596,10.6340426 10.5446809,2.50212766 20.5531915,2.32340426 L20.5531915,5.98723404 L21.4468085,5.98723404 L21.4468085,2.32340426 C31.5446809,2.59148936 39.6765957,10.7234043 39.8553191,20.7319149 L36.1914894,20.7319149 L36.1914894,21.6255319 L39.8553191,21.6255319 C39.6765957,31.6340426 31.5446809,39.7659574 21.4468085,40.0340426 L21.4468085,40.0340426 Z" id="XMLID_1152_"></path>
                        <path d="M11.6170213,30.4723404 L24.9319149,25.1106383 L30.293617,11.7957447 L16.9787234,17.1574468 L11.6170213,30.4723404 L11.6170213,30.4723404 Z M24.3957447,23.9489362 L18.1404255,17.6042553 L28.6851064,13.3148936 L24.3957447,23.9489362 L24.3957447,23.9489362 Z" id="XMLID_1155_"></path>
                    </g>
                </g>
            </g>
        </g>
    </g>
</svg>