<?xml version="1.0" encoding="UTF-8" standalone="no"?>
<svg width="26px" height="21px" viewBox="0 0 26 21" version="1.1" xmlns="http://www.w3.org/2000/svg" xmlns:xlink="http://www.w3.org/1999/xlink">
    <!-- Generator: Sketch 40.2 (33826) - http://www.bohemiancoding.com/sketch -->
    <title>bag</title>
    <desc>Created with Sketch.</desc>
    <defs></defs>
    <g id="Page-1" stroke="none" stroke-width="1" fill="none" fill-rule="evenodd">
        <g id="A4-Copy" transform="translate(-123.000000, -283.000000)" fill="#333332">
            <path d="M124,302.405 L124,293.817 L129.23,294.596 L129.23,296.349 L130.23,296.349 L130.23,294.745 L135.981,295.601 L136.058,295.613 L140.941,294.825 L140.941,296.349 L141.941,296.349 L141.941,294.664 L147.172,293.821 L147.172,302.405 L124,302.405 Z M147.172,287.809 L147.172,292.809 L141.941,293.652 L141.941,292.832 L140.941,292.832 L140.941,293.813 L136.052,294.601 L130.23,293.734 L130.23,292.832 L129.23,292.832 L129.23,293.585 L124,292.806 L124,287.809 L147.172,287.809 Z M132.53,286.74 L138.643,286.74 L138.643,284 L132.53,284 L132.53,286.74 Z M139.643,286.809 L139.643,283.813 C139.643,283.366 139.247,283 138.764,283 L132.408,283 C131.925,283 131.53,283.366 131.53,283.813 L131.53,286.809 L123,286.809 L123,303.405 L148.172,303.405 L148.172,286.809 L139.643,286.809 Z" id="bag"></path>
        </g>
    </g>
</svg>