<?xml version="1.0" encoding="UTF-8" standalone="no"?>
<svg width="26px" height="21px" viewBox="0 0 26 21" version="1.1" xmlns="http://www.w3.org/2000/svg" xmlns:xlink="http://www.w3.org/1999/xlink">
    <!-- Generator: Sketch 40.2 (33826) - http://www.bohemiancoding.com/sketch -->
    <title>baggie</title>
    <desc>Created with Sketch.</desc>
    <defs></defs>
    <g id="Page-1" stroke="none" stroke-width="1" fill="none" fill-rule="evenodd">
        <g id="A4-Copy" transform="translate(-160.000000, -288.000000)" fill="#333332">
            <path d="M161,307.405 L161,298.817 L172.5,300.53 L172.5,301.723 L173.5,301.723 L173.5,300.541 L184.172,298.821 L184.172,307.405 L161,307.405 Z M184.172,292.809 L184.172,297.809 L173.5,299.529 L173.5,298.206 L172.5,298.206 L172.5,299.519 L161,297.806 L161,292.809 L184.172,292.809 Z M169.53,291.74 L175.642,291.74 L175.642,289 L169.53,289 L169.53,291.74 Z M176.642,291.809 L176.642,288.813 C176.642,288.366 176.247,288 175.764,288 L169.408,288 C168.925,288 168.53,288.366 168.53,288.813 L168.53,291.809 L160,291.809 L160,308.405 L185.172,308.405 L185.172,291.809 L176.642,291.809 Z" id="baggie"></path>
        </g>
    </g>
</svg>