<?xml version="1.0" encoding="UTF-8" standalone="no"?>
<svg width="22px" height="26px" viewBox="0 0 22 26" version="1.1" xmlns="http://www.w3.org/2000/svg" xmlns:xlink="http://www.w3.org/1999/xlink">
    <!-- Generator: Sketch 40.2 (33826) - http://www.bohemiancoding.com/sketch -->
    <title>blazer</title>
    <desc>Created with Sketch.</desc>
    <defs></defs>
    <g id="Page-1" stroke="none" stroke-width="1" fill="none" fill-rule="evenodd">
        <g id="A4-Copy" transform="translate(-101.000000, -25.000000)">
            <g id="blazer" transform="translate(102.000000, 25.000000)">
                <g id="Group-4" transform="translate(4.000000, 0.177200)">
                    <path d="M0.3958,1.9659 C0.3958,1.9659 2.1468,0.3229 5.9748,0.3229 C9.8028,0.3229 11.0578,1.3429 11.6808,1.9659" id="Fill-1" fill="#FEFEFE"></path>
                    <path d="M0.3958,1.9659 C0.3958,1.9659 2.1468,0.3229 5.9748,0.3229 C9.8028,0.3229 11.0578,1.3429 11.6808,1.9659" id="Stroke-3" stroke="#333332"></path>
                </g>
                <path d="M9.8626,22.208 C9.7506,21.827 7.1366,9.528 6.5026,4.126" id="Stroke-5" stroke="#333332"></path>
                <path d="M9.8747,24.5632 C9.8747,23.3182 10.0537,22.6302 10.3157,21.7502 C11.6937,17.1112 13.5387,7.3262 13.8647,3.3592" id="Stroke-7" stroke="#333332"></path>
                <path d="M3.9834,5.8191 L2.3594,6.5761 C2.3594,6.5761 6.0824,18.5581 9.8744,22.9521" id="Stroke-9" stroke="#333332"></path>
                <path d="M10.0092,24.5605 C13.8162,19.8905 17.9222,6.5755 17.9222,6.5755 L16.2982,5.8195" id="Stroke-11" stroke="#333332"></path>
                <path d="M3.8067,4.1001 L2.4997,4.4931 C1.3997,4.8251 0.4997,5.3931 0.4997,6.4931 L0.4997,22.6771 C0.4997,23.7771 1.3997,24.6771 2.4997,24.6771 L17.7247,24.6771 C18.8247,24.6771 19.7247,23.7771 19.7247,22.6771 L19.7247,6.4931 C19.7247,5.3931 18.8137,4.7241 17.7017,4.3411 L16.2137,3.8551" id="Stroke-13" stroke="#333332"></path>
                <path d="M9.6658,5.1625 L4.4288,7.2415 C3.5648,4.4005 4.2078,2.2035 4.3148,2.1975 C4.4218,2.1915 9.6658,5.1625 9.6658,5.1625" id="Fill-15" fill="#FEFEFE"></path>
                <path d="M9.6658,5.1625 L4.4288,7.2415 C3.5648,4.4005 4.2078,2.2035 4.3148,2.1975 C4.4218,2.1915 9.6658,5.1625 9.6658,5.1625 L9.6658,5.1625 Z" id="Stroke-17" stroke="#333332"></path>
                <path d="M10.4189,5.1625 L15.6559,7.2415 C16.5199,4.4005 15.8769,2.2035 15.7699,2.1975 C15.6629,2.1915 10.4189,5.1625 10.4189,5.1625" id="Fill-19" fill="#FEFEFE"></path>
                <path d="M10.4189,5.1625 L15.6559,7.2415 C16.5199,4.4005 15.8769,2.2035 15.7699,2.1975 C15.6629,2.1915 10.4189,5.1625 10.4189,5.1625 L10.4189,5.1625 Z" id="Stroke-21" stroke="#333332"></path>
                <polyline id="Stroke-23" stroke="#333332" points="11.4378 5.7545 10.1478 7.8995 8.6938 5.4815"></polyline>
                <path d="M8.5119,15.685 C8.5119,15.685 9.7639,7.725 10.1479,7.725 C10.5309,7.725 11.8259,15.55 11.8259,15.55" id="Stroke-25" stroke="#333332"></path>
            </g>
        </g>
    </g>
</svg>