<?xml version="1.0" encoding="UTF-8" standalone="no"?>
<svg width="37px" height="23px" viewBox="0 0 37 23" version="1.1" xmlns="http://www.w3.org/2000/svg" xmlns:xlink="http://www.w3.org/1999/xlink">
    <!-- Generator: Sketch 40.2 (33826) - http://www.bohemiancoding.com/sketch -->
    <title>boxie</title>
    <desc>Created with Sketch.</desc>
    <defs>
        <polygon id="path-1" points="13.236 9.2679 13.236 0.2609 0.7142 0.2609 0.7142 9.2679 13.236 9.2679"></polygon>
    </defs>
    <g id="Page-1" stroke="none" stroke-width="1" fill="none" fill-rule="evenodd">
        <g id="A4-Copy" transform="translate(-112.000000, -338.000000)">
            <g id="boxie" transform="translate(112.000000, 337.000000)">
                <g id="Group-3" transform="translate(0.000000, 0.195600)" fill="#333332">
                    <path d="M1.0001,17.3241 L1.0001,10.7841 C2.7191,10.5441 4.0451,9.1061 4.0991,7.3341 L15.4091,6.3521 C15.4241,8.1351 16.7331,9.5991 18.4431,9.8731 L18.4431,18.8441 C16.8951,19.0271 15.6431,20.1731 15.3331,21.6781 L4.3441,20.7221 C4.2501,18.9011 2.8141,17.4481 1.0001,17.3241 L1.0001,17.3241 Z M17.3001,1.9161 L17.2721,5.1861 L9.0371,5.9021 L8.9931,3.0351 C8.9911,2.8831 9.1051,2.7771 9.1881,2.7701 C9.1881,2.7701 17.1031,1.8291 17.2061,1.8281 C17.3091,1.8261 17.3001,1.9161 17.3001,1.9161 L17.3001,1.9161 Z M17.2221,0.8091 L9.0691,1.7771 C8.4671,1.8281 7.9841,2.4011 7.9931,3.0491 L8.0381,5.9891 L0.0001,6.6871 L0.0001,21.3471 L18.9161,22.9941 L18.9811,23.0001 L22.6151,22.3661 C22.6161,22.4071 22.6271,22.4461 22.6271,22.4871 L22.6271,22.3641 L27.4611,21.5211 L26.6451,20.6491 L22.4361,21.3821 C22.0101,20.0651 20.8571,19.0901 19.4431,18.9221 L19.4431,9.9301 C21.1251,9.7251 22.4371,8.3751 22.5841,6.6751 L24.5011,7.0111 C24.5271,8.6071 25.7061,9.9111 27.2421,10.1471 L27.2421,15.4291 L28.2421,16.4991 L28.2421,6.6501 L19.0751,5.0471 L19.0111,5.0351 L18.2731,5.0991 L18.3001,1.9251 C18.3061,1.2911 17.8431,0.8041 17.2571,0.8041 L17.2221,0.8091 Z" id="Fill-1"></path>
                </g>
                <g id="Group-6" transform="translate(23.000000, 11.195600)">
                    <mask id="mask-2" fill="white">
                        <use xlink:href="#path-1"></use>
                    </mask>
                    <g id="Clip-5"></g>
                    <polygon id="Fill-4" fill="#333332" mask="url(#mask-2)" points="12.5112 0.2609 5.3482 7.8089 1.4452 3.6329 0.7142 4.3169 5.3432 9.2679 13.2362 0.9489"></polygon>
                </g>
            </g>
        </g>
    </g>
</svg>