<?xml version="1.0" encoding="UTF-8" standalone="no"?>
<svg width="29px" height="23px" viewBox="0 0 29 23" version="1.1" xmlns="http://www.w3.org/2000/svg" xmlns:xlink="http://www.w3.org/1999/xlink">
    <!-- Generator: Sketch 40.2 (33826) - http://www.bohemiancoding.com/sketch -->
    <title>boxx1</title>
    <desc>Created with Sketch.</desc>
    <defs>
        <polygon id="path-1" points="0 22.1935 28.24 22.1935 28.24 0.0005 0 0.0005"></polygon>
    </defs>
    <g id="Page-1" stroke="none" stroke-width="1" fill="none" fill-rule="evenodd">
        <g id="A4-Copy" transform="translate(-70.000000, -337.000000)">
            <g id="boxx1" transform="translate(70.000000, 337.000000)">
                <mask id="mask-2" fill="white">
                    <use xlink:href="#path-1"></use>
                </mask>
                <g id="Clip-2"></g>
                <path d="M8.9927,2.2306 C8.9907,2.0786 9.1047,1.9726 9.1877,1.9656 L17.2497,1.0006 L17.2567,0.9996 L17.2687,1.0056 C17.2847,1.0206 17.2997,1.0556 17.2997,1.1116 L17.2707,4.3806 L9.0367,5.0966 L8.9927,2.2306 Z M19.4417,17.5126 L19.4417,9.7406 C21.2817,9.3826 22.6737,7.8206 22.8037,5.9086 L24.3727,6.1836 C24.4727,7.8596 25.6567,9.2346 27.2407,9.6146 L27.2407,16.4286 C25.4547,16.8496 24.1207,18.4066 24.0287,20.2986 L22.8207,20.5086 C22.3837,18.9506 21.0667,17.7706 19.4417,17.5126 L19.4417,17.5126 Z M0.9997,16.2256 L0.9997,10.1916 C2.7297,9.7926 4.0337,8.3246 4.2097,6.5196 L14.4557,5.6296 C14.4837,7.8516 16.2397,9.6436 18.4417,9.7506 L18.4417,17.3966 C16.4087,17.4056 14.7197,18.8606 14.3457,20.7866 L4.5647,19.9356 C4.3677,18.0176 2.8957,16.4946 0.9997,16.2256 L0.9997,16.2256 Z M19.0747,4.2416 L19.0097,4.2296 L18.2717,4.2936 L18.2997,1.1206 C18.3047,0.4866 17.8427,-0.0004 17.2567,-0.0004 C17.2267,-0.0004 17.1967,0.0016 17.1657,0.0036 L9.0687,0.9726 C8.4667,1.0236 7.9837,1.5966 7.9927,2.2446 L8.0377,5.1836 L-0.0003,5.8816 L-0.0003,20.5416 L18.9147,22.1876 L18.9797,22.1936 L28.2407,20.5786 L28.2407,5.8446 L19.0747,4.2416 Z" id="Fill-1" fill="#333332" mask="url(#mask-2)"></path>
            </g>
        </g>
    </g>
</svg>