<?xml version="1.0" encoding="UTF-8" standalone="no"?>
<svg width="18px" height="25px" viewBox="0 0 18 25" version="1.1" xmlns="http://www.w3.org/2000/svg" xmlns:xlink="http://www.w3.org/1999/xlink">
    <!-- Generator: Sketch 40.2 (33826) - http://www.bohemiancoding.com/sketch -->
    <title>bulbi</title>
    <desc>Created with Sketch.</desc>
    <defs>
        <polygon id="path-1" points="17.7575 24.0723 0 24.0723 0 0.0005 17.7575 0.0005"></polygon>
    </defs>
    <g id="Page-1" stroke="none" stroke-width="1" fill="none" fill-rule="evenodd">
        <g id="A4-Copy" transform="translate(-197.000000, -458.000000)">
            <g id="bulbi" transform="translate(197.000000, 458.000000)">
                <mask id="mask-2" fill="white">
                    <use xlink:href="#path-1"></use>
                </mask>
                <g id="Clip-2"></g>
                <path d="M13.8945,15.3985 C13.5485,15.8885 13.2305,16.3585 12.9305,16.8275 L4.8285,16.8275 C4.5285,16.3575 4.2095,15.8875 3.8635,15.3975 C2.4565,13.4025 0.9995,11.3395 0.9995,8.6265 C0.9995,5.4595 3.4455,1.0005 8.8805,1.0005 C14.3145,1.0005 16.7575,5.4595 16.7575,8.6265 C16.7575,11.3405 15.3015,13.4035 13.8945,15.3985 M11.6745,19.9655 L6.0835,19.9655 C5.9375,19.2315 5.7175,18.4975 5.3945,17.8275 L12.3635,17.8275 C12.0415,18.4975 11.8215,19.2315 11.6745,19.9655 M11.3785,21.8365 C11.3375,22.1615 11.3005,22.4555 11.2585,22.7055 C11.2125,22.9835 11.1025,23.0725 10.8075,23.0725 L6.9505,23.0725 C6.6555,23.0725 6.5455,22.9825 6.4985,22.7055 C6.4575,22.4575 6.4205,22.1645 6.3795,21.8415 C6.3455,21.5705 6.3045,21.2705 6.2605,20.9655 L11.4975,20.9655 C11.4535,21.2685 11.4135,21.5675 11.3785,21.8365 M8.8805,0.0005 C3.3225,0.0005 -0.0005,4.3855 -0.0005,8.6265 C-0.0005,11.6575 1.6185,13.9505 3.0465,15.9735 C3.5285,16.6575 3.9845,17.3015 4.3525,17.9385 C5.0225,19.0945 5.2335,20.7545 5.3875,21.9675 C5.4305,22.3045 5.4695,22.6105 5.5125,22.8705 C5.6415,23.6335 6.1655,24.0725 6.9505,24.0725 L10.8075,24.0725 C11.5945,24.0725 12.1185,23.6335 12.2455,22.8695 C12.2885,22.6095 12.3285,22.3015 12.3715,21.9635 C12.5255,20.7525 12.7375,19.0935 13.4065,17.9385 C13.7745,17.3015 14.2295,16.6575 14.7115,15.9745 C16.1395,13.9515 17.7575,11.6585 17.7575,8.6265 C17.7575,4.3855 14.4375,0.0005 8.8805,0.0005" id="Fill-1" fill="#333332" mask="url(#mask-2)"></path>
            </g>
        </g>
    </g>
</svg>