<?xml version="1.0" encoding="UTF-8" standalone="no"?>
<svg width="27px" height="23px" viewBox="0 0 27 23" version="1.1" xmlns="http://www.w3.org/2000/svg" xmlns:xlink="http://www.w3.org/1999/xlink">
    <!-- Generator: Sketch 40.2 (33826) - http://www.bohemiancoding.com/sketch -->
    <title>bunchofshirts</title>
    <desc>Created with Sketch.</desc>
    <defs>
        <polygon id="path-1" points="13.04435 22.165 0 22.165 0 0 13.04435 0 26.0887 0 26.0887 22.165 13.04435 22.165"></polygon>
    </defs>
    <g id="Page-1" stroke="none" stroke-width="1" fill="none" fill-rule="evenodd">
        <g id="A4-Copy" transform="translate(-507.000000, -101.000000)">
            <g id="bunchofshirts" transform="translate(507.000000, 101.000000)">
                <mask id="mask-2" fill="white">
                    <use xlink:href="#path-1"></use>
                </mask>
                <g id="Clip-2"></g>
                <path d="M2.2227,16.415 C1.5667,16.415 1.0327,15.882 1.0327,15.226 L1.0327,13.855 C1.0327,13.199 1.5667,12.666 2.2227,12.666 L23.8677,12.666 L23.8997,12.666 C24.5557,12.666 25.0887,13.199 25.0887,13.855 L25.0887,15.226 C25.0887,15.882 24.5557,16.415 23.8997,16.415 L2.2227,16.415 Z M25.0887,18.605 L25.0887,19.976 C25.0887,20.632 24.5557,21.165 23.8997,21.165 L2.2227,21.165 C1.5667,21.165 1.0327,20.632 1.0327,19.976 L1.0327,18.605 C1.0327,17.949 1.5667,17.415 2.2227,17.415 L23.8997,17.415 C24.5557,17.415 25.0887,17.949 25.0887,18.605 L25.0887,18.605 Z M2.1907,11.666 C1.5347,11.666 0.9997,11.133 0.9997,10.477 L1.0017,8.183 C1.0017,7.851 1.3247,7.683 1.5927,7.6 C1.7137,7.562 4.0227,6.863 6.3007,6.174 C6.3777,6.687 6.4827,7.222 6.6557,7.789 L6.8137,8.309 L12.6077,6.008 L12.5647,11.666 L2.2227,11.666 L2.1907,11.666 Z M7.3027,3.005 C8.1567,3.466 9.9957,4.497 11.5277,5.361 L7.4667,6.974 C7.0187,5.17 7.1617,3.707 7.3027,3.005 L7.3027,3.005 Z M18.2497,2.191 C17.4957,2.596 16.0607,3.404 13.2347,5.006 L13.0817,5.092 L12.9287,5.006 C10.1837,3.45 8.7537,2.647 7.9807,2.232 C8.7567,1.757 10.3917,1 13.0107,1 C16.1807,1 17.5637,1.668 18.2497,2.191 L18.2497,2.191 Z M18.8607,3.005 C19.0017,3.707 19.1457,5.17 18.6977,6.974 L14.6357,5.361 C16.1667,4.497 18.0067,3.466 18.8607,3.005 L18.8607,3.005 Z M24.4557,7.599 C24.7267,7.682 25.0477,7.849 25.0477,8.174 L25.0567,10.477 C25.0567,11.133 24.5237,11.666 23.8677,11.666 L13.5647,11.666 L13.6077,6.028 L19.3507,8.309 L19.5087,7.789 C19.6787,7.23 19.7827,6.702 19.8597,6.195 C22.0957,6.877 24.3367,7.562 24.4557,7.599 L24.4557,7.599 Z M26.0887,15.226 L26.0887,13.855 C26.0887,13.164 25.7607,12.554 25.2587,12.153 C25.7417,11.75 26.0567,11.152 26.0567,10.475 L26.0477,8.172 C26.0477,7.465 25.5627,6.894 24.7507,6.644 C24.6287,6.606 22.2647,5.884 19.9697,5.182 C20.0697,3.479 19.7447,2.265 19.5817,2.031 L19.4207,1.811 L19.3257,1.807 C18.4337,0.948 16.8877,0 13.0107,0 C9.1017,0 7.1497,1.537 6.8247,1.819 L6.7197,1.832 L6.5807,2.031 C6.4187,2.264 6.0967,3.469 6.1927,5.161 C3.8547,5.869 1.4237,6.605 1.2987,6.644 C0.4867,6.894 0.0017,7.47 0.0017,8.183 L-0.0003,10.477 C-0.0003,11.168 0.3277,11.778 0.8307,12.179 C0.3477,12.581 0.0327,13.179 0.0327,13.855 L0.0327,15.226 C0.0327,15.909 0.3537,16.513 0.8467,16.915 C0.3537,17.317 0.0327,17.921 0.0327,18.605 L0.0327,19.976 C0.0327,21.183 1.0147,22.165 2.2227,22.165 L23.8997,22.165 C25.1067,22.165 26.0887,21.183 26.0887,19.976 L26.0887,18.605 C26.0887,17.921 25.7667,17.317 25.2747,16.915 C25.7667,16.513 26.0887,15.909 26.0887,15.226 L26.0887,15.226 Z" id="Fill-1" fill="#333332" mask="url(#mask-2)"></path>
            </g>
        </g>
    </g>
</svg>