<?xml version="1.0" encoding="UTF-8" standalone="no"?>
<svg width="24px" height="24px" viewBox="0 0 24 24" version="1.1" xmlns="http://www.w3.org/2000/svg" xmlns:xlink="http://www.w3.org/1999/xlink">
    <!-- Generator: Sketch 40.2 (33826) - http://www.bohemiancoding.com/sketch -->
    <title>cake</title>
    <desc>Created with Sketch.</desc>
    <defs></defs>
    <g id="Page-1" stroke="none" stroke-width="1" fill="none" fill-rule="evenodd">
        <g id="A4-Copy" transform="translate(-162.000000, -336.000000)" fill="#333332">
            <path d="M184.202,349.654 C183.482,350.287 183.065,351.122 182.677,351.943 C182.223,352.9 181.832,353.727 181.02,354.094 C180.442,354.358 180.232,354.177 179.714,353.626 C179.235,353.115 178.584,352.415 177.369,352.673 C176.257,352.912 175.693,353.732 175.196,354.456 C174.67,355.223 174.31,355.693 173.592,355.693 L173.591,355.693 C172.872,355.693 172.512,355.221 171.985,354.454 C171.488,353.729 170.926,352.909 169.814,352.67 C168.603,352.416 167.951,353.11 167.473,353.621 C166.957,354.173 166.749,354.35 166.172,354.089 C165.365,353.723 164.975,352.899 164.524,351.945 C164.136,351.124 163.72,350.288 163,349.655 L163,347.66 C164.788,349.815 168.808,351.287 173.6,351.287 C178.394,351.287 182.413,349.815 184.202,347.66 L184.202,349.654 Z M173.6,358.849 C167.756,358.849 163,356.248 163,353.05 L163,351.181 C163.228,351.546 163.422,351.952 163.62,352.372 C164.111,353.41 164.618,354.483 165.758,355 C167.018,355.572 167.704,354.839 168.203,354.304 C168.681,353.795 168.979,353.514 169.603,353.648 C170.326,353.802 170.713,354.367 171.16,355.019 C171.698,355.803 172.308,356.692 173.591,356.693 L173.592,356.693 C174.873,356.693 175.482,355.805 176.02,355.022 C176.469,354.37 176.855,353.806 177.578,353.652 C178.207,353.516 178.506,353.798 178.983,354.309 C179.485,354.844 180.17,355.575 181.432,355.005 C182.578,354.487 183.088,353.411 183.581,352.371 C183.779,351.951 183.973,351.545 184.202,351.18 L184.202,353.05 C184.202,356.248 179.446,358.849 173.6,358.849 L173.6,358.849 Z M167.819,340.826 L167.819,344.993 L168.819,344.993 L168.819,340.54 C169.761,340.302 170.778,340.127 171.853,340.038 C171.859,340.13 171.886,340.218 171.901,340.308 C171.915,340.39 171.923,340.473 171.945,340.553 C171.977,340.669 172.029,340.779 172.078,340.89 C172.109,340.961 172.132,341.034 172.17,341.102 C172.237,341.221 172.324,341.33 172.41,341.439 C172.45,341.491 172.481,341.547 172.525,341.596 C172.615,341.694 172.723,341.778 172.827,341.865 L172.827,346.569 L173.827,346.569 L173.827,341.801 C173.905,341.732 173.991,341.669 174.059,341.593 C174.103,341.545 174.133,341.489 174.173,341.438 C174.261,341.327 174.349,341.216 174.417,341.094 C174.453,341.028 174.474,340.957 174.504,340.889 C174.556,340.774 174.609,340.661 174.642,340.54 C174.663,340.462 174.668,340.38 174.681,340.299 C174.698,340.2 174.726,340.104 174.73,340.003 C175.829,340.061 176.876,340.209 177.853,340.423 L177.853,344.993 L178.853,344.993 L178.853,340.675 C182.029,341.579 184.202,343.258 184.202,345.126 C184.202,347.923 179.348,350.287 173.6,350.287 C167.854,350.287 163,347.923 163,345.126 C163,343.366 164.925,341.763 167.819,340.826 L167.819,340.826 Z M168.283,337.271 C168.567,337.57 168.724,337.94 168.724,338.324 C168.724,338.708 168.567,339.078 168.283,339.377 C168,339.077 167.843,338.708 167.843,338.324 C167.843,337.94 168,337.571 168.283,337.271 L168.283,337.271 Z M173.671,339.51 L173.689,339.591 C173.701,339.641 173.707,339.682 173.714,339.722 C173.722,339.781 173.732,339.839 173.732,339.899 C173.732,340.283 173.575,340.653 173.291,340.953 C173.007,340.653 172.849,340.283 172.849,339.899 C172.849,339.813 172.866,339.719 172.89,339.604 L172.91,339.512 C172.979,339.271 173.104,339.043 173.291,338.846 C173.477,339.043 173.602,339.27 173.671,339.51 L173.671,339.51 Z M178.317,337.27 C178.601,337.57 178.759,337.94 178.759,338.324 C178.759,338.708 178.601,339.078 178.317,339.378 C178.033,339.077 177.876,338.708 177.876,338.324 C177.876,337.94 178.033,337.571 178.317,337.27 L178.317,337.27 Z M179.286,339.74 C179.582,339.317 179.759,338.836 179.759,338.324 C179.759,337.496 179.339,336.723 178.606,336.205 L178.317,336 L178.028,336.205 C177.296,336.724 176.876,337.497 176.876,338.324 C176.876,338.647 176.957,338.956 177.079,339.25 C176.27,339.12 175.422,339.034 174.539,338.998 C174.351,338.528 174.035,338.103 173.58,337.781 L173.291,337.577 L173.002,337.781 C172.538,338.109 172.217,338.546 172.031,339.027 C171.14,339.09 170.285,339.204 169.475,339.367 C169.63,339.04 169.724,338.689 169.724,338.324 C169.724,337.496 169.305,336.723 168.572,336.205 L168.283,336 L167.994,336.205 C167.263,336.724 166.843,337.496 166.843,338.324 C166.843,338.901 167.057,339.445 167.429,339.901 C164.144,340.993 162,342.93 162,345.126 L162,353.05 C162,356.863 167.096,359.849 173.6,359.849 C180.106,359.849 185.202,356.863 185.202,353.05 L185.202,345.126 C185.202,342.779 182.857,340.78 179.286,339.74 L179.286,339.74 Z" id="cake"></path>
        </g>
    </g>
</svg>