<?xml version="1.0" encoding="UTF-8" standalone="no"?>
<svg width="23px" height="24px" viewBox="0 0 23 24" version="1.1" xmlns="http://www.w3.org/2000/svg" xmlns:xlink="http://www.w3.org/1999/xlink">
    <!-- Generator: Sketch 40.2 (33826) - http://www.bohemiancoding.com/sketch -->
    <title>calender</title>
    <desc>Created with Sketch.</desc>
    <defs></defs>
    <g id="Page-1" stroke="none" stroke-width="1" fill="none" fill-rule="evenodd">
        <g id="A4-Copy" transform="translate(-121.000000, -531.000000)" fill="#333332">
            <path d="M138.168,531.0005 L138.168,532.5165 L126.187,532.5165 L126.187,531.0005 L125.187,531.0005 L125.187,532.5165 L121,532.5165 L121,554.4785 L143.443,554.4785 L143.443,532.5165 L139.168,532.5165 L139.168,531.0005 L138.168,531.0005 Z M139.168,534.9385 L139.168,533.5165 L142.443,533.5165 L142.443,537.2965 L121.999,537.2965 L121.999,533.5165 L125.187,533.5165 L125.187,534.9385 L126.187,534.9385 L126.187,533.5165 L138.168,533.5165 L138.168,534.9385 L139.168,534.9385 Z M121.999,538.2965 L142.443,538.2965 L142.443,547.1465 L135.932,547.1465 L135.932,553.4785 L121.999,553.4785 L121.999,538.2965 Z M136.932,548.1465 L141.71,548.1465 L136.932,552.7865 L136.932,548.1465 Z M142.443,548.8295 L142.443,553.4785 L137.655,553.4785 L142.443,548.8295 Z" id="calender"></path>
        </g>
    </g>
</svg>