<?xml version="1.0" encoding="UTF-8" standalone="no"?>
<svg width="20px" height="22px" viewBox="0 0 20 22" version="1.1" xmlns="http://www.w3.org/2000/svg" xmlns:xlink="http://www.w3.org/1999/xlink">
    <!-- Generator: Sketch 40.2 (33826) - http://www.bohemiancoding.com/sketch -->
    <title>call</title>
    <desc>Created with Sketch.</desc>
    <defs></defs>
    <g id="Page-1" stroke="none" stroke-width="1" fill="none" fill-rule="evenodd">
        <g id="A4-Copy" transform="translate(-522.000000, -591.000000)" fill="#333332">
            <g id="call" transform="translate(522.000000, 591.000000)">
                <path d="M18.1432,18.536 C17.3992,20.054 16.1862,20.792 14.4352,20.792 C14.0952,20.792 13.7302,20.764 13.3882,20.715 C13.3512,20.706 13.2892,20.694 13.2072,20.68 C12.9822,20.64 12.6052,20.575 12.2872,20.416 C6.0372,17.293 2.2682,12.412 1.0852,5.906 C0.6802,3.676 1.7182,1.812 3.7302,1.157 C4.0542,1.051 4.3092,1 4.5112,1 C5.0992,1 5.3832,1.429 6.1522,3.071 C7.0362,4.958 7.6752,6.321 5.3742,7.576 C4.8242,7.876 4.9562,9.348 5.2502,9.89 C6.4072,12.015 7.4292,13.23 8.6452,14.598 C9.3432,15.383 10.0222,15.762 10.8702,15.762 C11.4252,15.762 12.0542,15.599 12.8062,15.283 C13.0952,15.161 13.3002,15.114 13.5372,15.114 C14.2372,15.114 15.3972,15.541 18.1992,16.574 C18.2332,16.586 18.2712,16.64 18.3032,16.718 C18.4802,17.16 18.3632,18.088 18.1432,18.536 M19.2312,16.346 C19.0492,15.898 18.7552,15.712 18.5402,15.634 C15.5382,14.528 14.4152,14.114 13.5372,14.114 C13.1642,14.114 12.8302,14.188 12.4182,14.361 C11.7772,14.631 11.2712,14.762 10.8702,14.762 C10.4852,14.762 10.0392,14.662 9.3932,13.934 C8.2202,12.615 7.2362,11.445 6.1292,9.411 C6.0272,9.221 5.9582,8.64 6.0142,8.364 C8.9422,6.669 7.8992,4.443 7.0592,2.648 C6.3382,1.11 5.8182,0 4.5112,0 C4.1972,0 3.8502,0.066 3.4192,0.206 C0.9422,1.013 -0.3908,3.375 0.1012,6.085 C1.3442,12.917 5.2932,18.039 11.8402,21.31 C12.2882,21.534 12.7732,21.619 13.0342,21.665 C13.0822,21.673 13.1192,21.679 13.1442,21.685 L13.1852,21.694 L13.2482,21.705 C13.6502,21.762 14.0602,21.792 14.4352,21.792 C16.5762,21.792 18.1252,20.845 19.0412,18.976 C19.3282,18.39 19.5542,17.151 19.2312,16.346" id="Fill-1"></path>
            </g>
        </g>
    </g>
</svg>