<?xml version="1.0" encoding="UTF-8" standalone="no"?>
<svg width="44px" height="33px" viewBox="0 0 54 43" version="1.1" xmlns="http://www.w3.org/2000/svg" xmlns:xlink="http://www.w3.org/1999/xlink">
    <!-- Generator: Sketch 41 (35326) - http://www.bohemiancoding.com/sketch -->
    <title>noun_129030_cc</title>
    <desc>Created with Sketch.</desc>
    <defs></defs>
    <g id="Page-1" stroke="none" stroke-width="1" fill="none" fill-rule="evenodd">
        <g id="Upload-Photo" transform="translate(-693.000000, -286.000000)" fill="#a2a1a1">
            <g id="Group-2" transform="translate(490.000000, 180.000000)">
                <g id="noun_129030_cc" transform="translate(203.000000, 106.000000)">
                    <g id="Group">
                        <g id="Shape">
                            <path d="M27.02925,13.1544615 C20.583,13.1544615 15.33825,18.4141538 15.33825,24.8787692 C15.33825,31.3433846 20.583,36.6030769 27.02925,36.6030769 C33.4755,36.6030769 38.72025,31.3433846 38.72025,24.8787692 C38.72025,18.4141538 33.4755,13.1544615 27.02925,13.1544615 L27.02925,13.1544615 Z M27.02925,34.9401026 C21.4965,34.9401026 16.9965,30.4261538 16.9965,24.8787692 C16.9965,19.3313846 21.497625,14.8174359 27.02925,14.8174359 C32.560875,14.8174359 37.062,19.3313846 37.062,24.8787692 C37.062,30.4261538 32.560875,34.9401026 27.02925,34.9401026 L27.02925,34.9401026 Z"></path>
                            <path d="M51.775875,6.76769231 L36.860625,6.76769231 L36.860625,0.957435897 C36.860625,0.49825641 36.489375,0.125948718 36.0315,0.125948718 L18.025875,0.125948718 C17.568,0.125948718 17.19675,0.49825641 17.19675,0.957435897 L17.19675,6.76769231 L2.280375,6.76769231 C1.153125,6.76769231 0.234,7.68830769 0.234,8.81989744 L0.234,40.937641 C0.234,42.0681026 1.152,42.9898462 2.280375,42.9898462 L51.775875,42.9898462 C52.90425,42.9898462 53.823375,42.0692308 53.823375,40.937641 L53.823375,8.81989744 C53.823375,7.6894359 52.905375,6.76769231 51.775875,6.76769231 L51.775875,6.76769231 Z M52.16625,40.937641 C52.16625,41.1531282 51.991875,41.3268718 51.777,41.3268718 L2.280375,41.3268718 C2.0655,41.3268718 1.89225,41.1531282 1.89225,40.937641 L1.89225,8.81989744 C1.89225,8.60441026 2.0655,8.43066667 2.280375,8.43066667 L18.025875,8.43066667 C18.48375,8.43066667 18.855,8.05835897 18.855,7.59917949 L18.855,1.78892308 L35.202375,1.78892308 L35.202375,7.59917949 C35.202375,8.05835897 35.573625,8.43066667 36.0315,8.43066667 L51.775875,8.43066667 C51.99075,8.43066667 52.165125,8.60441026 52.165125,8.81989744 L52.165125,40.937641 L52.16625,40.937641 Z"></path>
                        </g>
                    </g>
                </g>
            </g>
        </g>
    </g>
</svg>