<?xml version="1.0" encoding="UTF-8" standalone="no"?>
<svg width="31px" height="27px" viewBox="0 0 31 27" version="1.1" xmlns="http://www.w3.org/2000/svg" xmlns:xlink="http://www.w3.org/1999/xlink">
    <!-- Generator: Sketch 40.2 (33826) - http://www.bohemiancoding.com/sketch -->
    <title>card</title>
    <desc>Created with Sketch.</desc>
    <defs>
        <polygon id="path-1" points="0 0.865704286 0 26.9999 30.1995412 26.9999 30.1995412 0.865704286 8.13151629e-20 0.865704286"></polygon>
    </defs>
    <g id="Page-1" stroke="none" stroke-width="1" fill="none" fill-rule="evenodd">
        <g id="A4-Copy" transform="translate(-348.000000, -391.000000)">
            <g id="card" transform="translate(348.000000, 390.000000)">
                <polygon id="Fill-1" fill="#333332" points="3.704 17.6935 6.048 17.6935 6.048 15.6935 3.704 15.6935"></polygon>
                <polygon id="Fill-2" fill="#333332" points="3.892 23.8675 6.046 23.8675 6.046 21.8675 3.892 21.8675"></polygon>
                <polygon id="Fill-3" fill="#333332" points="7.859 23.8675 10.013 23.8675 10.013 21.8675 7.859 21.8675"></polygon>
                <polygon id="Fill-4" fill="#333332" points="11.827 23.8675 13.981 23.8675 13.981 21.8675 11.827 21.8675"></polygon>
                <polygon id="Fill-5" fill="#333332" points="15.795 23.8675 17.949 23.8675 17.949 21.8675 15.795 21.8675"></polygon>
                <g id="Group-8" transform="translate(0.000000, 0.134500)">
                    <mask id="mask-2" fill="white">
                        <use xlink:href="#path-1"></use>
                    </mask>
                    <g id="Clip-7"></g>
                    <path d="M29.1777,8.0469 L28.5667,10.0509 L9.4597,4.2199 L10.0717,2.2169 C10.1347,2.0079 10.3327,1.8619 10.5517,1.8619 C10.6007,1.8619 10.6497,1.8689 10.6967,1.8839 L28.8447,7.4229 C29.1087,7.5029 29.2577,7.7829 29.1777,8.0469 L29.1777,8.0469 Z M25.6607,19.5739 C25.5827,19.8269 25.3037,19.9889 25.0347,19.9059 L21.8407,18.9319 L21.8407,13.4479 C21.8407,12.6209 21.1677,11.9479 20.3407,11.9479 L7.1017,11.9479 L8.5847,7.0889 L27.6907,12.9199 L25.6607,19.5739 Z M20.8407,25.4999 C20.8407,25.7759 20.6157,25.9999 20.3407,25.9999 L1.4997,25.9999 C1.2247,25.9999 0.9997,25.7759 0.9997,25.4999 L0.9997,13.4479 C0.9997,13.1729 1.2247,12.9479 1.4997,12.9479 L20.3407,12.9479 C20.6157,12.9479 20.8407,13.1729 20.8407,13.4479 L20.8407,25.4999 Z M29.1367,6.4659 L10.9877,0.9269 C10.2167,0.6919 9.3487,1.1569 9.1147,1.9249 L6.0557,11.9479 L1.4997,11.9479 C0.6727,11.9479 -0.0003,12.6209 -0.0003,13.4479 L-0.0003,25.4999 C-0.0003,26.3269 0.6727,26.9999 1.4997,26.9999 L20.3407,26.9999 C21.1677,26.9999 21.8407,26.3269 21.8407,25.4999 L21.8407,19.9779 L24.7427,20.8629 C24.8857,20.9059 25.0317,20.9289 25.1797,20.9289 C25.8337,20.9289 26.4247,20.4919 26.6167,19.8659 L30.1347,8.3379 C30.3747,7.5479 29.9277,6.7079 29.1367,6.4659 L29.1367,6.4659 Z" id="Fill-6" fill="#333332" mask="url(#mask-2)"></path>
                </g>
            </g>
        </g>
    </g>
</svg>