<?xml version="1.0" encoding="UTF-8" standalone="no"?>
<svg width="25px" height="25px" viewBox="0 0 25 25" version="1.1" xmlns="http://www.w3.org/2000/svg" xmlns:xlink="http://www.w3.org/1999/xlink">
    <!-- Generator: Sketch 40.2 (33826) - http://www.bohemiancoding.com/sketch -->
    <title>cart</title>
    <desc>Created with Sketch.</desc>
    <defs></defs>
    <g id="Page-1" stroke="none" stroke-width="1" fill="none" fill-rule="evenodd">
        <g id="A4-Copy" transform="translate(-490.000000, -740.000000)" fill="#333332">
            <g id="cart" transform="translate(490.000000, 740.000000)">
                <path d="M18.9111,10.6318 C18.4911,12.2318 18.0651,13.8528 17.7031,15.2238 L5.7291,15.2238 C4.5131,15.2238 3.9331,14.1738 3.6621,13.2918 C3.4141,12.4858 1.8251,6.5388 1.3011,4.5718 L20.5071,4.5718 C20.1011,6.0988 19.5161,8.3238 18.9111,10.6318 L18.9111,10.6318 Z M13.6821,23.7828 C13.1611,23.7828 12.7371,23.3598 12.7371,22.8388 C12.7371,22.3188 13.1611,21.8948 13.6821,21.8948 C14.2021,21.8948 14.6261,22.3188 14.6261,22.8388 C14.6261,23.3598 14.2021,23.7828 13.6821,23.7828 L13.6821,23.7828 Z M7.0041,23.7828 C6.4831,23.7828 6.0591,23.3598 6.0591,22.8388 C6.0591,22.3188 6.4831,21.8948 7.0041,21.8948 C7.5241,21.8948 7.9481,22.3188 7.9481,22.8388 C7.9481,23.3598 7.5241,23.7828 7.0041,23.7828 L7.0041,23.7828 Z M24.0561,-0.0002 C22.6301,-0.0002 21.5571,0.9368 21.0331,2.6358 C20.9941,2.7618 20.9031,3.0908 20.7741,3.5718 L0.0001,3.5718 L0.1671,4.2008 C0.2591,4.5438 2.4041,12.6058 2.7071,13.5868 C3.2301,15.2868 4.3041,16.2238 5.7291,16.2238 L17.4391,16.2238 C17.0901,17.5388 16.8361,18.4858 16.7671,18.7088 C16.4961,19.5898 15.9181,20.6398 14.7001,20.6398 L4.2871,20.6398 L4.2871,21.6398 L5.4851,21.6398 C5.2231,21.9708 5.0591,22.3838 5.0591,22.8388 C5.0591,23.9108 5.9321,24.7828 7.0041,24.7828 C8.0761,24.7828 8.9481,23.9108 8.9481,22.8388 C8.9481,22.3838 8.7851,21.9708 8.5221,21.6398 L12.1631,21.6398 C11.9001,21.9708 11.7371,22.3838 11.7371,22.8388 C11.7371,23.9108 12.6091,24.7828 13.6821,24.7828 C14.7541,24.7828 15.6261,23.9108 15.6261,22.8388 C15.6261,22.3658 15.4501,21.9378 15.1681,21.6008 C16.3601,21.4148 17.2581,20.5108 17.7231,19.0038 C17.8011,18.7518 18.0821,17.7008 18.4731,16.2238 L18.5071,16.2238 L18.5071,16.0968 C18.8921,14.6378 19.3781,12.7888 19.8781,10.8858 C20.8431,7.2098 21.8411,3.4088 21.9881,2.9308 C22.2601,2.0498 22.8391,0.9998 24.0531,0.9998 L24.6591,1.0038 L24.6651,0.0038 L24.0561,-0.0002 Z" id="Fill-1"></path>
            </g>
        </g>
    </g>
</svg>