<?xml version="1.0" encoding="UTF-8" standalone="no"?>
<svg width="34px" height="28px" viewBox="0 0 34 28" version="1.1" xmlns="http://www.w3.org/2000/svg" xmlns:xlink="http://www.w3.org/1999/xlink">
    <!-- Generator: Sketch 40.2 (33826) - http://www.bohemiancoding.com/sketch -->
    <title>cart1</title>
    <desc>Created with Sketch.</desc>
    <defs>
        <polygon id="path-1" points="0 26.114 33.176 26.114 33.176 0 0 0"></polygon>
    </defs>
    <g id="Page-1" stroke="none" stroke-width="1" fill="none" fill-rule="evenodd">
        <g id="A4-Copy" transform="translate(-450.000000, -748.000000)">
            <g id="cart1" transform="translate(450.000000, 749.000000)">
                <path d="M27.0176,17.054 L14.2396,17.054 C12.7036,17.054 11.9976,15.754 11.6956,14.77 C11.3926,13.787 9.1606,5.403 9.1606,5.403 L29.5376,5.403 L27.0176,17.054 L27.0176,17.054 Z" id="Stroke-1" stroke="#333332"></path>
                <path d="M12.7979,22.4704 L23.2109,22.4704 C24.7479,22.4704 25.4529,21.1704 25.7559,20.1864 C26.0589,19.2034 29.7179,5.0974 30.0209,4.1144 C30.3239,3.1314 31.0299,1.8304 32.5659,1.8304 L33.1729,1.8344" id="Stroke-3" stroke="#333332"></path>
                <path d="M16.9592,24.1696 C16.9592,24.9676 16.3122,25.6136 15.5152,25.6136 C14.7172,25.6136 14.0702,24.9676 14.0702,24.1696 C14.0702,23.3716 14.7172,22.7256 15.5152,22.7256 C16.3122,22.7256 16.9592,23.3716 16.9592,24.1696 L16.9592,24.1696 Z" id="Stroke-5" stroke="#333332"></path>
                <path d="M23.637,24.1696 C23.637,24.9676 22.99,25.6136 22.193,25.6136 C21.395,25.6136 20.748,24.9676 20.748,24.1696 C20.748,23.3716 21.395,22.7256 22.193,22.7256 C22.99,22.7256 23.637,23.3716 23.637,24.1696 L23.637,24.1696 Z" id="Stroke-7" stroke="#333332"></path>
                <path d="M10.4393,12.1077 L5.9693,12.1077 C2.9613,12.1077 0.5003,9.6467 0.5003,6.6387 L0.5003,5.9687 C0.5003,2.9607 2.9613,0.4997 5.9693,0.4997 L10.4393,0.4997 C13.4473,0.4997 15.9083,2.9607 15.9083,5.9687 L15.9083,6.6387 C15.9083,9.6467 13.4473,12.1077 10.4393,12.1077" id="Fill-9" fill="#333332"></path>
                <path d="M10.4393,12.1077 L5.9693,12.1077 C2.9613,12.1077 0.5003,9.6467 0.5003,6.6387 L0.5003,5.9687 C0.5003,2.9607 2.9613,0.4997 5.9693,0.4997 L10.4393,0.4997 C13.4473,0.4997 15.9083,2.9607 15.9083,5.9687 L15.9083,6.6387 C15.9083,9.6467 13.4473,12.1077 10.4393,12.1077 L10.4393,12.1077 Z" id="Stroke-11" stroke="#333332"></path>
                <mask id="mask-2" fill="white">
                    <use xlink:href="#path-1"></use>
                </mask>
                <g id="Clip-13"></g>
                <text id="23" mask="url(#mask-2)" font-family="HelveticaNeue-Medium, Helvetica Neue" font-size="9" font-weight="400" fill="#FEFEFE">
                    <tspan x="3.1924" y="7.70138792">23</tspan>
                </text>
            </g>
        </g>
    </g>
</svg>