<?xml version="1.0" encoding="UTF-8" standalone="no"?>
<svg width="34px" height="27px" viewBox="0 0 34 27" version="1.1" xmlns="http://www.w3.org/2000/svg" xmlns:xlink="http://www.w3.org/1999/xlink">
    <!-- Generator: Sketch 40.2 (33826) - http://www.bohemiancoding.com/sketch -->
    <title>cart5</title>
    <desc>Created with Sketch.</desc>
    <defs>
        <polygon id="path-1" points="16.4085 0.886 0.0005 0.886 0.0005 13.4927 16.4085 13.4927"></polygon>
        <polygon id="path-3" points="0 27.1143 33.176 27.1143 33.176 1.0003 0 1.0003"></polygon>
    </defs>
    <g id="Page-1" stroke="none" stroke-width="1" fill="none" fill-rule="evenodd">
        <g id="A4-Copy" transform="translate(-410.000000, -738.000000)">
            <g id="cart5" transform="translate(410.000000, 737.000000)">
                <path d="M27.3887,13.085 C26.9807,14.64 26.5667,16.215 26.2137,17.554 L14.2407,17.554 C13.0227,17.554 12.4447,16.504 12.1727,15.623 C11.9247,14.817 10.3357,8.87 9.8117,6.903 L29.0167,6.903 C28.6047,8.454 28.0077,10.727 27.3887,13.085 L27.3887,13.085 Z M22.1927,26.114 C21.6717,26.114 21.2477,25.69 21.2477,25.17 C21.2477,24.649 21.6717,24.226 22.1927,24.226 C22.7127,24.226 23.1367,24.649 23.1367,25.17 C23.1367,25.69 22.7127,26.114 22.1927,26.114 L22.1927,26.114 Z M15.5147,26.114 C14.9937,26.114 14.5707,25.69 14.5707,25.17 C14.5707,24.649 14.9937,24.226 15.5147,24.226 C16.0347,24.226 16.4587,24.649 16.4587,25.17 C16.4587,25.69 16.0347,26.114 15.5147,26.114 L15.5147,26.114 Z M32.5667,2.331 C31.1407,2.331 30.0677,3.268 29.5437,4.967 C29.5047,5.094 29.4137,5.422 29.2847,5.903 L8.5107,5.903 L8.6777,6.532 C8.7697,6.875 10.9147,14.937 11.2177,15.918 C11.7417,17.617 12.8147,18.554 14.2407,18.554 L25.9497,18.554 C25.6007,19.869 25.3467,20.816 25.2787,21.039 C25.0067,21.921 24.4277,22.971 23.2107,22.971 L12.7977,22.971 L12.7977,23.971 L13.9957,23.971 C13.7337,24.302 13.5707,24.715 13.5707,25.17 C13.5707,26.242 14.4427,27.114 15.5147,27.114 C16.5867,27.114 17.4587,26.242 17.4587,25.17 C17.4587,24.715 17.2957,24.302 17.0337,23.971 L20.6737,23.971 C20.4107,24.302 20.2477,24.715 20.2477,25.17 C20.2477,26.242 21.1197,27.114 22.1927,27.114 C23.2647,27.114 24.1367,26.242 24.1367,25.17 C24.1367,24.697 23.9607,24.269 23.6787,23.931 C24.8707,23.746 25.7687,22.842 26.2337,21.334 C26.3107,21.082 26.5937,20.029 26.9837,18.554 L27.0177,18.554 L27.0177,18.426 C27.3957,16.996 27.8687,15.194 28.3557,13.339 C29.3357,9.606 30.3497,5.746 30.4987,5.262 C30.7707,4.381 31.3487,3.331 32.5637,3.331 L33.1697,3.335 L33.1757,2.335 L32.5667,2.331 L32.5667,2.331 Z" id="Fill-1" fill="#333332"></path>
                <g id="Group-5" transform="translate(0.000000, 0.114300)">
                    <mask id="mask-2" fill="white">
                        <use xlink:href="#path-1"></use>
                    </mask>
                    <g id="Clip-4"></g>
                    <path d="M10.4395,0.8857 L5.9685,0.8857 C2.6775,0.8857 0.0005,3.5637 0.0005,6.8547 L0.0005,7.5247 C0.0005,10.8157 2.6775,13.4927 5.9685,13.4927 L10.4395,13.4927 C13.7305,13.4927 16.4085,10.8157 16.4085,7.5247 L16.4085,6.8547 C16.4085,3.5637 13.7305,0.8857 10.4395,0.8857" id="Fill-3" fill="#2880A3" mask="url(#mask-2)"></path>
                </g>
                <mask id="mask-4" fill="white">
                    <use xlink:href="#path-3"></use>
                </mask>
                <g id="Clip-6"></g>
                <text id="23" mask="url(#mask-4)" font-family="HelveticaNeue-Medium, Helvetica Neue" font-size="9" font-weight="400" fill="#FEFEFE">
                    <tspan x="3.1914" y="8.70168792">23</tspan>
                </text>
            </g>
        </g>
    </g>
</svg>