<?xml version="1.0" encoding="UTF-8" standalone="no"?>
<svg width="30px" height="27px" viewBox="0 0 30 27" version="1.1" xmlns="http://www.w3.org/2000/svg" xmlns:xlink="http://www.w3.org/1999/xlink">
    <!-- Generator: Sketch 40.2 (33826) - http://www.bohemiancoding.com/sketch -->
    <title>cart3</title>
    <desc>Created with Sketch.</desc>
    <defs>
        <polygon id="path-1" points="0.7954 25 25.461 25 25.461 0.2172 0.7954 0.2172"></polygon>
        <polygon id="path-3" points="12.693 0.846 0 0.846 0 7.18955 0 13.5331 12.693 13.5331 12.693 0.846"></polygon>
    </defs>
    <g id="Page-1" stroke="none" stroke-width="1" fill="none" fill-rule="evenodd">
        <g id="A4-Copy" transform="translate(-459.000000, -792.000000)">
            <g id="cart3" transform="translate(459.000000, 791.000000)">
                <g id="Group-3" transform="translate(4.000000, 2.153800)">
                    <mask id="mask-2" fill="white">
                        <use xlink:href="#path-1"></use>
                    </mask>
                    <g id="Clip-2"></g>
                    <path d="M19.6904,10.9092 C19.2764,12.4862 18.8564,14.0852 18.4994,15.4392 L6.5254,15.4392 C5.3074,15.4392 4.7294,14.3892 4.4584,13.5092 C4.2104,12.7032 2.6214,6.7562 2.0964,4.7892 L21.3024,4.7892 C20.8944,6.3272 20.3034,8.5772 19.6904,10.9092 L19.6904,10.9092 Z M14.4774,24.0002 C13.9574,24.0002 13.5334,23.5762 13.5334,23.0552 C13.5334,22.5352 13.9574,22.1112 14.4774,22.1112 C14.9984,22.1112 15.4214,22.5352 15.4214,23.0552 C15.4214,23.5762 14.9984,24.0002 14.4774,24.0002 L14.4774,24.0002 Z M7.7994,24.0002 C7.2794,24.0002 6.8554,23.5762 6.8554,23.0552 C6.8554,22.5352 7.2794,22.1112 7.7994,22.1112 C8.3204,22.1112 8.7444,22.5352 8.7444,23.0552 C8.7444,23.5762 8.3204,24.0002 7.7994,24.0002 L7.7994,24.0002 Z M24.8514,0.2172 C23.4254,0.2172 22.3524,1.1532 21.8294,2.8522 C21.7904,2.9792 21.6994,3.3072 21.5704,3.7892 L0.7954,3.7892 L0.9624,4.4182 C1.0544,4.7612 3.2004,12.8222 3.5034,13.8042 C4.0264,15.5032 5.0994,16.4392 6.5254,16.4392 L18.2344,16.4392 C17.8864,17.7552 17.6324,18.7012 17.5634,18.9252 C17.2924,19.8062 16.7124,20.8562 15.4964,20.8562 L5.0834,20.8562 L5.0834,21.8562 L6.2814,21.8562 C6.0184,22.1882 5.8554,22.6012 5.8554,23.0552 C5.8554,24.1282 6.7274,25.0002 7.7994,25.0002 C8.8724,25.0002 9.7444,24.1282 9.7444,23.0552 C9.7444,22.6012 9.5814,22.1882 9.3184,21.8562 L12.9594,21.8562 C12.6964,22.1882 12.5334,22.6012 12.5334,23.0552 C12.5334,24.1282 13.4054,25.0002 14.4774,25.0002 C15.5494,25.0002 16.4214,24.1282 16.4214,23.0552 C16.4214,22.5832 16.2454,22.1542 15.9634,21.8172 C17.1554,21.6312 18.0544,20.7282 18.5184,19.2202 C18.5964,18.9672 18.8784,17.9162 19.2684,16.4392 L19.3024,16.4392 L19.3024,16.3102 C19.6844,14.8662 20.1644,13.0412 20.6574,11.1632 C21.6294,7.4592 22.6354,3.6292 22.7844,3.1472 C23.0554,2.2662 23.6334,1.2172 24.8484,1.2172 L25.4554,1.2212 L25.4614,0.2212 L24.8514,0.2172 Z" id="Fill-1" fill="#333332" mask="url(#mask-2)"></path>
                </g>
                <g id="Group-6" transform="translate(0.000000, 0.153800)">
                    <mask id="mask-4" fill="white">
                        <use xlink:href="#path-3"></use>
                    </mask>
                    <g id="Clip-5"></g>
                    <path d="M10.835,2.7021 C8.36,0.2271 4.334,0.2271 1.859,2.7021 C0.66,3.9001 0,5.4941 0,7.1901 C0,8.8861 0.66,10.4791 1.859,11.6781 C3.097,12.9151 4.722,13.5331 6.347,13.5331 C7.972,13.5331 9.598,12.9151 10.835,11.6781 C12.034,10.4791 12.693,8.8861 12.693,7.1901 C12.693,5.4941 12.034,3.9001 10.835,2.7021" id="Fill-4" fill="#2880A3" mask="url(#mask-4)"></path>
                </g>
                <polygon id="Fill-7" fill="#FEFEFE" points="9.3564 6.8931 6.7964 6.8931 6.7964 4.3331 5.8964 4.3331 5.8964 6.8931 3.3364 6.8931 3.3364 7.7931 5.8964 7.7931 5.8964 10.3531 6.7964 10.3531 6.7964 7.7931 9.3564 7.7931"></polygon>
            </g>
        </g>
    </g>
</svg>