<?xml version="1.0" encoding="UTF-8" standalone="no"?>
<svg width="35px" height="23px" viewBox="0 0 35 23" version="1.1" xmlns="http://www.w3.org/2000/svg" xmlns:xlink="http://www.w3.org/1999/xlink">
    <!-- Generator: Sketch 40.2 (33826) - http://www.bohemiancoding.com/sketch -->
    <title>cash</title>
    <desc>Created with Sketch.</desc>
    <defs>
        <polygon id="path-1" points="8.5533 0.158 0.0003 0.158 0.0003 8.7129 8.5533 8.7129"></polygon>
        <polygon id="path-3" points="0 23.8418 34.375 23.8418 34.375 0.9998 0 0.9998"></polygon>
    </defs>
    <g id="Page-1" stroke="none" stroke-width="1" fill="none" fill-rule="evenodd">
        <g id="A4-Copy" transform="translate(-368.000000, -419.000000)">
            <g id="cash" transform="translate(368.000000, 418.000000)">
                <g id="Group-3" transform="translate(0.000000, 0.841800)">
                    <mask id="mask-2" fill="white">
                        <use xlink:href="#path-1"></use>
                    </mask>
                    <g id="Clip-2"></g>
                    <path d="M4.2773,7.7129 C2.4693,7.7129 1.0003,6.2429 1.0003,4.4359 C1.0003,2.6279 2.4693,1.1579 4.2773,1.1579 C6.0843,1.1579 7.5533,2.6279 7.5533,4.4359 C7.5533,6.2429 6.0843,7.7129 4.2773,7.7129 M8.5533,4.4359 C8.5533,2.0769 6.6353,0.1579 4.2773,0.1579 C1.9193,0.1579 0.0003,2.0769 0.0003,4.4359 C0.0003,6.7939 1.9193,8.7129 4.2773,8.7129 C6.6353,8.7129 8.5533,6.7939 8.5533,4.4359" id="Fill-1" fill="#333332" mask="url(#mask-2)"></path>
                </g>
                <path d="M31.875,22.8418 L14.034,22.8418 C13.207,22.8418 12.534,22.1688 12.534,21.3418 L12.534,15.1618 L33.375,15.1618 L33.375,21.3418 C33.375,22.1688 32.702,22.8418 31.875,22.8418 M14.034,9.2108 L31.875,9.2108 C32.702,9.2108 33.375,9.8838 33.375,10.7108 L33.375,12.1618 L12.534,12.1618 L12.534,10.7108 C12.534,9.8838 13.207,9.2108 14.034,9.2108 M16.945,3.2368 C18.753,3.2368 20.223,4.7058 20.223,6.5138 C20.223,7.1378 20.041,7.7158 19.734,8.2108 L14.157,8.2108 C13.85,7.7158 13.668,7.1378 13.668,6.5138 C13.668,4.7058 15.138,3.2368 16.945,3.2368 M9.502,19.7768 C7.694,19.7768 6.225,18.3068 6.225,16.4988 C6.225,14.6918 7.694,13.2218 9.502,13.2218 C10.273,13.2218 10.977,13.4958 11.534,13.9458 L11.534,19.0518 C10.977,19.5028 10.273,19.7768 9.502,19.7768 M31.875,8.2108 L20.857,8.2108 C21.089,7.6908 21.223,7.1188 21.223,6.5138 C21.223,4.1548 19.304,2.2368 16.945,2.2368 C14.587,2.2368 12.668,4.1548 12.668,6.5138 C12.668,7.1888 12.833,7.8238 13.115,8.3908 C12.191,8.7588 11.534,9.6568 11.534,10.7108 L11.534,12.7548 C10.929,12.4208 10.241,12.2218 9.502,12.2218 C7.144,12.2218 5.225,14.1408 5.225,16.4988 C5.225,18.8578 7.144,20.7768 9.502,20.7768 C10.241,20.7768 10.929,20.5778 11.534,20.2428 L11.534,21.3418 C11.534,22.7208 12.655,23.8418 14.034,23.8418 L31.875,23.8418 C33.254,23.8418 34.375,22.7208 34.375,21.3418 L34.375,10.7108 C34.375,9.3318 33.254,8.2108 31.875,8.2108" id="Fill-4" fill="#333332"></path>
                <mask id="mask-4" fill="white">
                    <use xlink:href="#path-3"></use>
                </mask>
                <g id="Clip-7"></g>
                <polygon id="Fill-6" fill="#333332" mask="url(#mask-4)" points="14.928 21.0588 17.17 21.0588 17.17 19.0588 14.928 19.0588"></polygon>
                <polygon id="Fill-8" fill="#333332" mask="url(#mask-4)" points="18.641 21.0588 20.884 21.0588 20.884 19.0588 18.641 19.0588"></polygon>
            </g>
        </g>
    </g>
</svg>