<?xml version="1.0" encoding="UTF-8" standalone="no"?>
<svg width="29px" height="28px" viewBox="0 0 29 28" version="1.1" xmlns="http://www.w3.org/2000/svg" xmlns:xlink="http://www.w3.org/1999/xlink">
    <!-- Generator: Sketch 40.2 (33826) - http://www.bohemiancoding.com/sketch -->
    <title>click</title>
    <desc>Created with Sketch.</desc>
    <defs>
        <polygon id="path-1" points="28.448 27.9998 28.448 0.084 0 0.084 0 27.9998 28.448 27.9998"></polygon>
    </defs>
    <g id="Page-1" stroke="none" stroke-width="1" fill="none" fill-rule="evenodd">
        <g id="A4-Copy" transform="translate(-257.000000, -630.000000)">
            <g id="click" transform="translate(257.000000, 629.000000)">
                <polygon id="Fill-1" fill="#333332" points="14.3516 6.7695 13.6266 6.0825 9.8026 10.1125 7.7896 7.9595 7.0596 8.6435 9.7966 11.5715"></polygon>
                <g id="Group-4" transform="translate(0.000000, 0.915900)">
                    <mask id="mask-2" fill="white">
                        <use xlink:href="#path-1"></use>
                    </mask>
                    <g id="Clip-3"></g>
                    <path d="M10.6377,24.2828 C10.1767,25.4808 9.5627,25.7888 9.4307,26.9998 L7.3377,26.9998 L5.1507,26.9998 C4.4617,23.9448 4.0167,23.6258 3.6697,21.7638 C3.5267,20.9918 4.0477,19.6168 4.4857,18.9298 L4.4857,18.9298 C4.4917,18.9208 4.4967,18.9098 4.5017,18.9018 C4.5107,18.6348 4.5197,18.3448 4.5297,18.0488 C4.5327,17.9698 4.5347,17.8898 4.5377,17.8098 C4.5467,17.5658 4.5547,17.3168 4.5637,17.0668 C4.5807,16.5968 4.5987,16.1268 4.6167,15.6748 C4.6307,15.3518 4.6437,15.0468 4.6577,14.7578 C4.6737,14.4118 4.6897,14.0908 4.7047,13.8228 C4.7297,13.3948 5.0837,13.1638 5.4297,13.1638 L5.4297,13.1638 C5.7597,13.1638 6.0827,13.3738 6.1067,13.8228 C6.1207,14.0828 6.1367,14.3818 6.1517,14.7008 C6.1647,14.9658 6.1787,15.2518 6.1927,15.5398 C6.2297,16.3248 6.2677,17.1668 6.3017,17.9298 L6.3017,17.9298 C6.3057,18.0348 6.3107,18.1428 6.3157,18.2438 C6.4097,18.1958 6.5677,18.1708 6.7507,18.1708 C7.2957,18.1708 8.0597,18.3898 8.0217,18.8488 C8.0957,18.7978 8.2127,18.7738 8.3487,18.7738 C8.4487,18.7738 8.5577,18.7878 8.6687,18.8138 C8.6687,18.8138 8.6767,18.8148 8.6807,18.8158 C8.7927,18.8428 8.9067,18.8808 9.0117,18.9298 C9.2847,19.0558 9.5047,19.2538 9.5047,19.5078 C9.5807,19.4938 9.6567,19.4868 9.7337,19.4868 C10.3667,19.4868 11.0047,19.9578 11.0447,20.5748 C11.0567,20.7678 11.0647,20.9928 11.0687,21.2288 C11.0737,21.5378 11.0677,21.8728 11.0457,22.2198 C11.0007,22.9358 10.8867,23.6858 10.6377,24.2828 L10.6377,24.2828 Z M0.9997,14.7008 L0.9997,1.0838 L19.8427,1.0838 L19.8427,14.7008 L7.1527,14.7008 C7.1367,14.3638 7.1197,14.0428 7.1057,13.7688 C7.0557,12.8388 6.3507,12.1638 5.4297,12.1638 C4.5007,12.1638 3.7597,12.8518 3.7067,13.7648 C3.6907,14.0358 3.6747,14.3588 3.6587,14.7008 L0.9997,14.7008 Z M28.4487,6.6088 L25.8677,6.6088 L25.8677,7.6088 L27.4487,7.6088 L27.4487,21.2248 L12.0697,21.2248 C12.0657,20.9398 12.0547,20.6908 12.0427,20.5108 C12.0007,19.8698 11.6397,19.3008 11.1147,18.9298 L24.7067,18.9298 L24.7067,3.3138 L22.0027,3.3138 L22.0027,4.3138 L23.7067,4.3138 L23.7067,17.9298 L9.2007,17.9298 C8.9937,17.8578 8.7817,17.8018 8.5647,17.7828 C8.2207,17.4608 7.7317,17.2858 7.2707,17.2128 C7.2477,16.7118 7.2247,16.1988 7.2007,15.7008 L20.8427,15.7008 L20.8427,0.0838 L-0.0003,0.0838 L-0.0003,15.7008 L3.6157,15.7008 C3.5727,16.7728 3.5337,17.9018 3.5107,18.6118 C3.0817,19.3798 2.4847,20.8578 2.6867,21.9458 C2.8647,22.9018 3.0657,23.4808 3.2987,24.1518 C3.5447,24.8608 3.8247,25.6648 4.1747,27.2198 L4.3507,27.9998 L5.1507,27.9998 L7.3377,27.9998 L9.4307,27.9998 L10.3277,27.9998 L10.4247,27.1078 C10.4787,26.6128 10.6357,26.3618 10.8947,25.9468 C11.0977,25.6208 11.3507,25.2148 11.5717,24.6418 C11.8757,23.9118 12.0017,23.0208 12.0477,22.2248 L28.4487,22.2248 L28.4487,6.6088 Z" id="Fill-2" fill="#333332" mask="url(#mask-2)"></path>
                </g>
            </g>
        </g>
    </g>
</svg>