<?xml version="1.0" encoding="UTF-8" standalone="no"?>
<svg width="24px" height="24px" viewBox="0 0 24 24" version="1.1" xmlns="http://www.w3.org/2000/svg" xmlns:xlink="http://www.w3.org/1999/xlink">
    <!-- Generator: Sketch 40.2 (33826) - http://www.bohemiancoding.com/sketch -->
    <title>clockk</title>
    <desc>Created with Sketch.</desc>
    <defs>
        <polygon id="path-1" points="23.356 23.9996 23.356 0.644 0 0.644 0 23.9996"></polygon>
    </defs>
    <g id="Page-1" stroke="none" stroke-width="1" fill="none" fill-rule="evenodd">
        <g id="A4-Copy" transform="translate(-335.000000, -677.000000)">
            <g id="clockk" transform="translate(335.000000, 676.000000)">
                <g id="Group-3" transform="translate(0.000000, 0.356400)">
                    <mask id="mask-2" fill="white">
                        <use xlink:href="#path-1"></use>
                    </mask>
                    <g id="Clip-2"></g>
                    <path d="M12.1787,22.9746 L12.1787,20.9326 L11.1787,20.9326 L11.1787,22.9746 C5.6897,22.7186 1.2817,18.3106 1.0257,12.8226 L3.0687,12.8226 L3.0687,11.8226 L1.0257,11.8226 C1.2817,6.3336 5.6897,1.9246 11.1787,1.6686 L11.1787,3.7106 L12.1787,3.7106 L12.1787,1.6686 C17.6667,1.9246 22.0747,6.3336 22.3307,11.8226 L20.2887,11.8226 L20.2887,12.8226 L22.3307,12.8226 C22.0747,18.3106 17.6667,22.7186 12.1787,22.9746 M11.6787,0.6436 C5.2397,0.6436 -0.0003,5.8826 -0.0003,12.3226 C-0.0003,18.7616 5.2397,23.9996 11.6787,23.9996 C18.1177,23.9996 23.3567,18.7616 23.3567,12.3226 C23.3567,5.8826 18.1177,0.6436 11.6787,0.6436" id="Fill-1" fill="#333332" mask="url(#mask-2)"></path>
                </g>
                <polygon id="Fill-4" fill="#333332" points="12.1338 6.3144 11.1338 6.3144 11.1338 12.9824 14.0128 15.9054 14.7258 15.2044 12.1338 12.5724"></polygon>
            </g>
        </g>
    </g>
</svg>