<?xml version="1.0" encoding="UTF-8" standalone="no"?>
<svg width="28px" height="19px" viewBox="0 0 28 19" version="1.1" xmlns="http://www.w3.org/2000/svg" xmlns:xlink="http://www.w3.org/1999/xlink">
    <!-- Generator: Sketch 40.2 (33826) - http://www.bohemiancoding.com/sketch -->
    <title>cloud</title>
    <desc>Created with Sketch.</desc>
    <defs></defs>
    <g id="Page-1" stroke="none" stroke-width="1" fill="none" fill-rule="evenodd">
        <g id="A4-Copy" transform="translate(-505.000000, -329.000000)" fill="#333332">
            <g id="cloud" transform="translate(505.000000, 329.000000)">
                <path d="M6.0459,7.4199 C3.2639,7.4199 0.9999,9.6839 0.9999,12.4659 C0.9999,15.2479 3.2639,17.5119 6.0459,17.5119 L21.0799,17.5119 C23.8619,17.5119 26.1259,15.2479 26.1259,12.4659 C26.1259,9.6839 23.8619,7.4199 21.0799,7.4199 C20.9389,7.4199 20.8029,7.4399 20.6659,7.4579 L19.9589,7.5429 L19.9269,7.0159 C19.7199,3.6429 16.9239,0.9999 13.5629,0.9999 C10.1999,0.9999 7.4049,3.6429 7.1989,7.0159 L7.1669,7.5429 L6.4579,7.4579 C6.3219,7.4399 6.1869,7.4199 6.0459,7.4199 M21.0799,18.5119 L6.0459,18.5119 C2.7119,18.5119 -0.0001,15.7999 -0.0001,12.4659 C-0.0001,9.1319 2.7119,6.4199 6.0459,6.4199 C6.1149,6.4199 6.1839,6.4229 6.2519,6.4289 C6.7339,2.7829 9.8499,-0.0001 13.5629,-0.0001 C17.2749,-0.0001 20.3909,2.7829 20.8739,6.4289 C20.9419,6.4229 21.0109,6.4199 21.0799,6.4199 C24.4139,6.4199 27.1259,9.1319 27.1259,12.4659 C27.1259,15.7999 24.4139,18.5119 21.0799,18.5119" id="Fill-1"></path>
            </g>
        </g>
    </g>
</svg>