<?xml version="1.0" encoding="UTF-8" standalone="no"?>
<svg width="22px" height="27px" viewBox="0 0 22 27" version="1.1" xmlns="http://www.w3.org/2000/svg" xmlns:xlink="http://www.w3.org/1999/xlink">
    <!-- Generator: Sketch 40.2 (33826) - http://www.bohemiancoding.com/sketch -->
    <title>cocktail</title>
    <desc>Created with Sketch.</desc>
    <defs></defs>
    <g id="Page-1" stroke="none" stroke-width="1" fill="none" fill-rule="evenodd">
        <g id="A4-Copy" transform="translate(-475.000000, -449.000000)" fill="#333332">
            <path d="M491.111037,458.183 L478.838037,458.183 C477.671037,456.933 476.675037,455.867 476.215037,455.377 L493.736037,455.373 C493.293037,455.845 492.291037,456.918 491.111037,458.183 L491.111037,458.183 Z M479.771037,459.183 L490.178037,459.183 C488.135037,461.374 485.859037,463.817 484.976037,464.764 C484.093037,463.818 481.818037,461.377 479.771037,459.183 L479.771037,459.183 Z M496.607037,450 L496.607037,449 L493.547037,449 L490.674037,454.377 L475.905037,454.377 C475.554037,454.377 475.198037,454.618 475.061037,454.949 C474.938037,455.246 475.003037,455.564 475.237037,455.799 C475.443037,456.005 481.295037,462.281 484.477037,465.696 L484.477037,474.596 L479.792037,474.596 L479.792037,475.596 L490.161037,475.596 L490.161037,474.596 L485.477037,474.596 L485.477037,465.694 C488.656037,462.281 494.495037,456.017 494.686037,455.824 C494.942037,455.567 495.020037,455.234 494.894037,454.931 C494.743037,454.568 494.352037,454.377 494.043037,454.377 L491.809037,454.377 L494.147037,450 L496.607037,450 Z" id="cocktail"></path>
        </g>
    </g>
</svg>