<?xml version="1.0" encoding="UTF-8" standalone="no"?>
<svg width="63px" height="87px" viewBox="0 0 63 87" version="1.1" xmlns="http://www.w3.org/2000/svg" xmlns:xlink="http://www.w3.org/1999/xlink">
    <!-- Generator: Sketch 41 (35326) - http://www.bohemiancoding.com/sketch -->
    <title>noun_376046_cc</title>
    <desc>Created with Sketch.</desc>
    <defs></defs>
    <g id="Page-1" stroke="none" stroke-width="1" fill="none" fill-rule="evenodd">
        <g id="Watch-Soming-Soon" transform="translate(-688.000000, -241.000000)" fill="#2880A3">
            <g id="noun_376046_cc" transform="translate(688.000000, 241.000000)">
                <g id="Group">
                    <g id="Shape">
                        <path d="M17.031,85.01 C17.005,85.061 16.96,85.145 16.912,85.239 C16.638,85.064 16.394,84.908 16.06,84.696 C16.171,85.089 15.82,85.414 15.441,85.374 C14.628,85.287 13.82,85.157 13.009,85.056 C12.887,85.041 12.737,85.05 12.635,85.109 C11.989,85.484 11.329,85.56 10.623,85.288 C10.481,85.233 10.299,85.278 10.135,85.286 C9.4,85.322 8.665,85.348 7.931,85.403 C7.296,85.451 6.664,85.546 6.029,85.599 C5.353,85.657 4.668,85.641 4.001,85.745 C3.408,85.839 2.826,86.029 2.255,86.223 C1.901,86.343 1.259,86.237 1.067,85.91 C1,85.796 1.069,85.601 1.078,85.421 C1.025,85.429 0.888,85.447 0.742,85.467 C0.693,85.364 0.621,85.27 0.605,85.165 C0.592,85.079 0.647,84.904 0.671,84.904 C0.949,84.904 1.109,84.694 1.317,84.591 C1.83,84.336 2.414,84.182 2.985,84.1 C3.714,83.996 4.462,84.017 5.199,83.959 C6.366,83.868 7.53,83.744 8.698,83.658 C9.312,83.612 9.929,83.617 10.545,83.598 C10.829,83.589 11.114,83.595 11.397,83.569 C12.027,83.509 12.654,83.412 13.285,83.375 C13.626,83.355 13.973,83.453 14.317,83.453 C14.787,83.453 15.26,83.443 15.724,83.38 C16.658,83.251 17.587,83.083 18.518,82.93 C18.706,82.899 18.907,82.898 19.076,82.824 C20.205,82.327 21.458,82.529 22.616,82.187 C22.814,82.128 23.052,82.2 23.355,82.216 C23.226,81.921 23.106,81.676 23.009,81.422 C22.668,80.529 22.275,79.649 22.029,78.73 C21.94,78.398 21.801,78.091 21.716,77.767 C21.601,77.33 21.507,76.871 21.514,76.424 C21.519,76.032 21.372,75.693 21.293,75.335 C20.969,73.859 20.598,72.394 20.242,70.925 C20.158,70.576 20.136,70.184 19.954,69.896 C19.642,69.405 19.074,69.66 18.632,69.637 C17.925,69.6 17.322,68.951 17.468,68.237 C17.486,68.151 17.529,68.065 17.528,67.98 C17.516,67.198 17.468,66.415 17.49,65.632 C17.503,65.164 17.613,64.698 17.692,64.234 C17.874,63.16 18.093,62.09 18.235,61.011 C18.292,60.577 18.187,60.122 18.156,59.677 C18.147,59.547 18.105,59.407 18.137,59.287 C18.472,58.025 18.485,56.737 18.488,55.444 C18.488,55.261 18.533,55.045 18.638,54.902 C18.888,54.56 18.723,54.406 18.432,54.249 C17.874,53.948 17.303,53.665 16.776,53.315 C16.043,52.83 16.032,52.616 16.359,51.816 C16.5,51.473 16.5,51.073 16.57,50.7 C16.614,50.467 16.642,50.225 16.724,50.005 C17.12,48.942 17.533,47.887 17.937,46.827 C17.995,46.675 18.041,46.518 18.092,46.363 C18.281,45.782 18.469,45.2 18.66,44.619 C18.697,44.508 18.76,44.403 18.786,44.29 C19.028,43.241 19.244,42.186 19.512,41.145 C19.62,40.723 19.781,40.29 20.021,39.931 C20.398,39.366 21.041,39.423 21.611,39.483 C22.55,39.581 22.518,39.611 22.506,38.655 C22.492,37.602 22.559,36.548 22.548,35.494 C22.542,34.916 22.431,34.34 22.399,33.761 C22.369,33.226 22.413,32.686 22.366,32.153 C22.241,30.73 22.077,29.31 21.949,27.886 C21.919,27.549 21.983,27.204 21.977,26.864 C21.97,26.344 21.94,25.825 21.92,25.306 C21.903,24.877 21.841,24.445 21.877,24.02 C21.942,23.251 21.739,22.524 21.627,21.781 C21.531,21.139 21.442,20.485 21.475,19.842 C21.489,19.566 21.783,19.268 22.013,19.047 C22.596,18.486 23.076,17.79 23.906,17.532 C24.524,17.34 25.137,17.13 25.759,16.948 C26.365,16.771 26.972,16.567 27.593,16.47 C28.435,16.34 29.247,15.96 30.132,16.129 C30.212,16.144 30.305,16.092 30.392,16.074 C31.087,15.928 31.78,15.774 32.477,15.643 C32.695,15.601 32.948,15.554 33.144,15.624 C33.892,15.893 34.574,15.574 35.279,15.448 C35.827,15.35 36.379,15.277 36.925,15.176 C37.097,15.144 37.252,15.023 37.422,14.995 C38.34,14.846 39.257,14.663 40.182,14.589 C40.947,14.527 41.46,14.966 41.749,15.685 C42.073,16.494 42.488,17.271 42.758,18.097 C43.224,19.525 43.608,20.981 44.029,22.425 C44.136,22.793 44.244,23.163 44.369,23.526 C44.779,24.715 44.933,25.948 45.043,27.193 C45.161,28.543 45.335,29.889 45.421,31.24 C45.48,32.159 45.423,33.086 45.429,34.009 C45.43,34.24 45.488,34.471 45.49,34.703 C45.497,35.268 45.519,35.837 45.467,36.398 C45.444,36.655 45.467,36.765 45.713,36.86 C45.985,36.966 46.23,37.146 46.494,37.276 C46.749,37.402 47.031,37.481 47.273,37.627 C47.497,37.763 47.683,37.962 47.887,38.13 C48.011,38.233 48.126,38.392 48.267,38.422 C48.977,38.571 49.159,39.104 49.308,39.708 C49.463,40.337 49.67,40.954 49.871,41.572 C50.198,42.585 50.515,43.602 50.88,44.601 C51.103,45.206 51.408,45.782 51.679,46.371 C52.029,47.134 52.384,47.893 52.731,48.658 C52.888,49.007 52.994,49.384 53.186,49.711 C53.499,50.243 53.435,50.733 53.089,51.194 C52.841,51.524 52.58,51.863 52.259,52.113 C51.593,52.633 51.566,53.337 51.644,54.052 C51.719,54.744 51.911,55.423 52.009,56.115 C52.157,57.159 52.263,58.21 52.402,59.257 C52.485,59.888 52.622,60.513 52.689,61.146 C52.793,62.125 52.787,63.122 52.958,64.087 C53.285,65.936 53.032,67.78 53.015,69.624 C53.006,70.491 52.847,71.359 52.726,72.224 C52.551,73.481 52.385,74.743 52.145,75.989 C51.963,76.93 51.688,77.856 51.425,78.78 C51.126,79.829 50.794,80.869 50.477,81.913 C50.443,82.026 50.373,82.143 50.383,82.253 C50.459,83.035 49.948,83.586 49.63,84.213 C49.59,84.292 49.506,84.36 49.496,84.442 C49.373,85.434 48.538,85.782 47.835,86.206 C47.562,86.371 47.125,86.379 46.793,86.311 C45.776,86.104 44.781,85.791 43.764,85.587 C43.045,85.442 42.306,85.383 41.574,85.333 C40.837,85.282 40.095,85.28 39.356,85.275 C38.747,85.27 38.135,85.314 37.526,85.296 C36.681,85.274 35.838,85.213 34.995,85.171 C34.743,85.158 34.491,85.153 34.24,85.146 C33.523,85.124 32.807,85.095 32.091,85.082 C31.602,85.073 31.112,85.07 30.624,85.094 C29.676,85.14 28.729,85.232 27.781,85.258 C26.859,85.283 25.935,85.244 25.011,85.246 C24.626,85.247 24.235,85.244 23.856,85.305 C23.192,85.41 22.562,85.334 21.914,85.162 C21.545,85.064 21.128,85.144 20.733,85.146 C20.231,85.147 19.71,85.237 19.233,85.129 C18.676,85.003 18.15,84.964 17.594,85.068 C17.419,85.098 17.228,85.032 17.031,85.01 L17.031,85.01 Z M26.692,48.117 C26.709,47.809 26.665,47.566 26.747,47.377 C26.834,47.175 27.061,46.862 27.189,46.879 C27.586,46.933 28.075,47.042 28.097,47.566 C28.128,48.301 28.15,49.05 28.04,49.773 C27.902,50.677 27.673,51.576 27.396,52.45 C27.116,53.335 26.781,54.211 26.375,55.044 C26.06,55.69 25.638,56.299 25.188,56.864 C24.709,57.465 24.162,58.018 23.599,58.543 C23.382,58.746 23.033,58.873 22.766,58.533 C22.453,58.137 22.536,57.318 22.912,56.988 C23.265,56.678 23.244,56.425 22.824,56.217 C22.025,55.821 21.212,55.454 20.42,55.046 C20.081,54.871 19.955,54.997 19.902,55.308 C19.873,55.481 19.852,55.661 19.86,55.834 C19.888,56.431 20.009,57.033 19.951,57.619 C19.837,58.781 19.636,59.934 19.454,61.088 C19.385,61.526 19.248,61.951 19.181,62.389 C19.022,63.427 18.832,64.465 18.763,65.51 C18.726,66.072 18.874,66.657 19.014,67.213 C19.084,67.492 19.403,67.486 19.556,67.248 C19.896,66.718 20.193,66.682 20.687,67.093 C20.769,67.16 20.942,67.243 20.988,67.208 C21.46,66.845 22.036,66.914 22.566,66.813 C23.393,66.657 24.228,66.525 25.065,66.444 C25.7,66.383 26.344,66.414 26.984,66.412 C27.244,66.411 27.509,66.469 27.764,66.433 C28.494,66.331 29.217,66.65 29.967,66.399 C30.294,66.29 30.716,66.505 31.096,66.509 C31.936,66.516 32.776,66.481 33.616,66.465 C34.951,66.441 36.286,66.408 37.621,66.4 C37.957,66.397 38.293,66.473 38.63,66.507 C39.278,66.573 39.956,66.537 40.569,66.72 C41.815,67.09 43.018,66.894 44.236,66.656 C44.758,66.553 45.283,66.361 45.802,66.377 C46.349,66.393 46.89,66.606 47.433,66.735 C47.878,66.839 48.32,66.956 48.767,67.046 C49.012,67.095 49.286,67.046 49.512,67.131 C50.204,67.393 50.832,67.378 51.513,67.02 C51.862,66.835 51.911,66.637 51.891,66.337 C51.838,65.577 51.776,64.817 51.709,64.059 C51.627,63.123 51.569,62.183 51.441,61.252 C51.293,60.168 51.061,59.095 50.898,58.011 C50.714,56.792 50.583,55.566 50.4,54.347 C50.303,53.701 49.955,53.545 49.416,53.946 C48.763,54.431 48.159,54.984 47.549,55.525 C47.343,55.707 47.316,55.941 47.56,56.135 C47.982,56.472 47.887,56.906 47.752,57.315 C47.603,57.767 47.211,57.854 46.852,57.542 C46.674,57.387 46.507,57.21 46.372,57.019 C46.096,56.631 45.843,56.228 45.583,55.83 C45.13,55.137 44.646,54.462 44.241,53.741 C44.016,53.341 43.996,52.823 43.762,52.431 C43.006,51.16 42.661,49.758 42.487,48.331 C42.39,47.542 42.579,46.715 42.675,45.909 C42.696,45.735 42.871,45.448 42.981,45.445 C43.177,45.44 43.417,45.573 43.566,45.721 C43.687,45.842 43.726,46.065 43.758,46.25 C43.799,46.484 43.796,46.728 43.812,46.967 C43.849,47.565 43.916,47.61 44.445,47.334 C44.707,47.196 44.96,47.035 45.199,46.86 C45.676,46.51 46.134,46.137 46.61,45.789 C46.804,45.647 47.011,45.434 47.276,45.676 C47.515,45.896 47.597,46.141 47.486,46.477 C47.118,47.587 46.013,47.953 45.278,48.69 C45.076,48.892 44.776,49.001 44.517,49.144 C44.161,49.341 44.067,49.61 44.221,49.997 C44.582,50.902 44.893,51.829 45.285,52.72 C45.514,53.241 45.843,53.726 46.166,54.199 C46.43,54.585 46.611,54.592 46.969,54.271 C47.235,54.033 47.461,53.75 47.715,53.498 C47.873,53.342 48.032,53.172 48.223,53.065 C48.994,52.63 49.791,52.24 50.555,51.792 C51.355,51.322 51.8,50.755 51.55,50.01 C51.324,49.335 51.026,48.684 50.75,48.026 C50.17,46.637 49.497,45.294 49.181,43.794 C48.954,42.717 48.5,41.689 48.135,40.643 C48.083,40.496 47.972,40.359 47.862,40.244 C47.2,39.559 46.387,39.078 45.586,38.584 C45.486,38.522 45.33,38.537 45.201,38.543 C44.807,38.562 44.503,38.342 44.443,37.957 C44.407,37.724 44.393,37.486 44.392,37.25 C44.388,36.267 44.407,35.284 44.389,34.301 C44.377,33.649 44.313,32.997 44.284,32.345 C44.276,32.169 44.342,31.987 44.319,31.814 C44.173,30.664 43.955,29.52 43.871,28.366 C43.763,26.879 43.627,25.414 43.148,23.984 C42.796,22.932 42.642,21.814 42.28,20.766 C41.853,19.536 41.322,18.338 40.786,17.149 C40.541,16.603 40.08,16.319 39.431,16.462 C38.063,16.761 36.694,17.054 35.323,17.332 C34.902,17.417 34.471,17.468 34.043,17.502 C33.258,17.565 32.468,17.593 31.683,17.658 C30.97,17.717 30.254,17.774 29.549,17.886 C28.596,18.037 27.648,18.225 26.703,18.427 C25.621,18.657 24.563,18.967 23.694,19.699 C23.088,20.209 22.633,20.79 22.968,21.66 C23.01,21.768 23.005,21.897 23.009,22.016 C23.073,23.969 23.137,25.922 23.198,27.874 C23.209,28.243 23.176,28.616 23.214,28.981 C23.27,29.513 23.404,30.037 23.446,30.569 C23.539,31.739 23.598,32.912 23.666,34.084 C23.719,34.988 23.807,35.893 23.802,36.797 C23.798,37.745 23.68,38.692 23.651,39.64 C23.625,40.461 23.275,40.726 22.556,40.408 C21.823,40.084 21.11,40.305 20.88,40.94 C20.729,41.357 20.578,41.776 20.464,42.205 C20.216,43.132 20.012,44.07 19.753,44.994 C19.445,46.091 19.071,47.169 18.775,48.267 C18.41,49.623 18.093,50.992 17.767,52.358 C17.744,52.456 17.774,52.627 17.843,52.675 C18.277,52.985 18.701,53.325 19.178,53.552 C20.629,54.241 22.197,54.68 23.544,55.593 C23.883,55.823 24.114,55.732 24.282,55.377 C24.814,54.251 25.409,53.151 25.863,51.995 C26.167,51.221 26.29,50.371 26.45,49.547 C26.477,49.404 26.314,49.109 26.186,49.072 C25.348,48.839 24.531,48.488 23.621,48.589 C22.886,48.67 22.327,48.368 21.955,47.587 C22.239,47.532 22.484,47.46 22.732,47.445 C22.902,47.435 23.077,47.535 23.251,47.536 C24.116,47.541 24.951,47.69 25.772,47.965 C26.052,48.059 26.365,48.065 26.692,48.117 L26.692,48.117 Z M30.036,79.699 C29.902,79.599 29.877,79.565 29.854,79.566 C29.192,79.609 28.532,79.675 27.871,79.69 C27.684,79.694 27.494,79.548 27.306,79.471 C27.405,79.351 27.485,79.156 27.606,79.125 C28.455,78.916 29.155,78.278 30.08,78.287 C30.38,78.29 30.689,78.143 30.977,78.183 C31.257,78.222 31.46,78.049 31.673,78.041 C32.346,78.017 33.023,78.126 33.699,78.128 C34.474,78.13 35.251,78.085 36.024,78.035 C36.328,78.014 36.628,77.869 36.928,77.878 C37.716,77.9 38.497,77.788 39.299,77.948 C40.06,78.099 40.869,78.006 41.656,78.032 C42.516,78.061 43.376,78.105 44.236,78.139 C44.325,78.143 44.416,78.128 44.503,78.11 C45.333,77.931 46.151,77.999 46.965,78.209 C47.077,78.238 47.187,78.289 47.3,78.299 C47.917,78.352 48.535,78.395 49.167,78.444 C48.961,79.328 48.196,79.44 47.541,79.42 C46.678,79.394 45.815,79.329 44.969,79.282 C44.939,80.166 45.215,80.841 45.669,81.46 C45.954,81.849 46.238,82.243 46.475,82.662 C46.711,83.078 46.968,83.446 47.49,83.456 C47.735,83.461 47.992,83.4 48.223,83.316 C48.394,83.253 48.614,83.136 48.673,82.989 C49.119,81.881 49.571,80.772 49.94,79.636 C50.287,78.569 50.565,77.475 50.815,76.379 C51.062,75.298 51.251,74.201 51.436,73.108 C51.524,72.587 51.551,72.057 51.596,71.532 C51.656,70.832 51.704,70.131 51.762,69.396 C51.455,69.39 51.251,69.341 51.074,69.391 C50.394,69.578 49.736,69.639 49.087,69.277 C48.967,69.211 48.789,69.26 48.646,69.225 C48.059,69.08 47.475,68.925 46.891,68.771 C46.748,68.734 46.604,68.636 46.469,68.65 C45.868,68.71 45.264,68.762 44.674,68.885 C43.617,69.106 42.57,69.306 41.488,69.058 C40.939,68.932 40.383,68.822 39.823,68.765 C38.628,68.644 37.428,68.555 36.229,68.469 C35.787,68.438 35.339,68.43 34.895,68.449 C34.541,68.466 34.192,68.561 33.838,68.586 C33.305,68.621 32.77,68.625 32.235,68.643 C32.101,68.648 31.967,68.667 31.835,68.661 C31.005,68.615 30.175,68.563 29.346,68.515 C29.123,68.501 28.9,68.483 28.677,68.48 C28.15,68.472 27.622,68.467 27.095,68.472 C26.843,68.475 26.589,68.532 26.339,68.514 C24.913,68.414 23.52,68.66 22.136,68.943 C21.822,69.007 21.366,69.199 21.291,69.433 C21.151,69.87 21.072,70.476 21.276,70.839 C21.658,71.521 21.851,72.233 21.927,72.969 C21.986,73.544 22.315,74.108 22.065,74.714 C22.038,74.779 22.14,74.906 22.195,74.996 C22.244,75.075 22.342,75.134 22.367,75.217 C22.612,76.029 22.838,76.846 23.085,77.656 C23.251,78.202 23.46,78.734 23.613,79.282 C23.743,79.747 23.822,80.225 23.923,80.698 C23.961,80.877 23.972,81.066 24.037,81.234 C24.156,81.54 24.266,81.861 24.452,82.126 C24.692,82.466 25.004,82.756 25.324,83.11 C25.454,83.096 25.714,83.127 25.917,83.034 C26.48,82.775 27.069,82.531 27.554,82.158 C28.132,81.715 28.615,81.144 29.134,80.626 C29.433,80.328 29.723,80.021 30.036,79.699 L30.036,79.699 Z M44.2,82.182 C44.199,82.171 44.21,82.065 44.167,81.989 C43.688,81.135 43.205,80.284 42.711,79.439 C42.657,79.348 42.523,79.248 42.427,79.249 C41.686,79.254 40.99,78.785 40.208,79.087 C39.928,79.194 39.563,79.089 39.238,79.075 C38.691,79.053 38.145,79.033 37.599,79 C37.217,78.978 36.826,78.865 36.456,78.918 C35.964,78.988 35.491,79.186 35.006,79.315 C34.879,79.349 34.738,79.351 34.606,79.344 C34.098,79.321 33.582,79.215 33.087,79.281 C32.691,79.334 32.233,79.504 31.962,79.778 C31.65,80.093 31.536,80.589 31.168,80.906 C30.947,81.097 30.758,81.341 30.61,81.594 C30.561,81.678 30.721,81.986 30.728,81.984 C31.142,81.87 31.597,82.213 31.989,81.877 C32.033,81.839 32.121,81.844 32.189,81.844 C32.777,81.839 33.366,81.841 33.953,81.829 C34.053,81.827 34.149,81.761 34.25,81.741 C34.46,81.699 34.675,81.63 34.885,81.639 C35.387,81.663 35.886,81.751 36.387,81.771 C37.64,81.819 38.894,81.818 40.144,81.886 C40.694,81.916 41.233,82.118 41.783,82.155 C42.574,82.205 43.373,82.176 44.2,82.182 L44.2,82.182 Z"></path>
                        <path d="M15.258,35.485 C15.256,36.034 15.257,36.584 15.249,37.132 C15.242,37.673 14.825,37.942 14.499,38.284 C13.99,38.819 13.347,39.115 12.654,39.186 C11.98,39.255 11.334,38.935 10.965,38.384 C10.666,37.937 10.538,37.356 10.419,36.815 C10.345,36.477 10.402,36.1 10.445,35.747 C10.57,34.714 11.333,34.326 12.188,33.965 C12.778,33.716 13.265,33.777 13.781,34.074 C13.864,34.122 13.987,34.155 14.076,34.132 C14.663,33.986 14.925,34.33 15.101,34.799 C15.184,35.019 15.239,35.25 15.307,35.477 C15.29,35.479 15.274,35.482 15.258,35.485 L15.258,35.485 Z M11.994,36.603 C12.012,37.024 12.375,37.028 12.639,37.075 C12.958,37.133 13.451,36.74 13.443,36.505 C13.436,36.28 12.965,35.974 12.638,35.981 C12.323,35.988 11.987,36.313 11.994,36.603 L11.994,36.603 Z"></path>
                        <path d="M51.814,20.143 C51.764,19.178 51.945,18.295 52.614,17.571 C52.729,17.446 52.88,17.323 53.037,17.273 C53.509,17.121 53.985,16.965 54.473,16.887 C54.884,16.821 55.332,16.781 55.73,16.876 C56.272,17.005 56.398,17.553 56.539,18.017 C56.663,18.426 56.725,18.854 56.804,19.275 C57.036,20.506 55.891,21.938 54.635,21.977 C54.178,21.992 53.707,22.048 53.264,21.965 C52.385,21.802 51.769,21.027 51.814,20.143 L51.814,20.143 Z M53.947,20.28 C54.363,20.186 54.784,20.112 55.192,19.993 C55.514,19.899 55.662,19.521 55.565,19.155 C55.466,18.783 55.329,18.471 54.84,18.58 C54.536,18.648 54.209,18.646 53.923,18.754 C53.613,18.871 53.306,19.045 53.065,19.267 C52.966,19.358 52.972,19.684 53.057,19.829 C53.242,20.143 53.538,20.349 53.947,20.28 L53.947,20.28 Z"></path>
                        <path d="M49.538,2.992 C49.518,3.392 49.532,3.798 49.472,4.192 C49.378,4.794 49.124,5.311 48.481,5.506 C47.987,5.656 47.492,5.815 46.986,5.915 C46.494,6.013 46.058,5.837 45.782,5.411 C45.298,4.665 44.956,3.823 45.125,2.952 C45.273,2.185 45.821,1.556 46.484,1.119 C46.882,0.858 47.356,0.685 47.819,0.557 C48.027,0.5 48.393,0.571 48.513,0.723 C49.037,1.383 49.598,2.051 49.538,2.992 L49.538,2.992 Z M47.459,2.636 C47.089,2.656 46.695,2.934 46.562,3.269 C46.42,3.624 46.662,4.046 47.041,4.011 C47.301,3.987 47.552,3.821 47.801,3.704 C48.066,3.579 48.238,3.396 48.141,3.069 C48.037,2.727 47.796,2.609 47.459,2.636 L47.459,2.636 Z"></path>
                        <path d="M60.438,77.126 C60.035,77.126 59.629,77.153 59.229,77.121 C58.35,77.051 57.793,76.352 58.001,75.505 C58.187,74.747 58.454,74.006 58.74,73.278 C58.826,73.057 59.067,72.871 59.279,72.73 C59.647,72.487 60.046,72.288 60.435,72.078 C60.51,72.037 60.602,72.02 60.689,72.01 C61.172,71.952 62.368,72.762 62.532,73.223 C62.62,73.472 62.771,73.699 62.895,73.935 C63.232,74.574 62.941,75.179 62.695,75.722 C62.281,76.638 61.448,77.101 60.438,77.126 L60.438,77.126 Z M59.888,75.533 C60.476,75.402 60.911,75.317 61.34,75.208 C61.605,75.14 61.616,74.965 61.531,74.72 C61.321,74.116 60.732,74.02 60.274,73.949 C59.973,73.903 59.571,74.269 59.278,74.524 C59.158,74.628 59.105,75.021 59.196,75.117 C59.399,75.328 59.712,75.435 59.888,75.533 L59.888,75.533 Z"></path>
                        <path d="M36.742,40.334 C36.753,40.442 36.725,40.576 36.78,40.64 C37.334,41.289 37.223,42.125 37.423,42.872 C37.594,43.513 37.785,44.155 37.884,44.808 C37.964,45.331 37.91,45.873 37.932,46.407 C37.94,46.597 37.979,46.79 38.026,46.975 C38.234,47.809 37.686,48.412 36.838,48.262 C36.281,48.165 35.731,48.039 35.173,47.944 C34.868,47.891 34.556,47.879 34.248,47.839 C34.096,47.818 33.945,47.778 33.794,47.747 C33.951,47.04 33.963,46.316 34.271,45.755 C34.804,44.779 34.908,43.739 35.036,42.692 C35.095,42.213 35.028,41.719 35.025,41.231 C35.024,41.087 35.035,40.94 35.064,40.8 C35.151,40.375 34.935,40.067 34.501,40.015 C34.442,40.008 34.379,39.997 34.322,40.01 C33.304,40.243 32.318,39.915 31.317,39.867 C30.753,39.839 30.18,40.069 29.606,40.139 C29.153,40.194 28.686,40.237 28.235,40.188 C27.719,40.131 27.345,39.52 27.599,39.076 C27.886,38.574 27.755,38.098 27.741,37.607 C27.728,37.15 27.706,36.694 27.664,36.239 C27.619,35.752 27.538,35.268 27.489,34.781 C27.408,33.97 27.34,33.158 27.267,32.345 C27.245,32.097 27.216,31.849 27.209,31.601 C27.178,30.535 27.162,29.468 27.123,28.401 C27.104,27.901 27.041,27.403 27.007,26.903 C26.969,26.357 26.942,25.81 26.909,25.264 C26.872,24.645 26.804,24.027 26.808,23.408 C26.811,22.958 26.872,22.499 26.987,22.066 C27.028,21.913 27.295,21.734 27.473,21.717 C28.255,21.64 28.88,21.204 29.543,20.866 C30.342,20.459 31.065,19.846 31.904,19.589 C32.586,19.38 33.237,19.018 34.013,19.011 C34.641,19.006 35.257,18.648 35.895,18.547 C36.787,18.405 37.656,18.009 38.6,18.303 C39.773,18.668 40.551,19.325 40.796,20.612 C41.057,21.98 41.452,23.317 41.576,24.717 C41.648,25.538 41.961,26.337 42.059,27.158 C42.217,28.47 42.291,29.792 42.395,31.11 C42.437,31.653 42.477,32.198 42.491,32.743 C42.524,34.127 42.582,35.513 42.548,36.895 C42.532,37.539 42.321,38.176 42.208,38.818 C42.186,38.945 42.177,39.084 42.203,39.209 C42.302,39.675 42.185,39.859 41.731,39.893 C40.839,39.96 39.946,40.01 39.054,40.087 C38.301,40.154 37.549,40.248 36.742,40.334 L36.742,40.334 Z M38.684,38.723 C38.85,37.697 39.011,36.737 39.161,35.774 C39.259,35.148 39.371,34.522 39.419,33.891 C39.505,32.742 39.57,31.591 39.603,30.439 C39.642,29.059 39.663,27.676 39.637,26.296 C39.629,25.861 39.413,25.435 39.354,24.996 C39.194,23.801 39.065,22.602 38.926,21.405 C38.84,20.657 38.322,20.217 37.566,20.151 C36.889,20.091 36.268,20.229 35.634,20.435 C34.973,20.65 34.286,20.791 33.613,20.968 C33.342,21.039 33.073,21.12 32.802,21.196 C32.473,21.288 32.122,21.332 31.82,21.478 C31.221,21.768 30.647,22.108 30.07,22.438 C29.761,22.614 29.463,22.811 29.162,23.002 C28.5,23.423 28.138,23.98 28.225,24.81 C28.315,25.664 28.35,26.524 28.388,27.382 C28.457,28.954 28.486,30.528 28.579,32.098 C28.67,33.632 28.824,35.161 28.945,36.693 C28.986,37.213 29.01,37.734 29.04,38.234 C29.373,38.282 29.647,38.355 29.921,38.355 C30.696,38.355 31.473,38.287 32.247,38.315 C33.21,38.351 34.171,38.46 35.133,38.528 C35.395,38.547 35.663,38.567 35.92,38.53 C36.508,38.446 37.075,38.359 37.663,38.605 C37.957,38.727 38.322,38.686 38.684,38.723 L38.684,38.723 Z M36.556,43.326 C36.523,43.019 36.643,42.556 36.174,42.559 C35.775,42.562 35.818,43.01 35.754,43.293 C35.568,44.112 35.414,44.939 35.237,45.761 C35.146,46.184 35.222,46.3 35.654,46.339 C35.846,46.357 36.042,46.359 36.23,46.396 C37.185,46.582 37.223,46.547 37.061,45.57 C37.051,45.512 37.03,45.456 37.017,45.398 C36.864,44.707 36.711,44.017 36.556,43.326 L36.556,43.326 Z"></path>
                        <path d="M29.997,32.211 C30.547,32.374 30.991,32.634 31.328,33.066 C31.574,33.381 31.779,33.74 32.068,34.006 C32.676,34.564 32.934,35.304 33.198,36.038 C33.249,36.178 33.151,36.439 33.034,36.551 C32.941,36.64 32.682,36.649 32.552,36.585 C32.379,36.5 32.212,36.332 32.123,36.158 C31.809,35.538 31.301,35.132 30.763,34.716 C30.32,34.374 29.917,33.918 29.653,33.428 C29.515,33.172 29.705,32.731 29.77,32.379 C29.781,32.315 29.909,32.273 29.997,32.211 L29.997,32.211 Z"></path>
                        <path d="M31.483,26.392 C30.588,26.442 30.297,26.223 30.255,25.468 C30.213,24.714 30.412,24.493 31.175,24.45 C31.712,24.42 32.359,25.015 32.399,25.576 C32.439,26.143 32.205,26.352 31.483,26.392 L31.483,26.392 Z"></path>
                        <path d="M38.303,24.542 C38.335,25.014 38.174,25.252 37.799,25.29 C37.337,25.336 36.692,24.798 36.658,24.339 C36.634,24.01 37.028,23.559 37.36,23.536 C37.808,23.503 38.265,23.991 38.303,24.542 L38.303,24.542 Z"></path>
                    </g>
                </g>
            </g>
        </g>
    </g>
</svg>