<?xml version="1.0" encoding="UTF-8" standalone="no"?>
<svg width="22px" height="22px" viewBox="0 0 22 22" version="1.1" xmlns="http://www.w3.org/2000/svg" xmlns:xlink="http://www.w3.org/1999/xlink">
    <!-- Generator: Sketch 40.2 (33826) - http://www.bohemiancoding.com/sketch -->
    <title>connect</title>
    <desc>Created with Sketch.</desc>
    <defs>
        <polygon id="path-1" points="0 0.614574127 0 15.9997 13.469 15.9997 13.469 0.614574127 6.77626358e-21 0.614574127"></polygon>
    </defs>
    <g id="Page-1" stroke="none" stroke-width="1" fill="none" fill-rule="evenodd">
        <g id="A4-Copy" transform="translate(-420.000000, -572.000000)">
            <g id="connect" transform="translate(420.000000, 572.000000)">
                <path d="M21.1293,5.4242 L16.0683,0.3632 C15.5823,-0.1218 14.7943,-0.1208 14.3123,0.3632 L10.8003,3.8752 L11.5073,4.5822 L15.0193,1.0702 C15.1123,0.9762 15.2683,0.9782 15.3613,1.0702 L20.4233,6.1322 C20.4833,6.1932 20.4933,6.2652 20.4933,6.3022 C20.4933,6.3392 20.4833,6.4122 20.4223,6.4742 L12.6083,14.2872 C12.5143,14.3812 12.3583,14.3812 12.2653,14.2872 L8.5443,10.5672 L7.8373,11.2742 L11.5583,14.9942 C11.8003,15.2372 12.1183,15.3582 12.4373,15.3582 C12.7543,15.3582 13.0723,15.2372 13.3153,14.9942 L21.1293,7.1812 C21.3643,6.9452 21.4933,6.6332 21.4933,6.3012 C21.4923,5.9692 21.3633,5.6572 21.1293,5.4242" id="Fill-1" fill="#333332"></path>
                <g id="Group-5" transform="translate(0.000000, 5.493500)">
                    <mask id="mask-2" fill="white">
                        <use xlink:href="#path-1"></use>
                    </mask>
                    <g id="Clip-4"></g>
                    <path d="M6.472,14.9297 C6.411,14.9907 6.339,14.9997 6.302,14.9997 C6.264,14.9997 6.192,14.9907 6.13,14.9287 L1.071,9.8687 C0.976,9.7737 0.976,9.6197 1.07,9.5257 L8.899,1.6857 C8.993,1.5897 9.148,1.5907 9.243,1.6847 L12.762,5.2047 L13.469,4.4977 L9.949,0.9767 C9.465,0.4927 8.676,0.4947 8.193,0.9777 L0.362,8.8197 C-0.121,9.3027 -0.121,10.0907 0.363,10.5757 L5.423,15.6357 C5.658,15.8697 5.97,15.9997 6.302,15.9997 L6.303,15.9997 C6.635,15.9987 6.947,15.8697 7.18,15.6357 L10.716,12.0997 L10.009,11.3927 L6.472,14.9297 Z" id="Fill-3" fill="#333332" mask="url(#mask-2)"></path>
                </g>
            </g>
        </g>
    </g>
</svg>