<?xml version="1.0" encoding="UTF-8" standalone="no"?>
<svg width="25px" height="20px" viewBox="0 0 25 20" version="1.1" xmlns="http://www.w3.org/2000/svg" xmlns:xlink="http://www.w3.org/1999/xlink">
    <!-- Generator: Sketch 40.2 (33826) - http://www.bohemiancoding.com/sketch -->
    <title>crown</title>
    <desc>Created with Sketch.</desc>
    <defs></defs>
    <g id="Page-1" stroke="none" stroke-width="1" fill="none" fill-rule="evenodd">
        <g id="A4-Copy" transform="translate(-122.000000, -160.000000)" fill="#333332">
            <path d="M143.982,175.389 L124.36,175.389 L123.345,165.381 L128.477,171.99 L134.161,162.02 L139.847,171.989 L145,165.375 L143.982,175.389 Z M143.659,178.593 C143.659,178.755 143.521,178.893 143.359,178.893 L124.984,178.893 C124.821,178.893 124.683,178.755 124.68,178.542 L124.462,176.389 L143.88,176.389 L143.662,178.542 L143.659,178.593 Z M139.976,170.196 L134.161,160 L128.35,170.195 L122,162.016 L123.683,178.593 C123.683,179.31 124.267,179.893 124.984,179.893 L143.359,179.893 C144.066,179.893 144.643,179.326 144.659,178.621 L146.345,162.02 L139.976,170.196 Z" id="crown"></path>
        </g>
    </g>
</svg>