<?xml version="1.0" encoding="UTF-8" standalone="no"?>
<svg width="20px" height="28px" viewBox="0 0 20 28" version="1.1" xmlns="http://www.w3.org/2000/svg" xmlns:xlink="http://www.w3.org/1999/xlink">
    <!-- Generator: Sketch 40.2 (33826) - http://www.bohemiancoding.com/sketch -->
    <title>cup</title>
    <desc>Created with Sketch.</desc>
    <defs></defs>
    <g id="Page-1" stroke="none" stroke-width="1" fill="none" fill-rule="evenodd">
        <g id="A4-Copy" transform="translate(-538.000000, -452.000000)" fill="#333332">
            <g id="cup" transform="translate(538.000000, 452.000000)">
                <polygon id="Fill-1" points="3.974 8.628 4.875 8.628 4.875 2.888 3.974 2.888"></polygon>
                <polygon id="Fill-2" points="7.654 8.628 8.554 8.628 8.554 0 7.654 0"></polygon>
                <polygon id="Fill-3" points="11.332 8.628 12.233 8.628 12.233 2.888 11.332 2.888"></polygon>
                <path d="M16.207,21.905 L18.745,21.905 L18.745,15.642 L16.207,15.642 L16.207,21.905 Z M15.207,24.991 C15.207,25.685 14.643,26.248 13.949,26.248 L2.257,26.248 C1.563,26.248 1,25.685 1,24.991 L1,11.928 L15.207,11.928 L15.207,14.642 L15.204,14.642 L15.204,22.905 L15.207,22.905 L15.207,24.991 Z M19.022,14.642 L16.207,14.642 L16.207,10.928 L0,10.928 L0,24.991 C0,26.235 1.013,27.248 2.257,27.248 L13.949,27.248 C15.194,27.248 16.207,26.235 16.207,24.991 L16.207,22.905 L19.022,22.905 C19.42,22.905 19.745,22.554 19.745,22.124 L19.745,15.423 C19.745,14.994 19.42,14.642 19.022,14.642 L19.022,14.642 Z" id="Fill-4"></path>
            </g>
        </g>
    </g>
</svg>