<?xml version="1.0" encoding="UTF-8" standalone="no"?>
<svg width="23px" height="24px" viewBox="0 0 23 24" version="1.1" xmlns="http://www.w3.org/2000/svg" xmlns:xlink="http://www.w3.org/1999/xlink">
    <!-- Generator: Sketch 40.2 (33826) - http://www.bohemiancoding.com/sketch -->
    <title>date</title>
    <desc>Created with Sketch.</desc>
    <defs></defs>
    <g id="Page-1" stroke="none" stroke-width="1" fill="none" fill-rule="evenodd">
        <g id="A4-Copy" transform="translate(-158.000000, -542.000000)" fill="#333332">
            <g id="date" transform="translate(158.000000, 542.000000)">
                <path d="M17.1684,0.0002 L17.1684,1.5162 L5.1884,1.5162 L5.1884,0.0002 L4.1884,0.0002 L4.1884,1.5162 L0.0004,1.5162 L0.0004,23.4782 L22.4434,23.4782 L22.4434,1.5162 L18.1684,1.5162 L18.1684,0.0002 L17.1684,0.0002 Z M18.1684,3.9382 L18.1684,2.5162 L21.4434,2.5162 L21.4434,6.2962 L0.9994,6.2962 L0.9994,2.5162 L4.1884,2.5162 L4.1884,3.9382 L5.1884,3.9382 L5.1884,2.5162 L17.1684,2.5162 L17.1684,3.9382 L18.1684,3.9382 Z M0.9994,7.2962 L21.4434,7.2962 L21.4434,16.1462 L14.9334,16.1462 L14.9334,22.4782 L0.9994,22.4782 L0.9994,7.2962 Z M15.9334,17.1462 L20.7104,17.1462 L15.9334,21.7862 L15.9334,17.1462 Z M21.4434,17.8292 L21.4434,22.4782 L16.6564,22.4782 L21.4434,17.8292 Z" id="Fill-1"></path>
                <path d="M11.3555,10.376 C11.2945,10.787 11.1945,11.106 11.0535,11.333 C10.9125,11.56 10.7365,11.729 10.5275,11.84 C10.3175,11.951 10.0695,12.022 9.7825,12.052 C9.4955,12.082 9.1765,12.102 8.8255,12.109 L8.8255,12.688 L11.2015,12.688 L11.2015,19.364 L12.0095,19.364 L12.0095,10.376 L11.3555,10.376 Z" id="Fill-2"></path>
            </g>
        </g>
    </g>
</svg>