<?xml version="1.0" encoding="UTF-8" standalone="no"?>
<svg width="37px" height="30px" viewBox="0 0 37 30" version="1.1" xmlns="http://www.w3.org/2000/svg" xmlns:xlink="http://www.w3.org/1999/xlink">
    <!-- Generator: Sketch 40.2 (33826) - http://www.bohemiancoding.com/sketch -->
    <title>delivery</title>
    <desc>Created with Sketch.</desc>
    <defs>
        <polygon id="path-1" points="11.901 0.561 0 0.561 0 10.8569 0 21.1528 11.901 21.1528 11.901 0.561"></polygon>
    </defs>
    <g id="Page-1" stroke="none" stroke-width="1" fill="none" fill-rule="evenodd">
        <g id="A4-Copy" transform="translate(-198.000000, -330.000000)">
            <g id="delivery" transform="translate(198.000000, 329.000000)">
                <path d="M36.2959,18.0684 L18.7469,24.4274 C18.8129,24.5714 18.8779,24.7164 18.9319,24.8684 C18.9919,25.0334 19.0409,25.2014 19.0849,25.3684 L36.6359,19.0074 L36.2959,18.0684 Z" id="Fill-1" fill="#333332"></path>
                <g id="Group-5" transform="translate(0.000000, 0.439500)">
                    <mask id="mask-2" fill="white">
                        <use xlink:href="#path-1"></use>
                    </mask>
                    <g id="Clip-4"></g>
                    <path d="M11.48,20.9358 C11.62,20.8848 11.76,20.8468 11.901,20.8068 L5.356,2.9338 L5.283,2.7358 L0.406,0.5608 L0,1.4748 L4.49,3.4758 L10.963,21.1528 C11.131,21.0738 11.302,20.9998 11.48,20.9358" id="Fill-3" fill="#333332" mask="url(#mask-2)"></path>
                </g>
                <path d="M14.3418,29.2842 C13.0208,29.7642 11.4958,29.0332 11.0238,27.7292 C10.5368,26.3862 11.2358,24.8962 12.5778,24.4112 C12.8628,24.3082 13.1598,24.2562 13.4598,24.2562 C14.5478,24.2562 15.5268,24.9432 15.8968,25.9662 C16.3828,27.3092 15.6848,28.7992 14.3418,29.2842 M13.4598,23.2562 C13.0438,23.2562 12.6328,23.3282 12.2378,23.4712 C10.3768,24.1432 9.4088,26.2072 10.0828,28.0692 C10.5958,29.4872 11.9528,30.4392 13.4608,30.4392 C13.8768,30.4392 14.2868,30.3672 14.6818,30.2242 C16.5438,29.5512 17.5108,27.4882 16.8368,25.6262 C16.3238,24.2082 14.9678,23.2562 13.4598,23.2562" id="Fill-6" fill="#333332"></path>
                <path d="M16.6943,4.4004 C16.7253,4.3334 16.7973,4.2734 16.8843,4.2424 L22.1043,2.3624 C22.1483,2.3464 22.1923,2.3384 22.2353,2.3384 C22.3243,2.3384 22.3923,2.3744 22.4043,2.4064 L23.2833,4.8484 L17.5713,6.9174 L16.6943,4.4004 Z M26.0173,4.9214 C26.8233,6.4994 28.5893,7.3284 30.3173,6.9424 L31.9443,11.4344 C30.3753,12.2404 29.5483,13.9984 29.9283,15.7204 L19.3993,19.5344 C18.5933,17.9784 16.8503,17.1574 15.1383,17.5254 L13.5123,13.0374 C15.0733,12.2204 15.8873,10.4564 15.4923,8.7344 L17.9483,7.8454 L24.5673,5.4624 L24.5623,5.4484 L26.0173,4.9214 Z M15.6763,21.9474 L34.3643,15.1764 L29.7703,2.4984 L24.2243,4.5074 L23.3453,2.0674 C23.1343,1.4884 22.4093,1.1884 21.7663,1.4214 L16.5473,3.3004 C16.2103,3.4214 15.9333,3.6684 15.7893,3.9754 C15.6633,4.2444 15.6463,4.5394 15.7423,4.8044 L16.6263,7.2604 L11.0833,9.2684 L15.6763,21.9474 Z" id="Fill-8" fill="#333332"></path>
            </g>
        </g>
    </g>
</svg>