<?xml version="1.0" encoding="UTF-8" standalone="no"?>
<svg width="18px" height="18px" viewBox="0 0 18 18" version="1.1" xmlns="http://www.w3.org/2000/svg" xmlns:xlink="http://www.w3.org/1999/xlink">
    <!-- Generator: Sketch 40.2 (33826) - http://www.bohemiancoding.com/sketch -->
    <title>dislike</title>
    <desc>Created with Sketch.</desc>
    <defs></defs>
    <g id="Page-1" stroke="none" stroke-width="1" fill="none" fill-rule="evenodd">
        <g id="A4-Copy" transform="translate(-227.000000, -74.000000)" fill="#333332">
            <g id="dislike" transform="translate(227.000000, 74.000000)">
                <path d="M4.8496,0 C3.4546,0 2.5496,0.478 2.1596,1.421 L2.1116,1.534 C1.9156,1.987 1.8256,2.393 1.8396,2.75 C1.4926,3.044 1.2176,3.438 1.0736,3.885 C0.9766,4.184 0.9486,4.484 0.9846,4.767 C0.5826,5.139 0.3126,5.662 0.2356,6.271 C0.1666,6.809 0.2616,7.327 0.4866,7.763 C0.2416,8.116 0.0746,8.545 0.0186,9.01 C-0.0934,9.944 0.3056,10.785 1.0596,11.204 C1.8106,11.621 3.2336,11.841 4.5066,11.946 C3.8506,13.025 3.4656,14.054 3.4966,15.16 C3.5386,16.68 4.4226,17.827 5.5536,17.827 C5.6716,17.827 5.7906,17.813 5.9076,17.787 C6.4956,17.657 6.7806,17.173 7.1746,16.503 C7.4106,16.102 7.7036,15.603 8.0596,15.188 C9.1226,13.948 9.5116,13.613 10.5866,12.824 L10.9116,12.583 C12.0156,11.756 13.2676,10.82 16.2816,10.406 L17.1456,10.288 L17.1456,9.416 L17.1456,5.945 L17.1456,3.152 L17.1456,2.211 L16.2066,2.154 C14.4356,2.046 13.3776,1.672 12.1526,1.24 C10.5066,0.659 8.6406,0 4.8496,0" id="Fill-1"></path>
            </g>
        </g>
    </g>
</svg>