<?xml version="1.0" encoding="UTF-8" standalone="no"?>
<svg width="24px" height="24px" viewBox="0 0 24 24" version="1.1" xmlns="http://www.w3.org/2000/svg" xmlns:xlink="http://www.w3.org/1999/xlink">
    <!-- Generator: Sketch 40.2 (33826) - http://www.bohemiancoding.com/sketch -->
    <title>doctor</title>
    <desc>Created with Sketch.</desc>
    <defs></defs>
    <g id="Page-1" stroke="none" stroke-width="1" fill="none" fill-rule="evenodd">
        <g id="A4-Copy" transform="translate(-262.000000, -468.000000)" fill="#333332">
            <g id="doctor" transform="translate(262.000000, 468.000000)">
                <path d="M20.7207,16.1123 C19.9747,16.1123 19.3667,15.5053 19.3667,14.7583 C19.3667,14.0123 19.9747,13.4053 20.7207,13.4053 C21.4667,13.4053 22.0737,14.0123 22.0737,14.7583 C22.0737,15.5053 21.4667,16.1123 20.7207,16.1123 M20.7207,12.4053 C19.5947,12.4053 18.6537,13.2013 18.4237,14.2583 L16.3327,14.2583 C15.5407,14.2583 14.8967,14.9033 14.8967,15.6963 L14.8967,19.1583 C14.8967,21.2663 13.1807,22.9823 11.0727,22.9823 C8.9637,22.9823 7.2477,21.2663 7.2477,19.1583 L7.2477,14.2503 C10.7367,14.0163 13.4967,11.3623 13.4967,8.1253 L13.4967,1.7243 C13.4967,0.7733 12.6657,0.0003 11.6437,0.0003 L9.3937,0.0003 L9.3937,1.0003 L11.6437,1.0003 C12.1067,1.0003 12.4967,1.3323 12.4967,1.7243 L12.4967,8.1253 C12.4967,10.9643 9.9177,13.2733 6.7477,13.2733 C3.5777,13.2733 0.9997,10.9643 0.9997,8.1253 L0.9997,1.7243 C0.9997,1.3323 1.3907,1.0003 1.8537,1.0003 L4.1037,1.0003 L4.1037,0.0003 L1.8537,0.0003 C0.8307,0.0003 -0.0003,0.7733 -0.0003,1.7243 L-0.0003,8.1253 C-0.0003,11.3623 2.7607,14.0153 6.2477,14.2503 L6.2477,19.1583 C6.2477,21.8183 8.4117,23.9823 11.0727,23.9823 C13.7327,23.9823 15.8967,21.8173 15.8967,19.1573 L15.8967,15.6963 C15.8967,15.4553 16.0927,15.2583 16.3327,15.2583 L18.4237,15.2583 C18.6537,16.3163 19.5947,17.1123 20.7207,17.1123 C22.0177,17.1123 23.0737,16.0563 23.0737,14.7583 C23.0737,13.4613 22.0177,12.4053 20.7207,12.4053" id="Fill-1"></path>
            </g>
        </g>
    </g>
</svg>