<?xml version="1.0" encoding="UTF-8" standalone="no"?>
<svg width="17px" height="16px" viewBox="0 0 17 16" version="1.1" xmlns="http://www.w3.org/2000/svg" xmlns:xlink="http://www.w3.org/1999/xlink">
    <!-- Generator: Sketch 40.2 (33826) - http://www.bohemiancoding.com/sketch -->
    <title>dots</title>
    <desc>Created with Sketch.</desc>
    <defs></defs>
    <g id="Page-1" stroke="none" stroke-width="1" fill="none" fill-rule="evenodd">
        <g id="A4-Copy" transform="translate(-119.000000, -729.000000)" fill="#333332">
            <g id="dots" transform="translate(119.000000, 729.000000)">
                <polygon id="Fill-1" points="0 0.9996 3.362 0.9996 3.362 -0.0004 0 -0.0004"></polygon>
                <polygon id="Fill-2" points="0 8.3696 3.362 8.3696 3.362 7.3696 0 7.3696"></polygon>
                <polygon id="Fill-3" points="0 15.2676 3.362 15.2676 3.362 14.2676 0 14.2676"></polygon>
                <polygon id="Fill-4" points="6.598 0.9996 9.96 0.9996 9.96 -0.0004 6.598 -0.0004"></polygon>
                <polygon id="Fill-5" points="6.598 8.3696 9.96 8.3696 9.96 7.3696 6.598 7.3696"></polygon>
                <polygon id="Fill-6" points="6.598 15.2676 9.96 15.2676 9.96 14.2676 6.598 14.2676"></polygon>
                <polygon id="Fill-7" points="12.965 0.9996 16.327 0.9996 16.327 -0.0004 12.965 -0.0004"></polygon>
                <polygon id="Fill-8" points="12.965 8.3696 16.327 8.3696 16.327 7.3696 12.965 7.3696"></polygon>
                <polygon id="Fill-9" points="12.965 15.2676 16.327 15.2676 16.327 14.2676 12.965 14.2676"></polygon>
            </g>
        </g>
    </g>
</svg>