<?xml version="1.0" encoding="UTF-8" standalone="no"?>
<svg width="26px" height="28px" viewBox="0 0 26 28" version="1.1" xmlns="http://www.w3.org/2000/svg" xmlns:xlink="http://www.w3.org/1999/xlink">
    <!-- Generator: Sketch 40.2 (33826) - http://www.bohemiancoding.com/sketch -->
    <title>edit</title>
    <desc>Created with Sketch.</desc>
    <defs>
        <polygon id="path-1" points="18.7624169 0.139 0.4492 0.139 0.4492 18.3983 18.7624169 18.3983 18.7624169 0.139"></polygon>
    </defs>
    <g id="Page-1" stroke="none" stroke-width="1" fill="none" fill-rule="evenodd">
        <g id="A4-Copy" transform="translate(-438.000000, -469.000000)">
            <g id="edit" transform="translate(438.000000, 468.000000)">
                <path d="M0,4.7755 L0,28.8615 L14.552,28.8615 L19.684,23.7485 L19.684,14.4625 L18.684,14.4625 L18.684,22.4855 L13.277,22.4855 L13.277,27.8615 L1,27.8615 L1,5.7755 L13.218,5.7755 L13.218,4.7755 L0,4.7755 Z M14.277,23.4855 L18.53,23.4855 L14.277,27.7225 L14.277,23.4855 Z" id="Fill-1" fill="#333332"></path>
                <g id="Group-4" transform="translate(7.000000, 0.861300)">
                    <mask id="mask-2" fill="white">
                        <use xlink:href="#path-1"></use>
                    </mask>
                    <g id="Clip-3"></g>
                    <path d="M17.2852,4.0293 L16.4592,4.8553 L14.0262,2.4233 L14.8522,1.5963 C15.1442,1.3043 15.5192,1.1233 15.8312,1.1233 C15.9292,1.1233 16.0632,1.1413 16.1532,1.2313 L17.6502,2.7283 C17.8712,2.9493 17.7622,3.5523 17.2852,4.0293 L17.2852,4.0293 Z M5.2342,16.0813 L2.8012,13.6473 L13.3192,3.1303 L15.7522,5.5623 L5.2342,16.0813 Z M2.4142,16.9963 C2.3152,16.8263 2.1482,16.6173 1.8632,16.4413 L2.2512,14.5123 L4.3552,16.6163 L2.4142,16.9963 Z M18.3572,2.0213 L16.8602,0.5243 C16.2232,-0.1127 14.9742,0.0593 14.1452,0.8893 L1.4152,13.6193 L1.4112,13.6183 L1.4102,13.6243 L1.3872,13.6473 L1.4022,13.6633 L0.4492,18.3983 L5.2082,17.4693 L5.2342,17.4953 L17.9922,4.7363 C18.8552,3.8733 19.0162,2.6803 18.3572,2.0213 L18.3572,2.0213 Z" id="Fill-2" fill="#333332" mask="url(#mask-2)"></path>
                </g>
            </g>
        </g>
    </g>
</svg>