<?xml version="1.0" encoding="UTF-8" standalone="no"?>
<svg width="27px" height="16px" viewBox="0 0 27 16" version="1.1" xmlns="http://www.w3.org/2000/svg" xmlns:xlink="http://www.w3.org/1999/xlink">
    <!-- Generator: Sketch 40.2 (33826) - http://www.bohemiancoding.com/sketch -->
    <title>eye</title>
    <desc>Created with Sketch.</desc>
    <defs>
        <polygon id="path-1" points="13.1841 16 26.368 16 26.368 0.25 13.1841 0.25 0.0002 0.25 0.0002 16"></polygon>
    </defs>
    <g id="Page-1" stroke="none" stroke-width="1" fill="none" fill-rule="evenodd">
        <g id="A4-Copy" transform="translate(-235.000000, -719.000000)">
            <g id="eye" transform="translate(235.000000, 718.000000)">
                <g id="Group-3" transform="translate(0.000000, 0.750000)">
                    <mask id="mask-2" fill="white">
                        <use xlink:href="#path-1"></use>
                    </mask>
                    <g id="Clip-2"></g>
                    <path d="M13.1572,15 C6.5872,15 2.2232,9.513 1.2452,8.156 C2.4052,6.824 7.5952,1.25 13.1572,1.25 C18.7192,1.25 23.9472,6.821 25.1192,8.156 C24.1312,9.517 19.7372,15 13.1572,15 L13.1572,15 Z M26.1382,7.81 C25.8882,7.501 19.9222,0.25 13.1572,0.25 C6.3912,0.25 0.4742,7.503 0.2252,7.812 L0.0002,8.091 L0.1932,8.395 C0.3922,8.705 5.1422,16 13.1572,16 C21.1712,16 25.9702,8.707 26.1712,8.396 L26.3682,8.092 L26.1382,7.81 Z" id="Fill-1" fill="#333332" mask="url(#mask-2)"></path>
                </g>
                <path d="M13.0937,12.4561 C11.1067,12.4561 9.4897,10.8391 9.4897,8.8521 C9.4897,6.8641 11.1067,5.2481 13.0937,5.2481 C15.0807,5.2481 16.6977,6.8641 16.6977,8.8521 C16.6977,10.8391 15.0807,12.4561 13.0937,12.4561 M13.0937,4.3481 C10.6107,4.3481 8.5897,6.3681 8.5897,8.8521 C8.5897,11.3351 10.6107,13.3561 13.0937,13.3561 C15.5767,13.3561 17.5987,11.3351 17.5987,8.8521 C17.5987,6.3681 15.5767,4.3481 13.0937,4.3481" id="Fill-4" fill="#333332"></path>
            </g>
        </g>
    </g>
</svg>