<?xml version="1.0" encoding="UTF-8" standalone="no"?>
<svg width="26px" height="26px" viewBox="0 0 26 26" version="1.1" xmlns="http://www.w3.org/2000/svg" xmlns:xlink="http://www.w3.org/1999/xlink">
    <!-- Generator: Sketch 40.2 (33826) - http://www.bohemiancoding.com/sketch -->
    <title>facebook</title>
    <desc>Created with Sketch.</desc>
    <defs>
        <polygon id="path-1" points="12.53605 26 25.072 26 25.072 0.928 12.53605 0.928 0.0001 0.928 0.0001 26 12.53605 26"></polygon>
    </defs>
    <g id="Page-1" stroke="none" stroke-width="1" fill="none" fill-rule="evenodd">
        <g id="A4-Copy" transform="translate(-191.000000, -596.000000)">
            <g id="facebook" transform="translate(191.000000, 595.000000)">
                <path d="M13.3906,10.4003 C13.3906,10.4003 13.1746,8.5723 14.7376,8.5723 C15.2486,8.5723 15.5406,8.5763 15.7006,8.5823 L15.7006,6.0713 L12.6206,6.0713 C12.6206,6.0713 10.2156,6.1913 10.2156,8.9093 C10.2156,9.2603 10.2176,9.8163 10.2196,10.4963 L8.1476,10.4963 L8.1476,12.9493 L10.2286,12.9493 C10.2436,16.3673 10.2646,20.5023 10.2646,20.5023 L13.3906,20.5023 L13.3906,12.9493 L15.7476,12.9493 L15.7476,10.4963 L13.3906,10.4963 L13.3906,10.4003 Z" id="Fill-1" fill="#333332"></path>
                <g id="Group-5" transform="translate(0.000000, 0.072300)">
                    <mask id="mask-2" fill="white">
                        <use xlink:href="#path-1"></use>
                    </mask>
                    <g id="Clip-4"></g>
                    <path d="M12.5361,25 C6.1751,25 1.0001,19.825 1.0001,13.464 C1.0001,7.103 6.1751,1.928 12.5361,1.928 C18.8971,1.928 24.0721,7.103 24.0721,13.464 C24.0721,19.825 18.8971,25 12.5361,25 M12.5361,0.928 C5.6241,0.928 0.0001,6.552 0.0001,13.464 C0.0001,20.376 5.6241,26 12.5361,26 C19.4481,26 25.0721,20.376 25.0721,13.464 C25.0721,6.552 19.4481,0.928 12.5361,0.928" id="Fill-3" fill="#333332" mask="url(#mask-2)"></path>
                </g>
            </g>
        </g>
    </g>
</svg>