<?xml version="1.0" encoding="UTF-8" standalone="no"?>
<svg width="20px" height="26px" viewBox="0 0 20 26" version="1.1" xmlns="http://www.w3.org/2000/svg" xmlns:xlink="http://www.w3.org/1999/xlink">
    <!-- Generator: Sketch 40.2 (33826) - http://www.bohemiancoding.com/sketch -->
    <title>fill</title>
    <desc>Created with Sketch.</desc>
    <defs>
        <polygon id="path-1" points="0 25.916 19.459 25.916 19.459 0 0 0"></polygon>
    </defs>
    <g id="Page-1" stroke="none" stroke-width="1" fill="none" fill-rule="evenodd">
        <g id="A4-Copy" transform="translate(-466.000000, -609.000000)">
            <g id="fill" transform="translate(466.000000, 609.000000)">
                <path d="M16.959,24.916 L2.5,24.916 C1.673,24.916 1,24.243 1,23.416 L1,20.02 L18.459,20.02 L18.459,23.416 C18.459,24.243 17.786,24.916 16.959,24.916 L16.959,24.916 Z M1,19.119 L18.459,19.119 L18.459,5.644 L1,5.644 L1,19.119 L1,19.119 Z M2.5,1 L16.959,1 C17.786,1 18.459,1.673 18.459,2.5 L18.459,4.744 L1,4.744 L1,2.5 C1,1.673 1.673,1 2.5,1 L2.5,1 Z M16.959,0 L2.5,0 C1.121,0 0,1.121 0,2.5 L0,23.416 C0,24.795 1.121,25.916 2.5,25.916 L16.959,25.916 C18.338,25.916 19.459,24.795 19.459,23.416 L19.459,2.5 C19.459,1.121 18.338,0 16.959,0 L16.959,0 Z M0,0 L19.459,0 L19.459,25.916 L0,25.916 L0,0 L0,0 Z" id="Fill-1" fill="#333332"></path>
                <path d="M9.7295,21.5271 C9.1885,21.5271 8.7505,21.9651 8.7505,22.5061 C8.7505,23.0471 9.1885,23.4851 9.7295,23.4851 C10.2705,23.4851 10.7085,23.0471 10.7085,22.5061 C10.7085,21.9651 10.2705,21.5271 9.7295,21.5271" id="Fill-3" fill="#333332"></path>
                <path d="M9.7295,3.603 C10.1065,3.603 10.4135,3.297 10.4135,2.92 C10.4135,2.542 10.1065,2.236 9.7295,2.236 C9.3525,2.236 9.0455,2.542 9.0455,2.92 C9.0455,3.297 9.3525,3.603 9.7295,3.603" id="Fill-5" fill="#333332"></path>
                <polygon id="Fill-7" fill="#333332" points="5.4463 15.167 4.6343 14.298 3.9763 14.913 5.4423 16.479 7.7793 14.016 7.1273 13.396"></polygon>
                <polygon id="Fill-9" fill="#333332" points="4.7656 11.25 5.6766 10.398 6.5656 11.247 7.1866 10.597 6.3386 9.787 7.2086 8.974 6.5936 8.315 5.6826 9.167 4.7936 8.319 4.1726 8.97 5.0206 9.779 4.1506 10.594"></polygon>
                <mask id="mask-2" fill="white">
                    <use xlink:href="#path-1"></use>
                </mask>
                <g id="Clip-12"></g>
                <polygon id="Fill-11" fill="#333332" mask="url(#mask-2)" points="8.835 10.214 15.852 10.214 15.852 9.314 8.835 9.314"></polygon>
                <polygon id="Fill-13" fill="#333332" mask="url(#mask-2)" points="8.835 15.376 15.852 15.376 15.852 14.476 8.835 14.476"></polygon>
            </g>
        </g>
    </g>
</svg>