<?xml version="1.0" encoding="UTF-8" standalone="no"?>
<svg width="96px" height="61px" viewBox="0 0 96 61" version="1.1" xmlns="http://www.w3.org/2000/svg" xmlns:xlink="http://www.w3.org/1999/xlink">
    <!-- Generator: Sketch 40.2 (33826) - http://www.bohemiancoding.com/sketch -->
    <title>glasses2</title>
    <desc>Created with Sketch.</desc>
    <defs></defs>
    <g id="Page-1" stroke="none" stroke-width="1" fill="none" fill-rule="evenodd">
        <g id="A4-Copy" transform="translate(-8.000000, -627.000000)" stroke="#333332" stroke-width="3">
            <g id="glasses2" transform="translate(9.000000, 628.000000)">
                <path d="M6.7002,26.1465 C6.7002,26.1465 29.6862,3.0305 30.7312,2.1185 C32.9682,0.1675 34.3962,0.0245 36.3942,1.4525 C37.3402,2.1275 38.8672,3.4795 38.8672,3.4795" id="Stroke-1"></path>
                <path d="M86.7668,26.1465 C86.7668,26.1465 63.7808,3.0305 62.7358,2.1185 C60.4988,0.1675 59.0708,0.0245 57.0728,1.4525 C56.1268,2.1275 54.5998,3.4795 54.5998,3.4795" id="Stroke-3"></path>
                <path d="M40.1729,40.6684 C40.8919,37.7914 43.0729,35.7774 46.7039,35.7774 C50.3349,35.7774 52.5479,37.3904 53.3499,40.7264" id="Stroke-5"></path>
                <path d="M21.1234,24.5184 C13.0584,23.9984 6.4894,24.8864 3.7274,27.1874 C0.8744,29.5654 0.5984,31.9734 0.5064,36.1154 C0.4404,39.0724 0.8744,45.0434 1.8874,47.9884 C2.8994,50.9334 5.4764,54.7994 11.2754,56.4564 C18.5974,58.5484 26.5594,57.7394 31.2474,54.7074 C35.2944,52.0914 37.5594,47.9894 39.1634,43.6624 C40.6314,39.7034 41.5424,35.5664 40.9124,32.9864 C40.2044,30.0874 38.5524,28.3334 33.6494,26.6814 C31.1434,25.8374 27.6594,24.9404 21.1234,24.5184 L21.1234,24.5184 Z" id="Stroke-7"></path>
                <path d="M72.3436,24.5184 C80.4086,23.9984 86.9776,24.8864 89.7396,27.1874 C92.5926,29.5654 92.8686,31.9734 92.9606,36.1154 C93.0266,39.0724 92.5926,45.0434 91.5796,47.9884 C90.5676,50.9334 87.9906,54.7994 82.1916,56.4564 C74.8696,58.5484 66.9076,57.7394 62.2196,54.7074 C58.1726,52.0914 55.9076,47.9894 54.3036,43.6624 C52.8356,39.7034 51.9246,35.5664 52.5546,32.9864 C53.2626,30.0874 54.9146,28.3334 59.8176,26.6814 C62.3236,25.8374 65.8076,24.9404 72.3436,24.5184 L72.3436,24.5184 Z" id="Stroke-9"></path>
            </g>
        </g>
    </g>
</svg>