<?xml version="1.0" encoding="UTF-8" standalone="no"?>
<svg width="32px" height="13px" viewBox="0 0 32 13" version="1.1" xmlns="http://www.w3.org/2000/svg" xmlns:xlink="http://www.w3.org/1999/xlink">
    <!-- Generator: Sketch 40.2 (33826) - http://www.bohemiancoding.com/sketch -->
    <title>glasses</title>
    <desc>Created with Sketch.</desc>
    <defs>
        <polygon id="path-1" points="0.00013878152 12.9561 31.058 12.9561 31.058 0.0003 0.00013878152 0.0003"></polygon>
    </defs>
    <g id="Page-1" stroke="none" stroke-width="1" fill="none" fill-rule="evenodd">
        <g id="A4-Copy" transform="translate(-115.000000, -615.000000)">
            <g id="glasses" transform="translate(115.000000, 615.000000)">
                <mask id="mask-2" fill="white">
                    <use xlink:href="#path-1"></use>
                </mask>
                <g id="Clip-2"></g>
                <path d="M26.9174,10.4483 C24.7814,11.0563 22.2214,10.8373 20.8344,9.9403 C19.8014,9.2723 19.0674,8.2403 18.4584,6.5953 C17.9494,5.2223 17.7494,4.0643 17.9064,3.4193 C18.0854,2.6893 18.4484,2.2273 19.9414,1.7233 C20.2154,1.6313 20.5304,1.5373 20.9134,1.4463 L20.9804,1.4463 L20.9804,1.4303 C21.6654,1.2723 22.5744,1.1303 23.8864,1.0463 C24.3584,1.0153 24.8154,1.0003 25.2524,1.0003 C27.1454,1.0003 28.5794,1.2913 29.1884,1.7983 C29.9394,2.4253 30.0264,3.0193 30.0564,4.3273 C30.0774,5.2913 29.9274,7.1603 29.6344,8.0133 C29.3974,8.7003 28.7314,9.9283 26.9174,10.4483 M16.9364,3.1803 C16.8344,3.5963 16.8404,4.0873 16.9044,4.5873 L14.1534,4.5873 C14.2174,4.0873 14.2244,3.5973 14.1224,3.1803 C13.9374,2.4223 13.5714,1.8833 12.9014,1.4463 L18.1574,1.4463 C17.4874,1.8833 17.1214,2.4223 16.9364,3.1803 M12.6004,6.5953 C11.9904,8.2403 11.2574,9.2723 10.2244,9.9403 C8.8374,10.8373 6.2774,11.0573 4.1414,10.4483 C2.3264,9.9293 1.6604,8.7003 1.4244,8.0133 C1.1314,7.1603 0.9804,5.2913 1.0024,4.3283 C1.0314,3.0193 1.1184,2.4243 1.8694,1.7983 C2.4784,1.2913 3.9124,1.0003 5.8064,1.0003 C6.2414,1.0003 6.6994,1.0153 7.1724,1.0463 C9.2764,1.1813 10.3474,1.4653 11.1154,1.7233 C12.6094,2.2273 12.9734,2.6893 13.1514,3.4183 C13.3064,4.0553 13.1004,5.2443 12.6004,6.5953 M30.5794,8.3383 C30.9264,7.3293 31.0794,5.3473 31.0564,4.3043 C31.0244,2.9193 30.9224,1.9423 29.8294,1.0303 C28.8074,0.1783 26.7754,0.0003 25.2524,0.0003 C24.7954,0.0003 24.3164,0.0153 23.8214,0.0483 C22.4864,0.1343 21.5314,0.2833 20.8074,0.4463 L10.2504,0.4463 C9.5274,0.2833 8.5724,0.1343 7.2364,0.0483 C6.7414,0.0153 6.2634,0.0003 5.8064,0.0003 C4.2814,0.0003 2.2504,0.1783 1.2294,1.0303 C0.1364,1.9413 0.0334,2.9193 0.0024,4.3053 C-0.0206,5.3473 0.1314,7.3293 0.4794,8.3383 C0.6874,8.9463 1.1714,9.8833 2.2014,10.6153 L0.6194,12.2383 L1.3364,12.9353 L3.0954,11.1313 C3.3314,11.2363 3.5874,11.3303 3.8654,11.4093 C4.7904,11.6743 5.7494,11.8073 6.7174,11.8073 C8.3044,11.8073 9.7424,11.4423 10.7674,10.7803 C12.3564,9.7523 13.1094,8.0973 13.5374,6.9433 C13.6694,6.5863 13.8294,6.1063 13.9604,5.5873 L17.0984,5.5873 C17.2284,6.1053 17.3884,6.5853 17.5214,6.9433 C17.9484,8.0973 18.7014,9.7523 20.2914,10.7803 C21.3154,11.4423 22.7544,11.8073 24.3414,11.8073 C25.3094,11.8073 26.2684,11.6743 27.1924,11.4093 C27.4544,11.3343 27.6934,11.2443 27.9184,11.1473 L29.7274,12.9563 L30.4344,12.2493 L28.8234,10.6393 C29.8774,9.9033 30.3684,8.9523 30.5794,8.3383" id="Fill-1" fill="#333332" mask="url(#mask-2)"></path>
            </g>
        </g>
    </g>
</svg>