<?xml version="1.0" encoding="UTF-8" standalone="no"?>
<svg width="14px" height="24px" viewBox="0 0 14 24" version="1.1" xmlns="http://www.w3.org/2000/svg" xmlns:xlink="http://www.w3.org/1999/xlink">
    <!-- Generator: Sketch 40.2 (33826) - http://www.bohemiancoding.com/sketch -->
    <title>glass</title>
    <desc>Created with Sketch.</desc>
    <defs></defs>
    <g id="Page-1" stroke="none" stroke-width="1" fill="none" fill-rule="evenodd">
        <g id="A4-Copy" transform="translate(-511.000000, -452.000000)" fill="#333332">
            <g id="glass" transform="translate(511.000000, 452.000000)">
                <path d="M5.2129,13.7344 C3.4349,12.7374 0.9999,11.3714 0.9999,8.5614 C0.9999,5.5184 2.3559,2.0244 2.7809,1.0024 L6.6569,1.0124 L10.5309,1.0024 C10.9569,2.0234 12.3139,5.5134 12.3139,8.5614 C12.3139,11.3714 9.8779,12.7374 8.0999,13.7344 C7.5169,14.0614 7.0169,14.3414 6.6559,14.6374 C6.2959,14.3414 5.7959,14.0614 5.2129,13.7344 L5.2129,13.7344 Z M7.1479,15.5554 C7.3869,15.2874 7.9639,14.9574 8.5889,14.6064 C10.4709,13.5514 13.3139,11.9574 13.3139,8.5614 C13.3139,4.7504 11.3979,0.4744 11.3159,0.2954 L11.1829,0.0004 L6.6569,0.0124 L2.1299,0.0004 L1.9969,0.2954 C1.9149,0.4744 -0.0001,4.7504 -0.0001,8.5614 C-0.0001,11.9574 2.8429,13.5514 4.7239,14.6064 C5.3359,14.9494 5.8989,15.2724 6.1479,15.5374 L6.1479,22.2054 L1.4629,22.2054 L1.4629,23.2054 L11.8319,23.2054 L11.8319,22.2054 L7.1479,22.2054 L7.1479,15.5554 Z" id="Fill-1"></path>
            </g>
        </g>
    </g>
</svg>