<?xml version="1.0" encoding="UTF-8" standalone="no"?>
<svg width="26px" height="26px" viewBox="0 0 26 26" version="1.1" xmlns="http://www.w3.org/2000/svg" xmlns:xlink="http://www.w3.org/1999/xlink">
    <!-- Generator: Sketch 40.2 (33826) - http://www.bohemiancoding.com/sketch -->
    <title>gpus</title>
    <desc>Created with Sketch.</desc>
    <defs>
        <polygon id="path-1" points="12.53655 26 25.073 26 25.073 0.928 12.53655 0.928 0.0001 0.928 0.0001 26"></polygon>
    </defs>
    <g id="Page-1" stroke="none" stroke-width="1" fill="none" fill-rule="evenodd">
        <g id="A4-Copy" transform="translate(-222.000000, -596.000000)">
            <g id="gpus" transform="translate(222.000000, 595.000000)">
                <g id="Group-3" transform="translate(0.000000, 0.072300)">
                    <mask id="mask-2" fill="white">
                        <use xlink:href="#path-1"></use>
                    </mask>
                    <g id="Clip-2"></g>
                    <path d="M12.5361,25 C6.1751,25 1.0001,19.825 1.0001,13.464 C1.0001,7.103 6.1751,1.928 12.5361,1.928 C18.8971,1.928 24.0731,7.103 24.0731,13.464 C24.0731,19.825 18.8971,25 12.5361,25 M12.5361,0.928 C5.6241,0.928 0.0001,6.552 0.0001,13.464 C0.0001,20.376 5.6241,26 12.5361,26 C19.4491,26 25.0731,20.376 25.0731,13.464 C25.0731,6.552 19.4491,0.928 12.5361,0.928" id="Fill-1" fill="#333332" mask="url(#mask-2)"></path>
                </g>
                <polygon id="Fill-4" fill="#333332" points="19.6587 12.4014 19.6587 10.6464 18.5527 10.6464 18.5527 12.4014 16.7987 12.4014 16.7987 13.5054 18.5527 13.5054 18.5527 15.3254 19.6587 15.3254 19.6587 13.5054 21.4767 13.5054 21.4767 12.4014"></polygon>
                <path d="M11.2388,20.8326 C9.3668,20.8326 8.0178,19.6516 8.0178,18.2286 C8.0178,16.8356 9.6028,15.6326 11.4728,15.6536 C13.5468,15.6536 14.7838,16.9446 14.7838,18.3006 C14.7838,19.7226 13.6298,20.8326 11.2388,20.8326 M9.0658,9.4426 C8.8478,7.7936 9.6908,6.5316 10.9448,6.5696 C12.2008,6.6076 13.2738,7.9596 13.4908,9.6086 C13.7068,11.2566 12.9848,12.3166 11.7288,12.2806 C10.4748,12.2416 9.2818,11.0906 9.0658,9.4426 M14.4208,14.8536 C12.9178,13.7566 12.5498,13.1376 13.9868,12.0276 C14.7948,11.4016 15.3608,10.5536 15.3608,9.5236 C15.3608,8.4026 14.9028,7.3966 14.0408,6.8766 L15.2628,6.8766 L16.3028,5.8366 L11.6458,5.8366 C8.7388,5.8366 7.3138,7.5676 7.3138,9.4846 C7.3138,11.4426 8.6568,12.9796 11.2818,12.9796 C10.8738,13.8016 11.0388,14.5566 11.7038,15.0986 C7.2218,15.0986 6.2638,17.0636 6.2638,18.5786 C6.2638,20.5416 8.5188,21.7076 11.2258,21.7076 C14.9248,21.7076 16.3958,19.7466 16.3958,18.1366 C16.3958,16.8236 15.9058,15.9646 14.4208,14.8536" id="Fill-6" fill="#333332"></path>
            </g>
        </g>
    </g>
</svg>