<?xml version="1.0" encoding="UTF-8" standalone="no"?>
<svg width="51px" height="34px" viewBox="0 0 51 34" version="1.1" xmlns="http://www.w3.org/2000/svg" xmlns:xlink="http://www.w3.org/1999/xlink">
    <!-- Generator: Sketch 40.2 (33826) - http://www.bohemiancoding.com/sketch -->
    <title>hanger</title>
    <desc>Created with Sketch.</desc>
    <defs></defs>
    <g id="Page-1" stroke="none" stroke-width="1" fill="none" fill-rule="evenodd">
        <g id="A4-Copy" transform="translate(-508.000000, -681.000000)" fill="#333332">
            <path d="M555.871168,714.835307 L511.097206,714.835307 C509.636311,714.835307 508.531612,714.136048 508.140946,712.967332 C507.725658,711.724751 508.245999,710.329514 509.4656,709.410299 C511.07915,708.197264 528.718223,696.80721 529.468368,696.32298 L530.359678,697.701802 C530.175835,697.819987 512.019704,709.543257 510.453756,710.721822 C509.718384,711.276633 509.542748,711.987383 509.697045,712.446991 C509.856266,712.921371 510.365117,713.193853 511.097206,713.193853 L555.871168,713.193853 C556.616389,713.193853 557.138371,712.901674 557.304158,712.392823 C557.463379,711.908593 557.284461,711.176505 556.531033,710.628259 C556.316002,710.470679 555.140721,709.689347 553.454947,708.574799 C548.9787,705.603766 540.643392,700.078629 537.587003,697.764178 C535.851986,696.449372 535.142877,695.132926 535.142877,693.223914 L535.126463,686.751658 C535.126463,684.177856 533.038532,682.641455 531.019543,682.641455 C529.04159,682.641455 526.910981,683.926714 526.910981,686.750016 L526.910981,690.494174 L525.269527,690.494174 L525.269527,686.750016 C525.269527,682.97467 528.16177,681 531.019543,681 C534.24336,681 536.767917,683.526199 536.767917,686.750016 L536.784332,693.222272 C536.784332,694.606019 537.253788,695.451368 538.578442,696.455938 C541.593794,698.73756 549.899556,704.246283 554.362671,707.205826 C556.081274,708.344995 557.281178,709.141101 557.499491,709.301963 C558.725658,710.196556 559.275545,711.642678 558.865182,712.900032 C558.477798,714.095011 557.330421,714.835307 555.871168,714.835307" id="hanger"></path>
        </g>
    </g>
</svg>