<?xml version="1.0" encoding="UTF-8" standalone="no"?>
<svg width="25px" height="26px" viewBox="0 0 25 26" version="1.1" xmlns="http://www.w3.org/2000/svg" xmlns:xlink="http://www.w3.org/1999/xlink">
    <!-- Generator: Sketch 40.2 (33826) - http://www.bohemiancoding.com/sketch -->
    <title>hat</title>
    <desc>Created with Sketch.</desc>
    <defs></defs>
    <g id="Page-1" stroke="none" stroke-width="1" fill="none" fill-rule="evenodd">
        <g id="A4-Copy" transform="translate(-73.000000, -156.000000)">
            <g id="hat" transform="translate(74.000000, 157.000000)">
                <path d="M2.295,17.1576 C2.295,11.6426 4.351,4.7156 11.947,4.7156 C19.544,4.7156 21.6,11.6426 21.6,17.1576" id="Stroke-1" stroke="#333332"></path>
                <path d="M21.3947,23.953 L2.4997,23.953 C1.3997,23.953 0.4997,23.053 0.4997,21.953 L0.4997,18.67 C0.4997,17.57 1.3997,16.67 2.4997,16.67 L21.3947,16.67 C22.4947,16.67 23.3947,17.57 23.3947,18.67 L23.3947,21.953 C23.3947,23.053 22.4947,23.953 21.3947,23.953" id="Fill-3" fill="#FEFEFE"></path>
                <path d="M21.3947,23.953 L2.4997,23.953 C1.3997,23.953 0.4997,23.053 0.4997,21.953 L0.4997,18.67 C0.4997,17.57 1.3997,16.67 2.4997,16.67 L21.3947,16.67 C22.4947,16.67 23.3947,17.57 23.3947,18.67 L23.3947,21.953 C23.3947,23.053 22.4947,23.953 21.3947,23.953 L21.3947,23.953 Z" id="Stroke-5" stroke="#333332"></path>
                <path d="M14.9002,3.4528 C14.9002,5.0838 13.5782,6.4058 11.9472,6.4058 C10.3162,6.4058 8.9942,5.0838 8.9942,3.4528 C8.9942,1.8218 10.3162,0.4998 11.9472,0.4998 C13.5782,0.4998 14.9002,1.8218 14.9002,3.4528" id="Fill-7" fill="#FEFEFE"></path>
                <path d="M14.9002,3.4528 C14.9002,5.0838 13.5782,6.4058 11.9472,6.4058 C10.3162,6.4058 8.9942,5.0838 8.9942,3.4528 C8.9942,1.8218 10.3162,0.4998 11.9472,0.4998 C13.5782,0.4998 14.9002,1.8218 14.9002,3.4528 L14.9002,3.4528 Z" id="Stroke-9" stroke="#333332"></path>
                <g id="Group-14" transform="translate(3.000000, 18.453000)">
                    <path d="M0.705,0.1541 L0.705,5.4811" id="Fill-11" fill="#FEFEFE"></path>
                    <path d="M0.705,0.1541 L0.705,5.4811" id="Stroke-13" stroke="#333332"></path>
                </g>
                <g id="Group-18" transform="translate(6.000000, 18.453000)">
                    <path d="M0.9846,0.1541 L0.9846,5.4811" id="Fill-15" fill="#FEFEFE"></path>
                    <path d="M0.9846,0.1541 L0.9846,5.4811" id="Stroke-17" stroke="#333332"></path>
                </g>
                <g id="Group-22" transform="translate(10.000000, 18.453000)">
                    <path d="M0.2641,0.1541 L0.2641,5.4811" id="Fill-19" fill="#FEFEFE"></path>
                    <path d="M0.2641,0.1541 L0.2641,5.4811" id="Stroke-21" stroke="#333332"></path>
                </g>
                <g id="Group-26" transform="translate(20.000000, 18.453000)">
                    <path d="M0.1027,0.1541 L0.1027,5.4811" id="Fill-23" fill="#FEFEFE"></path>
                    <path d="M0.1027,0.1541 L0.1027,5.4811" id="Stroke-25" stroke="#333332"></path>
                </g>
                <g id="Group-30" transform="translate(16.000000, 18.453000)">
                    <path d="M0.8232,0.1541 L0.8232,5.4811" id="Fill-27" fill="#FEFEFE"></path>
                    <path d="M0.8232,0.1541 L0.8232,5.4811" id="Stroke-29" stroke="#333332"></path>
                </g>
                <g id="Group-34" transform="translate(13.000000, 18.453000)">
                    <path d="M0.5436,0.1541 L0.5436,5.4811" id="Fill-31" fill="#FEFEFE"></path>
                    <path d="M0.5436,0.1541 L0.5436,5.4811" id="Stroke-33" stroke="#333332"></path>
                </g>
            </g>
        </g>
    </g>
</svg>