<?xml version="1.0" encoding="UTF-8" standalone="no"?>
<svg width="67px" height="62px" viewBox="0 0 67 62" version="1.1" xmlns="http://www.w3.org/2000/svg" xmlns:xlink="http://www.w3.org/1999/xlink">
    <!-- Generator: Sketch 40.2 (33826) - http://www.bohemiancoding.com/sketch -->
    <title>heart</title>
    <desc>Created with Sketch.</desc>
    <defs></defs>
    <g id="Page-1" stroke="none" stroke-width="1" fill="none" fill-rule="evenodd">
        <g id="A4-Copy" transform="translate(-22.000000, -480.000000)">
            <g id="heart" transform="translate(22.000000, 480.000000)">
                <path d="M33.5825333,10.285625 C34.8421524,8.907625 35.8297714,7.822125 36.8238667,6.743125 C41.7781524,1.374125 47.7330095,-0.894375 54.7726286,1.699125 C62.0680571,4.386875 65.5231048,10.236875 66.3132,17.718375 C66.8312952,22.629125 65.7206286,27.426125 62.401581,31.056375 C53.017581,41.319875 43.3421524,51.316875 33.8674857,61.326875 C32.0185333,59.614125 30.3347238,58.200375 28.8160571,56.624125 C21.2680571,48.798125 13.7103429,40.978625 6.25948571,33.058375 C-1.16546667,25.167375 -1.24641905,13.265875 5.9324381,5.810375 C12.285581,-0.787125 21.8994857,-1.086125 28.5926286,5.153875 C30.2052,6.658625 31.6785333,8.316125 33.5825333,10.285625" id="Fill-1" fill="#333332"></path>
                <path d="M33.5825333,10.285625 C34.8421524,8.907625 35.8297714,7.822125 36.8238667,6.743125 C41.7781524,1.374125 47.7330095,-0.894375 54.7726286,1.699125 C62.0680571,4.386875 65.5231048,10.236875 66.3132,17.718375 C66.8312952,22.629125 65.7206286,27.426125 62.401581,31.056375 C53.017581,41.319875 43.3421524,51.316875 33.8674857,61.326875 C32.0185333,59.614125 30.3347238,58.200375 28.8160571,56.624125 C21.2680571,48.798125 13.7103429,40.978625 6.25948571,33.058375 C-1.16546667,25.167375 -1.24641905,13.265875 5.9324381,5.810375 C12.285581,-0.787125 21.8994857,-1.086125 28.5926286,5.153875 C30.2052,6.658625 31.6785333,8.316125 33.5825333,10.285625 L33.5825333,10.285625 Z" id="Stroke-3" stroke="#333332"></path>
            </g>
            <g id="love" transform="translate(85.000000, 528.000000)" fill="#333332">
                <path d="M5.7321,1.0087 C4.5371,1.0087 3.3861,1.5177 2.4941,2.4407 C0.4621,4.5407 0.5081,7.9207 2.5981,10.1347 C4.7331,12.3947 6.8961,14.6287 9.0581,16.8627 L9.5601,17.3807 C9.8701,17.6997 10.2031,17.9977 10.5581,18.3167 C10.6171,18.3687 10.6761,18.4217 10.7361,18.4757 C11.4511,17.7237 12.1691,16.9727 12.8901,16.2187 C14.9731,14.0397 17.1281,11.7857 19.2051,9.5237 C20.2951,8.3337 20.3931,6.8477 20.2841,5.8097 C20.0411,3.5157 18.9511,1.9967 17.0451,1.2977 C15.2101,0.6237 13.5441,1.0977 12.0421,2.7207 L10.6821,4.1967 L9.7721,3.2507 C9.4291,2.8897 9.1211,2.5637 8.7921,2.2577 C7.9241,1.4517 6.8371,1.0087 5.7321,1.0087 L5.7321,1.0087 Z M10.7851,19.8757 L10.4221,19.5427 C10.2401,19.3737 10.0631,19.2157 9.8911,19.0617 C9.5171,18.7267 9.1681,18.4127 8.8411,18.0757 L8.3401,17.5587 C6.1741,15.3217 4.0081,13.0837 1.8721,10.8217 C-0.5859,8.2177 -0.6279,4.2317 1.7751,1.7447 C2.8571,0.6247 4.2631,0.0087 5.7321,0.0087 C7.0911,0.0087 8.4201,0.5477 9.4721,1.5257 C9.8161,1.8447 10.1391,2.1857 10.4981,2.5637 L10.6651,2.7377 L11.3081,2.0397 C13.0861,0.1207 15.1701,-0.4553 17.3891,0.3587 C19.6511,1.1887 20.9951,3.0367 21.2781,5.7037 C21.4671,7.4867 21.0041,9.0407 19.9411,10.1987 C17.8581,12.4697 15.7001,14.7267 13.6131,16.9097 C12.7811,17.7797 11.9501,18.6497 11.1241,19.5197 L10.7851,19.8757 Z" id="Fill-1"></path>
            </g>
            <polygon id="star" fill="#333332" points="11.155 459.0008 7.707 465.9848 0 467.1048 5.578 472.5408 4.261 480.2178 11.155 476.5928 18.049 480.2178 16.731 472.5408 22.31 467.1048 14.602 465.9848"></polygon>
        </g>
    </g>
</svg>