<?xml version="1.0" encoding="UTF-8" standalone="no"?>
<svg width="29px" height="39px" viewBox="0 0 59 69" version="1.1" xmlns="http://www.w3.org/2000/svg" xmlns:xlink="http://www.w3.org/1999/xlink">
    <!-- Generator: Sketch 40.2 (33826) - http://www.bohemiancoding.com/sketch -->
    <title>house</title>
    <desc>Created with Sketch.</desc>
    <defs>
        <polygon id="path-1" points="0 68.0402917 58.5425714 68.0402917 58.5425714 0.000291666667 0 0.000291666667"></polygon>
    </defs>
    <g id="Page-1" stroke="none" stroke-width="1" fill="none" fill-rule="evenodd">
        <g id="A4-Copy" transform="translate(-22.000000, -384.000000)">
            <g id="house" transform="translate(22.000000, 384.000000)">
                <mask id="mask-2" fill="white">
                    <use xlink:href="#path-1"></use>
                </mask>
                <g id="Clip-2"></g>
                <path d="M39.3786952,65.123625 L50.7043619,65.123625 C51.1023143,65.123625 51.4363619,64.7882083 51.4363619,64.388625 L55.4914095,26.527375 L28.8663619,3.85029167 L3.05174286,26.5127917 L7.09517143,64.231125 C7.10388571,64.7882083 7.43793333,65.123625 7.83588571,65.123625 L19.1644571,65.123625 L19.1644571,41.8165417 L39.3786952,41.8165417 L39.3786952,65.123625 Z M50.7043619,68.0402917 L36.4739333,68.0402917 L36.4739333,44.7332083 L22.069219,44.7332083 L22.069219,68.0402917 L7.83588571,68.0402917 C5.82869524,68.0402917 4.19912381,66.401125 4.19912381,64.388625 L-0.00116190476,25.3169583 L28.8373143,0.000291666667 L58.5443143,25.302375 L54.3324095,64.546125 C54.3411238,66.401125 52.7115524,68.0402917 50.7043619,68.0402917 L50.7043619,68.0402917 Z" id="Fill-1" fill="#333332" mask="url(#mask-2)"></path>
            </g>
        </g>
    </g>
</svg>