<?xml version="1.0" encoding="UTF-8" standalone="no"?>
<svg width="26px" height="34px" viewBox="0 0 26 34" version="1.1" xmlns="http://www.w3.org/2000/svg" xmlns:xlink="http://www.w3.org/1999/xlink">
    <!-- Generator: Sketch 40.2 (33826) - http://www.bohemiancoding.com/sketch -->
    <title>inside</title>
    <desc>Created with Sketch.</desc>
    <defs></defs>
    <g id="Page-1" stroke="none" stroke-width="1" fill="none" fill-rule="evenodd">
        <g id="A4-Copy" transform="translate(-248.000000, -329.000000)" fill="#333332">
            <g id="inside" transform="translate(248.000000, 329.000000)">
                <g id="Group-3" transform="translate(0.000000, 3.704100)">
                    <path d="M3.1699,13.7305 L22.0629,13.7305 L24.1219,20.4165 L1.1099,20.4165 L3.1699,13.7305 Z M0.9999,26.1845 L0.9999,24.2485 C2.4639,24.0295 3.6109,22.8805 3.8269,21.4165 L21.3959,21.4165 C21.6139,22.8815 22.7659,24.0295 24.2319,24.2435 L24.2319,26.1785 C22.7689,26.3935 21.6199,27.5385 21.3989,29.0005 L3.8279,29.0005 C3.6059,27.5425 2.4599,26.4005 0.9999,26.1845 L0.9999,26.1845 Z M25.1679,20.4165 L23.1089,13.7305 L23.1669,13.7305 L23.1669,0.7805 L15.4719,0.7805 L15.4719,1.7805 L22.1669,1.7805 L22.1669,12.6855 L3.0659,12.6855 L3.0659,1.7805 L9.7609,1.7805 L9.7609,0.7805 L2.0659,0.7805 L2.0659,13.7305 L2.1239,13.7305 L0.0649,20.4165 L-0.0001,20.4165 L-0.0001,30.0005 L25.2319,30.0005 L25.2319,20.4165 L25.1679,20.4165 Z" id="Fill-1"></path>
                </g>
                <polygon id="Fill-4" points="9.2451 10.2842 12.6161 13.6552 15.9871 10.2842 15.2801 9.5772 13.1161 11.7412 13.1161 0.0002 12.1161 0.0002 12.1161 11.7412 9.9521 9.5772"></polygon>
            </g>
        </g>
    </g>
</svg>