<?xml version="1.0" encoding="UTF-8" standalone="no"?>
<svg width="26px" height="26px" viewBox="0 0 26 26" version="1.1" xmlns="http://www.w3.org/2000/svg" xmlns:xlink="http://www.w3.org/1999/xlink">
    <!-- Generator: Sketch 40.2 (33826) - http://www.bohemiancoding.com/sketch -->
    <title>insta</title>
    <desc>Created with Sketch.</desc>
    <defs>
        <polygon id="path-1" points="0 25.0723 25.072 25.0723 25.072 0.0003 0 0.0003"></polygon>
    </defs>
    <g id="Page-1" stroke="none" stroke-width="1" fill="none" fill-rule="evenodd">
        <g id="A4-Copy" transform="translate(-260.000000, -589.000000)">
            <g id="insta" transform="translate(260.000000, 589.000000)">
                <path d="M7.6465,6.8455 C7.1235,7.0465 6.7515,7.5525 6.7515,8.1475 L6.7515,10.3285 L7.6465,10.3285 L7.6465,6.8455 L7.6465,6.8455 Z" id="Fill-1" fill="#333332"></path>
                <path d="M15.4341,12.5367 C15.4341,14.1367 14.1371,15.4347 12.5361,15.4347 C10.9361,15.4347 9.6391,14.1367 9.6391,12.5367 C9.6391,11.8337 9.8891,11.1887 10.3061,10.6867 L6.7511,10.6867 L6.7511,16.9257 C6.7511,17.6967 7.3761,18.3217 8.1471,18.3217 L16.9261,18.3217 C17.6961,18.3217 18.3211,17.6967 18.3211,16.9257 L18.3211,10.6867 L14.7671,10.6867 C15.1841,11.1887 15.4341,11.8337 15.4341,12.5367" id="Fill-3" fill="#333332"></path>
                <mask id="mask-2" fill="white">
                    <use xlink:href="#path-1"></use>
                </mask>
                <g id="Clip-6"></g>
                <polygon id="Fill-5" fill="#333332" mask="url(#mask-2)" points="8.243 10.3283 8.998 10.3283 8.998 6.7513 8.243 6.7513"></polygon>
                <path d="M13.9575,12.5367 C13.9575,11.7517 13.3215,11.1157 12.5365,11.1157 C11.7515,11.1157 11.1155,11.7517 11.1155,12.5367 C11.1155,13.3217 11.7515,13.9577 12.5365,13.9577 C13.3215,13.9577 13.9575,13.3217 13.9575,12.5367" id="Fill-7" fill="#333332" mask="url(#mask-2)"></path>
                <path d="M17.4834,9.4115 C17.4834,9.5885 17.3394,9.7325 17.1624,9.7325 L15.5394,9.7325 C15.3614,9.7325 15.2174,9.5885 15.2174,9.4115 L15.2174,7.7885 C15.2174,7.6105 15.3614,7.4665 15.5394,7.4665 L17.1624,7.4665 C17.3394,7.4665 17.4834,7.6105 17.4834,7.7885 L17.4834,9.4115 Z M16.9254,6.7515 L9.5944,6.7515 L9.5944,10.3285 L10.6604,10.3285 C11.1664,9.8985 11.8204,9.6385 12.5364,9.6385 C13.2524,9.6385 13.9064,9.8985 14.4124,10.3285 L18.3214,10.3285 L18.3214,8.1475 C18.3214,7.3765 17.6964,6.7515 16.9254,6.7515 L16.9254,6.7515 Z" id="Fill-8" fill="#333332" mask="url(#mask-2)"></path>
                <path d="M12.5361,24.0723 C6.1751,24.0723 1.0001,18.8973 1.0001,12.5363 C1.0001,6.1753 6.1751,1.0003 12.5361,1.0003 C18.8971,1.0003 24.0721,6.1753 24.0721,12.5363 C24.0721,18.8973 18.8971,24.0723 12.5361,24.0723 M12.5361,0.0003 C5.6241,0.0003 0.0001,5.6243 0.0001,12.5363 C0.0001,19.4483 5.6241,25.0723 12.5361,25.0723 C19.4481,25.0723 25.0721,19.4483 25.0721,12.5363 C25.0721,5.6243 19.4481,0.0003 12.5361,0.0003" id="Fill-9" fill="#333332" mask="url(#mask-2)"></path>
            </g>
        </g>
    </g>
</svg>