<?xml version="1.0" encoding="UTF-8" standalone="no"?>
<svg width="21px" height="24px" viewBox="0 0 21 24" version="1.1" xmlns="http://www.w3.org/2000/svg" xmlns:xlink="http://www.w3.org/1999/xlink">
    <!-- Generator: Sketch 40.2 (33826) - http://www.bohemiancoding.com/sketch -->
    <title>jacket2</title>
    <desc>Created with Sketch.</desc>
    <defs></defs>
    <g id="Page-1" stroke="none" stroke-width="1" fill="none" fill-rule="evenodd">
        <g id="A4-Copy" transform="translate(-54.000000, -28.000000)" stroke="#333332">
            <g id="jacket2" transform="translate(54.000000, 28.000000)">
                <path d="M2.5,3.2755 C1.4,3.6075 0.5,4.1755 0.5,5.2755 L0.5,21.4595 C0.5,22.5595 1.4,23.4595 2.5,23.4595 L17.725,23.4595 C18.825,23.4595 19.725,22.5595 19.725,21.4595 L19.725,5.2755 C19.725,4.1755 18.813,3.5065 17.702,3.1235 L15.528,2.5005 L15.215,2.2455 C14.776,1.6455 14.515,1.2985 14.294,1.1575 C14.073,1.0165 13.87,0.9385 13.87,0.9385 C13.87,0.9385 12.924,0.4995 10.288,0.4995 C8.957,0.4995 7.378,0.6295 6.917,0.8135 C6.448,1.0015 6.174,1.2665 6.174,1.2665 C6.142,1.2815 5.681,1.7365 5.286,2.4165 L4.916,2.5875 L2.5,3.2755 L2.5,3.2755 Z" id="Stroke-1"></path>
                <path d="M10.227,21.5586 C10.078,21.0146 5.859,7.5356 5.167,2.4156" id="Stroke-3"></path>
                <path d="M6.1358,1.2981 C6.1128,1.3061 4.2948,2.5731 3.0248,4.6451 L3.8108,5.5571 L2.0678,6.5641 C2.0678,6.5641 6.1418,16.4771 10.2288,21.5571" id="Stroke-5"></path>
                <path d="M10.3669,21.5586 C10.5159,21.0146 14.7349,7.5356 15.4269,2.4156" id="Stroke-7"></path>
                <path d="M14.4581,1.2981 C14.4811,1.3061 16.2991,2.5731 17.5691,4.6451 L16.7831,5.5571 L18.5261,6.5641 C18.5261,6.5641 14.4521,16.4771 10.3651,21.5571" id="Stroke-9"></path>
                <path d="M10.318,23.4752 L10.318,20.6422" id="Stroke-11"></path>
            </g>
        </g>
    </g>
</svg>