<?xml version="1.0" encoding="UTF-8" standalone="no"?>
<svg width="22px" height="26px" viewBox="0 0 22 26" version="1.1" xmlns="http://www.w3.org/2000/svg" xmlns:xlink="http://www.w3.org/1999/xlink">
    <!-- Generator: Sketch 40.2 (33826) - http://www.bohemiancoding.com/sketch -->
    <title>jacket</title>
    <desc>Created with Sketch.</desc>
    <defs></defs>
    <g id="Page-1" stroke="none" stroke-width="1" fill="none" fill-rule="evenodd">
        <g id="A4-Copy" transform="translate(-27.000000, -26.000000)" stroke="#333332">
            <g id="jacket" transform="translate(28.000000, 27.000000)">
                <path d="M9.7491,23.4041 C9.6111,22.8991 5.7741,2.3011 6.4401,0.8011" id="Stroke-1"></path>
                <path d="M10.5324,23.4041 C10.6704,22.8991 14.5074,2.3011 13.8414,0.8011" id="Stroke-3"></path>
                <path d="M10.8147,23.4029 C14.6067,18.6899 17.9217,6.0249 17.9217,6.0249 L16.2977,5.2129 L17.2837,4.3239 C15.9407,2.4839 14.3247,0.8349 13.6577,0.7179 C12.8527,0.5769 11.3767,0.4999 10.1407,0.4999 C8.9047,0.4999 7.4287,0.5769 6.6237,0.7179 C5.9577,0.8349 4.3407,2.4839 2.9977,4.3239 L3.9837,5.2129 L2.3597,6.0249 C2.3597,6.0249 5.6747,18.6899 9.4667,23.4029" id="Stroke-5"></path>
                <path d="M3.8067,3.1742 L2.4997,3.5672 C1.3997,3.8992 0.4997,4.4672 0.4997,5.5672 L0.4997,21.7512 C0.4997,22.8512 1.3997,23.7512 2.4997,23.7512 L17.7247,23.7512 C18.8247,23.7512 19.7247,22.8512 19.7247,21.7512 L19.7247,5.5672 C19.7247,4.4672 18.8137,3.7982 17.7017,3.4152 L16.2137,2.9292" id="Stroke-7"></path>
            </g>
        </g>
    </g>
</svg>