<?xml version="1.0" encoding="UTF-8" standalone="no"?>
<svg width="22px" height="26px" viewBox="0 0 22 26" version="1.1" xmlns="http://www.w3.org/2000/svg" xmlns:xlink="http://www.w3.org/1999/xlink">
    <!-- Generator: Sketch 40.2 (33826) - http://www.bohemiancoding.com/sketch -->
    <title>jamper</title>
    <desc>Created with Sketch.</desc>
    <defs></defs>
    <g id="Page-1" stroke="none" stroke-width="1" fill="none" fill-rule="evenodd">
        <g id="A4-Copy" transform="translate(-265.000000, -78.000000)">
            <g id="jamper" transform="translate(266.000000, 78.000000)">
                <path d="M3.8959,4.2514 L2.4999,4.7024 C1.3999,5.0354 0.4999,5.6024 0.4999,6.7024 L0.4999,22.8864 C0.4999,23.9864 1.3999,24.8864 2.4999,24.8864 L17.7249,24.8864 C18.8249,24.8864 19.7249,23.9864 19.7249,22.8864 L19.7249,6.7024 C19.7249,5.6024 18.8129,4.9334 17.7019,4.5504 L16.9419,4.3324" id="Stroke-1" stroke="#333332"></path>
                <path d="M9.0625,5.1264 C6.2295,4.2094 3.6335,4.3914 3.5945,4.3914 C3.5945,4.3914 5.1675,1.4294 5.7875,1.0314 C6.4075,0.6324 8.9315,0.5004 10.3915,0.5004 C11.8525,0.5004 14.3765,0.6324 14.9955,1.0314 C15.6155,1.4294 17.3515,4.4504 17.3515,4.4504 C17.3515,4.4504 11.6455,4.3764 8.0625,7.9594 L8.0795,18.0974 L12.1455,18.0974 L12.1455,5.5014" id="Stroke-3" stroke="#333332"></path>
                <path d="M10.6871,9.2424 C10.6871,9.5594 10.4301,9.8174 10.1121,9.8174 C9.7951,9.8174 9.5381,9.5594 9.5381,9.2424 C9.5381,8.9254 9.7951,8.6674 10.1121,8.6674 C10.4301,8.6674 10.6871,8.9254 10.6871,9.2424" id="Fill-5" fill="#333332"></path>
                <path d="M10.6871,12.4198 C10.6871,12.7368 10.4301,12.9948 10.1121,12.9948 C9.7951,12.9948 9.5381,12.7368 9.5381,12.4198 C9.5381,12.1028 9.7951,11.8448 10.1121,11.8448 C10.4301,11.8448 10.6871,12.1028 10.6871,12.4198" id="Fill-7" fill="#333332"></path>
                <path d="M10.6871,15.6095 C10.6871,15.9265 10.4301,16.1845 10.1121,16.1845 C9.7951,16.1845 9.5381,15.9265 9.5381,15.6095 C9.5381,15.2925 9.7951,15.0345 10.1121,15.0345 C10.4301,15.0345 10.6871,15.2925 10.6871,15.6095" id="Fill-9" fill="#333332"></path>
                <path d="M7.2292,4.8764 L8.0622,7.9594" id="Stroke-11" stroke="#333332"></path>
                <path d="M5.7877,1.0313 C5.7877,1.0313 8.5627,3.2933 9.6457,6.6263" id="Stroke-13" stroke="#333332"></path>
                <path d="M14.996,1.0313 C14.996,1.0313 9.313,4.4593 8.229,7.7093" id="Stroke-15" stroke="#333332"></path>
            </g>
        </g>
    </g>
</svg>