<?xml version="1.0" encoding="UTF-8" standalone="no"?>
<svg width="21px" height="24px" viewBox="0 0 21 24" version="1.1" xmlns="http://www.w3.org/2000/svg" xmlns:xlink="http://www.w3.org/1999/xlink">
    <!-- Generator: Sketch 40.2 (33826) - http://www.bohemiancoding.com/sketch -->
    <title>jamps</title>
    <desc>Created with Sketch.</desc>
    <defs></defs>
    <g id="Page-1" stroke="none" stroke-width="1" fill="none" fill-rule="evenodd">
        <g id="A4-Copy" transform="translate(-389.000000, -79.000000)" stroke="#333332">
            <g id="jamps" transform="translate(389.000000, 79.000000)">
                <path d="M2.5,3.046 C1.4,3.378 0.5,3.946 0.5,5.046 L0.5,21.23 C0.5,22.33 1.4,23.23 2.5,23.23 L17.725,23.23 C18.825,23.23 19.725,22.33 19.725,21.23 L19.725,5.046 C19.725,3.946 18.813,3.277 17.702,2.894 L15.528,2.271 L15.215,2.016 C14.776,1.416 14.512,1.266 14.294,1.157 L14.113,1.076 C14.113,1.076 12.924,0.5 10.288,0.5 C8.957,0.5 7.154,0.776 6.382,1.161 L6.174,1.266 C6.142,1.282 5.681,1.507 5.286,2.187 L4.916,2.358 L2.5,3.046 L2.5,3.046 Z" id="Stroke-1"></path>
                <path d="M15.3475,2.2912 C14.6505,7.2542 10.5395,8.8512 10.2645,8.9532 C10.2645,8.9532 10.2605,8.9572 10.2575,8.9562 C10.2545,8.9572 10.2495,8.9532 10.2495,8.9532 C9.9745,8.8512 5.8635,7.2542 5.1665,2.2912" id="Stroke-3"></path>
                <polygon id="Stroke-5" points="6.9857 15.5009 3.8717 18.6149 0.7577 15.5009 3.8717 12.3869"></polygon>
                <polygon id="Stroke-7" points="13.214 15.5009 10.1 18.6149 6.986 15.5009 10.1 12.3869"></polygon>
                <polygon id="Stroke-9" points="19.4423 15.5009 16.3283 18.6149 13.2143 15.5009 16.3283 12.3869"></polygon>
            </g>
        </g>
    </g>
</svg>