<?xml version="1.0" encoding="UTF-8" standalone="no"?>
<svg width="19px" height="24px" viewBox="0 0 19 24" version="1.1" xmlns="http://www.w3.org/2000/svg" xmlns:xlink="http://www.w3.org/1999/xlink">
    <!-- Generator: Sketch 40.2 (33826) - http://www.bohemiancoding.com/sketch -->
    <title>jeans</title>
    <desc>Created with Sketch.</desc>
    <defs>
        <polygon id="path-1" points="0 23.9484 18.428 23.9484 18.428 0.0004 0 0.0004"></polygon>
    </defs>
    <g id="Page-1" stroke="none" stroke-width="1" fill="none" fill-rule="evenodd">
        <g id="A4-Copy" transform="translate(-29.000000, -79.000000)">
            <g id="jeans" transform="translate(29.000000, 79.000000)">
                <path d="M1.6083,0.5 L14.0373,0.5 C14.0373,0.5 14.2413,10.697 17.0963,14.776 L17.0963,22.934 L1.4043,22.934 L1.6083,0.5 L1.6083,0.5 Z" id="Fill-1" fill="#FEFEFE"></path>
                <path d="M1.6083,0.5 L14.0373,0.5 C14.0373,0.5 14.2413,10.697 17.0963,14.776 L17.0963,22.934 L1.4043,22.934 L1.6083,0.5 L1.6083,0.5 Z" id="Stroke-3" stroke="#333332"></path>
                <polygon id="Stroke-5" stroke="#333332" points="14.0373 4.2592 1.8123 4.2592 1.5883 4.2592 1.6083 0.5002 14.0373 0.5002"></polygon>
                <path d="M8.3772,8.2822 L5.2492,8.2822 L5.2492,13.5432 C5.2492,13.5432 6.6712,14.7522 8.3772,14.7522 C10.0832,14.7522 11.5052,13.5432 11.5052,13.5432 L11.5052,8.2822 L8.3772,8.2822 L8.3772,8.2822 Z" id="Stroke-7" stroke="#333332"></path>
                <mask id="mask-2" fill="white">
                    <use xlink:href="#path-1"></use>
                </mask>
                <g id="Clip-10"></g>
                <polygon id="Fill-9" fill="#FEFEFE" mask="url(#mask-2)" points="0.5 23.4484 17.928 23.4484 17.928 21.1004 0.5 21.1004"></polygon>
                <polygon id="Stroke-11" stroke="#333332" mask="url(#mask-2)" points="0.5 23.4484 17.928 23.4484 17.928 21.1004 0.5 21.1004"></polygon>
            </g>
        </g>
    </g>
</svg>