<?xml version="1.0" encoding="UTF-8" standalone="no"?>
<svg width="22px" height="28px" viewBox="0 0 22 28" version="1.1" xmlns="http://www.w3.org/2000/svg" xmlns:xlink="http://www.w3.org/1999/xlink">
    <!-- Generator: Sketch 40.2 (33826) - http://www.bohemiancoding.com/sketch -->
    <title>jumperr</title>
    <desc>Created with Sketch.</desc>
    <defs></defs>
    <g id="Page-1" stroke="none" stroke-width="1" fill="none" fill-rule="evenodd">
        <g id="A4-Copy" transform="translate(-227.000000, -29.000000)" fill="#333332">
            <g id="jumperr" transform="translate(227.000000, 28.000000)">
                <path d="M10.6035,13.8015 C11.0035,13.8015 11.3275,13.4775 11.3275,13.0775 C11.3275,12.6775 11.0035,12.3535 10.6035,12.3535 C10.2035,12.3535 9.8795,12.6775 9.8795,13.0775 C9.8795,13.4775 10.2035,13.8015 10.6035,13.8015" id="Fill-1"></path>
                <path d="M10.6035,17.4994 C11.0035,17.4994 11.3275,17.1754 11.3275,16.7754 C11.3275,16.3754 11.0035,16.0514 10.6035,16.0514 C10.2035,16.0514 9.8795,16.3754 9.8795,16.7754 C9.8795,17.1754 10.2035,17.4994 10.6035,17.4994" id="Fill-3"></path>
                <g id="Group-7" transform="translate(0.000000, 0.067400)">
                    <path d="M20.3711,25.3809 C20.3711,26.2739 19.6441,26.9999 18.7521,26.9999 L2.6191,26.9999 C1.7261,26.9999 1.0001,26.2739 1.0001,25.3809 L1.0001,8.2319 C1.0001,7.7559 1.1831,7.0679 2.7741,6.5879 L3.0781,6.4889 C4.5271,7.7169 6.0691,8.6979 7.6771,9.3989 L7.6971,21.9429 L13.4801,21.9429 L13.4481,8.5909 C16.6071,7.7289 18.1881,6.8709 18.7731,6.5049 C19.8291,6.9139 20.3711,7.4929 20.3711,8.2319 L20.3711,25.3809 Z M5.5881,2.7429 L9.7381,6.8949 L8.0131,8.4019 L8.0671,8.4629 C6.5551,7.8029 5.0971,6.8969 3.7281,5.7369 C4.3761,4.5499 5.1371,3.3029 5.5881,2.7429 L5.5881,2.7429 Z M10.8251,1.9329 C12.4971,1.9329 14.1301,2.0589 15.0671,2.2399 L10.4931,6.2359 L6.5121,2.2519 C7.4371,2.0649 9.1141,1.9329 10.8251,1.9329 L10.8251,1.9329 Z M12.4781,20.9439 L8.6951,20.9439 L8.6781,9.6279 C10.1061,9.3839 11.3571,9.1189 12.4481,8.8509 L12.4781,20.9439 Z M18.0651,5.7609 C17.1921,6.2649 14.6661,7.4919 9.4531,8.4719 L16.0451,2.7149 C16.5121,3.2599 17.3431,4.5359 18.0651,5.7609 L18.0651,5.7609 Z M19.1131,5.5719 C18.5801,4.6509 17.0551,2.0819 16.3311,1.6159 C15.2971,0.9519 11.2801,0.9329 10.8251,0.9329 C10.3701,0.9329 6.3531,0.9519 5.3191,1.6159 C4.5781,2.0929 3.1491,4.6939 2.6861,5.5649 L2.4751,5.6339 C0.8331,6.1289 0.0001,7.0029 0.0001,8.2319 L0.0001,25.3809 C0.0001,26.8249 1.1751,27.9999 2.6191,27.9999 L18.7521,27.9999 C20.1961,27.9999 21.3711,26.8249 21.3711,25.3809 L21.3711,8.2319 C21.3711,7.4039 20.9611,6.2939 19.1131,5.5719 L19.1131,5.5719 Z" id="Fill-5"></path>
                </g>
            </g>
        </g>
    </g>
</svg>