<?xml version="1.0" encoding="UTF-8" standalone="no"?>
<svg width="37px" height="43px" viewBox="0 0 37 43" version="1.1" xmlns="http://www.w3.org/2000/svg" xmlns:xlink="http://www.w3.org/1999/xlink">
    <!-- Generator: Sketch 40.3 (33839) - http://www.bohemiancoding.com/sketch -->
    <title>jamps</title>
    <desc>Created with Sketch.</desc>
    <defs></defs>
    <g id="Orders" stroke="none" stroke-width="1" fill="none" fill-rule="evenodd">
        <g id="Sent_128" transform="translate(-701.000000, -2265.000000)">
            <g id="Questions" transform="translate(490.000000, 1486.000000)">
                <g id="All-FAQ" transform="translate(0.000000, 758.000000)">
                    <g id="jamps" transform="translate(211.000000, 21.000000)">
                        <path d="M5.34242424,12.8605319 L5.34242424,39.5908041 C5.34242424,41.407617 6.81141946,42.8941002 8.60685805,42.8941002 L33.4573604,42.8941002 C35.252799,42.8941002 36.7217943,41.407617 36.7217943,39.5908041 L36.7217943,12.8605319 C36.7217943,11.043719 35.2332124,9.93876648 33.4198195,9.30618527 L29.8713799,8.27720853 L29.360496,7.85603828 C28.6439528,6.86504944 28.2130475,6.61730223 27.8572242,6.43727259 L27.561793,6.3034891 C27.561793,6.3034891 25.6210871,5.35213982 21.3185633,5.35213982 C19.1460826,5.35213982 16.2031955,5.80799468 14.9431241,6.44387919 L14.603623,6.61730223 C14.551392,6.6437286 13.79894,7.01534942 13.1542144,8.1384701 L12.5502941,8.42090191 L8.60685805,9.55723578 C6.81141946,10.1055829 5.34242424,11.043719 5.34242424,12.8605319 Z" id="Stroke-1" fill="#CAE0E9"></path>
                        <path d="M4.08054226,5.03091999 C2.28510367,5.57926715 0.816108453,6.51740324 0.816108453,8.33421611 L0.816108453,35.0644883 C0.816108453,36.8813012 2.28510367,38.3677844 4.08054226,38.3677844 L28.9310447,38.3677844 C30.7264833,38.3677844 32.1954785,36.8813012 32.1954785,35.0644883 L32.1954785,8.33421611 C32.1954785,6.51740324 30.7068967,5.41245069 28.8935037,4.77986948 L25.3450641,3.75089274 L24.8341802,3.32972249 C24.117637,2.33873365 23.6867317,2.09098644 23.3309085,1.9109568 L23.0354772,1.77717331 C23.0354772,1.77717331 21.0947713,0.82582403 16.7922475,0.82582403 C14.6197668,0.82582403 11.6768797,1.28167889 10.4168083,1.9175634 L10.0773072,2.09098644 C10.0250762,2.11741281 9.27262424,2.48903363 8.62789856,3.61215431 L8.02397831,3.89458612 L4.08054226,5.03091999 L4.08054226,5.03091999 Z" id="Stroke-1" stroke="#2880A3"></path>
                        <path d="M25.050449,3.78425603 C23.9127938,11.9813854 17.2027501,14.6190673 16.7538904,14.7875354 C16.7538904,14.7875354 16.7473616,14.794142 16.7424649,14.7924904 C16.7375683,14.794142 16.7294072,14.7875354 16.7294072,14.7875354 C16.2805475,14.6190673 9.57050383,11.9813854 8.43284864,3.78425603" id="Stroke-3" stroke="#2880A3"></path>
                        <polygon id="Stroke-5" stroke="#2880A3" points="11.4021776 25.6020314 6.31945419 30.7452635 1.23673075 25.6020314 6.31945419 20.4587993"></polygon>
                        <polygon id="Stroke-7" stroke="#2880A3" points="21.5681142 25.6020314 16.4853907 30.7452635 11.4026673 25.6020314 16.4853907 20.4587993"></polygon>
                        <polygon id="Stroke-9" stroke="#2880A3" points="31.7340507 25.6020314 26.6513273 30.7452635 21.5686039 25.6020314 26.6513273 20.4587993"></polygon>
                    </g>
                </g>
            </g>
        </g>
    </g>
</svg>