<?xml version="1.0" encoding="UTF-8" standalone="no"?>
<svg width="22px" height="26px" viewBox="0 0 22 26" version="1.1" xmlns="http://www.w3.org/2000/svg" xmlns:xlink="http://www.w3.org/1999/xlink">
    <!-- Generator: Sketch 40.2 (33826) - http://www.bohemiancoding.com/sketch -->
    <title>kamp2</title>
    <desc>Created with Sketch.</desc>
    <defs></defs>
    <g id="Page-1" stroke="none" stroke-width="1" fill="none" fill-rule="evenodd">
        <g id="A4-Copy" transform="translate(-306.000000, -78.000000)">
            <g id="kamp2" transform="translate(307.000000, 78.000000)">
                <path d="M3.8959,4.2514 L2.4999,4.7024 C1.3999,5.0354 0.4999,5.6024 0.4999,6.7024 L0.4999,22.8864 C0.4999,23.9864 1.3999,24.8864 2.4999,24.8864 L17.7249,24.8864 C18.8249,24.8864 19.7249,23.9864 19.7249,22.8864 L19.7249,6.7024 C19.7249,5.6024 18.8129,4.9334 17.7019,4.5504 L16.9419,4.3324" id="Stroke-1" stroke="#333332"></path>
                <path d="M8.2084,7.2723 C5.4514,6.1733 3.6334,4.3923 3.5944,4.3913 C3.5944,4.3913 5.1674,1.4303 5.7874,1.0313 C6.4074,0.6333 8.9314,0.5003 10.3914,0.5003 C11.8524,0.5003 14.3764,0.6333 14.9964,1.0313 C15.6154,1.4303 17.3514,4.4503 17.3514,4.4503 C17.3514,4.4503 15.1274,6.1733 8.0624,7.3343 L8.0794,18.0973 L12.2864,18.0973 L12.2584,6.5033" id="Stroke-3" stroke="#333332"></path>
                <path d="M10.6871,11.2838 C10.6871,11.6008 10.4301,11.8588 10.1121,11.8588 C9.7951,11.8588 9.5381,11.6008 9.5381,11.2838 C9.5381,10.9668 9.7951,10.7088 10.1121,10.7088 C10.4301,10.7088 10.6871,10.9668 10.6871,11.2838" id="Fill-5" fill="#333332"></path>
                <path d="M10.6871,14.9185 C10.6871,15.2355 10.4301,15.4935 10.1121,15.4935 C9.7951,15.4935 9.5381,15.2355 9.5381,14.9185 C9.5381,14.6015 9.7951,14.3435 10.1121,14.3435 C10.4301,14.3435 10.6871,14.6015 10.6871,14.9185" id="Fill-7" fill="#333332"></path>
                <path d="M5.7877,1.0313 L9.9357,5.1813" id="Stroke-9" stroke="#333332"></path>
                <path d="M14.996,1.0313 L8.208,6.9593" id="Stroke-11" stroke="#333332"></path>
            </g>
        </g>
    </g>
</svg>