<?xml version="1.0" encoding="UTF-8" standalone="no"?>
<svg width="18px" height="18px" viewBox="0 0 18 18" version="1.1" xmlns="http://www.w3.org/2000/svg" xmlns:xlink="http://www.w3.org/1999/xlink">
    <!-- Generator: Sketch 40.2 (33826) - http://www.bohemiancoding.com/sketch -->
    <title>likee+</title>
    <desc>Created with Sketch.</desc>
    <defs></defs>
    <g id="Page-1" stroke="none" stroke-width="1" fill="none" fill-rule="evenodd">
        <g id="A4-Copy" transform="translate(-222.000000, -115.000000)" fill="#333332">
            <g id="likee+" transform="translate(222.000000, 115.000000)">
                <path d="M11.5933,0 L11.5933,0 C11.4743,0 11.3553,0.013 11.2383,0.039 C10.6513,0.17 10.3653,0.654 9.9713,1.324 C9.7353,1.725 9.4423,2.224 9.0863,2.639 C8.0243,3.878 7.6353,4.214 6.5593,5.003 L6.2353,5.244 C5.1303,6.07 3.8783,7.006 0.8643,7.42 L0.0003,7.539 L0.0003,8.411 L0.0003,11.882 L0.0003,14.675 L0.0003,15.615 L0.9393,15.673 C2.7103,15.781 3.7683,16.154 4.9923,16.587 C6.6393,17.168 8.5053,17.827 12.2963,17.827 C13.6913,17.827 14.5963,17.349 14.9863,16.406 L15.0343,16.293 C15.2303,15.84 15.3203,15.434 15.3063,15.076 C15.6533,14.783 15.9283,14.388 16.0723,13.942 C16.1693,13.643 16.1973,13.343 16.1613,13.059 C16.5633,12.688 16.8333,12.164 16.9103,11.555 C16.9793,11.018 16.8853,10.499 16.6593,10.063 C16.9053,9.711 17.0723,9.282 17.1273,8.817 C17.2393,7.882 16.8403,7.041 16.0863,6.622 C15.3363,6.205 13.9123,5.985 12.6393,5.881 C13.2953,4.801 13.6803,3.772 13.6493,2.667 C13.6073,1.146 12.7233,0 11.5933,0 M11.5933,1 C12.1613,1 12.6243,1.785 12.6503,2.694 C12.6853,3.954 12.0203,5.174 10.7873,6.801 C12.5073,6.801 14.7853,7.044 15.6003,7.496 C16.5833,8.042 16.1093,9.725 15.2033,9.974 C16.3123,10.476 16.1253,12.414 14.8533,12.633 C15.6473,13.256 14.8383,14.579 13.9563,14.616 C14.5813,14.984 14.2503,15.57 14.0623,16.023 C13.8033,16.649 13.1333,16.827 12.2963,16.827 C5.9303,16.827 5.4293,14.945 1.0003,14.675 L1.0003,11.882 L1.0003,8.411 C4.5693,7.921 5.8973,6.729 7.1513,5.809 C8.2903,4.973 8.7263,4.595 9.8453,3.29 C10.6853,2.31 11.1343,1.087 11.4553,1.015 C11.5013,1.005 11.5483,1 11.5933,1" id="Fill-1"></path>
            </g>
        </g>
    </g>
</svg>