<?xml version="1.0" encoding="UTF-8" standalone="no"?>
<svg width="26px" height="26px" viewBox="0 0 26 26" version="1.1" xmlns="http://www.w3.org/2000/svg" xmlns:xlink="http://www.w3.org/1999/xlink">
    <!-- Generator: Sketch 40.2 (33826) - http://www.bohemiancoding.com/sketch -->
    <title>linked</title>
    <desc>Created with Sketch.</desc>
    <defs>
        <polygon id="path-1" points="12.53605 26 25.072 26 25.072 0.928 12.53605 0.928 0.0001 0.928 0.0001 26 12.53605 26"></polygon>
        <polygon id="path-3" points="12.53605 26 25.072 26 25.072 0.928 12.53605 0.928 0.0001 0.928 0.0001 26 12.53605 26"></polygon>
    </defs>
    <g id="Page-1" stroke="none" stroke-width="1" fill="none" fill-rule="evenodd">
        <g id="A4-Copy" transform="translate(-273.000000, -563.000000)">
            <g id="twitter" transform="translate(298.000000, 586.000000)">
                <g id="Group-5" transform="translate(0.000000, 0.072300)">
                    <mask id="mask-2" fill="white">
                        <use xlink:href="#path-1"></use>
                    </mask>
                    <g id="Clip-4"></g>
                    <path d="M12.5361,25 C6.1751,25 1.0001,19.825 1.0001,13.464 C1.0001,7.103 6.1751,1.928 12.5361,1.928 C18.8971,1.928 24.0721,7.103 24.0721,13.464 C24.0721,19.825 18.8971,25 12.5361,25 M12.5361,0.928 C5.6241,0.928 0.0001,6.552 0.0001,13.464 C0.0001,20.376 5.6241,26 12.5361,26 C19.4481,26 25.0721,20.376 25.0721,13.464 C25.0721,6.552 19.4481,0.928 12.5361,0.928" id="Fill-3" fill="#333332" mask="url(#mask-2)"></path>
                </g>
            </g>
            <g id="linked" transform="translate(273.000000, 562.000000)">
                <path d="M16.7148,17.552 L14.9898,17.552 C14.9898,16.732 15.0098,15.902 14.9838,15.073 C14.9638,14.458 15.0178,13.7 14.1288,13.677 C13.4618,13.659 13.2338,14.031 13.1658,14.517 L13.1658,17.584 L13.1428,17.584 L11.4858,17.584 L11.4858,12.427 L11.4858,12.278 L13.1658,12.278 L13.1658,12.838 C15.2148,11.683 16.6938,12.449 16.7138,14.878 C16.7208,15.749 16.7148,16.619 16.7148,17.552 L16.7148,17.552 Z M9.6378,11.669 C9.1378,11.669 8.7328,11.264 8.7328,10.764 C8.7328,10.264 9.1378,9.858 9.6378,9.858 C10.1378,9.858 10.5438,10.264 10.5438,10.764 C10.5438,11.264 10.1378,11.669 9.6378,11.669 L9.6378,11.669 Z M8.7248,17.572 L10.3678,17.572 L10.3678,12.425 L8.7248,12.425 L8.7248,17.572 Z M17.2698,7.876 C14.2138,7.893 11.1578,7.892 8.1018,7.877 C7.2738,7.874 6.9228,8.225 6.9288,9.062 C6.9498,12.149 6.9538,15.237 6.9268,18.324 C6.9198,19.226 7.3058,19.536 8.1728,19.514 C9.6678,19.476 11.1658,19.503 12.6628,19.503 C14.2218,19.503 15.7818,19.482 17.3398,19.512 C18.1438,19.527 18.4758,19.169 18.4738,18.394 C18.4668,15.275 18.4638,12.157 18.4758,9.038 C18.4788,8.201 18.0878,7.872 17.2698,7.876 L17.2698,7.876 Z" id="Fill-1" fill="#333332"></path>
                <g id="Group-5" transform="translate(0.000000, 0.072300)">
                    <mask id="mask-4" fill="white">
                        <use xlink:href="#path-3"></use>
                    </mask>
                    <g id="Clip-4"></g>
                    <path d="M12.5361,25 C6.1751,25 1.0001,19.825 1.0001,13.464 C1.0001,7.103 6.1751,1.928 12.5361,1.928 C18.8971,1.928 24.0721,7.103 24.0721,13.464 C24.0721,19.825 18.8971,25 12.5361,25 M12.5361,0.928 C5.6241,0.928 0.0001,6.552 0.0001,13.464 C0.0001,20.376 5.6241,26 12.5361,26 C19.4481,26 25.0721,20.376 25.0721,13.464 C25.0721,6.552 19.4481,0.928 12.5361,0.928" id="Fill-3" fill="#333332" mask="url(#mask-4)"></path>
                </g>
            </g>
        </g>
    </g>
</svg>