<?xml version="1.0" encoding="UTF-8" standalone="no"?>
<svg width="22px" height="18px" viewBox="0 0 22 18" version="1.1" xmlns="http://www.w3.org/2000/svg" xmlns:xlink="http://www.w3.org/1999/xlink">
    <!-- Generator: Sketch 40.2 (33826) - http://www.bohemiancoding.com/sketch -->
    <title>list</title>
    <desc>Created with Sketch.</desc>
    <defs>
        <polygon id="path-1" points="3.5869 0.145 0 0.145 0 3.7324 3.5869 3.7324 3.5869 0.145"></polygon>
        <polygon id="path-3" points="0 0.5145 0 4.1025 3.5869 4.1025 3.5869 0.5145 6.77626358e-21 0.5145"></polygon>
        <polygon id="path-5" points="1.79345 4 0 4 0 0.412 3.5869 0.412 3.5869 4"></polygon>
        <polygon id="path-7" points="0 18.8555 21.813 18.8555 21.813 1.0005 0 1.0005"></polygon>
    </defs>
    <g id="Page-1" stroke="none" stroke-width="1" fill="none" fill-rule="evenodd">
        <g id="A4-Copy" transform="translate(-114.000000, -692.000000)">
            <g id="list" transform="translate(114.000000, 691.000000)">
                <g id="Group-3" transform="translate(0.000000, 0.855500)">
                    <mask id="mask-2" fill="white">
                        <use xlink:href="#path-1"></use>
                    </mask>
                    <g id="Clip-2"></g>
                    <path d="M1.7939,2.7324 C1.3569,2.7324 0.9999,2.3764 0.9999,1.9384 C0.9999,1.5014 1.3569,1.1444 1.7939,1.1444 C2.2309,1.1444 2.5869,1.5014 2.5869,1.9384 C2.5869,2.3764 2.2309,2.7324 1.7939,2.7324 M1.7939,0.1444 C0.8049,0.1444 -0.0001,0.9494 -0.0001,1.9384 C-0.0001,2.9274 0.8049,3.7324 1.7939,3.7324 C2.7819,3.7324 3.5869,2.9274 3.5869,1.9384 C3.5869,0.9494 2.7819,0.1444 1.7939,0.1444" id="Fill-1" fill="#333332" mask="url(#mask-2)"></path>
                </g>
                <g id="Group-6" transform="translate(0.000000, 7.855500)">
                    <mask id="mask-4" fill="white">
                        <use xlink:href="#path-3"></use>
                    </mask>
                    <g id="Clip-5"></g>
                    <path d="M1.7939,3.1025 C1.3569,3.1025 0.9999,2.7465 0.9999,2.3085 C0.9999,1.8715 1.3569,1.5145 1.7939,1.5145 C2.2309,1.5145 2.5869,1.8715 2.5869,2.3085 C2.5869,2.7465 2.2309,3.1025 1.7939,3.1025 M1.7939,0.5145 C0.8049,0.5145 -0.0001,1.3195 -0.0001,2.3085 C-0.0001,3.2975 0.8049,4.1025 1.7939,4.1025 C2.7819,4.1025 3.5869,3.2975 3.5869,2.3085 C3.5869,1.3195 2.7819,0.5145 1.7939,0.5145" id="Fill-4" fill="#333332" mask="url(#mask-4)"></path>
                </g>
                <g id="Group-9" transform="translate(0.000000, 14.855500)">
                    <mask id="mask-6" fill="white">
                        <use xlink:href="#path-5"></use>
                    </mask>
                    <g id="Clip-8"></g>
                    <path d="M1.7939,3 C1.3569,3 0.9999,2.644 0.9999,2.206 C0.9999,1.769 1.3569,1.412 1.7939,1.412 C2.2309,1.412 2.5869,1.769 2.5869,2.206 C2.5869,2.644 2.2309,3 1.7939,3 M1.7939,0.412 C0.8049,0.412 -0.0001,1.217 -0.0001,2.206 C-0.0001,3.195 0.8049,4 1.7939,4 C2.7819,4 3.5869,3.195 3.5869,2.206 C3.5869,1.217 2.7819,0.412 1.7939,0.412" id="Fill-7" fill="#333332" mask="url(#mask-6)"></path>
                </g>
                <mask id="mask-8" fill="white">
                    <use xlink:href="#path-7"></use>
                </mask>
                <g id="Clip-11"></g>
                <polygon id="Fill-10" fill="#333332" mask="url(#mask-8)" points="6.856 3.2935 21.813 3.2935 21.813 2.2935 6.856 2.2935"></polygon>
                <polygon id="Fill-12" fill="#333332" mask="url(#mask-8)" points="6.856 10.6645 21.813 10.6645 21.813 9.6645 6.856 9.6645"></polygon>
                <polygon id="Fill-13" fill="#333332" mask="url(#mask-8)" points="6.856 17.5615 21.813 17.5615 21.813 16.5615 6.856 16.5615"></polygon>
            </g>
        </g>
    </g>
</svg>