<?xml version="1.0" encoding="UTF-8" standalone="no"?>
<svg width="18px" height="24px" viewBox="0 0 18 24" version="1.1" xmlns="http://www.w3.org/2000/svg" xmlns:xlink="http://www.w3.org/1999/xlink">
    <!-- Generator: Sketch 40.2 (33826) - http://www.bohemiancoding.com/sketch -->
    <title>lock</title>
    <desc>Created with Sketch.</desc>
    <defs>
        <polygon id="path-1" points="8.78125 24 17.562 24 17.562 0.157 8.78125 0.157 0.0005 0.157 0.0005 24"></polygon>
    </defs>
    <g id="Page-1" stroke="none" stroke-width="1" fill="none" fill-rule="evenodd">
        <g id="A4-Copy" transform="translate(-390.000000, -573.000000)">
            <g id="lock" transform="translate(390.000000, 572.000000)">
                <g id="Group-3" transform="translate(0.000000, 0.842800)">
                    <mask id="mask-2" fill="white">
                        <use xlink:href="#path-1"></use>
                    </mask>
                    <g id="Clip-2"></g>
                    <path d="M16.5625,22.5 C16.5625,22.775 16.3375,23 16.0625,23 L1.4995,23 C1.2245,23 0.9995,22.775 0.9995,22.5 L0.9995,10.919 C0.9995,10.644 1.2245,10.419 1.4995,10.419 L16.0625,10.419 C16.3375,10.419 16.5625,10.644 16.5625,10.919 L16.5625,22.5 Z M3.6175,6.321 C3.6175,3.474 5.9335,1.157 8.7815,1.157 C11.6285,1.157 13.9455,3.474 13.9455,6.321 L13.9455,9.419 L3.6175,9.419 L3.6175,6.321 Z M16.0625,9.419 L14.9455,9.419 L14.9455,6.321 C14.9455,2.923 12.1795,0.157 8.7815,0.157 C5.3825,0.157 2.6175,2.923 2.6175,6.321 L2.6175,9.419 L1.4995,9.419 C0.6725,9.419 0.0005,10.092 0.0005,10.919 L0.0005,22.5 C0.0005,23.327 0.6725,24 1.4995,24 L16.0625,24 C16.8895,24 17.5625,23.327 17.5625,22.5 L17.5625,10.919 C17.5625,10.092 16.8895,9.419 16.0625,9.419 L16.0625,9.419 Z" id="Fill-1" fill="#333332" mask="url(#mask-2)"></path>
                </g>
                <path d="M9.6743,15.5816 C9.6743,15.0886 9.2743,14.6886 8.7813,14.6886 C8.2883,14.6886 7.8883,15.0886 7.8883,15.5816 C7.8883,15.8796 8.0433,16.1306 8.2673,16.2926 L7.9023,18.8546 L8.6183,18.8546 L8.9443,18.8546 L9.6603,18.8546 L9.2953,16.2926 C9.5193,16.1306 9.6743,15.8796 9.6743,15.5816" id="Fill-4" fill="#333332"></path>
            </g>
        </g>
    </g>
</svg>