<?xml version="1.0" encoding="UTF-8" standalone="no"?>
<svg width="24px" height="23px" viewBox="0 0 24 23" version="1.1" xmlns="http://www.w3.org/2000/svg" xmlns:xlink="http://www.w3.org/1999/xlink">
    <!-- Generator: Sketch 40.2 (33826) - http://www.bohemiancoding.com/sketch -->
    <title>loop</title>
    <desc>Created with Sketch.</desc>
    <defs>
        <polygon id="path-1" points="16.044 20.9996 16.044 0.1556 0.3955 0.1556 0.3955 20.9996 16.044 20.9996"></polygon>
    </defs>
    <g id="Page-1" stroke="none" stroke-width="1" fill="none" fill-rule="evenodd">
        <g id="A4-Copy" transform="translate(-248.000000, -209.000000)">
            <g id="loop" transform="translate(248.000000, 209.000000)">
                <g id="Group-3" transform="translate(7.000000, 1.953600)">
                    <mask id="mask-2" fill="white">
                        <use xlink:href="#path-1"></use>
                    </mask>
                    <g id="Clip-2"></g>
                    <path d="M12.6855,1.3926 L12.4485,1.1556 L15.5455,1.1556 L15.5455,0.1556 L10.7935,0.1556 L10.7935,4.9076 L11.7935,4.9076 L11.7935,1.9146 L11.9785,2.0996 C16.0665,6.1886 16.0665,12.8396 11.9785,16.9286 C9.0395,19.8696 4.6325,20.7936 0.7585,19.2876 L0.3955,20.2186 C1.7475,20.7446 3.1595,20.9996 4.5575,20.9996 C7.5515,20.9996 10.4915,19.8296 12.6855,17.6356 C17.1645,13.1576 17.1645,5.8716 12.6855,1.3926" id="Fill-1" fill="#333332" mask="url(#mask-2)"></path>
                </g>
                <path d="M4.3281,19.1528 L4.0711,18.8958 C2.0911,16.9158 1.0001,14.2828 1.0001,11.4818 C1.0001,8.6808 2.0911,6.0488 4.0711,4.0678 C6.9621,1.1758 11.3051,0.2268 15.1411,1.6518 L15.4891,0.7148 C11.2931,-0.8432 6.5301,0.1938 3.3641,3.3608 C1.1951,5.5298 0.0001,8.4148 0.0001,11.4818 C0.0001,14.5498 1.1951,17.4338 3.3641,19.6028 L3.5881,19.8268 L0.5761,19.8268 L0.5761,20.8268 L5.3281,20.8268 L5.3281,16.0748 L4.3281,16.0748 L4.3281,19.1528 Z" id="Fill-4" fill="#333332"></path>
            </g>
        </g>
    </g>
</svg>