<?xml version="1.0" encoding="UTF-8" standalone="no"?>
<svg width="24px" height="17px" viewBox="0 0 24 17" version="1.1" xmlns="http://www.w3.org/2000/svg" xmlns:xlink="http://www.w3.org/1999/xlink">
    <!-- Generator: Sketch 40.2 (33826) - http://www.bohemiancoding.com/sketch -->
    <title>mail</title>
    <desc>Created with Sketch.</desc>
    <defs>
        <polygon id="path-1" points="23.9908 16.3086 0 16.3086 0 -0.0002 23.9908 -0.0002 23.9908 16.3086"></polygon>
    </defs>
    <g id="Page-1" stroke="none" stroke-width="1" fill="none" fill-rule="evenodd">
        <g id="A4-Copy" transform="translate(-427.000000, -638.000000)">
            <g id="mail" transform="translate(427.000000, 638.000000)">
                <mask id="mask-2" fill="white">
                    <use xlink:href="#path-1"></use>
                </mask>
                <g id="Clip-2"></g>
                <path d="M16.5498,8.1748 L22.9908,1.7338 L22.9908,14.6158 L16.5498,8.1748 Z M8.1858,8.8818 L10.7518,11.4468 C11.0998,11.7948 11.5568,11.9688 12.0138,11.9688 C12.4718,11.9688 12.9288,11.7948 13.2778,11.4468 L15.8428,8.8818 L22.2698,15.3088 L1.7588,15.3088 L8.1858,8.8818 Z M7.4788,8.1748 L0.9998,14.6538 L0.9998,1.6958 L7.4788,8.1748 Z M12.5708,10.7398 C12.2638,11.0448 11.7658,11.0468 11.4588,10.7398 L1.7178,0.9998 L22.3108,0.9998 L12.5708,10.7398 Z M-0.0002,16.3088 L23.9908,16.3088 L23.9908,-0.0002 L-0.0002,-0.0002 L-0.0002,16.3088 Z" id="Fill-1" fill="#333332" mask="url(#mask-2)"></path>
            </g>
        </g>
    </g>
</svg>