<?xml version="1.0" encoding="UTF-8" standalone="no"?>
<svg width="26px" height="20px" viewBox="0 0 26 20" version="1.1" xmlns="http://www.w3.org/2000/svg" xmlns:xlink="http://www.w3.org/1999/xlink">
    <!-- Generator: Sketch 40.2 (33826) - http://www.bohemiancoding.com/sketch -->
    <title>measurements</title>
    <desc>Created with Sketch.</desc>
    <defs></defs>
    <g id="Page-1" stroke="none" stroke-width="1" fill="none" fill-rule="evenodd">
        <g id="A4-Copy" transform="translate(-158.000000, -444.000000)" fill="#333332">
            <g id="measurements" transform="translate(158.000000, 444.000000)">
                <path d="M20.7891,9.2168 L20.7891,5.1618 C20.7891,3.7038 18.8071,2.6048 16.1781,2.6048 C14.3911,2.6048 12.9141,3.2488 12.4901,4.2418 L12.4271,4.4278 L12.3961,7.0188 C9.6551,6.5708 7.8211,5.4998 7.8211,4.5198 C7.8211,2.6118 11.2681,0.9998 15.3501,0.9998 C20.5181,0.9998 24.8861,3.0718 24.8861,5.5308 C24.8861,7.0328 23.2451,8.3888 20.7891,9.2168 L20.7891,9.2168 Z M24.8861,14.2258 C24.8861,16.6778 20.5181,18.7498 15.3501,18.7498 L1.0001,18.7498 L1.0001,11.0558 L4.2651,11.0558 L4.2651,13.4168 L5.2651,13.4168 L5.2651,11.0558 L8.5291,11.0558 L8.5291,16.2788 L9.5291,16.2788 L9.5291,11.0558 L12.7941,11.0558 L12.7941,13.4168 L13.7941,13.4168 L13.7941,11.0558 L15.3501,11.0558 C15.9341,11.0558 16.5021,11.0278 17.0591,10.9818 L17.0591,16.2788 L18.0591,16.2788 L18.0591,10.8678 C19.2711,10.7048 20.3891,10.4348 21.3821,10.0758 L21.3821,12.3978 L22.3821,12.3978 L22.3821,9.6698 C23.4251,9.1838 24.2841,8.5918 24.8861,7.9178 L24.8861,14.2258 Z M13.3961,7.1498 L13.3991,4.6708 L13.4231,4.6018 C13.6331,4.1118 14.7211,3.6048 16.1781,3.6048 C18.2451,3.6048 19.7891,4.4268 19.7891,5.1618 C19.7891,6.1428 17.8841,7.2358 15.1501,7.2358 C14.5411,7.2358 13.9541,7.2048 13.3961,7.1498 L13.3961,7.1498 Z M7.8211,6.3188 C9.3141,7.5418 12.2641,8.2358 15.1501,8.2358 C17.0961,8.2358 18.7801,7.7228 19.7891,6.9288 L19.7891,9.5148 C18.4541,9.8578 16.9401,10.0558 15.3501,10.0558 L7.8211,10.0558 L7.8211,6.3188 Z M25.8801,5.3278 C25.6881,2.3248 21.1321,-0.0002 15.3501,-0.0002 C10.5671,-0.0002 6.8211,1.9858 6.8211,4.5198 L6.8211,10.0558 L0.0001,10.0558 L0.0001,19.7498 L15.3501,19.7498 C21.2581,19.7498 25.8861,17.3228 25.8861,14.2188 L25.8861,5.3278 L25.8801,5.3278 Z" id="Fill-1"></path>
            </g>
        </g>
    </g>
</svg>