<?xml version="1.0" encoding="UTF-8" standalone="no"?>
<svg width="24px" height="24px" viewBox="0 0 24 24" version="1.1" xmlns="http://www.w3.org/2000/svg" xmlns:xlink="http://www.w3.org/1999/xlink">
    <!-- Generator: Sketch 40.2 (33826) - http://www.bohemiancoding.com/sketch -->
    <title>minus</title>
    <desc>Created with Sketch.</desc>
    <defs>
        <polygon id="path-1" points="0 24 23.356 24 23.356 0.644 0 0.644"></polygon>
        <polygon id="path-3" points="0 24.3564 23.356 24.3564 23.356 1.0004 0 1.0004"></polygon>
    </defs>
    <g id="Page-1" stroke="none" stroke-width="1" fill="none" fill-rule="evenodd">
        <g id="A4-Copy" transform="translate(-441.000000, -209.000000)">
            <g id="minus" transform="translate(441.000000, 208.000000)">
                <g id="Group-3" transform="translate(0.000000, 0.356400)">
                    <mask id="mask-2" fill="white">
                        <use xlink:href="#path-1"></use>
                    </mask>
                    <g id="Clip-2"></g>
                    <path d="M11.6777,23 C5.7897,23 0.9997,18.21 0.9997,12.322 C0.9997,6.434 5.7897,1.644 11.6777,1.644 C17.5667,1.644 22.3567,6.434 22.3567,12.322 C22.3567,18.21 17.5667,23 11.6777,23 M11.6777,0.644 C5.2387,0.644 -0.0003,5.883 -0.0003,12.322 C-0.0003,18.762 5.2387,24 11.6777,24 C18.1167,24 23.3567,18.762 23.3567,12.322 C23.3567,5.883 18.1167,0.644 11.6777,0.644" id="Fill-1" fill="#333332" mask="url(#mask-2)"></path>
                </g>
                <mask id="mask-4" fill="white">
                    <use xlink:href="#path-3"></use>
                </mask>
                <g id="Clip-5"></g>
                <polygon id="Fill-4" fill="#333332" mask="url(#mask-4)" points="5.925 13.1284 17.432 13.1284 17.432 12.2284 5.925 12.2284"></polygon>
            </g>
        </g>
    </g>
</svg>