<?xml version="1.0" encoding="UTF-8" standalone="no"?>
<svg width="66px" height="22px" viewBox="0 0 66 22" version="1.1" xmlns="http://www.w3.org/2000/svg" xmlns:xlink="http://www.w3.org/1999/xlink">
    <!-- Generator: Sketch 40.2 (33826) - http://www.bohemiancoding.com/sketch -->
    <title>moustache</title>
    <desc>Created with Sketch.</desc>
    <defs></defs>
    <g id="Page-1" stroke="none" stroke-width="1" fill="none" fill-rule="evenodd">
        <g id="A4-Copy" transform="translate(-23.000000, -720.000000)" stroke="#333332" stroke-width="2">
            <path d="M55.683,733.223186 C59.007,736.265186 66.466,739.077186 69.023,739.652186 C77.626,741.589186 81.799,738.746186 83.507,737.413186 C85.44,735.905186 87.366,733.073186 87.366,729.681186 C87.366,725.568186 85.789,723.683186 83.46,722.708186 C83.095,722.555186 82.732,722.467186 82.382,722.426186 C82.008,722.382186 81.914,722.565186 82.192,722.677186 C83.657,723.267186 84.692,724.699186 84.692,726.376186 C84.692,727.768186 83.979,728.992186 82.899,729.706186 C82.864,729.730186 82.826,729.751186 82.79,729.773186 C82.181,730.148186 81.467,730.380186 80.7,730.368186 C78.12,730.328186 75.98,728.526186 71.171,724.616186 C67.764,721.846186 64.965,721.000186 62.834,721.000186 C59.539,721.000186 57.518,722.805186 55.683,725.494186 C53.848,722.805186 51.827,721.000186 48.532,721.000186 C46.401,721.000186 43.602,721.846186 40.195,724.616186 C35.386,728.526186 33.246,730.328186 30.666,730.368186 C29.899,730.380186 29.185,730.148186 28.576,729.773186 C28.54,729.751186 28.502,729.730186 28.467,729.706186 C27.387,728.992186 26.674,727.768186 26.674,726.376186 C26.674,724.699186 27.709,723.267186 29.174,722.677186 C29.452,722.565186 29.358,722.382186 28.984,722.426186 C28.634,722.467186 28.271,722.555186 27.906,722.708186 C25.577,723.683186 24,725.568186 24,729.681186 C24,733.073186 25.926,735.905186 27.859,737.413186 C29.567,738.746186 33.74,741.589186 42.343,739.652186 C44.9,739.077186 52.359,736.265186 55.683,733.223186 L55.683,733.223186 Z" id="moustache"></path>
        </g>
    </g>
</svg>