<?xml version="1.0" encoding="UTF-8" standalone="no"?>
<svg width="23px" height="30px" viewBox="0 0 23 30" version="1.1" xmlns="http://www.w3.org/2000/svg" xmlns:xlink="http://www.w3.org/1999/xlink">
    <!-- Generator: Sketch 40.2 (33826) - http://www.bohemiancoding.com/sketch -->
    <title>opentrash</title>
    <desc>Created with Sketch.</desc>
    <defs>
        <polygon id="path-1" points="0.7964 20 18.1834 20 18.1834 0.7653 0.7964 0.7653 0.7964 20"></polygon>
        <polygon id="path-3" points="0 0.3764 0 9.1394 22.8477 9.1394 22.8477 0.3764 1.35525272e-20 0.3764"></polygon>
        <polygon id="path-5" points="0 30.6239 22.848 30.6239 22.848 0.9999 0 0.9999"></polygon>
    </defs>
    <g id="Page-1" stroke="none" stroke-width="1" fill="none" fill-rule="evenodd">
        <g id="A4-Copy" transform="translate(-366.000000, -752.000000)">
            <g id="opentrash" transform="translate(366.000000, 751.000000)">
                <g id="Group-3" transform="translate(3.000000, 10.623900)">
                    <mask id="mask-2" fill="white">
                        <use xlink:href="#path-1"></use>
                    </mask>
                    <g id="Clip-2"></g>
                    <path d="M15.4014,18.6143 C15.4014,18.8273 15.2284,19.0003 15.0154,19.0003 L4.0104,19.0003 C3.8004,19.0003 3.6244,18.8233 3.6214,18.5633 L1.9034,1.7653 L17.0794,1.7653 L15.4014,18.6143 Z M2.6244,18.6143 C2.6244,19.3783 3.2464,20.0003 4.0104,20.0003 L15.0154,20.0003 C15.7794,20.0003 16.4014,19.3783 16.3984,18.6643 L18.1834,0.7653 L0.7964,0.7653 L2.6244,18.6143 Z" id="Fill-1" fill="#333332" mask="url(#mask-2)"></path>
                </g>
                <g id="Group-6" transform="translate(0.000000, 0.623900)">
                    <mask id="mask-4" fill="white">
                        <use xlink:href="#path-3"></use>
                    </mask>
                    <g id="Clip-5"></g>
                    <path d="M6.6377,2.8434 L14.5697,1.3794 C14.5817,1.3774 14.5947,1.3764 14.6067,1.3764 C14.6477,1.3764 14.6747,1.3894 14.6747,1.3894 C14.6747,1.3894 14.6877,1.3884 14.6867,1.3864 L15.4067,5.2854 L7.2487,6.7904 L6.5297,2.9114 C6.5337,2.9014 6.5637,2.8574 6.6377,2.8434 L6.6377,2.8434 Z M22.6657,3.9724 L16.3947,5.1304 L15.6707,1.2034 C15.5807,0.7154 15.1247,0.3764 14.6067,0.3764 C14.5347,0.3764 14.4617,0.3824 14.3877,0.3964 L6.4557,1.8604 C5.8537,1.9714 5.4447,2.5164 5.5467,3.0724 L6.2717,6.9984 L-0.0003,8.1564 L0.1817,9.1394 L22.8477,4.9574 L22.6657,3.9724 Z" id="Fill-4" fill="#333332" mask="url(#mask-4)"></path>
                </g>
                <mask id="mask-6" fill="white">
                    <use xlink:href="#path-5"></use>
                </mask>
                <g id="Clip-8"></g>
                <polygon id="Fill-7" fill="#333332" mask="url(#mask-6)" points="8.725 26.2839 9.625 26.2839 9.625 14.6669 8.725 14.6669"></polygon>
                <polygon id="Fill-9" fill="#333332" mask="url(#mask-6)" points="12.083 26.2839 12.983 26.2839 12.983 14.6669 12.083 14.6669"></polygon>
                <polygon id="Fill-10" fill="#333332" mask="url(#mask-6)" points="15.441 26.2839 16.341 26.2839 16.341 14.6669 15.441 14.6669"></polygon>
            </g>
        </g>
    </g>
</svg>