<?xml version="1.0" encoding="UTF-8" standalone="no"?>
<svg width="25px" height="25px" viewBox="0 0 25 25" version="1.1" xmlns="http://www.w3.org/2000/svg" xmlns:xlink="http://www.w3.org/1999/xlink">
    <!-- Generator: Sketch 40.2 (33826) - http://www.bohemiancoding.com/sketch -->
    <title>Page 1</title>
    <desc>Created with Sketch.</desc>
    <defs></defs>
    <g id="Page-1" stroke="none" stroke-width="1" fill="none" fill-rule="evenodd">
        <g id="A4-Copy" transform="translate(-109.000000, -432.000000)" fill="#333332">
            <path d="M131.024,455.391 C131.024,455.666 130.799,455.891 130.524,455.891 L121.412,455.891 L121.412,444.228 L131.024,444.228 L131.024,455.391 Z M110.987,455.391 L110.987,444.228 L120.412,444.228 L120.412,455.891 L111.487,455.891 C111.212,455.891 110.987,455.666 110.987,455.391 L110.987,455.391 Z M110,439.003 C110,438.728 110.224,438.503 110.5,438.503 L120.412,438.503 L120.412,443.222 L110,443.222 L110,439.003 Z M116.532,433 C118.091,433 119.459,434.469 120.257,436.965 L116.468,436.965 C115.376,436.965 114.487,436.076 114.487,434.983 C114.487,433.895 115.362,433.025 116.532,433 L116.532,433 Z M125.438,433.001 L125.439,433.001 C126.556,433.025 127.431,433.895 127.431,434.983 C127.431,436.076 126.543,436.965 125.45,436.965 L121.661,436.965 C122.46,434.47 123.83,433.001 125.438,433.001 L125.438,433.001 Z M132.011,439.003 L132.011,443.222 L121.412,443.222 L121.412,438.503 L131.511,438.503 C131.787,438.503 132.011,438.728 132.011,439.003 L132.011,439.003 Z M133.011,439.003 C133.011,438.176 132.338,437.503 131.511,437.503 L127.027,437.503 C127.867,436.975 128.431,436.047 128.431,434.983 C128.431,433.346 127.127,432.037 125.386,432 C123.532,432 121.937,433.468 120.959,435.979 C119.98,433.469 118.376,432.001 116.46,432.001 C114.792,432.037 113.487,433.346 113.487,434.983 C113.487,436.047 114.051,436.975 114.891,437.503 L110.5,437.503 C109.672,437.503 109,438.176 109,439.003 L109,444.222 L109.987,444.222 L109.987,455.391 C109.987,456.218 110.66,456.891 111.487,456.891 L130.524,456.891 C131.351,456.891 132.024,456.218 132.024,455.391 L132.024,444.222 L133.011,444.222 L133.011,439.003 Z" id="Page-1"></path>
        </g>
    </g>
</svg>