<?xml version="1.0" encoding="UTF-8" standalone="no"?>
<svg width="24px" height="23px" viewBox="0 0 24 23" version="1.1" xmlns="http://www.w3.org/2000/svg" xmlns:xlink="http://www.w3.org/1999/xlink">
    <!-- Generator: Sketch 40.2 (33826) - http://www.bohemiancoding.com/sketch -->
    <title>paint</title>
    <desc>Created with Sketch.</desc>
    <defs></defs>
    <g id="Page-1" stroke="none" stroke-width="1" fill="none" fill-rule="evenodd">
        <g id="A4-Copy" transform="translate(-238.000000, -407.000000)" fill="#333332">
            <path d="M247.537,428.6719 L250.283,428.6719 L250.283,422.0499 L247.537,422.0499 L247.537,428.6719 Z M258.333,412.8059 C258.333,413.6329 257.66,414.3059 256.833,414.3059 L241.209,414.3059 C240.382,414.3059 239.709,413.6329 239.709,412.8059 L239.709,409.4999 C239.709,408.6729 240.382,407.9999 241.209,407.9999 L256.833,407.9999 C257.66,407.9999 258.333,408.6729 258.333,409.4999 L258.333,412.8059 Z M261.509,418.3039 L261.509,410.4929 L259.333,410.4929 L259.333,409.4999 C259.333,408.1209 258.212,406.9999 256.833,406.9999 L241.209,406.9999 C239.83,406.9999 238.709,408.1209 238.709,409.4999 L238.709,410.4929 L238,410.4929 L238,411.4929 L238.709,411.4929 L238.709,412.8059 C238.709,414.1849 239.83,415.3059 241.209,415.3059 L256.833,415.3059 C258.212,415.3059 259.333,414.1849 259.333,412.8059 L259.333,411.4929 L260.509,411.4929 L260.509,417.3039 L248.41,417.3039 L248.41,421.0499 L246.537,421.0499 L246.537,429.6719 L251.283,429.6719 L251.283,421.0499 L249.41,421.0499 L249.41,418.3039 L261.509,418.3039 Z" id="paint"></path>
        </g>
    </g>
</svg>