<?xml version="1.0" encoding="UTF-8" standalone="no"?>
<svg width="46px" height="40px" viewBox="0 0 56 50" version="1.1" xmlns="http://www.w3.org/2000/svg" xmlns:xlink="http://www.w3.org/1999/xlink">
    <!-- Generator: Sketch 41 (35326) - http://www.bohemiancoding.com/sketch -->
    <title>Icon</title>
    <desc>Created with Sketch.</desc>
    <defs>
        <polygon id="path-1" points="0 43.3525138 49.8159588 43.3525138 49.8159588 0.301093221 1.3413425e-19 0.301093221"></polygon>
    </defs>
    <g id="Page-1" stroke="none" stroke-width="1" fill="none" fill-rule="evenodd">
        <g id="Settings-Main" transform="translate(-693.000000, -992.000000)">
            <g id="Payment" transform="translate(490.000000, 963.000000)">
                <g id="Icon" transform="translate(203.000000, 29.000000)">
                    <g id="card" transform="translate(6.000000, 6.000000)" fill="#CAE0E9" opacity="0.300000012">
                        <g id="Group-8">
                            <path d="M48.0632331,9.2253224 L18.1253666,0.100809011 C16.8535557,-0.286311525 15.4217375,0.479692939 15.0357405,1.7448358 L9.98973607,18.2559385 L2.47434018,18.2559385 C1.11015396,18.2559385 0,19.3645858 0,20.7269206 L0,40.5804385 C0,41.9427733 1.11015396,43.0514206 2.47434018,43.0514206 L33.5537023,43.0514206 C34.9178886,43.0514206 36.0280425,41.9427733 36.0280425,40.5804385 L36.0280425,31.4839295 L40.815066,32.941809 C41.0509531,33.0126438 41.2917889,33.0505322 41.5359238,33.0505322 C42.6147361,33.0505322 43.5896261,32.3306528 43.9063416,31.2994295 L49.7094941,12.3091081 C50.1053886,11.0077242 49.3680352,9.62397419 48.0632331,9.2253224 Z" id="Fill-6"></path>
                        </g>
                    </g>
                    <g id="card">
                        <polygon id="Fill-1" fill="#3B434D" points="6.10997067 28.0218817 9.97653959 28.0218817 9.97653959 24.7272388 6.10997067 24.7272388"></polygon>
                        <polygon id="Fill-2" fill="#3B434D" points="6.42008798 38.1924442 9.97324047 38.1924442 9.97324047 34.8978013 6.42008798 34.8978013"></polygon>
                        <polygon id="Fill-3" fill="#3B434D" points="12.963893 38.1924442 16.5170455 38.1924442 16.5170455 34.8978013 12.963893 34.8978013"></polygon>
                        <polygon id="Fill-4" fill="#3B434D" points="19.5093475 38.1924442 23.0625 38.1924442 23.0625 34.8978013 19.5093475 34.8978013"></polygon>
                        <polygon id="Fill-5" fill="#3B434D" points="26.0548021 38.1924442 29.6079545 38.1924442 29.6079545 34.8978013 26.0548021 34.8978013"></polygon>
                        <g id="Group-8" transform="translate(0.000000, 0.221565)">
                            <mask id="mask-2" fill="white">
                                <use xlink:href="#path-1"></use>
                            </mask>
                            <g id="Clip-7"></g>
                            <path d="M48.1303702,12.1308308 L47.122489,15.4320629 L15.6043438,5.8265317 L16.6138746,2.52694687 C16.7177969,2.1826567 17.0444098,1.94214777 17.4056635,1.94214777 C17.4864919,1.94214777 17.5673204,1.95367902 17.6448497,1.97838884 L47.5810667,11.1029022 C48.0165506,11.2346879 48.262335,11.6959379 48.1303702,12.1308308 L48.1303702,12.1308308 Z M42.3288673,31.1195049 C42.2002016,31.5362772 41.7399743,31.8031433 41.2962427,31.6664156 L36.0275477,30.0619246 L36.0275477,21.0280138 C36.0275477,19.665679 34.9173937,18.5570317 33.5532075,18.5570317 L11.7146811,18.5570317 L14.1609787,10.5526969 L45.6774743,20.1582281 L42.3288673,31.1195049 Z M34.3779875,40.8815317 C34.3779875,41.3361924 34.0068365,41.7051924 33.5532075,41.7051924 L2.47384531,41.7051924 C2.02021628,41.7051924 1.64906525,41.3361924 1.64906525,40.8815317 L1.64906525,21.0280138 C1.64906525,20.5750004 2.02021628,20.2043531 2.47384531,20.2043531 L33.5532075,20.2043531 C34.0068365,20.2043531 34.3779875,20.5750004 34.3779875,21.0280138 L34.3779875,40.8815317 Z M48.0627383,9.52641562 L18.1248717,0.401902232 C16.8530609,0.0147816964 15.4212427,0.780786161 15.0352456,2.04592902 L9.9892412,18.5570317 L2.47384531,18.5570317 C1.10965909,18.5570317 -0.000494868029,19.665679 -0.000494868029,21.0280138 L-0.000494868029,40.8815317 C-0.000494868029,42.2438665 1.10965909,43.3525138 2.47384531,43.3525138 L33.5532075,43.3525138 C34.9173937,43.3525138 36.0275477,42.2438665 36.0275477,40.8815317 L36.0275477,31.7850228 L40.8145711,33.2429022 C41.0504582,33.3137371 41.291294,33.3516254 41.5354289,33.3516254 C42.6142412,33.3516254 43.5891312,32.631746 43.9058468,31.6005228 L49.7089993,12.6102013 C50.1048937,11.3088174 49.3675403,9.92506741 48.0627383,9.52641562 L48.0627383,9.52641562 Z" id="Fill-6" fill="#3B434D" mask="url(#mask-2)"></path>
                        </g>
                    </g>
                </g>
            </g>
        </g>
    </g>
</svg>