<?xml version="1.0" encoding="UTF-8" standalone="no"?>
<svg width="24px" height="24px" viewBox="0 0 24 24" version="1.1" xmlns="http://www.w3.org/2000/svg" xmlns:xlink="http://www.w3.org/1999/xlink">
    <!-- Generator: Sketch 40.2 (33826) - http://www.bohemiancoding.com/sketch -->
    <title>pencil</title>
    <desc>Created with Sketch.</desc>
    <defs></defs>
    <g id="Page-1" stroke="none" stroke-width="1" fill="none" fill-rule="evenodd">
        <g id="A4-Copy" transform="translate(-403.000000, -489.000000)" fill="#333332">
            <g id="pencil" transform="translate(403.000000, 489.000000)">
                <path d="M21.2866,6.4725 L17.2776,2.4635 L17.9826,1.7595 C18.4736,1.2675 19.0886,0.9735 19.6286,0.9735 C19.8226,0.9735 20.0946,1.0145 20.2896,1.2105 L22.5386,3.4595 C23.0076,3.9285 22.7516,5.0075 21.9916,5.7675 L21.2866,6.4725 Z M2.7516,22.1295 C2.6236,21.8305 2.2996,21.3115 1.5716,20.9455 L2.2116,17.7605 L5.9556,21.5035 L2.7516,22.1295 Z M14.8326,4.9095 L16.4836,6.5595 L4.4546,18.5885 L2.8036,16.9375 L14.8326,4.9095 Z M15.5396,4.2015 L16.5706,3.1705 L20.5796,7.1795 L19.5486,8.2105 L15.5396,4.2015 Z M18.8416,8.9175 L6.8126,20.9465 L5.1616,19.2955 L17.1906,7.2665 L18.8416,8.9175 Z M23.2456,2.7525 L20.9966,0.5035 C20.1446,-0.3495 18.4116,-0.0875 17.2756,1.0525 L1.4396,16.8885 L1.3696,16.8745 L-0.0004,23.6855 L6.8086,22.3565 L6.8126,22.3605 L6.8186,22.3555 L6.8736,22.3445 L6.8666,22.3065 L22.6986,6.4745 C23.8746,5.2975 24.1206,3.6275 23.2456,2.7525 L23.2456,2.7525 Z" id="Fill-1"></path>
            </g>
        </g>
    </g>
</svg>