<?xml version="1.0" encoding="UTF-8" standalone="no"?>
<svg width="20px" height="26px" viewBox="0 0 20 26" version="1.1" xmlns="http://www.w3.org/2000/svg" xmlns:xlink="http://www.w3.org/1999/xlink">
    <!-- Generator: Sketch 40.2 (33826) - http://www.bohemiancoding.com/sketch -->
    <title>phone</title>
    <desc>Created with Sketch.</desc>
    <defs></defs>
    <g id="Page-1" stroke="none" stroke-width="1" fill="none" fill-rule="evenodd">
        <g id="A4-Copy" transform="translate(-495.000000, -540.000000)" fill="#333332">
            <g id="phone" transform="translate(495.000000, 540.000000)">
                <path d="M16.959,24.916 L2.5,24.916 C1.673,24.916 1,24.243 1,23.416 L1,20.019 L18.459,20.019 L18.459,23.416 C18.459,24.243 17.786,24.916 16.959,24.916 L16.959,24.916 Z M1,19.118 L18.459,19.118 L18.459,5.643 L1,5.643 L1,19.118 Z M2.5,1 L16.959,1 C17.786,1 18.459,1.673 18.459,2.5 L18.459,4.743 L1,4.743 L1,2.5 C1,1.673 1.673,1 2.5,1 L2.5,1 Z M16.959,0 L2.5,0 C1.121,0 0,1.121 0,2.5 L0,23.416 C0,24.795 1.121,25.916 2.5,25.916 L16.959,25.916 C18.338,25.916 19.459,24.795 19.459,23.416 L19.459,2.5 C19.459,1.121 18.338,0 16.959,0 L16.959,0 Z" id="Fill-1"></path>
                <path d="M9.7295,21.5271 C9.1885,21.5271 8.7505,21.9651 8.7505,22.5061 C8.7505,23.0471 9.1885,23.4851 9.7295,23.4851 C10.2705,23.4851 10.7085,23.0471 10.7085,22.5061 C10.7085,21.9651 10.2705,21.5271 9.7295,21.5271" id="Fill-3"></path>
                <path d="M9.7295,3.6029 C10.1065,3.6029 10.4135,3.2969 10.4135,2.9199 C10.4135,2.5419 10.1065,2.2359 9.7295,2.2359 C9.3525,2.2359 9.0465,2.5419 9.0465,2.9199 C9.0465,3.2969 9.3525,3.6029 9.7295,3.6029" id="Fill-5"></path>
            </g>
        </g>
    </g>
</svg>