<?xml version="1.0" encoding="UTF-8" standalone="no"?>
<svg width="15px" height="23px" viewBox="0 0 15 23" version="1.1" xmlns="http://www.w3.org/2000/svg" xmlns:xlink="http://www.w3.org/1999/xlink">
    <!-- Generator: Sketch 40.2 (33826) - http://www.bohemiancoding.com/sketch -->
    <title>phonne</title>
    <desc>Created with Sketch.</desc>
    <defs>
        <polygon id="path-1" points="7.13035 23 0 23 0 0.231 7.13035 0.231 14.2607 0.231 14.2607 23 7.13035 23"></polygon>
    </defs>
    <g id="Page-1" stroke="none" stroke-width="1" fill="none" fill-rule="evenodd">
        <g id="A4-Copy" transform="translate(-500.000000, -580.000000)">
            <g id="phonne" transform="translate(500.000000, 579.000000)">
                <g id="Group-3" transform="translate(0.000000, 0.768600)">
                    <mask id="mask-2" fill="white">
                        <use xlink:href="#path-1"></use>
                    </mask>
                    <g id="Clip-2"></g>
                    <path d="M11.7607,22 L2.4997,22 C1.6727,22 0.9997,21.327 0.9997,20.5 L0.9997,17.617 L13.2607,17.617 L13.2607,20.5 C13.2607,21.327 12.5877,22 11.7607,22 L11.7607,22 Z M0.9997,16.717 L13.2607,16.717 L13.2607,5.463 L0.9997,5.463 L0.9997,16.717 Z M2.4997,1.231 L11.7607,1.231 C12.5877,1.231 13.2607,1.904 13.2607,2.731 L13.2607,4.563 L0.9997,4.563 L0.9997,2.731 C0.9997,1.904 1.6727,1.231 2.4997,1.231 L2.4997,1.231 Z M11.7607,0.231 L2.4997,0.231 C1.1207,0.231 -0.0003,1.353 -0.0003,2.731 L-0.0003,20.5 C-0.0003,21.879 1.1207,23 2.4997,23 L11.7607,23 C13.1397,23 14.2607,21.879 14.2607,20.5 L14.2607,2.731 C14.2607,1.353 13.1397,0.231 11.7607,0.231 L11.7607,0.231 Z" id="Fill-1" fill="#333332" mask="url(#mask-2)"></path>
                </g>
                <path d="M7.1304,19.722 C6.6374,19.722 6.2374,20.122 6.2374,20.615 C6.2374,21.108 6.6374,21.508 7.1304,21.508 C7.6244,21.508 8.0234,21.108 8.0234,20.615 C8.0234,20.122 7.6244,19.722 7.1304,19.722" id="Fill-4" fill="#333332"></path>
                <path d="M7.1304,4.3301 C7.4744,4.3301 7.7544,4.0511 7.7544,3.7071 C7.7544,3.3621 7.4744,3.0831 7.1304,3.0831 C6.7864,3.0831 6.5074,3.3621 6.5074,3.7071 C6.5074,4.0511 6.7864,4.3301 7.1304,4.3301" id="Fill-6" fill="#333332"></path>
            </g>
        </g>
    </g>
</svg>