<?xml version="1.0" encoding="UTF-8" standalone="no"?>
<svg width="25px" height="25px" viewBox="0 0 25 25" version="1.1" xmlns="http://www.w3.org/2000/svg" xmlns:xlink="http://www.w3.org/1999/xlink">
    <!-- Generator: Sketch 40.2 (33826) - http://www.bohemiancoding.com/sketch -->
    <title>photos</title>
    <desc>Created with Sketch.</desc>
    <defs></defs>
    <g id="Page-1" stroke="none" stroke-width="1" fill="none" fill-rule="evenodd">
        <g id="A4-Copy" transform="translate(-252.000000, -673.000000)" fill="#333332">
            <g id="photos" transform="translate(252.000000, 673.000000)">
                <path d="M1,23.4648 L23.561,23.4648 L23.561,17.1178 L1,17.1178 L1,23.4648 Z M12.766,16.1178 L10.02,13.3728 L14.394,8.9978 C14.729,8.6618 15.277,8.6618 15.613,8.9978 L22.733,16.1178 L12.766,16.1178 Z M11.352,16.1178 L1.582,16.1178 L6.144,11.5568 C6.321,11.3788 6.612,11.3788 6.79,11.5568 L11.352,16.1178 Z M23.561,0.9998 L23.561,15.5308 L16.32,8.2908 C15.596,7.5648 14.413,7.5648 13.687,8.2908 L9.313,12.6658 L7.497,10.8498 C6.929,10.2808 6.005,10.2808 5.437,10.8498 L1,15.2858 L1,0.9998 L23.561,0.9998 Z M0,24.4648 L24.561,24.4648 L24.561,-0.0002 L0,-0.0002 L0,24.4648 Z" id="Fill-1"></path>
                <path d="M6.168,4.1513 C6.949,4.1513 7.585,4.7863 7.585,5.5673 C7.585,6.3483 6.949,6.9843 6.168,6.9843 C5.387,6.9843 4.752,6.3483 4.752,5.5673 C4.752,4.7863 5.387,4.1513 6.168,4.1513 M6.168,7.9843 C7.501,7.9843 8.585,6.9003 8.585,5.5673 C8.585,4.2353 7.501,3.1513 6.168,3.1513 C4.836,3.1513 3.752,4.2353 3.752,5.5673 C3.752,6.9003 4.836,7.9843 6.168,7.9843" id="Fill-3"></path>
            </g>
        </g>
    </g>
</svg>