<?xml version="1.0" encoding="UTF-8" standalone="no"?>
<svg width="29px" height="28px" viewBox="0 0 29 28" version="1.1" xmlns="http://www.w3.org/2000/svg" xmlns:xlink="http://www.w3.org/1999/xlink">
    <!-- Generator: Sketch 40.2 (33826) - http://www.bohemiancoding.com/sketch -->
    <title>photo</title>
    <desc>Created with Sketch.</desc>
    <defs></defs>
    <g id="Page-1" stroke="none" stroke-width="1" fill="none" fill-rule="evenodd">
        <g id="A4-Copy" transform="translate(-205.000000, -672.000000)" fill="#333332">
            <g id="photo" transform="translate(205.000000, 671.000000)">
                <polygon id="Fill-1" points="25.207 3.8496 22.763 3.8496 22.763 4.8496 24.207 4.8496 24.207 24.5506 4.422 24.5506 4.422 23.6666 3.422 23.6666 3.422 25.5506 25.207 25.5506"></polygon>
                <polygon id="Fill-2" points="26.0352 6.7572 26.0352 7.7572 27.4802 7.7572 27.4802 27.4582 7.6942 27.4582 7.6942 26.5742 6.6942 26.5742 6.6942 28.4582 28.4792 28.4582 28.4792 6.7572"></polygon>
                <g id="Group-6" transform="translate(0.000000, 0.458000)">
                    <path d="M1,21.25 L20.793,21.25 L20.793,15.767 L1,15.767 L1,21.25 Z M11.35,14.767 L8.985,12.402 L12.804,8.583 C12.936,8.451 13.111,8.379 13.3,8.379 C13.488,8.379 13.665,8.451 13.797,8.583 L19.98,14.767 L11.35,14.767 Z M9.936,14.767 L1.597,14.767 L5.522,10.841 C5.655,10.707 5.877,10.709 6.01,10.841 L9.936,14.767 Z M20.793,1.542 L20.793,14.165 L14.504,7.876 C14.184,7.556 13.756,7.379 13.3,7.379 L13.299,7.379 C12.844,7.379 12.416,7.556 12.097,7.876 L8.278,11.695 L6.717,10.134 C6.193,9.61 5.339,9.609 4.815,10.134 L1,13.949 L1,1.542 L20.793,1.542 Z M0,22.25 L21.793,22.25 L21.793,0.542 L0,0.542 L0,22.25 Z" id="Fill-3"></path>
                    <path d="M5.5029,4.3232 C6.1599,4.3232 6.6939,4.8572 6.6939,5.5142 C6.6939,6.1722 6.1599,6.7062 5.5029,6.7062 C4.8459,6.7062 4.3119,6.1722 4.3119,5.5142 C4.3119,4.8572 4.8459,4.3232 5.5029,4.3232 M5.5029,7.7062 C6.7109,7.7062 7.6939,6.7222 7.6939,5.5142 C7.6939,4.3062 6.7109,3.3232 5.5029,3.3232 C4.2949,3.3232 3.3119,4.3062 3.3119,5.5142 C3.3119,6.7222 4.2949,7.7062 5.5029,7.7062" id="Fill-5"></path>
                </g>
            </g>
        </g>
    </g>
</svg>