<?xml version="1.0" encoding="UTF-8" standalone="no"?>
<svg width="23px" height="24px" viewBox="0 0 23 24" version="1.1" xmlns="http://www.w3.org/2000/svg" xmlns:xlink="http://www.w3.org/1999/xlink">
    <!-- Generator: Sketch 40.2 (33826) - http://www.bohemiancoding.com/sketch -->
    <title>pick</title>
    <desc>Created with Sketch.</desc>
    <defs></defs>
    <g id="Page-1" stroke="none" stroke-width="1" fill="none" fill-rule="evenodd">
        <g id="A4-Copy" transform="translate(-196.000000, -541.000000)" fill="#333332">
            <g id="pick" transform="translate(196.000000, 541.000000)">
                <path d="M17.1693,0.0002 L17.1693,1.5162 L5.1883,1.5162 L5.1883,0.0002 L4.1883,0.0002 L4.1883,1.5162 L0.0003,1.5162 L0.0003,23.4782 L22.4433,23.4782 L22.4433,1.5162 L18.1693,1.5162 L18.1693,0.0002 L17.1693,0.0002 Z M18.1693,3.9382 L18.1693,2.5162 L21.4433,2.5162 L21.4433,6.2962 L1.0003,6.2962 L1.0003,2.5162 L4.1883,2.5162 L4.1883,3.9382 L5.1883,3.9382 L5.1883,2.5162 L17.1693,2.5162 L17.1693,3.9382 L18.1693,3.9382 Z M1.0003,7.2952 L21.4433,7.2952 L21.4433,16.1452 L14.9333,16.1452 L14.9333,22.4782 L1.0003,22.4782 L1.0003,7.2952 Z M15.9333,17.1452 L20.7113,17.1452 L15.9333,21.7852 L15.9333,17.1452 Z M21.4433,17.8282 L21.4433,22.4782 L16.6553,22.4782 L21.4433,17.8282 Z" id="Fill-1"></path>
                <polygon id="Fill-2" points="5.639 11.1305 8.189 11.1305 8.189 10.1305 5.639 10.1305"></polygon>
                <polygon id="Fill-3" points="5.639 17.4665 8.189 17.4665 8.189 16.4665 5.639 16.4665"></polygon>
                <polygon id="Fill-4" points="14.778 11.1155 17.327 11.1155 17.327 10.1155 14.778 10.1155"></polygon>
                <path d="M4.211,19.4185 L9.771,19.4185 L9.771,14.3965 L4.211,14.3965 L4.211,19.4185 Z M3.211,20.4185 L10.771,20.4185 L10.771,13.3965 L3.211,13.3965 L3.211,20.4185 Z" id="Fill-5"></path>
            </g>
        </g>
    </g>
</svg>