<?xml version="1.0" encoding="UTF-8" standalone="no"?>
<svg width="33px" height="32px" viewBox="0 0 33 32" version="1.1" xmlns="http://www.w3.org/2000/svg" xmlns:xlink="http://www.w3.org/1999/xlink">
    <!-- Generator: Sketch 40.2 (33826) - http://www.bohemiancoding.com/sketch -->
    <title>ppl</title>
    <desc>Created with Sketch.</desc>
    <defs></defs>
    <g id="Page-1" stroke="none" stroke-width="1" fill="none" fill-rule="evenodd">
        <g id="A4-Copy" transform="translate(-248.000000, -770.000000)">
            <g id="ppl" transform="translate(248.000000, 769.000000)">
                <g id="Group-4" transform="translate(0.000000, 0.560300)">
                    <path d="M20.143,20.5097 C19.33,20.1917 18.599,19.8997 18.233,19.7247 C17.252,19.2567 16.221,18.7067 16.287,17.0967 C16.287,17.0967 19.229,16.9187 21.405,16.0817 C21.405,16.0817 20.589,14.6477 20.391,12.5517 C20.192,10.4557 19.961,4.5777 17.9,2.9897 C17.643,2.7887 17.244,2.6677 17.244,2.6677 C16.825,1.9177 15.93,1.3327 14.838,1.0797 C13.587,0.7887 10.044,0.7707 7.815,2.8667 C5.366,5.1707 5.879,10.4557 5.68,12.5517 C5.482,14.6477 4.665,16.0817 4.665,16.0817 C6.93,16.9627 9.784,17.0967 9.784,17.0967 C9.85,18.7067 8.711,19.1987 7.644,19.7247 C6.783,20.1507 3.826,21.2917 2.614,21.8397 C1.487,22.3487 0.65,23.5527 0.562,24.1487 C0.562,24.1487 6.736,25.6277 13.25,25.6277 C14.687,25.6277 16.087,25.5557 17.396,25.4437 C17.834,25.4067 17.973,25.3947 18.388,25.3497" id="Fill-1" fill="#FEFEFE"></path>
                    <path d="M20.143,20.5097 C19.33,20.1917 18.599,19.8997 18.233,19.7247 C17.252,19.2567 16.221,18.7067 16.287,17.0967 C16.287,17.0967 19.229,16.9187 21.405,16.0817 C21.405,16.0817 20.589,14.6477 20.391,12.5517 C20.192,10.4557 19.961,4.5777 17.9,2.9897 C17.643,2.7887 17.244,2.6677 17.244,2.6677 C16.825,1.9177 15.93,1.3327 14.838,1.0797 C13.587,0.7887 10.044,0.7707 7.815,2.8667 C5.366,5.1707 5.879,10.4557 5.68,12.5517 C5.482,14.6477 4.665,16.0817 4.665,16.0817 C6.93,16.9627 9.784,17.0967 9.784,17.0967 C9.85,18.7067 8.711,19.1987 7.644,19.7247 C6.783,20.1507 3.826,21.2917 2.614,21.8397 C1.487,22.3487 0.65,23.5527 0.562,24.1487 C0.562,24.1487 6.736,25.6277 13.25,25.6277 C14.687,25.6277 16.087,25.5557 17.396,25.4437 C17.834,25.4067 17.973,25.3947 18.388,25.3497" id="Stroke-3" stroke="#333332"></path>
                </g>
                <path d="M26.0197,20.3167 C22.7767,20.3167 20.1477,22.9457 20.1477,26.1887 C20.1477,29.4317 22.7767,32.0607 26.0197,32.0607 C29.2627,32.0607 31.8917,29.4317 31.8917,26.1887 C31.8917,22.9457 29.2627,20.3167 26.0197,20.3167" id="Fill-5" fill="#FEFEFE"></path>
                <path d="M26.0197,20.3167 C22.7767,20.3167 20.1477,22.9457 20.1477,26.1887 C20.1477,29.4317 22.7767,32.0607 26.0197,32.0607 C29.2627,32.0607 31.8917,29.4317 31.8917,26.1887 C31.8917,22.9457 29.2627,20.3167 26.0197,20.3167 L26.0197,20.3167 Z" id="Stroke-7" stroke="#333332"></path>
                <path d="M26.0197,23.1661 L26.0197,29.2111" id="Stroke-9" stroke="#333332" stroke-width="0.9"></path>
                <path d="M29.0421,26.1885 L22.9971,26.1885" id="Stroke-11" stroke="#333332" stroke-width="0.9"></path>
            </g>
        </g>
    </g>
</svg>