<?xml version="1.0" encoding="UTF-8" standalone="no"?>
<svg width="26px" height="31px" viewBox="0 0 26 31" version="1.1" xmlns="http://www.w3.org/2000/svg" xmlns:xlink="http://www.w3.org/1999/xlink">
    <!-- Generator: Sketch 40.2 (33826) - http://www.bohemiancoding.com/sketch -->
    <title>print</title>
    <desc>Created with Sketch.</desc>
    <defs>
        <polygon id="path-1" points="25.791 15.59995 25.791 0.2 0 0.2 0 15.59995 0 30.9999 25.791 30.9999 25.791 15.59995"></polygon>
    </defs>
    <g id="Page-1" stroke="none" stroke-width="1" fill="none" fill-rule="evenodd">
        <g id="A4-Copy" transform="translate(-299.000000, -629.000000)">
            <g id="print" transform="translate(299.000000, 628.000000)">
                <path d="M20.2681,13.8694 C19.8911,13.8694 19.5851,14.1754 19.5851,14.5524 C19.5851,14.9304 19.8911,15.2364 20.2681,15.2364 C20.6451,15.2364 20.9521,14.9304 20.9521,14.5524 C20.9521,14.1754 20.6451,13.8694 20.2681,13.8694" id="Fill-1" fill="#333332"></path>
                <path d="M22.417,13.8694 C22.04,13.8694 21.733,14.1754 21.733,14.5524 C21.733,14.9304 22.04,15.2364 22.417,15.2364 C22.794,15.2364 23.101,14.9304 23.101,14.5524 C23.101,14.1754 22.794,13.8694 22.417,13.8694" id="Fill-3" fill="#333332"></path>
                <g id="Group-7" transform="translate(0.000000, 0.799800)">
                    <mask id="mask-2" fill="white">
                        <use xlink:href="#path-1"></use>
                    </mask>
                    <g id="Clip-6"></g>
                    <path d="M24.791,23.8369 C24.791,24.6639 24.118,25.3369 23.291,25.3369 L19.487,25.3369 L19.487,20.2169 L6.304,20.2169 L6.304,25.3369 L2.5,25.3369 C1.673,25.3369 1,24.6639 1,23.8369 L1,12.4829 C1,11.6559 1.673,10.9829 2.5,10.9829 L4.114,10.9829 L6.304,10.9829 L6.304,10.9839 L19.487,10.9839 L19.487,10.9829 L21.677,10.9829 L23.291,10.9829 C24.118,10.9829 24.791,11.6559 24.791,12.4829 L24.791,23.8369 Z M18.487,29.9999 L7.304,29.9999 L7.304,26.3369 L7.304,21.2169 L18.487,21.2169 L18.487,26.3369 L18.487,29.9999 Z M5.114,6.9409 C5.114,6.2199 5.625,5.6159 6.304,5.4729 L6.304,9.9829 L5.114,9.9829 L5.114,6.9409 Z M7.304,1.1999 L18.487,1.1999 L18.487,4.4409 L18.487,9.9829 L7.304,9.9829 L7.304,4.4409 L7.304,1.1999 Z M20.677,6.9409 L20.677,9.9829 L19.487,9.9829 L19.487,5.4729 C20.166,5.6159 20.677,6.2199 20.677,6.9409 L20.677,6.9409 Z M23.291,9.9829 L21.677,9.9829 L21.677,6.9409 C21.677,5.6679 20.718,4.6269 19.487,4.4719 L19.487,0.1999 L6.304,0.1999 L6.304,4.4719 C5.073,4.6269 4.114,5.6679 4.114,6.9409 L4.114,9.9829 L2.5,9.9829 C1.121,9.9829 0,11.1049 0,12.4829 L0,23.8369 C0,25.2159 1.121,26.3369 2.5,26.3369 L6.304,26.3369 L6.304,30.9999 L19.487,30.9999 L19.487,26.3369 L23.291,26.3369 C24.67,26.3369 25.791,25.2159 25.791,23.8369 L25.791,12.4829 C25.791,11.1049 24.67,9.9829 23.291,9.9829 L23.291,9.9829 Z" id="Fill-5" fill="#333332" mask="url(#mask-2)"></path>
                </g>
            </g>
        </g>
    </g>
</svg>