<?xml version="1.0" encoding="UTF-8" standalone="no"?>
<svg width="21px" height="25px" viewBox="0 0 21 25" version="1.1" xmlns="http://www.w3.org/2000/svg" xmlns:xlink="http://www.w3.org/1999/xlink">
    <!-- Generator: Sketch 40.2 (33826) - http://www.bohemiancoding.com/sketch -->
    <title>puzzle</title>
    <desc>Created with Sketch.</desc>
    <defs>
        <polygon id="path-1" points="10.1855578 24.1689 20.371 24.1689 20.371 -0.0001 10.1855578 -0.0001 0.000115537819 -0.0001 0.000115537819 24.1689"></polygon>
    </defs>
    <g id="Page-1" stroke="none" stroke-width="1" fill="none" fill-rule="evenodd">
        <g id="A4-Copy" transform="translate(-223.000000, -476.000000)">
            <g id="puzzle" transform="translate(223.000000, 476.000000)">
                <mask id="mask-2" fill="white">
                    <use xlink:href="#path-1"></use>
                </mask>
                <g id="Clip-2"></g>
                <path d="M19.0682,23.1679 L1.5752,23.1689 C1.3542,23.1689 1.2512,23.0959 1.1942,22.8969 C1.0912,22.5399 0.8752,19.5649 1.0892,18.4889 C1.1622,18.1209 1.4042,18.1209 1.4832,18.1209 C1.6452,18.1209 1.9292,18.1819 2.3702,18.4709 C3.6672,19.3209 4.8182,19.3909 5.1872,19.3909 L5.1902,19.3909 C7.1372,19.3909 8.7192,17.8089 8.7202,15.8629 C8.7192,13.9769 7.2342,12.3849 5.4092,12.3139 L5.2032,12.3109 C4.1462,12.3109 3.3082,12.6329 2.3122,13.4209 C2.0002,13.6669 1.6932,13.8089 1.4702,13.8089 L1.4692,13.8089 C1.3802,13.8089 1.1452,13.8069 1.0962,13.2869 C0.9702,11.9579 1.0862,9.5289 1.3242,8.4759 C1.5062,7.6749 1.8182,7.6109 2.2082,7.6109 C2.3832,7.6109 2.5982,7.6359 2.8642,7.6859 C3.5392,7.8129 4.5052,8.0229 5.4332,8.2259 C6.0952,8.3699 6.7372,8.5099 7.2422,8.6129 C7.7972,8.7249 8.2372,8.5699 8.4872,8.1939 C8.9302,7.5299 8.6002,6.3779 8.2462,5.5289 C7.8022,4.4649 7.5122,3.6329 7.8402,2.6089 C8.0802,1.8669 8.8852,0.9999 10.3722,0.9999 C11.6072,0.9999 13.0332,1.5259 13.3312,3.0019 C13.5322,3.9979 13.2752,4.6799 12.6252,5.8309 C12.0352,6.8759 11.8852,7.6639 12.1832,8.1739 C12.3102,8.3929 12.7192,8.7719 13.5012,8.6129 C14.0152,8.5079 14.6292,8.3729 15.2532,8.2359 C16.1032,8.0499 16.9752,7.8579 17.6412,7.7319 C17.9522,7.6739 18.2782,7.6169 18.5522,7.6169 C18.9162,7.6169 19.3692,7.6169 19.3692,8.8189 L19.3712,22.8649 C19.3712,23.0289 19.2322,23.1679 19.0682,23.1679 L19.0682,23.1679 Z M20.3692,8.8189 C20.3692,6.9989 19.3802,6.6169 18.5522,6.6169 C18.1912,6.6169 17.8132,6.6829 17.4562,6.7499 C16.7822,6.8769 15.8992,7.0699 15.0382,7.2599 C14.4192,7.3959 13.8112,7.5289 13.3002,7.6329 C13.2272,7.6479 13.1622,7.6559 13.0472,7.6709 C13.0172,7.6079 13.0042,7.1939 13.4962,6.3229 C14.2412,5.0039 14.5722,4.0969 14.3112,2.8049 C13.9672,1.1019 12.4212,-0.0001 10.3722,-0.0001 C8.4762,-0.0001 7.2572,1.1569 6.8882,2.3039 C6.4222,3.7579 6.9222,4.9529 7.3232,5.9139 C7.8162,7.0959 7.7072,7.5849 7.5852,7.6489 C7.5452,7.6489 7.4972,7.6449 7.4422,7.6329 C6.9402,7.5309 6.3032,7.3919 5.6462,7.2489 C4.7092,7.0439 3.7312,6.8309 3.0492,6.7029 C2.7222,6.6419 2.4472,6.6109 2.2082,6.6109 C1.2082,6.6109 0.5992,7.1479 0.3492,8.2549 C0.0832,9.4289 -0.0368,11.9199 0.1002,13.3809 C0.2002,14.4339 0.8742,14.8089 1.4702,14.8089 C1.9262,14.8089 2.4322,14.6009 2.9322,14.2059 C3.7562,13.5539 4.3722,13.3109 5.2032,13.3109 L5.3712,13.3139 C6.6442,13.3619 7.7202,14.5299 7.7202,15.8629 C7.7202,17.2569 6.5862,18.3909 5.1522,18.3919 C4.9722,18.3919 4.0172,18.3549 2.9192,17.6349 C1.5652,16.7479 0.3352,17.1369 0.1082,18.2949 C-0.1308,19.4969 0.0792,22.6419 0.2332,23.1739 C0.4152,23.8059 0.9042,24.1689 1.5752,24.1689 L19.0682,24.1679 C19.7872,24.1679 20.3712,23.5839 20.3712,22.8649 L20.3692,8.8189 Z" id="Fill-1" fill="#333332" mask="url(#mask-2)"></path>
            </g>
        </g>
    </g>
</svg>