<?xml version="1.0" encoding="UTF-8" standalone="no"?>
<svg width="26px" height="26px" viewBox="0 0 26 26" version="1.1" xmlns="http://www.w3.org/2000/svg" xmlns:xlink="http://www.w3.org/1999/xlink">
    <!-- Generator: Sketch 40.2 (33826) - http://www.bohemiancoding.com/sketch -->
    <title>question</title>
    <desc>Created with Sketch.</desc>
    <defs>
        <polygon id="path-1" points="25.073 25.0719 25.073 0.0003 0 0.0003 0 25.0719 25.073 25.0719"></polygon>
    </defs>
    <g id="Page-1" stroke="none" stroke-width="1" fill="none" fill-rule="evenodd">
        <g id="A4-Copy" transform="translate(-360.000000, -165.000000)">
            <g id="question" transform="translate(360.000000, 165.000000)">
                <mask id="mask-2" fill="white">
                    <use xlink:href="#path-1"></use>
                </mask>
                <g id="Clip-2"></g>
                <path d="M16.2676,7.5459 C16.4756,7.9879 16.5796,8.4949 16.5796,9.0669 C16.5796,9.7939 16.4206,10.4109 16.1026,10.9179 C15.7846,11.4249 15.3776,11.9119 14.8836,12.3789 C14.4816,12.7819 14.1606,13.0979 13.9196,13.3239 C13.6786,13.5519 13.5006,13.7759 13.3836,13.9969 C13.2666,14.2179 13.1886,14.4869 13.1496,14.8059 C13.1116,15.1239 13.0846,15.5819 13.0726,16.1799 L11.8436,16.1799 C11.8306,15.5819 11.8636,15.0819 11.9416,14.6789 C12.0196,14.2759 12.1466,13.9119 12.3216,13.5879 C12.4966,13.2629 12.7306,12.9509 13.0236,12.6519 C13.3156,12.3539 13.6686,12.0159 14.0846,11.6389 C14.4496,11.3009 14.7506,10.9249 14.9916,10.5089 C15.2316,10.0929 15.3516,9.6319 15.3516,9.1249 C15.3516,8.7349 15.2776,8.3779 15.1276,8.0529 C14.9786,7.7289 14.7776,7.4519 14.5236,7.2249 C14.2706,6.9979 13.9746,6.8189 13.6366,6.6889 C13.2986,6.5599 12.9416,6.4939 12.5656,6.4939 C12.0446,6.4939 11.5836,6.5849 11.1816,6.7669 C10.7786,6.9489 10.4476,7.1989 10.1876,7.5169 C9.9276,7.8359 9.7326,8.2089 9.6026,8.6379 C9.4726,9.0669 9.4136,9.5339 9.4276,10.0409 L8.2006,10.0409 C8.2006,9.3529 8.2966,8.7259 8.4926,8.1599 C8.6876,7.5949 8.9756,7.1139 9.3596,6.7179 C9.7426,6.3219 10.2066,6.0139 10.7526,5.7919 C11.2986,5.5709 11.9216,5.4609 12.6236,5.4609 C13.1686,5.4609 13.6786,5.5419 14.1536,5.7049 C14.6276,5.8669 15.0466,6.1049 15.4106,6.4159 C15.7746,6.7279 16.0596,7.1049 16.2676,7.5459 L16.2676,7.5459 Z M11.6496,19.6679 L13.2866,19.6679 L13.2866,17.6029 L11.6496,17.6029 L11.6496,19.6679 Z M12.5366,24.0719 C6.1746,24.0719 0.9996,18.8979 0.9996,12.5359 C0.9996,6.1749 6.1746,0.9999 12.5366,0.9999 C18.8976,0.9999 24.0736,6.1749 24.0736,12.5359 C24.0736,18.8979 18.8976,24.0719 12.5366,24.0719 L12.5366,24.0719 Z M12.5366,-0.0001 C5.6236,-0.0001 -0.0004,5.6239 -0.0004,12.5359 C-0.0004,19.4479 5.6236,25.0719 12.5366,25.0719 C19.4496,25.0719 25.0736,19.4479 25.0736,12.5359 C25.0736,5.6239 19.4496,-0.0001 12.5366,-0.0001 L12.5366,-0.0001 Z" id="Fill-1" fill="#333332" mask="url(#mask-2)"></path>
            </g>
        </g>
    </g>
</svg>