<?xml version="1.0" encoding="UTF-8" standalone="no"?>
<svg width="31px" height="22px" viewBox="0 0 31 22" version="1.1" xmlns="http://www.w3.org/2000/svg" xmlns:xlink="http://www.w3.org/1999/xlink">
    <!-- Generator: Sketch 40.2 (33826) - http://www.bohemiancoding.com/sketch -->
    <title>read</title>
    <desc>Created with Sketch.</desc>
    <defs>
        <polygon id="path-1" points="30.861 21.0748 30.861 0.0002 0.0003 0.0002 0.0003 21.0748"></polygon>
    </defs>
    <g id="Page-1" stroke="none" stroke-width="1" fill="none" fill-rule="evenodd">
        <g id="A4-Copy" transform="translate(-204.000000, -635.000000)">
            <g id="read" transform="translate(204.000000, 635.000000)">
                <mask id="mask-2" fill="white">
                    <use xlink:href="#path-1"></use>
                </mask>
                <g id="Clip-2"></g>
                <path d="M29.8613,19.5918 C28.7333,19.2148 26.2993,18.5688 22.8953,18.5688 C18.8963,18.5688 16.5783,19.2438 15.8303,19.5058 L15.8303,2.7348 C16.1493,2.4708 18.1443,0.9998 22.8953,0.9998 C27.1333,0.9998 29.2113,1.7528 29.8613,2.0478 L29.8613,19.5918 Z M7.9653,18.5688 C4.5613,18.5688 2.1283,19.2148 1.0003,19.5918 L1.0003,2.0478 C1.6533,1.7518 3.7303,0.9998 7.9653,0.9998 C12.3553,0.9998 14.3913,2.2558 14.9263,2.6538 L14.8303,2.6538 L14.8303,19.4398 C13.9253,19.1468 11.6753,18.5688 7.9653,18.5688 L7.9653,18.5688 Z M30.6303,1.3208 C30.5453,1.2668 28.4903,-0.0002 22.8953,-0.0002 C18.4643,-0.0002 16.2303,1.2158 15.4303,1.7808 C14.6313,1.2158 12.3963,-0.0002 7.9653,-0.0002 C2.3713,-0.0002 0.3163,1.2668 0.2313,1.3208 L0.0003,1.4678 L0.0013,21.0748 L0.7013,20.7688 C0.7283,20.7558 3.4943,19.5688 7.9653,19.5688 C11.1713,19.5688 13.5913,20.0398 14.7893,20.4808 L14.8303,20.4818 L14.8303,20.5108 L15.8303,20.5108 L15.8303,20.5098 L15.8973,20.5118 L16.0703,20.4808 C17.2673,20.0398 19.6893,19.5688 22.8953,19.5688 C27.3673,19.5688 30.1323,20.7558 30.1603,20.7688 L30.8613,21.0748 L30.8613,1.4678 L30.6303,1.3208 Z" id="Fill-1" fill="#333332" mask="url(#mask-2)"></path>
            </g>
        </g>
    </g>
</svg>