<?xml version="1.0" encoding="UTF-8" standalone="no"?>
<svg width="38px" height="32px" viewBox="0 0 38 32" version="1.1" xmlns="http://www.w3.org/2000/svg" xmlns:xlink="http://www.w3.org/1999/xlink">
    <!-- Generator: Sketch 40.2 (33826) - http://www.bohemiancoding.com/sketch -->
    <title>return2</title>
    <desc>Created with Sketch.</desc>
    <defs>
        <polygon id="path-1" points="12.5124 0.836 0.0004 0.836 0.0004 23.1508 12.5124 23.1508 12.5124 0.836"></polygon>
        <polygon id="path-3" points="18.242 7.9279 18.242 0.6279 0.3543 0.6279 0.3543 7.9279"></polygon>
    </defs>
    <g id="Page-1" stroke="none" stroke-width="1" fill="none" fill-rule="evenodd">
        <g id="A4-Copy" transform="translate(-335.000000, -333.000000)">
            <g id="return2" transform="translate(335.000000, 332.000000)">
                <path d="M33.6953,16.3389 L16.9053,22.4129 L12.8503,11.2059 L29.6413,5.1319 L33.6953,16.3389 Z M17.1883,5.4449 L22.6233,3.4799 C22.6703,3.4629 22.7173,3.4539 22.7653,3.4539 C22.8723,3.4539 22.9453,3.4979 22.9613,3.5379 L23.8903,6.1109 L17.8963,8.2789 L16.9663,5.7069 C16.9423,5.6429 17.0253,5.5049 17.1883,5.4449 L17.1883,5.4449 Z M16.3053,23.6939 L34.9763,16.9389 L30.2413,3.8509 L24.8433,5.8039 L23.9003,3.1969 C23.6853,2.6049 22.9383,2.2979 22.2823,2.5399 L16.8483,4.5059 C16.1753,4.7489 15.8053,5.4409 16.0253,6.0469 L16.9683,8.6529 L11.5693,10.6069 L16.3053,23.6939 Z" id="Fill-1" fill="#333332"></path>
                <polygon id="Fill-3" fill="#333332" points="18.2207 16.2774 27.4477 12.8954 26.0337 15.9124 26.9407 16.3364 29.0637 11.8044 24.5327 9.6804 24.1087 10.5874 27.0627 11.9714 17.8767 15.3384"></polygon>
                <g id="Group-7" transform="translate(0.000000, 0.164100)">
                    <mask id="mask-2" fill="white">
                        <use xlink:href="#path-1"></use>
                    </mask>
                    <g id="Clip-6"></g>
                    <path d="M12.0864,22.9358 C12.2284,22.8848 12.3704,22.8448 12.5124,22.8058 L5.2844,3.0108 L0.4064,0.8358 L0.0004,1.7498 L4.4894,3.7508 L11.5744,23.1508 C11.7404,23.0728 11.9104,22.9998 12.0864,22.9358" id="Fill-5" fill="#333332" mask="url(#mask-2)"></path>
                </g>
                <g id="Group-10" transform="translate(19.000000, 19.164100)">
                    <mask id="mask-4" fill="white">
                        <use xlink:href="#path-3"></use>
                    </mask>
                    <g id="Clip-9"></g>
                    <path d="M17.9023,0.6279 L0.3543,6.9879 C0.4193,7.1319 0.4843,7.2769 0.5393,7.4279 C0.5983,7.5939 0.6473,7.7609 0.6913,7.9279 L18.2423,1.5669 L17.9023,0.6279 Z" id="Fill-8" fill="#333332" mask="url(#mask-4)"></path>
                </g>
                <path d="M14.9482,31.0088 C13.6272,31.4878 12.1022,30.7588 11.6302,29.4538 C11.1432,28.1108 11.8422,26.6208 13.1842,26.1358 C13.4692,26.0328 13.7662,25.9808 14.0662,25.9808 C15.1542,25.9808 16.1332,26.6678 16.5032,27.6908 C16.9892,29.0338 16.2912,30.5238 14.9482,31.0088 M14.0662,24.9808 C13.6502,24.9808 13.2392,25.0528 12.8442,25.1958 C10.9832,25.8678 10.0152,27.9318 10.6892,29.7938 C11.2022,31.2118 12.5592,32.1638 14.0672,32.1638 C14.4832,32.1638 14.8932,32.0918 15.2882,31.9488 C17.1502,31.2758 18.1172,29.2128 17.4432,27.3508 C16.9302,25.9328 15.5742,24.9808 14.0662,24.9808" id="Fill-11" fill="#333332"></path>
            </g>
        </g>
    </g>
</svg>