<?xml version="1.0" encoding="UTF-8" standalone="no"?>
<svg width="38px" height="32px" viewBox="0 0 38 32" version="1.1" xmlns="http://www.w3.org/2000/svg" xmlns:xlink="http://www.w3.org/1999/xlink">
    <!-- Generator: Sketch 40.2 (33826) - http://www.bohemiancoding.com/sketch -->
    <title>return</title>
    <desc>Created with Sketch.</desc>
    <defs></defs>
    <g id="Page-1" stroke="none" stroke-width="1" fill="none" fill-rule="evenodd">
        <g id="A4-Copy" transform="translate(-286.000000, -331.000000)" fill="#333332">
            <g id="return" transform="translate(286.000000, 330.000000)">
                <path d="M3.5469,16.3389 L7.6019,5.1319 L24.3919,11.2059 L20.3379,22.4129 L3.5469,16.3389 Z M14.2829,3.5379 C14.3039,3.4799 14.4649,3.4259 14.6209,3.4799 L20.0539,5.4449 C20.2169,5.5049 20.2999,5.6429 20.2769,5.7069 L19.3459,8.2789 L13.3519,6.1109 L14.2829,3.5379 Z M25.6729,10.6069 L20.2739,8.6529 L21.2179,6.0469 C21.4359,5.4409 21.0679,4.7489 20.3949,4.5059 L14.9609,2.5399 C14.2989,2.2979 13.5559,2.6049 13.3429,3.1979 L12.3989,5.8039 L7.0019,3.8509 L2.2659,16.9389 L20.9379,23.6939 L25.6729,10.6069 Z" id="Fill-1"></path>
                <polygon id="Fill-3" points="13.1348 10.587 12.7108 9.681 8.1788 11.805 10.3028 16.336 11.2088 15.912 9.7948 12.895 19.0228 16.277 19.3658 15.338 10.1798 11.971"></polygon>
                <path d="M0,20.7315 L17.551,27.0925 C17.595,26.9255 17.644,26.7585 17.704,26.5925 C17.759,26.4405 17.823,26.2955 17.889,26.1525 L0.34,19.7925 L0,20.7315 Z" id="Fill-5"></path>
                <g id="Group-9" transform="translate(24.000000, 0.164100)">
                    <path d="M12.8369,0.8359 L7.9579,3.0109 L0.7299,22.8049 C0.8729,22.8449 1.0149,22.8849 1.1559,22.9359 C1.3329,22.9999 1.5029,23.0729 1.6689,23.1509 L8.7529,3.7509 L13.2429,1.7499 L12.8369,0.8359 Z" id="Fill-7"></path>
                </g>
                <path d="M25.6133,29.4541 C25.1393,30.7591 23.6133,31.4861 22.2953,31.0081 C21.6443,30.7731 21.1243,30.2991 20.8303,29.6721 C20.5363,29.0451 20.5043,28.3421 20.7393,27.6901 C21.1103,26.6681 22.0903,25.9801 23.1763,25.9801 C23.4763,25.9801 23.7723,26.0321 24.0573,26.1351 C25.4013,26.6221 26.0983,28.1101 25.6133,29.4541 M24.3973,25.1951 C24.0043,25.0531 23.5923,24.9801 23.1763,24.9801 C21.6703,24.9801 20.3123,25.9331 19.8003,27.3501 C19.4723,28.2521 19.5173,29.2271 19.9253,30.0971 C20.3323,30.9651 21.0523,31.6231 21.9553,31.9481 C22.3493,32.0921 22.7603,32.1641 23.1763,32.1641 C24.6833,32.1641 26.0403,31.2121 26.5523,29.7941 C27.2273,27.9331 26.2593,25.8691 24.3973,25.1951" id="Fill-10"></path>
            </g>
        </g>
    </g>
</svg>