<?xml version="1.0" encoding="UTF-8" standalone="no"?>
<svg width="25px" height="24px" viewBox="0 0 25 24" version="1.1" xmlns="http://www.w3.org/2000/svg" xmlns:xlink="http://www.w3.org/1999/xlink">
    <!-- Generator: Sketch 40.2 (33826) - http://www.bohemiancoding.com/sketch -->
    <title>screen</title>
    <desc>Created with Sketch.</desc>
    <defs>
        <polygon id="path-1" points="24.525 23.9998 24.525 0.636 0.0004 0.636 0.0004 23.9998 24.525 23.9998"></polygon>
    </defs>
    <g id="Page-1" stroke="none" stroke-width="1" fill="none" fill-rule="evenodd">
        <g id="A4-Copy" transform="translate(-522.000000, -555.000000)">
            <g id="screen" transform="translate(522.000000, 554.000000)">
                <g id="Group-3" transform="translate(0.000000, 0.364300)">
                    <mask id="mask-2" fill="white">
                        <use xlink:href="#path-1"></use>
                    </mask>
                    <g id="Clip-2"></g>
                    <path d="M22.0254,19.1338 L2.5004,19.1338 C1.6724,19.1338 1.0004,18.4608 1.0004,17.6338 L1.0004,14.2368 L23.5254,14.2368 L23.5254,17.6338 C23.5254,18.4608 22.8524,19.1338 22.0254,19.1338 M2.5004,1.6358 L22.0254,1.6358 C22.8524,1.6358 23.5254,2.3088 23.5254,3.1358 L23.5254,13.3358 L1.0004,13.3358 L1.0004,3.1358 C1.0004,2.3088 1.6724,1.6358 2.5004,1.6358 M22.0254,0.6358 L2.5004,0.6358 C1.1214,0.6358 0.0004,1.7568 0.0004,3.1358 L0.0004,17.6338 C0.0004,19.0128 1.1214,20.1338 2.5004,20.1338 L11.7624,20.1338 L11.7624,22.9998 L5.5444,22.9998 L5.5444,23.9998 L18.9814,23.9998 L18.9814,22.9998 L12.7624,22.9998 L12.7624,20.1338 L22.0254,20.1338 C23.4044,20.1338 24.5254,19.0128 24.5254,17.6338 L24.5254,3.1358 C24.5254,1.7568 23.4044,0.6358 22.0254,0.6358" id="Fill-1" fill="#333332" mask="url(#mask-2)"></path>
                </g>
                <path d="M12.2627,16.1092 C11.7217,16.1092 11.2837,16.5472 11.2837,17.0882 C11.2837,17.6292 11.7217,18.0672 12.2627,18.0672 C12.8037,18.0672 13.2417,17.6292 13.2417,17.0882 C13.2417,16.5472 12.8037,16.1092 12.2627,16.1092" id="Fill-4" fill="#333332"></path>
            </g>
        </g>
    </g>
</svg>