<?xml version="1.0" encoding="UTF-8" standalone="no"?>
<svg width="25px" height="25px" viewBox="0 0 25 25" version="1.1" xmlns="http://www.w3.org/2000/svg" xmlns:xlink="http://www.w3.org/1999/xlink">
    <!-- Generator: Sketch 40.2 (33826) - http://www.bohemiancoding.com/sketch -->
    <title>search</title>
    <desc>Created with Sketch.</desc>
    <defs></defs>
    <g id="Page-1" stroke="none" stroke-width="1" fill="none" fill-rule="evenodd">
        <g id="A4-Copy" transform="translate(-524.000000, -243.000000)" fill="#333332">
            <g id="search" transform="translate(524.000000, 243.000000)">
                <path d="M10.1191,19.2402 C7.6831,19.2402 5.3931,18.2922 3.6711,16.5692 C1.9481,14.8462 1.0001,12.5562 1.0001,10.1202 C1.0001,7.6832 1.9481,5.3932 3.6711,3.6712 C5.3931,1.9482 7.6831,1.0002 10.1191,1.0002 C12.5561,1.0002 14.8461,1.9482 16.5681,3.6712 C20.1241,7.2262 20.1241,13.0132 16.5681,16.5692 C14.8461,18.2922 12.5561,19.2402 10.1191,19.2402 L10.1191,19.2402 Z M24.6291,23.9922 L17.5781,16.9412 C21.2071,12.9752 21.1141,6.8022 17.2751,2.9642 C15.3641,1.0532 12.8221,0.0002 10.1191,0.0002 C7.4171,0.0002 4.8751,1.0532 2.9641,2.9642 C1.0531,4.8752 0.0001,7.4172 0.0001,10.1202 C0.0001,12.8232 1.0531,15.3652 2.9641,17.2762 C4.8751,19.1872 7.4171,20.2402 10.1191,20.2402 C12.6711,20.2402 15.0731,19.2922 16.9421,17.5792 L23.9921,24.6292 L24.6291,23.9922 Z" id="Fill-1"></path>
            </g>
        </g>
    </g>
</svg>