<?xml version="1.0" encoding="UTF-8" standalone="no"?>
<svg width="22px" height="30px" viewBox="0 0 22 30" version="1.1" xmlns="http://www.w3.org/2000/svg" xmlns:xlink="http://www.w3.org/1999/xlink">
    <!-- Generator: Sketch 40.2 (33826) - http://www.bohemiancoding.com/sketch -->
    <title>select</title>
    <desc>Created with Sketch.</desc>
    <defs></defs>
    <g id="Page-1" stroke="none" stroke-width="1" fill="none" fill-rule="evenodd">
        <g id="A4-Copy" transform="translate(-471.000000, -565.000000)" fill="#333332">
            <g id="select" transform="translate(471.000000, 564.000000)">
                <path d="M9.7437,22.5647 C9.2027,22.5647 8.7647,23.0027 8.7647,23.5437 C8.7647,24.0847 9.2027,24.5227 9.7437,24.5227 C10.2847,24.5227 10.7227,24.0847 10.7227,23.5437 C10.7227,23.0027 10.2847,22.5647 9.7437,22.5647" id="Fill-1"></path>
                <path d="M9.7437,3.2737 C9.3667,3.2737 9.0597,3.5797 9.0597,3.9567 C9.0597,4.3347 9.3667,4.6407 9.7437,4.6407 C10.1207,4.6407 10.4267,4.3347 10.4267,3.9567 C10.4267,3.5797 10.1207,3.2737 9.7437,3.2737" id="Fill-3"></path>
                <g id="Group-7" transform="translate(0.000000, 0.586300)">
                    <path d="M19.6899,26.0386 C19.1879,27.3446 18.5179,27.6796 18.3739,28.9996 L16.0929,28.9996 L13.7089,28.9996 C13.3569,27.4406 13.0649,26.5376 12.8139,25.8076 C12.8099,25.7976 12.8069,25.7886 12.8039,25.7786 C12.7729,25.6906 12.7429,25.6036 12.7139,25.5196 C12.6919,25.4566 12.6689,25.3906 12.6479,25.3296 C12.4369,24.7156 12.2559,24.1566 12.0959,23.2926 C11.9569,22.5466 12.3879,21.2826 12.8199,20.4826 C12.8809,20.3696 12.9429,20.2656 13.0029,20.1736 C13.0089,19.9536 13.0169,19.7216 13.0249,19.4826 L13.0239,19.4826 C13.0789,17.8316 13.1539,15.8166 13.2239,14.6376 C13.2509,14.1706 13.6359,13.9196 14.0129,13.9196 L14.0129,13.9196 C14.3729,13.9196 14.7259,14.1486 14.7519,14.6376 C14.8179,15.8866 14.9099,17.8876 14.9789,19.4566 C15.0819,19.4046 15.2539,19.3776 15.4529,19.3776 C15.6789,19.3776 15.9399,19.4126 16.1739,19.4826 C16.2599,19.5086 16.3419,19.5416 16.4179,19.5776 C16.4399,19.5876 16.4589,19.5996 16.4789,19.6106 C16.5309,19.6386 16.5789,19.6686 16.6219,19.7026 C16.6419,19.7186 16.6609,19.7346 16.6789,19.7516 C16.7159,19.7866 16.7439,19.8246 16.7689,19.8646 C16.7799,19.8826 16.7939,19.8996 16.8029,19.9186 C16.8289,19.9796 16.8449,20.0446 16.8389,20.1156 C16.9189,20.0606 17.0459,20.0336 17.1949,20.0336 C17.2779,20.0336 17.3689,20.0446 17.4609,20.0616 C17.4819,20.0646 17.5029,20.0696 17.5249,20.0736 C17.7149,20.1146 17.9089,20.1856 18.0699,20.2856 C18.0809,20.2916 18.0899,20.2986 18.1009,20.3056 C18.1809,20.3586 18.2539,20.4166 18.3109,20.4826 C18.3989,20.5856 18.4549,20.7026 18.4549,20.8346 C18.4569,20.8336 18.4579,20.8336 18.4579,20.8336 L18.4589,20.8336 C18.4989,20.8266 18.5389,20.8266 18.5789,20.8226 C18.6209,20.8186 18.6619,20.8106 18.7039,20.8106 L18.7059,20.8116 C18.8239,20.8116 18.9409,20.8316 19.0549,20.8596 C19.0799,20.8656 19.1049,20.8726 19.1299,20.8796 C19.2439,20.9136 19.3559,20.9576 19.4589,21.0166 C19.8289,21.2266 20.1069,21.5806 20.1329,21.9976 C20.2009,23.0496 20.1919,24.8326 19.6899,26.0386 L19.6899,26.0386 Z M0.9999,23.8296 L0.9999,20.4826 L11.7109,20.4826 C11.3169,21.3486 10.9389,22.5446 11.1129,23.4756 C11.2569,24.2506 11.4159,24.7976 11.5919,25.3296 L2.4999,25.3296 C1.6729,25.3296 0.9999,24.6566 0.9999,23.8296 L0.9999,23.8296 Z M0.9999,6.1076 L18.4589,6.1076 L18.4589,19.3586 C18.1329,19.1836 17.7649,19.0696 17.3909,19.0416 C17.0129,18.6726 16.4519,18.4816 15.9329,18.4106 C15.8729,17.0566 15.8029,15.5806 15.7499,14.5846 C15.6989,13.6206 14.9689,12.9196 14.0139,12.9196 L14.0129,12.9196 C13.0489,12.9196 12.2809,13.6336 12.2259,14.5796 C12.1479,15.8976 12.0689,18.1246 12.0239,19.4826 L0.9999,19.4826 L0.9999,6.1076 Z M0.9999,2.9136 C0.9999,2.0866 1.6729,1.4136 2.4999,1.4136 L16.9589,1.4136 C17.7859,1.4136 18.4589,2.0866 18.4589,2.9136 L18.4589,5.1076 L0.9999,5.1076 L0.9999,2.9136 Z M21.1309,21.9336 C21.0709,21.0056 20.3739,20.2166 19.4589,19.9296 L19.4589,2.9136 C19.4589,1.5346 18.3379,0.4136 16.9589,0.4136 L2.4999,0.4136 C1.1209,0.4136 -0.0001,1.5346 -0.0001,2.9136 L-0.0001,23.8296 C-0.0001,25.2086 1.1209,26.3296 2.4999,26.3296 L11.9349,26.3296 C12.1649,27.0106 12.4229,27.8456 12.7329,29.2196 L12.9089,29.9996 L13.7089,29.9996 L16.0929,29.9996 L18.3739,29.9996 L19.2709,29.9996 L19.3679,29.1076 C19.4289,28.5486 19.6039,28.2686 19.8929,27.8046 C20.1129,27.4526 20.3859,27.0146 20.6229,26.3976 C21.2449,24.9076 21.1859,22.7786 21.1309,21.9336 L21.1309,21.9336 Z" id="Fill-5"></path>
                </g>
            </g>
        </g>
    </g>
</svg>