<?xml version="1.0" encoding="UTF-8" standalone="no"?>
<svg width="23px" height="23px" viewBox="0 0 23 23" version="1.1" xmlns="http://www.w3.org/2000/svg" xmlns:xlink="http://www.w3.org/1999/xlink">
    <!-- Generator: Sketch 40.2 (33826) - http://www.bohemiancoding.com/sketch -->
    <title>settings</title>
    <desc>Created with Sketch.</desc>
    <defs>
        <polygon id="path-1" points="22.195 22.9996 22.195 0.80559934 0.0005 0.80559934 0.0005 22.9996 22.195 22.9996"></polygon>
    </defs>
    <g id="Page-1" stroke="none" stroke-width="1" fill="none" fill-rule="evenodd">
        <g id="A4-Copy" transform="translate(-355.000000, -539.000000)">
            <g id="settings" transform="translate(355.000000, 538.000000)">
                <g id="Group-3" transform="translate(0.000000, 0.194600)">
                    <mask id="mask-2" fill="white">
                        <use xlink:href="#path-1"></use>
                    </mask>
                    <g id="Clip-2"></g>
                    <path d="M21.0645,13.5156 L18.6385,13.8806 L18.5455,14.1816 C18.4055,14.6426 18.2175,15.0966 17.9865,15.5336 L17.8385,15.8116 L19.3035,17.7846 C18.9865,18.2266 18.6295,18.6486 18.2155,19.0636 C17.8415,19.4356 17.4365,19.7806 17.0075,20.0906 L15.0325,18.6316 L14.7545,18.7806 C14.3165,19.0136 13.8615,19.2026 13.4025,19.3456 L13.1015,19.4386 L12.7435,21.8666 C12.2115,21.9536 11.6625,21.9976 11.0525,21.9996 C10.5315,21.9976 10.0065,21.9536 9.4895,21.8706 L9.1235,19.4456 L8.8215,19.3536 C8.3625,19.2136 7.9075,19.0256 7.4675,18.7936 L7.1885,18.6476 L5.2185,20.1126 C4.7845,19.8006 4.3745,19.4546 3.9985,19.0826 L3.9205,19.0046 C3.5535,18.6346 3.2145,18.2366 2.9115,17.8176 L4.3695,15.8406 L4.2205,15.5636 C3.9865,15.1216 3.7955,14.6666 3.6545,14.2096 L3.5615,13.9086 L1.1335,13.5526 C1.0465,13.0236 1.0025,12.4716 1.0005,11.8616 C1.0025,11.3446 1.0445,10.8206 1.1285,10.2976 L3.5525,9.9316 L3.6455,9.6306 C3.7885,9.1616 3.9785,8.7026 4.2105,8.2636 L4.3585,7.9846 L2.8965,6.0106 C3.2115,5.5726 3.5675,5.1546 3.9765,4.7426 C4.3535,4.3676 4.7625,4.0206 5.1965,3.7076 L7.1695,5.1686 L7.4485,5.0216 C7.8895,4.7876 8.3445,4.5986 8.7985,4.4576 L9.1005,4.3666 L9.4605,1.9376 C10.5225,1.7666 11.6155,1.7576 12.7155,1.9366 L13.0805,4.3626 L13.3805,4.4546 C13.8375,4.5946 14.2925,4.7836 14.7315,5.0156 L15.0095,5.1616 L16.9835,3.6996 C17.4335,4.0216 17.8545,4.3776 18.2395,4.7626 C18.6185,5.1426 18.9695,5.5566 19.2885,5.9966 L17.8275,7.9726 L17.9755,8.2506 C18.2085,8.6866 18.3985,9.1416 18.5415,9.6016 L18.6335,9.9016 L21.0605,10.2606 C21.1505,10.8056 21.1955,11.3566 21.1955,11.9116 C21.1955,12.4396 21.1515,12.9776 21.0645,13.5156 M21.9785,9.7206 L21.9105,9.3746 L19.3965,9.0036 C19.2845,8.6856 19.1535,8.3706 19.0025,8.0646 L20.5145,6.0196 L20.3185,5.7266 C19.9145,5.1246 19.4525,4.5626 18.9435,4.0536 C18.4345,3.5436 17.8645,3.0776 17.2505,2.6676 L16.9575,2.4726 L14.9155,3.9876 C14.6075,3.8376 14.2935,3.7076 13.9765,3.5976 L13.5995,1.0846 L13.2535,1.0176 C11.8325,0.7366 10.3675,0.7326 8.9215,1.0196 L8.5775,1.0876 L8.2035,3.6016 C7.8865,3.7126 7.5725,3.8436 7.2625,3.9946 L5.2195,2.4816 L4.9265,2.6776 C4.3345,3.0756 3.7765,3.5316 3.2275,4.0776 C2.7245,4.5826 2.2665,5.1436 1.8655,5.7426 L1.6695,6.0356 L3.1835,8.0786 C3.0325,8.3906 2.9005,8.7106 2.7875,9.0366 L0.2765,9.4156 L0.2095,9.7616 C0.0725,10.4586 0.0025,11.1646 0.0005,11.9506 C0.0025,12.6736 0.0755,13.3946 0.2155,14.0936 L0.2855,14.4386 L2.7985,14.8076 C2.9105,15.1246 3.0425,15.4406 3.1935,15.7496 L1.6845,17.7956 L1.8805,18.0886 C2.2685,18.6656 2.7155,19.2106 3.2115,19.7106 L3.2935,19.7916 C3.7985,20.2926 4.3575,20.7476 4.9525,21.1436 L5.2455,21.3386 L7.2855,19.8226 C7.5935,19.9706 7.9095,20.1016 8.2275,20.2116 L8.6055,22.7226 L8.9515,22.7896 C9.6415,22.9266 10.3475,22.9966 11.1465,22.9996 C11.8625,22.9966 12.5825,22.9246 13.2835,22.7846 L13.6285,22.7146 L13.9995,20.2016 C14.3175,20.0896 14.6325,19.9576 14.9405,19.8076 L16.9865,21.3176 L17.2795,21.1206 C17.8675,20.7256 18.4195,20.2716 18.9675,19.7266 C19.4735,19.2176 19.9335,18.6546 20.3355,18.0506 L20.5305,17.7576 L19.0145,15.7166 C19.1635,15.4096 19.2935,15.0946 19.4045,14.7766 L21.9165,14.3996 L21.9835,14.0526 C22.1245,13.3366 22.1955,12.6166 22.1955,11.8946 C22.1955,11.1736 22.1225,10.4426 21.9785,9.7206" id="Fill-1" fill="#333332" mask="url(#mask-2)"></path>
                </g>
                <path d="M11.0977,15.7005 C9.1107,15.7005 7.4937,14.0845 7.4937,12.0965 C7.4937,10.1095 9.1107,8.4925 11.0977,8.4925 C13.0847,8.4925 14.7017,10.1095 14.7017,12.0965 C14.7017,14.0845 13.0847,15.7005 11.0977,15.7005 M11.0977,7.5925 C8.6147,7.5925 6.5937,9.6125 6.5937,12.0965 C6.5937,14.5805 8.6147,16.6005 11.0977,16.6005 C13.5807,16.6005 15.6017,14.5805 15.6017,12.0965 C15.6017,9.6125 13.5807,7.5925 11.0977,7.5925" id="Fill-4" fill="#333332"></path>
            </g>
        </g>
    </g>
</svg>