<?xml version="1.0" encoding="UTF-8" standalone="no"?>
<svg width="22px" height="26px" viewBox="0 0 22 26" version="1.1" xmlns="http://www.w3.org/2000/svg" xmlns:xlink="http://www.w3.org/1999/xlink">
    <!-- Generator: Sketch 40.2 (33826) - http://www.bohemiancoding.com/sketch -->
    <title>shirt</title>
    <desc>Created with Sketch.</desc>
    <defs></defs>
    <g id="Page-1" stroke="none" stroke-width="1" fill="none" fill-rule="evenodd">
        <g id="A4-Copy" transform="translate(-461.000000, -22.000000)" stroke="#333332">
            <g id="shirt" transform="translate(461.000000, 22.000000)">
                <path d="M2.6193,3.1979 C1.4533,3.5499 0.5003,4.1519 0.5003,5.3169 L0.5003,22.4669 C0.5003,23.6319 1.4533,24.5859 2.6193,24.5859 L18.7523,24.5859 C19.9173,24.5859 20.8713,23.6319 20.8713,22.4669 L20.8713,5.3169 C20.8713,4.1519 19.9053,3.4429 18.7283,3.0369 L16.4243,2.3769 L16.0923,2.1059 C15.6273,1.4699 15.3473,1.3119 15.1163,1.1969 L14.9243,1.1099 C14.9243,1.1099 13.6653,0.4999 10.8723,0.4999 C9.4613,0.4999 7.5513,0.7929 6.7333,1.2009 L6.5123,1.3119 C6.4783,1.3289 5.9903,1.5679 5.5713,2.2879 L5.1793,2.4689 L2.6193,3.1979 L2.6193,3.1979 Z" id="Stroke-1"></path>
                <path d="M16.2331,2.398 C15.8571,5.783 13.7031,7.427 10.8391,7.427 C7.9751,7.427 5.8891,5.948 5.4451,2.398" id="Stroke-3"></path>
                <path d="M15.2157,11.3568 L12.4927,11.3568 L12.4927,15.9358 C12.4927,15.9358 13.7307,16.9878 15.2157,16.9878 C16.7007,16.9878 17.9387,15.9358 17.9387,15.9358 L17.9387,11.3568 L15.2157,11.3568 L15.2157,11.3568 Z" id="Stroke-5"></path>
            </g>
        </g>
    </g>
</svg>