<?xml version="1.0" encoding="UTF-8" standalone="no"?>
<svg width="21px" height="31px" viewBox="0 0 21 31" version="1.1" xmlns="http://www.w3.org/2000/svg" xmlns:xlink="http://www.w3.org/1999/xlink">
    <!-- Generator: Sketch 40.2 (33826) - http://www.bohemiancoding.com/sketch -->
    <title>shirtw</title>
    <desc>Created with Sketch.</desc>
    <defs>
        <polygon id="path-1" points="20.146 23.9 20.146 0.276 0 0.276 0 23.9 20.146 23.9"></polygon>
    </defs>
    <g id="Page-1" stroke="none" stroke-width="1" fill="none" fill-rule="evenodd">
        <g id="A4-Copy" transform="translate(-417.000000, -116.000000)">
            <g id="shirtw" transform="translate(417.000000, 115.000000)">
                <g id="Group-3" transform="translate(0.000000, 0.723600)">
                    <mask id="mask-2" fill="white">
                        <use xlink:href="#path-1"></use>
                    </mask>
                    <g id="Clip-2"></g>
                    <path d="M10.2256,8.666 C9.4616,8.335 6.3676,6.75 5.6916,2.729 L5.7036,2.709 C6.0176,2.169 6.3716,1.993 6.3826,1.986 L6.5856,1.883 C7.2466,1.555 8.9286,1.276 10.2566,1.276 C12.7056,1.276 13.8416,1.797 13.8616,1.806 L14.0266,1.88 C14.1746,1.954 14.3776,2.055 14.7636,2.582 L14.7846,2.6 C14.1546,6.718 10.9966,8.331 10.2256,8.666 M19.2966,3.116 L15.7156,2.09 L15.5316,1.939 C15.0646,1.313 14.7516,1.124 14.4556,0.978 L14.2866,0.9 C14.2336,0.875 12.9676,0.276 10.2566,0.276 C8.9366,0.276 7.0366,0.543 6.1366,0.99 L5.9386,1.091 C5.8396,1.139 5.3516,1.4 4.9196,2.073 L1.2516,3.117 C0.9406,3.208 0.2106,3.423 0.0106,4.356 L-0.0004,4.408 L0.0336,23.01 C0.0556,23.509 0.4866,23.9 1.0126,23.9 L6.7336,23.9 L6.7336,22.958 L1.0326,22.985 L0.9996,4.52 C1.0776,4.23 1.2556,4.158 1.5256,4.079 L4.7606,3.181 C5.6636,7.716 9.3606,9.395 9.9666,9.641 L10.1256,9.766 L10.2306,9.73 L10.3326,9.763 L10.4866,9.641 C11.1036,9.39 14.8376,7.688 15.7086,3.092 L19.0096,4.074 C19.0836,4.098 19.1276,4.117 19.1456,4.12 L19.0096,22.899 L19.0016,22.9 L13.4126,22.927 L13.4126,23.9 L19.0016,23.9 C19.5286,23.9 19.9576,23.509 19.9826,22.99 L20.1456,4.119 C20.1566,3.847 20.0636,3.356 19.2966,3.116" id="Fill-1" fill="#333332" mask="url(#mask-2)"></path>
                </g>
                <polygon id="Fill-4" fill="#333332" points="10.5732 29.8093 10.5732 15.8743 9.5732 15.8743 9.5732 29.8093 6.8972 27.1333 6.1902 27.8403 10.0732 31.7233 13.9552 27.8403 13.2482 27.1333"></polygon>
            </g>
        </g>
    </g>
</svg>