<?xml version="1.0" encoding="UTF-8" standalone="no"?>
<svg width="22px" height="26px" viewBox="0 0 22 26" version="1.1" xmlns="http://www.w3.org/2000/svg" xmlns:xlink="http://www.w3.org/1999/xlink">
    <!-- Generator: Sketch 40.2 (33826) - http://www.bohemiancoding.com/sketch -->
    <title>shirt1</title>
    <desc>Created with Sketch.</desc>
    <defs></defs>
    <g id="Page-1" stroke="none" stroke-width="1" fill="none" fill-rule="evenodd">
        <g id="A4-Copy" transform="translate(-347.000000, -25.000000)" stroke="#333332">
            <g id="shirt1" transform="translate(348.000000, 25.000000)">
                <path d="M16.3592,14.0493 L14.6442,14.0493 L14.6442,16.9343 C14.6442,16.9343 15.4232,17.5973 16.3592,17.5973 C17.2952,17.5973 18.0742,16.9343 18.0742,16.9343 L18.0742,14.0493 L16.3592,14.0493 L16.3592,14.0493 Z" id="Stroke-1"></path>
                <path d="M4.1092,14.0493 L2.3942,14.0493 L2.3942,16.9343 C2.3942,16.9343 3.1732,17.5973 4.1092,17.5973 C5.0452,17.5973 5.8242,16.9343 5.8242,16.9343 L5.8242,14.0493 L4.1092,14.0493 L4.1092,14.0493 Z" id="Stroke-3"></path>
                <path d="M17.7207,4.7691 C17.7207,4.7691 16.9847,1.4701 16.3197,1.0421 C15.6547,0.6141 12.1157,0.5001 10.5487,0.5001 C8.9817,0.5001 4.9507,0.6421 4.2857,1.0701 C3.6197,1.4981 2.9207,4.7731 2.9207,4.7731 C2.9207,4.7731 0.4997,5.1901 0.4997,6.9161 L0.4997,23.1001 C0.4997,24.2001 1.3997,25.1001 2.4997,25.1001 L17.7247,25.1001 C18.8247,25.1001 19.7247,24.2001 19.7247,23.1001 L19.7247,6.9161 C19.7247,5.2941 17.7207,4.7691 17.7207,4.7691 L17.7207,4.7691 Z" id="Stroke-5"></path>
                <path d="M0.4985,11.9465 L6.3865,11.9465" id="Stroke-7"></path>
                <path d="M14.1074,11.9465 L19.5694,11.9465" id="Stroke-9"></path>
                <polyline id="Stroke-11" points="11.6957 2.7196 11.6957 25.0496 8.5287 25.0496 8.5287 2.7586"></polyline>
                <path d="M2.8055,4.7214 C2.9185,4.7774 5.1715,7.0024 10.0155,7.0024 C14.8595,7.0024 17.6475,4.4964 17.6475,4.4964" id="Stroke-13"></path>
                <path d="M4.0327,1.4069 C5.1767,2.0559 7.1387,2.8399 10.0157,2.8399 C12.9667,2.8399 15.1557,1.9099 16.4147,1.1829" id="Stroke-15"></path>
            </g>
        </g>
    </g>
</svg>