<?xml version="1.0" encoding="UTF-8" standalone="no"?>
<svg width="21px" height="30px" viewBox="0 0 21 30" version="1.1" xmlns="http://www.w3.org/2000/svg" xmlns:xlink="http://www.w3.org/1999/xlink">
    <!-- Generator: Sketch 40.2 (33826) - http://www.bohemiancoding.com/sketch -->
    <title>shirtu</title>
    <desc>Created with Sketch.</desc>
    <defs>
        <polygon id="path-1" points="20.1446974 0.268 0 0.268 0 23.8912 20.1446974 23.8912 20.1446974 0.268"></polygon>
        <polygon id="path-3" points="0.1901 16 7.9551 16 7.9551 0.1512 0.1901 0.1512 0.1901 16"></polygon>
    </defs>
    <g id="Page-1" stroke="none" stroke-width="1" fill="none" fill-rule="evenodd">
        <g id="A4-Copy" transform="translate(-445.000000, -119.000000)">
            <g id="shirtu" transform="translate(445.000000, 118.000000)">
                <g id="Group-3" transform="translate(0.000000, 0.732400)">
                    <mask id="mask-2" fill="white">
                        <use xlink:href="#path-1"></use>
                    </mask>
                    <g id="Clip-2"></g>
                    <path d="M10.2256,8.6572 C9.4616,8.3272 6.3686,6.7462 5.6906,2.7222 L5.7036,2.7002 C6.0176,2.1592 6.3706,1.9832 6.3816,1.9772 L6.5846,1.8742 C7.2466,1.5462 8.9276,1.2672 10.2556,1.2672 C12.7056,1.2672 13.8416,1.7882 13.8616,1.7972 L14.0256,1.8712 C14.1736,1.9452 14.3776,2.0482 14.7626,2.5732 L14.7836,2.5912 C14.1526,6.7142 10.9966,8.3232 10.2256,8.6572 M19.2956,3.1072 L15.7146,2.0812 L15.5316,1.9302 C15.0666,1.3062 14.7526,1.1172 14.4556,0.9692 L14.2866,0.8912 C14.2336,0.8662 12.9676,0.2672 10.2556,0.2672 C8.9356,0.2672 7.0356,0.5342 6.1356,0.9812 L5.9376,1.0822 C5.8386,1.1302 5.3516,1.3912 4.9196,2.0642 L1.2516,3.1082 C0.9406,3.1992 0.2106,3.4142 0.0106,4.3472 L-0.0004,4.3992 L0.0336,23.0012 C0.0556,23.5002 0.4866,23.8912 1.0126,23.8912 L6.7326,23.8912 L6.7326,22.9492 L1.0326,22.9762 L0.9996,4.5112 C1.0776,4.2212 1.2556,4.1492 1.5256,4.0702 L4.7586,3.1722 C5.6496,7.6492 9.2586,9.3412 9.9406,9.6212 L10.0726,9.7502 L10.2096,9.7162 L10.3676,9.7652 L10.5126,9.6202 C11.2066,9.3352 14.8486,7.6202 15.7076,3.0832 L19.0086,4.0652 C19.0826,4.0882 19.1256,4.1082 19.1446,4.1122 L19.0086,22.8902 L19.0006,22.8912 L13.4126,22.9182 L13.4126,23.8912 L19.0006,23.8912 C19.5276,23.8912 19.9576,23.5002 19.9816,22.9812 L20.1436,4.1122 C20.1566,3.8402 20.0646,3.3472 19.2956,3.1072" id="Fill-1" fill="#333332" mask="url(#mask-2)"></path>
                </g>
                <g id="Group-6" transform="translate(6.000000, 14.732400)">
                    <mask id="mask-4" fill="white">
                        <use xlink:href="#path-3"></use>
                    </mask>
                    <g id="Clip-5"></g>
                    <polygon id="Fill-4" fill="#333332" mask="url(#mask-4)" points="7.9551 4.0332 4.0721 0.1512 0.1901 4.0332 0.8971 4.7402 3.5721 2.0652 3.5721 16.0002 4.5721 16.0002 4.5721 2.0652 7.2481 4.7402"></polygon>
                </g>
            </g>
        </g>
    </g>
</svg>