<?xml version="1.0" encoding="UTF-8" standalone="no"?>
<svg width="28px" height="12px" viewBox="0 0 28 12" version="1.1" xmlns="http://www.w3.org/2000/svg" xmlns:xlink="http://www.w3.org/1999/xlink">
    <!-- Generator: Sketch 40.2 (33826) - http://www.bohemiancoding.com/sketch -->
    <title>shoe</title>
    <desc>Created with Sketch.</desc>
    <defs></defs>
    <g id="Page-1" stroke="none" stroke-width="1" fill="none" fill-rule="evenodd">
        <g id="A4-Copy" transform="translate(-28.000000, -232.000000)" stroke="#333332">
            <g id="shoe" transform="translate(29.000000, 232.000000)">
                <path d="M25.5718,8.9844 C25.2638,6.5294 23.7018,6.2794 20.3888,5.9674 C14.8758,5.4464 10.8808,1.0204 10.1178,0.8514 C8.9078,0.5834 7.7018,1.3684 4.8578,1.1884 C2.3388,1.0294 0.4998,-0.2776 0.4998,1.1884 L0.4998,9.4684 L7.8558,9.4824 C11.8778,9.9044 13.1778,11.0344 17.6298,11.0344 C21.4258,11.0344 24.5298,9.9974 25.1268,9.7044 C25.5508,9.4964 25.5718,8.9844 25.5718,8.9844 L25.5718,8.9844 Z" id="Stroke-1"></path>
                <polyline id="Stroke-3" points="0.5001 9.4681 0.5001 10.9121 7.7071 10.9121 7.7071 9.3811"></polyline>
            </g>
        </g>
    </g>
</svg>