<?xml version="1.0" encoding="UTF-8" standalone="no"?>
<svg width="28px" height="12px" viewBox="0 0 28 12" version="1.1" xmlns="http://www.w3.org/2000/svg" xmlns:xlink="http://www.w3.org/1999/xlink">
    <!-- Generator: Sketch 40.2 (33826) - http://www.bohemiancoding.com/sketch -->
    <title>shoe2</title>
    <desc>Created with Sketch.</desc>
    <defs></defs>
    <g id="Page-1" stroke="none" stroke-width="1" fill="none" fill-rule="evenodd">
        <g id="A4-Copy" transform="translate(-75.000000, -238.000000)" stroke="#333332">
            <g id="shoe2" transform="translate(76.000000, 238.000000)">
                <path d="M25.5718,9.0779 C25.2638,6.6229 23.7018,6.3729 20.3888,6.0609 C14.8758,5.5399 9.0228,1.1989 8.2848,0.9449 C6.4148,0.3019 5.9468,1.0229 4.0368,1.0229 C1.7298,1.0229 0.4998,-0.3111 0.4998,1.2819 L0.4998,9.5619 L7.8558,9.5759 C11.8778,9.9979 13.1778,11.1279 17.6298,11.1279 C21.4258,11.1279 24.5298,10.0909 25.1268,9.7979 C25.5508,9.5899 25.5718,9.0779 25.5718,9.0779 L25.5718,9.0779 Z" id="Stroke-1"></path>
                <polyline id="Stroke-3" points="0.5001 9.5616 0.5001 11.0056 7.7071 11.0056 7.7071 9.4746"></polyline>
                <path d="M12.6091,3.2805 L11.4511,6.0395 C11.4511,6.0395 7.8781,6.7875 7.8781,10.2385" id="Stroke-5"></path>
            </g>
        </g>
    </g>
</svg>