<?xml version="1.0" encoding="UTF-8" standalone="no"?>
<svg width="28px" height="12px" viewBox="0 0 28 12" version="1.1" xmlns="http://www.w3.org/2000/svg" xmlns:xlink="http://www.w3.org/1999/xlink">
    <!-- Generator: Sketch 40.2 (33826) - http://www.bohemiancoding.com/sketch -->
    <title>shoooe</title>
    <desc>Created with Sketch.</desc>
    <defs></defs>
    <g id="Page-1" stroke="none" stroke-width="1" fill="none" fill-rule="evenodd">
        <g id="A4-Copy" transform="translate(-38.000000, -270.000000)" stroke="#333332">
            <g id="shoooe" transform="translate(39.000000, 270.000000)">
                <path d="M25.5718,8.5372 C25.5718,6.1492 23.8678,5.2122 20.5858,5.2622 C15.0488,5.3462 10.8808,1.0202 10.1178,0.8512 C8.9078,0.5832 7.7018,1.3692 4.8578,1.1892 C2.3388,1.0292 0.4998,-0.2778 0.4998,1.1892 L0.4998,9.0212 L7.8558,9.0352 C11.8778,9.4572 13.1778,10.5872 17.6298,10.5872 C21.4258,10.5872 25.5718,9.0212 25.5718,9.0212 L25.5718,8.5372 L25.5718,8.5372 Z" id="Stroke-1"></path>
                <path d="M11.7349,1.7814 L10.4099,3.4454" id="Stroke-3"></path>
                <path d="M13.5748,2.9252 L12.2428,4.6952" id="Stroke-5"></path>
                <polyline id="Stroke-7" points="0.5001 9.0209 0.5001 10.4649 7.7071 10.4649 7.7071 8.9339"></polyline>
            </g>
        </g>
    </g>
</svg>