<?xml version="1.0" encoding="UTF-8" standalone="no"?>
<svg width="22px" height="26px" viewBox="0 0 22 26" version="1.1" xmlns="http://www.w3.org/2000/svg" xmlns:xlink="http://www.w3.org/1999/xlink">
    <!-- Generator: Sketch 40.2 (33826) - http://www.bohemiancoding.com/sketch -->
    <title>shoort</title>
    <desc>Created with Sketch.</desc>
    <defs></defs>
    <g id="Page-1" stroke="none" stroke-width="1" fill="none" fill-rule="evenodd">
        <g id="A4-Copy" transform="translate(-388.000000, -27.000000)" stroke="#333332">
            <g id="shoort" transform="translate(389.000000, 27.000000)">
                <path d="M15.6793,14.3892 L13.6523,14.3892 L13.6523,17.7982 C13.6523,17.7982 14.5733,18.5812 15.6793,18.5812 C16.7853,18.5812 17.7063,17.7982 17.7063,17.7982 L17.7063,14.3892 L15.6793,14.3892 L15.6793,14.3892 Z" id="Stroke-1"></path>
                <path d="M17.7207,4.7691 C17.7207,4.7691 16.9847,1.4701 16.3197,1.0421 C15.6547,0.6141 12.1157,0.5001 10.5487,0.5001 C8.9817,0.5001 4.9507,0.6421 4.2857,1.0701 C3.6197,1.4981 2.9207,4.7731 2.9207,4.7731 C2.9207,4.7731 0.4997,5.1901 0.4997,6.9161 L0.4997,23.1001 C0.4997,24.2001 1.3997,25.1001 2.4997,25.1001 L17.7247,25.1001 C18.8247,25.1001 19.7247,24.2001 19.7247,23.1001 L19.7247,6.9161 C19.7247,5.2941 17.7207,4.7691 17.7207,4.7691 L17.7207,4.7691 Z" id="Stroke-3"></path>
                <path d="M11.6602,11.9462 L19.5702,11.9452" id="Stroke-5"></path>
                <path d="M0.6465,11.9462 L8.5565,11.9452" id="Stroke-7"></path>
                <polyline id="Stroke-9" points="11.6957 2.7196 11.6957 25.0496 8.5287 25.0496 8.5287 2.7586"></polyline>
                <path d="M2.8055,4.7214 C2.9185,4.7774 5.1715,7.0024 10.0155,7.0024 C14.8595,7.0024 17.6475,4.4964 17.6475,4.4964" id="Stroke-11"></path>
                <path d="M4.0327,1.4069 C5.1767,2.0559 7.1387,2.8399 10.0157,2.8399 C12.9667,2.8399 15.1557,1.9099 16.4147,1.1829" id="Stroke-13"></path>
            </g>
        </g>
    </g>
</svg>