<?xml version="1.0" encoding="UTF-8" standalone="no"?>
<svg width="22px" height="27px" viewBox="0 0 22 27" version="1.1" xmlns="http://www.w3.org/2000/svg" xmlns:xlink="http://www.w3.org/1999/xlink">
    <!-- Generator: Sketch 40.2 (33826) - http://www.bohemiancoding.com/sketch -->
    <title>short4</title>
    <desc>Created with Sketch.</desc>
    <defs></defs>
    <g id="Page-1" stroke="none" stroke-width="1" fill="none" fill-rule="evenodd">
        <g id="A4-Copy" transform="translate(-175.000000, -23.000000)" fill="#333332">
            <g id="short4" transform="translate(175.000000, 22.000000)">
                <g id="Group-3" transform="translate(0.000000, 0.748000)">
                    <path d="M20.3711,24.3809 C20.3711,25.2739 19.6441,25.9999 18.7521,25.9999 L11.1871,25.9999 L11.2341,8.7269 C13.9291,6.9459 17.6871,5.3579 17.7251,5.3419 L17.9791,5.2349 L17.9821,5.2179 L18.5641,5.4239 C19.7641,5.8359 20.3711,6.4439 20.3711,7.2319 L20.3711,24.3809 Z M1.0001,24.3809 L1.0001,7.2319 C1.0001,6.7199 1.2081,6.0669 2.8141,5.5549 L3.4811,5.3619 L3.7171,5.4479 C3.7571,5.4629 7.6501,6.8979 10.2341,8.7589 L10.1871,25.9999 L2.6191,25.9999 C1.7261,25.9999 1.0001,25.2739 1.0001,24.3809 L1.0001,24.3809 Z M4.8151,2.3969 C5.9391,2.9819 9.2651,4.9019 10.0801,7.4499 C7.8891,6.0409 5.2561,4.9679 4.3651,4.6239 C4.3251,3.5909 4.6121,2.8019 4.8151,2.3969 L4.8151,2.3969 Z M15.6111,1.8449 C14.2131,2.6389 11.8041,4.2599 10.7541,6.4409 C9.7021,4.2559 7.2871,2.6339 5.8891,1.8409 C6.8301,1.5719 8.4211,1.2519 10.7031,1.2519 C13.0641,1.2519 14.6841,1.5819 15.6111,1.8449 L15.6111,1.8449 Z M16.6251,2.4329 C16.8501,2.8909 17.1391,3.6819 17.0711,4.5339 C16.2431,4.8929 13.6771,6.0459 11.4381,7.4149 C12.2561,4.9329 15.4461,3.0539 16.6251,2.4329 L16.6251,2.4329 Z M18.8931,4.4799 L18.0741,4.1899 C18.0441,2.7069 17.2841,1.4279 17.0221,1.2839 C17.0031,1.2749 14.9511,0.2519 10.7031,0.2519 C6.5361,0.2519 4.5001,1.2639 4.4591,1.2869 C4.0841,1.4359 3.3861,2.6939 3.3651,4.3549 L2.5241,4.5979 C1.8991,4.7969 0.0001,5.4019 0.0001,7.2319 L0.0001,24.3809 C0.0001,25.8249 1.1751,26.9999 2.6191,26.9999 L18.7521,26.9999 C20.1961,26.9999 21.3711,25.8249 21.3711,24.3809 L21.3711,7.2319 C21.3711,6.3649 20.9401,5.1839 18.8931,4.4799 L18.8931,4.4799 Z" id="Fill-1"></path>
                </g>
                <polygon id="Fill-4" points="12.3584 13.8769 12.9184 13.8769 12.9184 14.8779 13.9184 14.8779 13.9184 13.8769 18.6284 13.8769 18.6284 12.8769 12.3584 12.8769"></polygon>
            </g>
        </g>
    </g>
</svg>