<?xml version="1.0" encoding="UTF-8" standalone="no"?>
<svg width="62px" height="39px" viewBox="0 0 62 39" version="1.1" xmlns="http://www.w3.org/2000/svg" xmlns:xlink="http://www.w3.org/1999/xlink">
    <!-- Generator: Sketch 40.2 (33826) - http://www.bohemiancoding.com/sketch -->
    <title>shorts</title>
    <desc>Created with Sketch.</desc>
    <defs>
        <polygon id="path-1" points="61.4697 0.488 0 0.488 0 38.9998 61.4697 38.9998"></polygon>
    </defs>
    <g id="Page-1" stroke="none" stroke-width="1" fill="none" fill-rule="evenodd">
        <g id="A4-Copy" transform="translate(-24.000000, -774.000000)">
            <g id="shorts" transform="translate(24.000000, 773.000000)">
                <g id="Group-3" transform="translate(0.000000, 0.511700)">
                    <mask id="mask-2" fill="white">
                        <use xlink:href="#path-1"></use>
                    </mask>
                    <g id="Clip-2"></g>
                    <path d="M59.4697,27.0918 C59.4697,28.1948 58.5727,29.0918 57.4697,29.0918 L3.9997,29.0918 C2.8977,29.0918 1.9997,28.1948 1.9997,27.0918 L1.9997,25.1878 C1.9997,24.0848 2.8977,23.1878 3.9997,23.1878 L4.0367,23.1878 C4.0897,23.1898 4.1387,23.2028 4.1917,23.2028 L57.2907,23.2028 C57.3437,23.2028 57.3927,23.1898 57.4457,23.1878 L57.4697,23.1878 C58.5727,23.1878 59.4697,24.0848 59.4697,25.1878 L59.4697,27.0918 Z M59.4697,34.9998 C59.4697,36.1028 58.5727,36.9998 57.4697,36.9998 L3.9997,36.9998 C2.8977,36.9998 1.9997,36.1028 1.9997,34.9998 L1.9997,33.0968 C1.9997,31.9938 2.8977,31.0968 3.9997,31.0968 L57.4697,31.0968 C58.5727,31.0968 59.4697,31.9938 59.4697,33.0968 L59.4697,34.9998 Z M3.5827,14.0238 C3.8987,13.9258 10.4747,11.9238 16.3217,10.1438 C18.2567,11.3458 21.7637,13.3398 23.7327,13.3398 C23.9487,13.3398 24.1557,13.3178 24.3427,13.2738 C25.0977,13.0978 26.0017,12.4448 26.9077,11.6038 L26.9077,21.1878 L4.0367,21.1878 C2.9507,21.1068 2.0887,20.2068 2.0887,19.0888 L2.0467,15.5618 C2.0467,14.6808 2.8817,14.2378 3.5827,14.0238 L3.5827,14.0238 Z M19.6607,3.4498 L28.8777,6.3468 C27.0377,8.7488 24.8307,11.1068 23.8877,11.3258 C23.8657,11.3308 23.8177,11.3398 23.7327,11.3398 C22.3637,11.3398 19.1057,9.5528 16.9047,8.1488 L19.6607,3.4498 Z M28.9077,9.4918 C29.5157,8.7828 30.0587,8.0948 30.4907,7.5288 C31.0567,8.2728 31.8227,9.2318 32.6617,10.1608 L32.6617,21.1878 L28.9077,21.1878 L28.9077,9.4918 Z M30.6497,2.4878 C32.8067,2.4878 35.0877,2.5828 37.0497,2.6958 L30.4907,4.7578 L23.9617,2.7058 C26.0257,2.5888 28.4317,2.4878 30.6497,2.4878 L30.6497,2.4878 Z M37.2487,11.3398 C37.1637,11.3398 37.1157,11.3308 37.0927,11.3258 C36.1507,11.1068 33.9437,8.7488 32.1037,6.3468 L41.3197,3.4498 L44.0767,8.1498 C41.8757,9.5528 38.6187,11.3398 37.2487,11.3398 L37.2487,11.3398 Z M57.9087,14.0238 C58.6097,14.2378 59.4447,14.6808 59.4447,15.5478 L59.3947,19.1008 C59.3947,20.2068 58.5327,21.1068 57.4457,21.1878 L34.6617,21.1878 L34.6617,12.1228 C35.3657,12.7058 36.0477,13.1358 36.6387,13.2738 C36.8257,13.3178 37.0327,13.3398 37.2487,13.3398 C39.2767,13.3398 42.9347,11.2248 44.8267,10.0398 C50.7557,11.8448 57.5867,13.9248 57.9087,14.0238 L57.9087,14.0238 Z M61.4697,25.1878 C61.4697,23.9588 60.9017,22.8718 60.0267,22.1368 C60.8597,21.3868 61.3947,20.3148 61.3947,19.1138 L61.4447,15.5618 C61.4447,13.9458 60.3697,12.6878 58.4967,12.1118 C58.1957,12.0188 52.2147,10.1978 46.5937,8.4868 L42.2397,1.0658 L42.2007,1.0778 C41.7997,1.0398 35.9157,0.4878 30.6497,0.4878 C25.2247,0.4878 18.8067,1.0598 18.7407,1.0658 L14.2757,8.6748 C8.8437,10.3288 3.2827,12.0218 2.9937,12.1118 C1.1207,12.6878 0.0467,13.9458 0.0467,15.5728 L0.0887,19.1008 C0.0887,20.3048 0.6207,21.3798 1.4507,22.1308 C0.5717,22.8648 -0.0003,23.9548 -0.0003,25.1878 L-0.0003,27.0918 C-0.0003,28.2938 0.5437,29.3608 1.3847,30.0938 C0.5437,30.8278 -0.0003,31.8948 -0.0003,33.0968 L-0.0003,34.9998 C-0.0003,37.2058 1.7937,38.9998 3.9997,38.9998 L57.4697,38.9998 C59.6757,38.9998 61.4697,37.2058 61.4697,34.9998 L61.4697,33.0968 C61.4697,31.8948 60.9267,30.8278 60.0847,30.0938 C60.9267,29.3608 61.4697,28.2938 61.4697,27.0918 L61.4697,25.1878 Z" id="Fill-1" fill="#333332" mask="url(#mask-2)"></path>
                </g>
                <path d="M30.7852,9.9497 C30.2242,9.9497 29.7692,10.4047 29.7692,10.9657 C29.7692,11.5267 30.2242,11.9807 30.7852,11.9807 C31.3462,11.9807 31.8012,11.5267 31.8012,10.9657 C31.8012,10.4047 31.3462,9.9497 30.7852,9.9497" id="Fill-4" fill="#333332"></path>
            </g>
        </g>
    </g>
</svg>