<?xml version="1.0" encoding="UTF-8" standalone="no"?>
<svg width="22px" height="28px" viewBox="0 0 22 28" version="1.1" xmlns="http://www.w3.org/2000/svg" xmlns:xlink="http://www.w3.org/1999/xlink">
    <!-- Generator: Sketch 40.2 (33826) - http://www.bohemiancoding.com/sketch -->
    <title>short6</title>
    <desc>Created with Sketch.</desc>
    <defs></defs>
    <g id="Page-1" stroke="none" stroke-width="1" fill="none" fill-rule="evenodd">
        <g id="A4-Copy" transform="translate(-512.000000, -58.000000)" fill="#333332">
            <g id="short6" transform="translate(512.000000, 57.000000)">
                <path d="M11.0591,8.5323 C10.5991,8.5323 10.2261,8.9053 10.2261,9.3643 C10.2261,9.8243 10.5991,10.1973 11.0591,10.1973 C11.5181,10.1973 11.8911,9.8243 11.8911,9.3643 C11.8911,8.9053 11.5181,8.5323 11.0591,8.5323" id="Fill-1"></path>
                <path d="M11.0591,15.6053 C10.5991,15.6053 10.2261,15.9783 10.2261,16.4373 C10.2261,16.8973 10.5991,17.2703 11.0591,17.2703 C11.5181,17.2703 11.8911,16.8973 11.8911,16.4373 C11.8911,15.9783 11.5181,15.6053 11.0591,15.6053" id="Fill-3"></path>
                <path d="M11.0591,22.6782 C10.5991,22.6782 10.2261,23.0512 10.2261,23.5102 C10.2261,23.9702 10.5991,24.3432 11.0591,24.3432 C11.5181,24.3432 11.8911,23.9702 11.8911,23.5102 C11.8911,23.0512 11.5181,22.6782 11.0591,22.6782" id="Fill-5"></path>
                <g id="Group-9" transform="translate(0.000000, 0.275400)">
                    <path d="M20.3711,25.3809 C20.3711,26.2739 19.6441,26.9999 18.7521,26.9999 L9.4461,26.9999 L9.4461,7.3419 C9.8311,7.3789 10.2291,7.4019 10.6421,7.4019 C13.6491,7.4019 16.1121,6.2099 16.9931,5.7229 L18.5641,6.4239 C19.7641,6.8359 20.3711,7.4439 20.3711,8.2319 L20.3711,25.3809 Z M1.0001,25.3809 L1.0001,8.2319 C1.0001,7.7559 1.1831,7.0689 2.8131,6.5729 L4.5161,5.8539 C5.1281,6.1899 6.5461,6.8699 8.4461,7.2049 L8.4461,26.9999 L2.6191,26.9999 C1.7261,26.9999 1.0001,26.2739 1.0001,25.3809 L1.0001,25.3809 Z M14.9141,2.2499 C13.7961,2.6429 12.1261,3.0239 10.6421,3.0239 C9.1401,3.0239 7.4331,2.6619 6.3661,2.2969 C7.1881,2.0529 8.9431,1.7249 10.6931,1.7249 C12.2231,1.7249 13.9841,2.0199 14.9141,2.2499 L14.9141,2.2499 Z M8.4461,3.8289 L8.4461,6.1859 C6.8341,5.8739 5.6161,5.3049 5.0601,5.0089 C5.2421,4.3069 5.4561,3.5909 5.6351,3.0909 C6.3141,3.3629 7.3281,3.6459 8.4461,3.8289 L8.4461,3.8289 Z M16.4761,4.8639 C15.6591,5.3079 13.3731,6.4019 10.6421,6.4019 C10.2291,6.4019 9.8301,6.3779 9.4461,6.3379 L9.4461,3.9579 C9.8451,3.9959 10.2461,4.0239 10.6421,4.0239 C12.5721,4.0239 14.6691,3.4549 15.8161,2.9719 C16.0181,3.4459 16.2651,4.1579 16.4761,4.8639 L16.4761,4.8639 Z M18.9321,5.4949 L17.5171,4.8619 C17.1361,3.5139 16.6001,1.9459 16.1051,1.6279 C15.4911,1.2339 12.7571,0.7249 10.6931,0.7249 C8.4551,0.7249 5.8601,1.2459 5.3061,1.6729 C4.8501,2.0249 4.3751,3.6099 4.0371,4.9719 L2.4751,5.6339 C0.8321,6.1299 0.0001,7.0039 0.0001,8.2319 L0.0001,25.3809 C0.0001,26.8249 1.1751,27.9999 2.6191,27.9999 L18.7521,27.9999 C20.1961,27.9999 21.3711,26.8249 21.3711,25.3809 L21.3711,8.2319 C21.3711,7.3649 20.9401,6.1839 18.9321,5.4949 L18.9321,5.4949 Z" id="Fill-7"></path>
                </g>
            </g>
        </g>
    </g>
</svg>