<?xml version="1.0" encoding="UTF-8" standalone="no"?>
<svg width="27px" height="12px" viewBox="0 0 27 12" version="1.1" xmlns="http://www.w3.org/2000/svg" xmlns:xlink="http://www.w3.org/1999/xlink">
    <!-- Generator: Sketch 40.2 (33826) - http://www.bohemiancoding.com/sketch -->
    <title>sneakers</title>
    <desc>Created with Sketch.</desc>
    <defs></defs>
    <g id="Page-1" stroke="none" stroke-width="1" fill="none" fill-rule="evenodd">
        <g id="A4-Copy" transform="translate(-85.000000, -276.000000)">
            <g id="sneakers" transform="translate(85.000000, 276.000000)">
                <polygon id="Fill-1" fill="#FEFEFE" points="0.5 10.6066 25.571 10.6066 25.571 9.0216 0.5 9.0216"></polygon>
                <g id="Group-8" transform="translate(0.000000, 0.106600)" stroke="#333332">
                    <polygon id="Stroke-2" points="0.5 10.5 25.571 10.5 25.571 8.914 0.5 8.914"></polygon>
                    <path d="M0.5001,8.9144 L0.5001,1.0824 C0.5001,-0.3846 2.3391,0.9224 4.8581,1.0824 C7.7021,1.2624 8.9081,0.4764 10.1181,0.7444 C10.8801,0.9134 16.2921,4.3294 21.1851,4.9404 C23.9911,5.2914 25.5721,6.0424 25.5721,8.4304" id="Stroke-4"></path>
                    <path d="M11.6882,1.6953 L10.4102,3.3383" id="Stroke-5"></path>
                    <path d="M14.0093,2.2932 L12.2433,4.5882" id="Stroke-6"></path>
                    <path d="M12.4157,8.7039 C12.4157,8.7039 12.2017,6.0049 14.9927,5.8389 L16.4657,3.4739" id="Stroke-7"></path>
                </g>
            </g>
        </g>
    </g>
</svg>