<?xml version="1.0" encoding="UTF-8" standalone="no"?>
<svg width="19px" height="19px" viewBox="0 0 19 19" version="1.1" xmlns="http://www.w3.org/2000/svg" xmlns:xlink="http://www.w3.org/1999/xlink">
    <!-- Generator: Sketch 40.2 (33826) - http://www.bohemiancoding.com/sketch -->
    <title>snow</title>
    <desc>Created with Sketch.</desc>
    <defs></defs>
    <g id="Page-1" stroke="none" stroke-width="1" fill="none" fill-rule="evenodd">
        <g id="A4-Copy" transform="translate(-539.000000, -359.000000)" fill="#333332">
            <polygon id="snow" points="547.912 358.9999 547.912 361.9489 545.347 359.3829 544.64 360.0909 547.912 363.3629 547.912 367.6159 544.23 365.4899 543.032 361.0189 542.066 361.2789 543.005 364.7829 540.451 363.3069 539.951 364.1729 542.507 365.6479 539.001 366.5869 539.259 367.5539 543.731 366.3559 547.413 368.4809 543.731 370.6079 539.26 369.4089 539 370.3759 542.506 371.3159 539.951 372.7899 540.451 373.6559 543.005 372.1799 542.066 375.6859 543.032 375.9449 544.231 371.4729 547.912 369.3469 547.912 373.5999 544.64 376.8719 545.347 377.5789 547.912 375.0139 547.912 377.9639 548.912 377.9639 548.912 375.0139 551.479 377.5789 552.186 376.8719 548.912 373.5999 548.912 369.3459 552.594 371.4719 553.793 375.9449 554.759 375.6859 553.819 372.1799 556.374 373.6559 556.874 372.7899 554.319 371.3149 557.825 370.3759 557.564 369.4089 553.095 370.6079 549.412 368.4809 553.093 366.3559 557.564 367.5549 557.825 366.5879 554.318 365.6479 556.874 364.1729 556.374 363.3069 553.819 364.7829 554.759 361.2789 553.793 361.0189 552.595 365.4899 548.912 367.6159 548.912 363.3629 552.186 360.0909 551.479 359.3829 548.912 361.9489 548.912 358.9999"></polygon>
        </g>
    </g>
</svg>