<?xml version="1.0" encoding="UTF-8" standalone="no"?>
<svg width="28px" height="25px" viewBox="0 0 28 25" version="1.1" xmlns="http://www.w3.org/2000/svg" xmlns:xlink="http://www.w3.org/1999/xlink">
    <!-- Generator: Sketch 40.2 (33826) - http://www.bohemiancoding.com/sketch -->
    <title>socks</title>
    <desc>Created with Sketch.</desc>
    <defs>
        <polygon id="path-1" points="0 25 27.315 25 27.315 0.196 0 0.196"></polygon>
    </defs>
    <g id="Page-1" stroke="none" stroke-width="1" fill="none" fill-rule="evenodd">
        <g id="A4-Copy" transform="translate(-122.000000, -239.000000)">
            <g id="socks" transform="translate(122.000000, 238.000000)">
                <polygon id="Fill-1" fill="#333332" points="7.366 5.9537 8.366 5.9537 8.366 2.7527 7.366 2.7527"></polygon>
                <polygon id="Fill-2" fill="#333332" points="9.23 5.9537 10.23 5.9537 10.23 2.7527 9.23 2.7527"></polygon>
                <polygon id="Fill-3" fill="#333332" points="11.092 5.9537 12.092 5.9537 12.092 2.7527 11.092 2.7527"></polygon>
                <g id="Group-11" transform="translate(0.000000, 0.803700)">
                    <path d="M6.3814,22.766 L2.1374,18.681 L6.7754,13.805 L6.7814,1.196 L12.6734,1.2 L12.6674,12.123 C10.4794,12.336 8.7584,14.164 8.7584,16.406 C8.7584,17.434 9.1344,18.391 9.7944,19.169 L6.3814,22.766 L6.3814,22.766 Z M1.9134,23.191 C0.8664,22.196 0.7194,20.61 1.4864,19.443 L5.6514,23.452 C4.5254,24.255 2.9504,24.178 1.9134,23.191 L1.9134,23.191 Z M10.4734,18.454 C10.0094,17.87 9.7584,17.159 9.7584,16.406 C9.7584,14.705 11.0414,13.299 12.6664,13.104 L12.6644,16.145 L10.4734,18.454 L10.4734,18.454 Z M13.6644,16.543 L13.6664,12.586 L13.6864,12.107 L13.6674,12.107 L13.6734,0.2 L5.7814,0.196 L5.7754,13.404 L1.0824,18.339 C-0.4146,19.916 -0.3506,22.418 1.2244,23.916 C1.9854,24.641 2.9644,25 3.9414,25 C4.9854,25 6.0274,24.59 6.8014,23.775 L10.4884,19.89 L10.4884,19.891 L13.6644,16.543 L13.6644,16.543 Z" id="Fill-4" fill="#333332"></path>
                    <mask id="mask-2" fill="white">
                        <use xlink:href="#path-1"></use>
                    </mask>
                    <g id="Clip-7"></g>
                    <polygon id="Fill-6" fill="#333332" mask="url(#mask-2)" points="20.993 5.149 21.993 5.149 21.993 1.948 20.993 1.948"></polygon>
                    <polygon id="Fill-8" fill="#333332" mask="url(#mask-2)" points="22.856 5.149 23.856 5.149 23.856 1.948 22.856 1.948"></polygon>
                    <polygon id="Fill-9" fill="#333332" mask="url(#mask-2)" points="24.72 5.149 25.72 5.149 25.72 1.948 24.72 1.948"></polygon>
                    <path d="M26.2916,16.1445 L24.1006,18.4535 C23.6366,17.8705 23.3856,17.1585 23.3856,16.4065 C23.3856,14.7055 24.6696,13.2985 26.2936,13.1025 L26.2916,16.1445 Z M20.0016,22.7725 L15.7646,18.6815 L20.4016,13.8045 L20.4096,1.1965 L26.3006,1.2005 L26.2936,12.1235 C24.1066,12.3365 22.3856,14.1645 22.3856,16.4065 C22.3856,17.4335 22.7616,18.3895 23.4216,19.1695 L20.0016,22.7725 Z M15.5406,23.1915 C14.4936,22.1955 14.3466,20.6105 15.1136,19.4435 L19.2716,23.4575 C18.1456,24.2545 16.5746,24.1755 15.5406,23.1915 L15.5406,23.1915 Z M27.3146,12.1085 L27.2936,12.1075 L27.3006,0.2005 L19.4096,0.1965 L19.4016,13.4045 L14.7106,18.3385 C13.2126,19.9155 13.2756,22.4165 14.8516,23.9155 C15.6136,24.6405 16.5916,24.9995 17.5686,24.9995 C18.6116,24.9995 19.6536,24.5895 20.4286,23.7755 L24.1146,19.8905 L27.2916,16.5425 L27.2936,12.5855 L27.3146,12.1085 Z" id="Fill-10" fill="#333332" mask="url(#mask-2)"></path>
                </g>
            </g>
        </g>
    </g>
</svg>