<?xml version="1.0" encoding="UTF-8" standalone="no"?>
<svg width="23px" height="22px" viewBox="0 0 23 22" version="1.1" xmlns="http://www.w3.org/2000/svg" xmlns:xlink="http://www.w3.org/1999/xlink">
    <!-- Generator: Sketch 40.2 (33826) - http://www.bohemiancoding.com/sketch -->
    <title>star</title>
    <desc>Created with Sketch.</desc>
    <defs></defs>
    <g id="Page-1" stroke="none" stroke-width="1" fill="none" fill-rule="evenodd">
        <g id="A4-Copy" transform="translate(0.000000, -459.000000)">
            <g id="heart" transform="translate(22.000000, 480.000000)">
                <path d="M33.5825333,10.285625 C34.8421524,8.907625 35.8297714,7.822125 36.8238667,6.743125 C41.7781524,1.374125 47.7330095,-0.894375 54.7726286,1.699125 C62.0680571,4.386875 65.5231048,10.236875 66.3132,17.718375 C66.8312952,22.629125 65.7206286,27.426125 62.401581,31.056375 C53.017581,41.319875 43.3421524,51.316875 33.8674857,61.326875 C32.0185333,59.614125 30.3347238,58.200375 28.8160571,56.624125 C21.2680571,48.798125 13.7103429,40.978625 6.25948571,33.058375 C-1.16546667,25.167375 -1.24641905,13.265875 5.9324381,5.810375 C12.285581,-0.787125 21.8994857,-1.086125 28.5926286,5.153875 C30.2052,6.658625 31.6785333,8.316125 33.5825333,10.285625" id="Fill-1" fill="#333332"></path>
                <path d="M33.5825333,10.285625 C34.8421524,8.907625 35.8297714,7.822125 36.8238667,6.743125 C41.7781524,1.374125 47.7330095,-0.894375 54.7726286,1.699125 C62.0680571,4.386875 65.5231048,10.236875 66.3132,17.718375 C66.8312952,22.629125 65.7206286,27.426125 62.401581,31.056375 C53.017581,41.319875 43.3421524,51.316875 33.8674857,61.326875 C32.0185333,59.614125 30.3347238,58.200375 28.8160571,56.624125 C21.2680571,48.798125 13.7103429,40.978625 6.25948571,33.058375 C-1.16546667,25.167375 -1.24641905,13.265875 5.9324381,5.810375 C12.285581,-0.787125 21.8994857,-1.086125 28.5926286,5.153875 C30.2052,6.658625 31.6785333,8.316125 33.5825333,10.285625 L33.5825333,10.285625 Z" id="Stroke-3" stroke="#333332"></path>
            </g>
            <polygon id="star" fill="#333332" points="11.155 459.0008 7.707 465.9848 0 467.1048 5.578 472.5408 4.261 480.2178 11.155 476.5928 18.049 480.2178 16.731 472.5408 22.31 467.1048 14.602 465.9848"></polygon>
        </g>
    </g>
</svg>