<?xml version="1.0" encoding="UTF-8" standalone="no"?>
<svg width="27px" height="26px" viewBox="0 0 27 26" version="1.1" xmlns="http://www.w3.org/2000/svg" xmlns:xlink="http://www.w3.org/1999/xlink">
    <!-- Generator: Sketch 40.2 (33826) - http://www.bohemiancoding.com/sketch -->
    <title>stylist</title>
    <desc>Created with Sketch.</desc>
    <defs>
        <polygon id="path-1" points="0.0005 25.6885 26.069 25.6885 26.069 0.0005 0.0005 0.0005 0.0005 25.6885"></polygon>
    </defs>
    <g id="Page-1" stroke="none" stroke-width="1" fill="none" fill-rule="evenodd">
        <g id="A4-Copy" transform="translate(-286.000000, -772.000000)">
            <g id="stylist" transform="translate(286.000000, 772.000000)">
                <mask id="mask-2" fill="white">
                    <use xlink:href="#path-1"></use>
                </mask>
                <g id="Clip-2"></g>
                <path d="M1.2295,23.3457 C2.8785,23.6987 7.9825,24.6887 13.2495,24.6887 C18.4735,24.6887 23.2465,23.7157 24.8305,23.3567 C24.5335,22.8577 23.9165,22.1657 23.2465,21.8527 C22.7505,21.6217 21.6835,21.2057 20.6525,20.8047 C19.5465,20.3737 18.5015,19.9677 18.0165,19.7367 C17.0965,19.2967 15.7055,18.6337 15.7875,16.6357 L15.8055,16.1847 L16.2565,16.1577 C16.2835,16.1557 18.7075,16.0017 20.7115,15.3557 C20.4375,14.7297 20.0285,13.5937 19.8925,12.1587 C19.8705,11.9237 19.8475,11.6407 19.8225,11.3217 C19.6365,9.0167 19.2505,4.2217 17.5945,2.9467 C17.4595,2.8407 17.2195,2.7437 17.0985,2.7067 L16.9075,2.6487 L16.8075,2.4727 C16.4605,1.8527 15.6815,1.3497 14.7235,1.1267 C14.3775,1.0457 13.8775,0.9997 13.3545,0.9997 C12.3645,0.9997 9.8765,1.1747 8.1585,2.7907 C6.3615,4.4807 6.2905,8.0977 6.2445,10.4917 C6.2305,11.1477 6.2185,11.7217 6.1775,12.1587 C6.0415,13.5957 5.6315,14.7337 5.3575,15.3587 C7.4185,16.0357 9.7815,16.1557 9.8065,16.1577 L10.2635,16.1787 L10.2835,16.6357 C10.3605,18.5087 9.0465,19.1537 7.9925,19.6717 L7.8665,19.7337 C7.3825,19.9727 6.3195,20.4057 5.1935,20.8647 C4.2825,21.2357 3.3695,21.6067 2.8195,21.8557 C2.0905,22.1837 1.5075,22.8497 1.2295,23.3457 M13.2495,25.6887 C6.7515,25.6887 0.5075,24.2097 0.4455,24.1957 L0.0005,24.0887 L0.0665,23.6357 C0.1895,22.8077 1.1805,21.4977 2.4075,20.9437 C2.9655,20.6917 3.8925,20.3147 4.8155,19.9387 C5.8755,19.5057 6.9715,19.0597 7.4225,18.8367 L7.5505,18.7737 C8.5025,18.3067 9.1345,17.9517 9.2625,17.1207 C8.3275,17.0407 6.2515,16.7947 4.4835,16.1077 L3.9455,15.8987 L4.2305,15.3947 C4.2375,15.3817 4.9975,14.0177 5.1815,12.0657 C5.2215,11.6467 5.2315,11.0987 5.2445,10.4727 C5.2935,7.9107 5.3695,4.0397 7.4725,2.0627 C9.4525,0.2007 12.2455,-0.0003 13.3545,-0.0003 C13.9595,-0.0003 14.5275,0.0537 14.9505,0.1527 C16.1155,0.4227 17.0605,1.0247 17.5785,1.8167 C17.7505,1.8827 18.0035,1.9967 18.2085,2.1567 C20.2115,3.6997 20.6065,8.6057 20.8185,11.2417 C20.8435,11.5547 20.8665,11.8327 20.8885,12.0657 C21.0745,14.0317 21.8325,15.3807 21.8395,15.3947 L22.1275,15.8997 L21.5845,16.1087 C19.8725,16.7667 17.7455,17.0277 16.8015,17.1167 C16.9145,18.0307 17.5435,18.4027 18.4475,18.8337 C18.8995,19.0497 19.9745,19.4677 21.0145,19.8727 C22.0615,20.2807 23.1435,20.7007 23.6675,20.9467 C24.8215,21.4847 25.8885,22.8577 26.0035,23.6357 L26.0695,24.0807 L25.6335,24.1937 C25.5755,24.2077 19.7505,25.6887 13.2495,25.6887" id="Fill-1" fill="#333332" mask="url(#mask-2)"></path>
            </g>
        </g>
    </g>
</svg>