<?xml version="1.0" encoding="UTF-8" standalone="no"?>
<svg width="22px" height="27px" viewBox="0 0 22 27" version="1.1" xmlns="http://www.w3.org/2000/svg" xmlns:xlink="http://www.w3.org/1999/xlink">
    <!-- Generator: Sketch 40.2 (33826) - http://www.bohemiancoding.com/sketch -->
    <title>suit</title>
    <desc>Created with Sketch.</desc>
    <defs></defs>
    <g id="Page-1" stroke="none" stroke-width="1" fill="none" fill-rule="evenodd">
        <g id="A4-Copy" transform="translate(-149.000000, -23.000000)" fill="#333332">
            <g id="suit" transform="translate(149.000000, 23.000000)">
                <path d="M20.3711,24 C20.3711,24.893 19.6441,25.619 18.7521,25.619 L11.4871,25.619 C15.3701,20.188 19.2671,7.64 19.4381,7.085 L19.5671,6.668 L17.4661,5.69 C17.5031,5.342 17.5221,5.013 17.5261,4.703 L18.5641,5.042 C19.7641,5.455 20.3711,6.064 20.3711,6.851 L20.3711,24 Z M1.0001,24 L1.0001,6.851 C1.0001,6.375 1.1831,5.688 2.7641,5.21 L3.7081,4.926 C3.7181,5.198 3.7361,5.481 3.7711,5.78 L1.8631,6.669 L1.9931,7.086 C2.1551,7.607 6.0001,19.887 10.0311,24.588 C9.9881,24.898 9.9611,25.242 9.9471,25.619 L2.6191,25.619 C1.7261,25.619 1.0001,24.893 1.0001,24 L1.0001,24 Z M15.7811,2.193 C15.0271,2.597 13.5911,3.403 10.7651,5.006 L10.6121,5.092 L10.4591,5.006 C7.7101,3.448 6.2801,2.647 5.5081,2.233 C6.2841,1.758 7.9191,1 10.5401,1 C13.7131,1 15.0961,1.669 15.7811,2.193 L15.7811,2.193 Z M9.1111,14.644 C9.6671,12.565 10.3201,10.348 10.7281,9.227 C11.1451,10.34 11.8141,12.536 12.3801,14.583 C11.8221,17.357 11.2051,20.075 10.6321,22.135 C10.3001,20.581 9.7091,17.733 9.1111,14.644 L9.1111,14.644 Z M4.1841,7.789 L4.3431,8.309 L6.7841,7.339 C7.5981,12.455 9.0641,19.581 9.6701,22.415 C6.5801,17.708 3.7211,9.182 3.0811,7.205 L3.9381,6.806 C4.0051,7.125 4.0821,7.452 4.1841,7.789 L4.1841,7.789 Z M4.9961,6.974 C4.5481,5.17 4.6911,3.707 4.8331,3.005 C5.6861,3.466 7.5261,4.497 9.0581,5.361 L4.9961,6.974 Z M7.7361,6.961 L8.6711,6.59 L10.0441,8.295 C9.7491,8.9 9.3371,10.086 8.6851,12.407 C8.3301,10.511 7.9971,8.624 7.7361,6.961 L7.7361,6.961 Z M12.8041,12.404 C12.1221,10.055 11.6961,8.865 11.3961,8.268 L12.6121,6.614 L13.7171,7.053 C13.4751,8.661 13.1611,10.506 12.8041,12.404 L12.8041,12.404 Z M16.3911,3.005 C16.5311,3.707 16.6751,5.17 16.2261,6.974 L12.1661,5.361 C13.6971,4.497 15.5371,3.466 16.3911,3.005 L16.3911,3.005 Z M10.6121,5.819 L11.6521,6.233 L10.7051,7.521 L9.6441,6.204 L10.6121,5.819 Z M17.0381,7.789 C17.1501,7.422 17.2371,7.065 17.3071,6.718 L18.3511,7.205 C17.6591,9.376 14.3371,19.476 11.0531,24.472 C11.1311,24.024 11.2441,23.62 11.3811,23.159 C12.5351,19.275 13.9231,12.326 14.6701,7.431 L16.8801,8.309 L17.0381,7.789 Z M18.8831,4.094 L17.4791,3.636 C17.3961,2.775 17.2191,2.186 17.1121,2.031 L16.9511,1.812 L16.8551,1.807 C15.9631,0.948 14.4171,0 10.5401,0 C6.6311,0 4.6781,1.538 4.3531,1.819 L4.2501,1.832 L4.1111,2.031 C3.9941,2.2 3.7871,2.876 3.7181,3.878 L2.4751,4.253 C0.8331,4.748 0.0001,5.622 0.0001,6.851 L0.0001,24 C0.0001,25.444 1.1751,26.619 2.6191,26.619 L18.7521,26.619 C20.1961,26.619 21.3711,25.444 21.3711,24 L21.3711,6.851 C21.3711,5.984 20.9401,4.804 18.8831,4.094 L18.8831,4.094 Z" id="Fill-1"></path>
            </g>
        </g>
    </g>
</svg>