<?xml version="1.0" encoding="UTF-8" standalone="no"?>
<svg width="25px" height="25px" viewBox="0 0 25 25" version="1.1" xmlns="http://www.w3.org/2000/svg" xmlns:xlink="http://www.w3.org/1999/xlink">
    <!-- Generator: Sketch 40.2 (33826) - http://www.bohemiancoding.com/sketch -->
    <title>sun</title>
    <desc>Created with Sketch.</desc>
    <defs>
        <polygon id="path-1" points="25 12.49985 25 0 0 0 0 12.49985 0 24.9997 25 24.9997 25 12.49985"></polygon>
    </defs>
    <g id="Page-1" stroke="none" stroke-width="1" fill="none" fill-rule="evenodd">
        <g id="A4-Copy" transform="translate(-502.000000, -373.000000)">
            <g id="sun" transform="translate(502.000000, 373.000000)">
                <mask id="mask-2" fill="white">
                    <use xlink:href="#path-1"></use>
                </mask>
                <g id="Clip-2"></g>
                <path d="M12.5,18.5547 C9.161,18.5547 6.445,15.8387 6.445,12.4997 C6.445,9.1607 9.161,6.4457 12.5,6.4457 C15.839,6.4457 18.555,9.1607 18.555,12.4997 C18.555,15.8387 15.839,18.5547 12.5,18.5547 L12.5,18.5547 Z M25,12.9997 L25,11.9997 L19.529,11.9997 C19.418,10.4307 18.795,9.0047 17.823,7.8847 L20.542,5.1647 L19.835,4.4577 L17.116,7.1777 C15.995,6.2047 14.569,5.5817 13,5.4707 L13,-0.0003 L12,-0.0003 L12,5.4707 C10.431,5.5817 9.004,6.2047 7.884,7.1777 L5.164,4.4577 L4.457,5.1647 L7.177,7.8847 C6.205,9.0047 5.582,10.4317 5.471,11.9997 L0,11.9997 L0,12.9997 L5.471,12.9997 C5.582,14.5687 6.205,15.9947 7.177,17.1157 L4.457,19.8347 L5.164,20.5417 L7.884,17.8227 C9.004,18.7957 10.431,19.4187 12,19.5297 L12,24.9997 L13,24.9997 L13,19.5297 C14.569,19.4187 15.995,18.7957 17.116,17.8227 L19.835,20.5417 L20.542,19.8347 L17.823,17.1157 C18.795,15.9957 19.418,14.5687 19.529,12.9997 L25,12.9997 Z" id="Fill-1" fill="#333332" mask="url(#mask-2)"></path>
            </g>
        </g>
    </g>
</svg>