<?xml version="1.0" encoding="UTF-8" standalone="no"?>
<svg width="32px" height="24px" viewBox="0 0 32 24" version="1.1" xmlns="http://www.w3.org/2000/svg" xmlns:xlink="http://www.w3.org/1999/xlink">
    <!-- Generator: Sketch 40.2 (33826) - http://www.bohemiancoding.com/sketch -->
    <title>sunnybit</title>
    <desc>Created with Sketch.</desc>
    <defs></defs>
    <g id="Page-1" stroke="none" stroke-width="1" fill="none" fill-rule="evenodd">
        <g id="A4-Copy" transform="translate(-502.000000, -398.000000)" fill="#333332">
            <g id="sunnybit" transform="translate(502.000000, 398.000000)">
                <path d="M25.8164,13.3193 C25.8114,13.3123 25.8054,13.3073 25.7994,13.3003 C25.6704,13.1383 25.5334,12.9823 25.3884,12.8343 C25.3784,12.8233 25.3684,12.8113 25.3574,12.8003 C25.2134,12.6563 25.0614,12.5193 24.9034,12.3903 C24.8164,12.3193 24.7244,12.2553 24.6344,12.1893 C24.5594,12.1343 24.4854,12.0783 24.4074,12.0263 C24.3054,11.9593 24.2014,11.8973 24.0954,11.8363 C24.0214,11.7933 23.9474,11.7513 23.8714,11.7113 C23.7634,11.6553 23.6554,11.6033 23.5454,11.5543 C23.4614,11.5163 23.3764,11.4813 23.2904,11.4473 C23.1844,11.4063 23.0784,11.3653 22.9704,11.3303 C22.8694,11.2963 22.7664,11.2683 22.6634,11.2403 C22.5644,11.2143 22.4664,11.1853 22.3664,11.1643 C22.2374,11.1363 22.1064,11.1163 21.9744,11.0973 C21.8944,11.0853 21.8164,11.0693 21.7354,11.0603 C21.5204,11.0373 21.3024,11.0233 21.0814,11.0233 L21.0804,11.0233 L21.0804,11.0233 C21.0104,11.0233 20.9424,11.0263 20.8744,11.0323 C20.8414,10.7883 20.7954,10.5483 20.7404,10.3133 C20.7184,10.2173 20.6884,10.1253 20.6624,10.0313 C20.6254,9.8953 20.5874,9.7593 20.5424,9.6273 C20.5034,9.5113 20.4584,9.3983 20.4134,9.2843 C20.3724,9.1803 20.3314,9.0773 20.2854,8.9753 C20.2294,8.8513 20.1704,8.7303 20.1084,8.6093 C20.0654,8.5253 20.0204,8.4433 19.9734,8.3613 C19.9014,8.2343 19.8274,8.1083 19.7484,7.9853 C19.7054,7.9183 19.6584,7.8543 19.6134,7.7893 C19.5244,7.6613 19.4354,7.5323 19.3374,7.4103 C19.3034,7.3663 19.2644,7.3253 19.2284,7.2813 C19.0504,7.0673 18.8594,6.8633 18.6574,6.6693 C18.5734,6.5893 18.4924,6.5063 18.4044,6.4303 C18.3304,6.3653 18.2504,6.3053 18.1724,6.2423 C18.0544,6.1473 17.9364,6.0543 17.8134,5.9673 C17.7854,5.9473 17.7594,5.9233 17.7314,5.9043 C18.7024,5.1563 19.8844,4.7503 21.1234,4.7503 C24.1944,4.7503 26.6934,7.2483 26.6934,10.3193 C26.6934,11.3833 26.3854,12.4273 25.8164,13.3193 L25.8164,13.3193 Z M21.0814,22.1153 L6.0454,22.1153 C3.2634,22.1153 1.0004,19.8513 1.0004,17.0693 C1.0004,14.2873 3.2634,12.0233 6.0454,12.0233 C6.1874,12.0233 6.3234,12.0433 6.4604,12.0613 L7.1674,12.1463 L7.1994,11.6193 C7.4054,8.2463 10.2014,5.6033 13.5634,5.6033 C14.7154,5.6033 15.7974,5.9193 16.7354,6.4633 C16.9044,6.5613 17.0674,6.6673 17.2254,6.7783 C17.2834,6.8193 17.3424,6.8593 17.3984,6.9023 C17.5674,7.0293 17.7304,7.1653 17.8844,7.3083 C17.9574,7.3753 18.0254,7.4473 18.0944,7.5183 C18.1984,7.6243 18.3004,7.7313 18.3964,7.8423 C18.4704,7.9293 18.5414,8.0193 18.6104,8.1103 C18.6844,8.2063 18.7544,8.3053 18.8224,8.4053 C18.8864,8.4983 18.9504,8.5903 19.0084,8.6863 C19.1084,8.8513 19.2004,9.0203 19.2854,9.1943 C19.3284,9.2823 19.3664,9.3733 19.4054,9.4633 C19.4704,9.6153 19.5324,9.7673 19.5864,9.9243 C19.6154,10.0083 19.6404,10.0933 19.6654,10.1783 C19.7124,10.3373 19.7534,10.4983 19.7884,10.6613 C19.8044,10.7363 19.8224,10.8113 19.8364,10.8883 C19.8784,11.1283 19.9114,11.3713 19.9264,11.6193 L19.9594,12.1463 L20.6684,12.0613 C20.8034,12.0433 20.9394,12.0233 21.0804,12.0233 L21.0824,12.0233 C21.3944,12.0233 21.6974,12.0613 21.9944,12.1153 C22.0554,12.1273 22.1174,12.1383 22.1784,12.1513 C22.4714,12.2173 22.7564,12.3023 23.0274,12.4153 C23.0474,12.4243 23.0654,12.4343 23.0854,12.4433 C23.3414,12.5553 23.5854,12.6903 23.8174,12.8413 C23.8614,12.8703 23.9064,12.8973 23.9494,12.9273 C24.1844,13.0903 24.4054,13.2723 24.6084,13.4713 C24.6534,13.5153 24.6924,13.5653 24.7354,13.6113 C24.8844,13.7683 25.0214,13.9363 25.1494,14.1113 C25.2074,14.1923 25.2664,14.2713 25.3204,14.3563 C25.8244,15.1413 26.1264,16.0693 26.1264,17.0693 C26.1264,19.8513 23.8634,22.1153 21.0814,22.1153 L21.0814,22.1153 Z M31.7904,11.1663 L31.7904,10.1663 L27.6854,10.1663 C27.6514,8.6833 27.1254,7.3213 26.2604,6.2363 L29.0194,3.4773 L28.3124,2.7703 L25.5784,5.5043 C24.5204,4.5263 23.1454,3.8903 21.6234,3.7753 L21.6234,0.0003 L20.6234,0.0003 L20.6234,3.7743 C19.2134,3.8803 17.8914,4.4363 16.8214,5.3683 C15.8364,4.8783 14.7294,4.6033 13.5634,4.6033 C9.8494,4.6033 6.7344,7.3863 6.2524,11.0323 C6.1834,11.0263 6.1154,11.0233 6.0454,11.0233 C2.7124,11.0233 0.0004,13.7353 0.0004,17.0693 C0.0004,20.4033 2.7124,23.1153 6.0454,23.1153 L21.0814,23.1153 C24.4144,23.1153 27.1264,20.4033 27.1264,17.0693 C27.1264,16.0313 26.8624,15.0533 26.3994,14.1983 C27.0564,13.3033 27.4764,12.2623 27.6194,11.1663 L31.7904,11.1663 Z" id="Fill-1"></path>
            </g>
        </g>
    </g>
</svg>