<?xml version="1.0" encoding="UTF-8" standalone="no"?>
<svg width="26px" height="17px" viewBox="0 0 26 17" version="1.1" xmlns="http://www.w3.org/2000/svg" xmlns:xlink="http://www.w3.org/1999/xlink">
    <!-- Generator: Sketch 40.2 (33826) - http://www.bohemiancoding.com/sketch -->
    <title>tag+</title>
    <desc>Created with Sketch.</desc>
    <defs>
        <polygon id="path-1" points="25.822 16.9996 25.822 0.297 0.0005 0.297 0.0005 16.9996 25.822 16.9996"></polygon>
    </defs>
    <g id="Page-1" stroke="none" stroke-width="1" fill="none" fill-rule="evenodd">
        <g id="A4-Copy" transform="translate(-193.000000, -419.000000)">
            <g id="tag+" transform="translate(193.000000, 418.000000)">
                <g id="Group-3" transform="translate(0.000000, 0.703100)">
                    <mask id="mask-2" fill="white">
                        <use xlink:href="#path-1"></use>
                    </mask>
                    <g id="Clip-2"></g>
                    <path d="M24.3975,9.9766 C23.7615,10.7716 19.7745,14.8546 19.0955,15.4426 C18.5495,15.9156 18.1845,15.9996 17.4285,15.9996 L2.8205,15.9996 C1.8165,15.9996 1.0005,15.1836 1.0005,14.1806 L1.0005,3.1166 C1.0005,2.1136 1.8165,1.2966 2.8205,1.2966 L17.4935,1.2966 C18.2205,1.2966 18.7095,1.4786 19.1775,1.9226 C19.8285,2.5396 23.6855,6.3996 24.4495,7.3266 C24.9785,7.9676 24.9535,9.2816 24.3975,9.9766 M25.2205,6.6896 C24.4175,5.7156 20.5435,1.8396 19.8665,1.1986 C19.2105,0.5756 18.4785,0.2966 17.4935,0.2966 L2.8205,0.2966 C1.2655,0.2966 0.0005,1.5616 0.0005,3.1166 L0.0005,14.1806 C0.0005,15.7356 1.2655,16.9996 2.8205,16.9996 L17.4285,16.9996 C18.3355,16.9996 18.9735,16.8726 19.7505,16.1986 C20.4805,15.5666 24.5095,11.4376 25.1785,10.6006 C26.0195,9.5476 26.0405,7.6836 25.2205,6.6896" id="Fill-1" fill="#333332" mask="url(#mask-2)"></path>
                </g>
                <path d="M20.8262,8.3723 C20.2852,8.3723 19.8472,8.8103 19.8472,9.3513 C19.8472,9.8923 20.2852,10.3303 20.8262,10.3303 C21.3672,10.3303 21.8052,9.8923 21.8052,9.3513 C21.8052,8.8103 21.3672,8.3723 20.8262,8.3723" id="Fill-4" fill="#333332"></path>
            </g>
        </g>
    </g>
</svg>