<?xml version="1.0" encoding="UTF-8" standalone="no"?>
<svg width="25px" height="25px" viewBox="0 0 25 25" version="1.1" xmlns="http://www.w3.org/2000/svg" xmlns:xlink="http://www.w3.org/1999/xlink">
    <!-- Generator: Sketch 40.2 (33826) - http://www.bohemiancoding.com/sketch -->
    <title>target</title>
    <desc>Created with Sketch.</desc>
    <defs></defs>
    <g id="Page-1" stroke="none" stroke-width="1" fill="none" fill-rule="evenodd">
        <g id="A4-Copy" transform="translate(-133.000000, -476.000000)" fill="#333332">
            <g id="target" transform="translate(133.000000, 476.000000)">
                <path d="M1,12.2744 C1,6.0574 6.058,1.0004 12.274,1.0004 C18.491,1.0004 23.549,6.0574 23.549,12.2744 C23.549,18.4914 18.491,23.5484 12.274,23.5484 C6.058,23.5484 1,18.4914 1,12.2744 M24.549,12.2744 C24.549,5.5054 19.043,0.0004 12.274,0.0004 C5.506,0.0004 0,5.5054 0,12.2744 C0,15.8564 1.551,19.0744 4.006,21.3194 L1.703,23.6814 L2.42,24.3784 L4.771,21.9674 C6.849,23.5784 9.448,24.5484 12.274,24.5484 C15.081,24.5484 17.663,23.5914 19.732,22.0014 L22.134,24.4024 L22.841,23.6954 L20.502,21.3564 C22.98,19.1094 24.549,15.8754 24.549,12.2744" id="Fill-1"></path>
                <path d="M12.2744,19.248 C8.4294,19.248 5.3014,16.12 5.3014,12.274 C5.3014,8.43 8.4294,5.302 12.2744,5.302 C16.1194,5.302 19.2474,8.43 19.2474,12.274 C19.2474,16.12 16.1194,19.248 12.2744,19.248 M12.2744,4.302 C7.8784,4.302 4.3014,7.878 4.3014,12.274 C4.3014,16.671 7.8784,20.248 12.2744,20.248 C16.6704,20.248 20.2474,16.671 20.2474,12.274 C20.2474,7.878 16.6704,4.302 12.2744,4.302" id="Fill-3"></path>
                <path d="M12.2744,15.5107 C10.4904,15.5107 9.0384,14.0587 9.0384,12.2747 C9.0384,10.4897 10.4904,9.0377 12.2744,9.0377 C14.0584,9.0377 15.5104,10.4897 15.5104,12.2747 C15.5104,14.0587 14.0584,15.5107 12.2744,15.5107 M12.2744,8.0377 C9.9384,8.0377 8.0384,9.9387 8.0384,12.2747 C8.0384,14.6107 9.9384,16.5107 12.2744,16.5107 C14.6104,16.5107 16.5104,14.6107 16.5104,12.2747 C16.5104,9.9387 14.6104,8.0377 12.2744,8.0377" id="Fill-5"></path>
            </g>
        </g>
    </g>
</svg>