<?xml version="1.0" encoding="UTF-8" standalone="no"?>
<svg width="11.3px" height="8.5px" viewBox="0 0 11 8" version="1.1" xmlns="http://www.w3.org/2000/svg" xmlns:xlink="http://www.w3.org/1999/xlink">
    <!-- Generator: Sketch 41 (35326) - http://www.bohemiancoding.com/sketch -->
    <title>thick </title>
    <desc>Created with Sketch.</desc>
    <defs></defs>
    <g id="Orders" stroke="none" stroke-width="1" fill="none" fill-rule="evenodd">
        <g id="Ordered_64_NoCall_NewUser" transform="translate(-609.000000, -781.000000)" fill="#FFFFFF">
            <g id="Status" transform="translate(490.000000, 659.000000)">
                <g id="Group-2" transform="translate(25.000000, 26.000000)">
                    <g id="Status" transform="translate(61.000000, 52.000000)">
                        <g id="Icon" transform="translate(23.000000, 33.000000)">
                            <path d="M20.1354026,12.1269431 L14.3645427,18.5515744 C14.2295096,18.6871632 14.050299,18.7494007 13.8730333,18.7424545 C13.6960454,18.7494007 13.5168348,18.6871632 13.3815238,18.5515744 L10.192964,15.3546792 C9.93567867,15.0968382 9.93567867,14.6789579 10.192964,14.4213947 C10.4505272,14.1635537 10.8672961,14.1635537 11.1248592,14.4213947 L13.8502499,17.1537315 L19.2035073,11.1933808 C19.4607926,10.9355397 19.8781172,10.9355397 20.1354026,11.1933808 C20.3929657,11.4512218 20.3929657,11.8691021 20.1354026,12.1269431 L20.1354026,12.1269431 Z" id="thick-"></path>
                        </g>
                    </g>
                </g>
            </g>
        </g>
    </g>
</svg>