<?xml version="1.0" encoding="UTF-8" standalone="no"?>
<svg width="26px" height="50px" viewBox="0 0 26 50" version="1.1" xmlns="http://www.w3.org/2000/svg" xmlns:xlink="http://www.w3.org/1999/xlink">
    <!-- Generator: Sketch 40.2 (33826) - http://www.bohemiancoding.com/sketch -->
    <title>thunderr</title>
    <desc>Created with Sketch.</desc>
    <defs></defs>
    <g id="Page-1" stroke="none" stroke-width="1" fill="none" fill-rule="evenodd">
        <g id="A4-Copy" transform="translate(-436.000000, -316.000000)" fill="#333332">
            <g id="rain" transform="translate(461.000000, 359.000000)">
                <g id="Group-3" transform="translate(0.000000, 0.833000)">
                    <path d="M21.0801,17.6787 L6.0461,17.6787 C3.2641,17.6787 1.0001,15.4147 1.0001,12.6327 C1.0001,9.8507 3.2641,7.5867 6.0461,7.5867 C6.1861,7.5867 6.3221,7.6067 6.4571,7.6247 L7.1671,7.7097 L7.1991,7.1827 C7.4051,3.8097 10.2001,1.1667 13.5621,1.1667 C16.9251,1.1667 19.7211,3.8097 19.9271,7.1827 L19.9591,7.7097 L20.6661,7.6247 C20.8031,7.6067 20.9381,7.5867 21.0801,7.5867 C23.8621,7.5867 26.1261,9.8507 26.1261,12.6327 C26.1261,15.4147 23.8621,17.6787 21.0801,17.6787 M21.0801,6.5867 C21.0111,6.5867 20.9421,6.5897 20.8741,6.5957 C20.3921,2.9497 17.2761,0.1667 13.5621,0.1667 C9.8501,0.1667 6.7341,2.9497 6.2521,6.5957 C6.1841,6.5897 6.1151,6.5867 6.0461,6.5867 C2.7121,6.5867 0.0001,9.2987 0.0001,12.6327 C0.0001,15.9667 2.7121,18.6787 6.0461,18.6787 L21.0801,18.6787 C24.4141,18.6787 27.1261,15.9667 27.1261,12.6327 C27.1261,9.2987 24.4141,6.5867 21.0801,6.5867" id="Fill-1"></path>
                </g>
            </g>
            <path d="M444.900222,316 L436,338.995655 L442.942044,338.995655 L436.787153,366.0004 L461.475727,330.237768 L453.418729,330.237768 L461.244972,316 L444.900222,316 Z M446.377482,318.156584 L457.596032,318.156584 L449.769789,332.394352 L457.365278,332.394352 L441.380677,355.549594 L445.648557,336.839071 L439.144299,336.839071 L446.377482,318.156584 Z" id="thunderr"></path>
        </g>
    </g>
</svg>