<?xml version="1.0" encoding="UTF-8" standalone="no"?>
<svg width="25px" height="21px" viewBox="0 0 25 21" version="1.1" xmlns="http://www.w3.org/2000/svg" xmlns:xlink="http://www.w3.org/1999/xlink">
    <!-- Generator: Sketch 40.2 (33826) - http://www.bohemiancoding.com/sketch -->
    <title>todo</title>
    <desc>Created with Sketch.</desc>
    <defs></defs>
    <g id="Page-1" stroke="none" stroke-width="1" fill="none" fill-rule="evenodd">
        <g id="A4-Copy" transform="translate(-116.000000, -764.000000)" fill="#333332">
            <g id="todo" transform="translate(116.000000, 764.000000)">
                <polygon id="Fill-1" points="2.3166 18.9454 0.7306 17.2484 -0.0004 17.9324 2.3106 20.4044 6.1116 16.3954 5.3876 15.7084"></polygon>
                <polygon id="Fill-2" points="5.3874 0.0004 2.3164 3.2374 0.7304 1.5414 0.0004 2.2244 2.3104 4.6964 6.1114 0.6874"></polygon>
                <polygon id="Fill-3" points="2.9151 9.7294 1.2101 8.1024 0.5191 8.8244 2.1771 10.4084 0.4801 11.9934 1.1631 12.7244 2.9081 11.0934 4.6141 12.7214 5.3041 11.9984 3.6471 10.4164 5.3431 8.8294 4.6601 8.0984"></polygon>
                <polygon id="Fill-4" points="9.653 3.5533 24.259 3.5533 24.259 2.5533 9.653 2.5533"></polygon>
                <polygon id="Fill-5" points="9.653 11.1583 24.259 11.1583 24.259 10.1573 9.653 10.1573"></polygon>
                <polygon id="Fill-6" points="9.653 18.6263 24.259 18.6263 24.259 17.6263 9.653 17.6263"></polygon>
            </g>
        </g>
    </g>
</svg>