<?xml version="1.0" encoding="UTF-8" standalone="no"?>
<svg width="23px" height="36px" viewBox="0 0 23 36" version="1.1" xmlns="http://www.w3.org/2000/svg" xmlns:xlink="http://www.w3.org/1999/xlink">
    <!-- Generator: Sketch 40.2 (33826) - http://www.bohemiancoding.com/sketch -->
    <title>trashout</title>
    <desc>Created with Sketch.</desc>
    <defs>
        <polygon id="path-1" points="0.936 20 18.323 20 18.323 10.38215 18.323 0.7643 0.936 0.7643 0.936 20"></polygon>
        <polygon id="path-3" points="0 35.1182 22.323 35.1182 22.323 0.0002 0 0.0002"></polygon>
    </defs>
    <g id="Page-1" stroke="none" stroke-width="1" fill="none" fill-rule="evenodd">
        <g id="A4-Copy" transform="translate(-368.000000, -699.000000)">
            <g id="trashout" transform="translate(368.000000, 699.000000)">
                <g id="Group-3" transform="translate(4.000000, 15.118200)">
                    <mask id="mask-2" fill="white">
                        <use xlink:href="#path-1"></use>
                    </mask>
                    <g id="Clip-2"></g>
                    <path d="M15.542,18.6133 C15.542,18.8233 15.365,19.0003 15.155,19.0003 L4.151,19.0003 C3.938,19.0003 3.765,18.8263 3.762,18.5623 L2.043,1.7643 L17.219,1.7643 L15.542,18.6133 Z M0.936,0.7643 L2.765,18.6133 C2.765,19.3783 3.387,20.0003 4.151,20.0003 L15.155,20.0003 C15.92,20.0003 16.542,19.3783 16.539,18.6633 L18.323,0.7643 L0.936,0.7643 Z" id="Fill-1" fill="#333332" mask="url(#mask-2)"></path>
                </g>
                <path d="M2.7095,7.7205 L8.5895,2.1985 C8.6365,2.1535 8.6825,2.1505 8.6955,2.1505 L8.6955,2.1445 L11.3975,5.0215 L5.3505,10.7005 L2.6555,7.8365 C2.6525,7.8255 2.6545,7.7725 2.7095,7.7205 L2.7095,7.7205 Z M16.8015,0.0005 L12.1535,4.3655 L9.4185,1.4535 C9.2285,1.2515 8.9655,1.1505 8.6955,1.1505 C8.4175,1.1505 8.1315,1.2565 7.9045,1.4695 L2.0245,6.9915 C1.5785,7.4115 1.5285,8.0905 1.9145,8.5015 L4.6495,11.4135 L0.0005,15.7795 L0.6855,16.5075 L17.4875,0.7285 L16.8015,0.0005 Z" id="Fill-4" fill="#333332"></path>
                <mask id="mask-4" fill="white">
                    <use xlink:href="#path-3"></use>
                </mask>
                <g id="Clip-7"></g>
                <polygon id="Fill-6" fill="#333332" mask="url(#mask-4)" points="9.864 30.7772 10.764 30.7772 10.764 19.1602 9.864 19.1602"></polygon>
                <polygon id="Fill-8" fill="#333332" mask="url(#mask-4)" points="13.223 30.7772 14.123 30.7772 14.123 19.1602 13.223 19.1602"></polygon>
                <polygon id="Fill-9" fill="#333332" mask="url(#mask-4)" points="16.581 30.7772 17.481 30.7772 17.481 19.1602 16.581 19.1602"></polygon>
                <polygon id="Fill-10" fill="#333332" mask="url(#mask-4)" points="14.1777 9.7637 16.8537 12.4397 17.5607 11.7327 13.6777 7.8497 9.7957 11.7327 10.5027 12.4397 13.1777 9.7637 13.1777 14.0367 14.1777 14.0367"></polygon>
            </g>
        </g>
    </g>
</svg>