<?xml version="1.0" encoding="UTF-8" standalone="no"?>
<svg width="28px" height="31px" viewBox="0 0 28 31" version="1.1" xmlns="http://www.w3.org/2000/svg" xmlns:xlink="http://www.w3.org/1999/xlink">
    <!-- Generator: Sketch 40.2 (33826) - http://www.bohemiancoding.com/sketch -->
    <title>tshirts</title>
    <desc>Created with Sketch.</desc>
    <defs></defs>
    <g id="Page-1" stroke="none" stroke-width="1" fill="none" fill-rule="evenodd">
        <g id="A4-Copy" transform="translate(-544.000000, -68.000000)" fill="#333332">
            <g id="tshirts" transform="translate(544.000000, 68.000000)">
                <path d="M1,4.2431 C1.077,3.9541 1.256,3.8821 1.525,3.8021 L4.807,2.8911 C5.69,7.3721 9.231,9.0171 9.97,9.3121 L10.212,9.3961 L10.483,9.3111 C11.235,9.0101 14.808,7.3431 15.66,2.8011 L19.007,3.7961 C19.082,3.8191 19.126,3.8411 19.145,3.8441 L19.008,22.6231 L19.001,22.6241 L1.032,22.7091 L1,4.2431 Z M6.382,1.7101 L6.586,1.6061 C7.245,1.2771 8.926,1.0001 10.256,1.0001 C12.706,1.0001 13.842,1.5201 13.863,1.5301 L14.023,1.6011 C14.182,1.6811 14.379,1.7811 14.763,2.3061 L14.828,2.3621 C14.178,6.5051 10.97,8.1221 10.226,8.4431 C9.49,8.1261 6.358,6.5441 5.652,2.5201 L5.703,2.4321 C6.014,1.8971 6.365,1.7191 6.382,1.7101 L6.382,1.7101 Z M19.981,22.7141 L20.144,3.8431 C20.156,3.5721 20.064,3.0821 19.296,2.8391 L15.715,1.8131 L15.531,1.6631 C15.067,1.0411 14.755,0.8501 14.454,0.6991 L14.286,0.6241 C14.233,0.5981 12.968,0.0001 10.256,0.0001 C8.934,0.0001 7.032,0.2661 6.136,0.7141 L5.948,0.8091 C5.889,0.8371 5.375,1.0851 4.92,1.7971 L1.25,2.8401 C0.939,2.9321 0.211,3.1481 0.011,4.0801 L0,4.1321 L0.033,22.7331 C0.057,23.2321 0.486,23.6241 1.013,23.6241 L19.001,23.6241 C19.527,23.6241 19.957,23.2321 19.981,22.7141 L19.981,22.7141 Z" id="Fill-1"></path>
                <path d="M23.8604,25.9765 L24.0234,7.1045 C24.0344,6.8315 23.9414,6.3415 23.1814,6.1035 L21.2344,5.5135 L21.2344,6.5585 L22.8874,7.0595 C22.9624,7.0825 23.0064,7.1025 23.0234,7.1055 L22.8804,25.8855 L4.9114,25.9655 L4.8944,24.7585 L3.8944,24.7585 L3.9124,25.9965 C3.9354,26.4955 4.3654,26.8855 4.8914,26.8855 L22.8804,26.8855 C23.4064,26.8855 23.8364,26.4955 23.8604,25.9765" id="Fill-3"></path>
                <path d="M26.917,9.4033 L25.11,8.8563 L25.11,9.9003 L26.623,10.3593 C26.697,10.3823 26.741,10.4023 26.759,10.4053 L26.615,29.1863 L8.646,29.2653 L8.629,28.0243 L7.629,28.0243 L7.646,29.2943 C7.668,29.7863 8.107,30.1863 8.626,30.1863 L26.615,30.1863 C27.142,30.1863 27.571,29.7953 27.596,29.2763 L27.759,10.4043 C27.77,10.1323 27.677,9.6413 26.917,9.4033" id="Fill-5"></path>
            </g>
        </g>
    </g>
</svg>