<?xml version="1.0" encoding="UTF-8" standalone="no"?>
<svg width="26px" height="26px" viewBox="0 0 26 26" version="1.1" xmlns="http://www.w3.org/2000/svg" xmlns:xlink="http://www.w3.org/1999/xlink">
    <!-- Generator: Sketch 40.2 (33826) - http://www.bohemiancoding.com/sketch -->
    <title>twitter</title>
    <desc>Created with Sketch.</desc>
    <defs>
        <polygon id="path-1" points="12.53605 26 25.072 26 25.072 0.928 12.53605 0.928 0.0001 0.928 0.0001 26 12.53605 26"></polygon>
        <polygon id="path-3" points="12.53605 26 25.072 26 25.072 0.928 12.53605 0.928 0.0001 0.928 0.0001 26 12.53605 26"></polygon>
    </defs>
    <g id="Page-1" stroke="none" stroke-width="1" fill="none" fill-rule="evenodd">
        <g id="A4-Copy" transform="translate(-298.000000, -587.000000)">
            <g id="twitter" transform="translate(298.000000, 586.000000)">
                <path d="M17.7627,10.3755 C17.7627,10.3755 18.5877,9.7675 18.8047,9.0735 C18.8047,9.0735 17.6327,9.6375 17.2417,9.6375 C17.2417,9.6375 15.6407,8.1885 13.8987,9.3335 C12.3797,10.3325 13.0747,12.0685 13.0747,12.0685 C13.0747,12.0685 11.8587,12.0255 10.7727,11.5475 C9.6877,11.0705 7.9507,9.8975 7.7777,9.2905 C7.7777,9.2905 6.6487,11.2005 8.5157,12.7195 C8.5157,12.7195 7.6907,12.5895 7.4297,12.3295 C7.4297,12.3295 7.3437,14.2395 9.4267,14.8475 C9.4267,14.8475 8.6457,15.0205 8.2987,14.9345 C8.2987,14.9345 8.7757,16.4975 10.5987,16.6705 C10.5987,16.6705 8.7757,18.1905 6.9087,17.6905 C6.9087,17.6905 10.5127,20.0575 14.2677,17.8865 C17.6747,15.9175 17.8497,12.8715 17.9147,11.3085 C17.9147,11.3085 18.8477,10.5055 19.0647,10.0715 C19.0647,10.0715 18.2407,10.5495 17.7627,10.3755" id="Fill-1" fill="#333332"></path>
                <g id="Group-5" transform="translate(0.000000, 0.072300)">
                    <mask id="mask-2" fill="white">
                        <use xlink:href="#path-1"></use>
                    </mask>
                    <g id="Clip-4"></g>
                    <path d="M12.5361,25 C6.1751,25 1.0001,19.825 1.0001,13.464 C1.0001,7.103 6.1751,1.928 12.5361,1.928 C18.8971,1.928 24.0721,7.103 24.0721,13.464 C24.0721,19.825 18.8971,25 12.5361,25 M12.5361,0.928 C5.6241,0.928 0.0001,6.552 0.0001,13.464 C0.0001,20.376 5.6241,26 12.5361,26 C19.4481,26 25.0721,20.376 25.0721,13.464 C25.0721,6.552 19.4481,0.928 12.5361,0.928" id="Fill-3" fill="#333332" mask="url(#mask-2)"></path>
                </g>
            </g>
            <g id="linked" transform="translate(273.000000, 562.000000)">
                <g id="Group-5" transform="translate(0.000000, 0.072300)">
                    <mask id="mask-4" fill="white">
                        <use xlink:href="#path-3"></use>
                    </mask>
                    <g id="Clip-4"></g>
                    <path d="M12.5361,25 C6.1751,25 1.0001,19.825 1.0001,13.464 C1.0001,7.103 6.1751,1.928 12.5361,1.928 C18.8971,1.928 24.0721,7.103 24.0721,13.464 C24.0721,19.825 18.8971,25 12.5361,25 M12.5361,0.928 C5.6241,0.928 0.0001,6.552 0.0001,13.464 C0.0001,20.376 5.6241,26 12.5361,26 C19.4481,26 25.0721,20.376 25.0721,13.464 C25.0721,6.552 19.4481,0.928 12.5361,0.928" id="Fill-3" fill="#333332" mask="url(#mask-4)"></path>
                </g>
            </g>
        </g>
    </g>
</svg>