<?xml version="1.0" encoding="UTF-8" standalone="no"?>
<svg width="42px" height="39px" viewBox="0 0 42 39" version="1.1" xmlns="http://www.w3.org/2000/svg" xmlns:xlink="http://www.w3.org/1999/xlink">
    <!-- Generator: Sketch 40.2 (33826) - http://www.bohemiancoding.com/sketch -->
    <title>umbrella</title>
    <desc>Created with Sketch.</desc>
    <defs></defs>
    <g id="Page-1" stroke="none" stroke-width="1" fill="none" fill-rule="evenodd">
        <g id="A4-Copy" transform="translate(-481.000000, -281.000000)" fill="#333332">
            <g id="umbrella" transform="translate(481.000000, 281.000000)">
                <path d="M35.3451662,18.7869255 C32.6375777,18.7869255 30.0918106,19.9402555 28.270069,21.9039428 C26.4516639,19.9402555 23.9042285,18.7869255 21.19664,18.7869255 C18.4890515,18.7869255 15.9416161,19.9402555 14.123211,21.9039428 C12.3014693,19.9402555 9.75570219,18.7869255 7.04811368,18.7869255 C5.36316951,18.7869255 3.67488881,19.2929785 2.14676122,20.2378349 C3.85005627,12.3545045 9.66895259,3.84575328 21.1666113,3.84575328 C29.3594438,3.84575328 38.1011343,9.43419217 40.2682061,20.1537729 C38.7967994,19.2711224 37.1035139,18.7869255 35.3451662,18.7869255 M41.8752807,22.9656521 C41.0179611,12.4731732 33.4438722,3.04074199 22.0580086,2.45256503 L22.0580086,0.000166151685 L20.4093171,0.000166151685 L20.4093171,2.42265772 C8.72504036,2.69016194 1.74612918,11.5394007 0.239225139,21.5234555 C0.0825994449,22.5668881 0.000164869151,24.7218754 0.000164869151,24.7218754 C0.000164869151,24.7218754 1.02070492,23.2730327 1.645559,22.7031324 C3.02221642,21.4520103 4.91491427,20.4850074 6.99061689,20.4850074 C10.0110197,20.4850074 12.6208984,22.2030159 13.9827176,24.7218754 C15.2571561,22.3625215 17.6329206,20.7259274 20.4093171,20.5248838 L20.4093171,35.2376156 C20.4093171,36.3674471 19.4975907,37.2846044 18.3764805,37.2846044 C17.257019,37.2846044 16.3452925,36.3674471 16.3452925,35.2376156 L16.3452925,33.65419 L14.696601,33.65419 L14.696601,35.2376156 C14.696601,37.2829428 16.3469412,38.9461212 18.3764805,38.9461212 C20.4076684,38.9461212 22.0580086,37.2829428 22.0580086,35.2376156 L22.0580086,20.5614372 C24.6118318,20.9170018 26.7683203,22.5103965 27.9636216,24.7218754 C29.3254408,22.2030159 31.9353195,20.4850074 34.9557224,20.4850074 C37.7222267,20.4850074 40.1441546,21.9255426 41.5785162,24.1054527 C41.7087628,24.3048347 41.9461744,24.7218754 41.9461744,24.7218754 C41.9461744,24.7218754 41.9230927,23.54386 41.8752807,22.9656521" id="Fill-1"></path>
            </g>
        </g>
    </g>
</svg>