<?xml version="1.0" encoding="UTF-8" standalone="no"?>
<svg width="27px" height="25px" viewBox="0 0 27 25" version="1.1" xmlns="http://www.w3.org/2000/svg" xmlns:xlink="http://www.w3.org/1999/xlink">
    <!-- Generator: Sketch 40.2 (33826) - http://www.bohemiancoding.com/sketch -->
    <title>unicorn</title>
    <desc>Created with Sketch.</desc>
    <defs>
        <polygon id="path-1" points="26.072 25.9997283 26.072 0.93555945 0.0002 0.93555945 0.0002 25.9997283 26.072 25.9997283"></polygon>
    </defs>
    <g id="Page-1" stroke="none" stroke-width="1" fill="none" fill-rule="evenodd">
        <g id="A4-Copy" transform="translate(-154.000000, -790.000000)">
            <g id="unicorn" transform="translate(154.000000, 789.000000)">
                <g id="Group-3" transform="translate(0.000000, 0.064500)">
                    <mask id="mask-2" fill="white">
                        <use xlink:href="#path-1"></use>
                    </mask>
                    <g id="Clip-2"></g>
                    <path d="M24.2842,15.4087 C23.9982,15.8777 23.7032,16.3617 23.5352,16.8787 C23.3602,17.4197 23.3092,18.0007 23.2622,18.5627 C23.1962,19.3267 23.1342,20.0487 22.7742,20.5427 C22.4112,21.0427 21.7412,21.3237 21.0322,21.6227 C20.5132,21.8407 19.9772,22.0657 19.5232,22.3967 C19.0752,22.7227 18.7002,23.1597 18.3372,23.5817 C17.8332,24.1687 17.3562,24.7227 16.7572,24.9177 C16.1932,25.1007 15.4952,24.9387 14.7572,24.7667 C14.1972,24.6377 13.6192,24.5037 13.0362,24.5037 C12.4532,24.5037 11.8762,24.6377 11.3172,24.7667 C10.5782,24.9387 9.8792,25.0997 9.3152,24.9177 C8.7172,24.7227 8.2402,24.1687 7.7362,23.5827 C7.3742,23.1597 6.9982,22.7227 6.5502,22.3967 C6.0962,22.0657 5.5592,21.8407 5.0412,21.6227 C4.3322,21.3237 3.6622,21.0427 3.2992,20.5427 C2.9392,20.0487 2.8772,19.3277 2.8112,18.5647 C2.7632,18.0027 2.7132,17.4197 2.5372,16.8797 C2.3692,16.3617 2.0732,15.8767 1.7882,15.4067 C1.3832,14.7417 1.0002,14.1137 1.0002,13.4677 C1.0002,12.8197 1.3832,12.1917 1.7882,11.5267 C2.0742,11.0577 2.3692,10.5727 2.5372,10.0547 C2.7132,9.5137 2.7632,8.9317 2.8112,8.3687 C2.8772,7.6057 2.9392,6.8857 3.2982,6.3917 C3.6622,5.8907 4.3322,5.6097 5.0412,5.3117 C5.5592,5.0947 6.0952,4.8687 6.5502,4.5377 C6.9982,4.2117 7.3742,3.7747 7.7362,3.3517 C8.2402,2.7657 8.7172,2.2117 9.3152,2.0167 C9.4932,1.9597 9.6822,1.9357 9.8842,1.9357 C10.3222,1.9357 10.8102,2.0497 11.3172,2.1677 C11.8762,2.2977 12.4542,2.4307 13.0362,2.4307 C13.6192,2.4307 14.1972,2.2967 14.7562,2.1667 C15.4942,1.9957 16.1902,1.8317 16.7572,2.0167 C17.3562,2.2117 17.8332,2.7657 18.3382,3.3527 C18.7002,3.7747 19.0752,4.2117 19.5232,4.5377 C19.9772,4.8677 20.5132,5.0937 21.0312,5.3107 C21.7402,5.6097 22.4102,5.8907 22.7742,6.3907 C23.1342,6.8857 23.1952,7.6057 23.2622,8.3697 C23.3092,8.9317 23.3602,9.5137 23.5352,10.0547 C23.7032,10.5717 23.9982,11.0567 24.2842,11.5257 C24.6892,12.1907 25.0722,12.8197 25.0722,13.4677 C25.0722,14.1147 24.6892,14.7427 24.2842,15.4087 M25.1382,11.0057 C24.8712,10.5667 24.6182,10.1517 24.4862,9.7467 C24.3462,9.3147 24.3042,8.8137 24.2582,8.2837 C24.1822,7.4177 24.1052,6.5217 23.5832,5.8037 C23.0552,5.0777 22.2222,4.7277 21.4192,4.3887 C20.9312,4.1847 20.4722,3.9917 20.1112,3.7287 C19.7582,3.4707 19.4362,3.0967 19.0972,2.7017 C18.5242,2.0357 17.9322,1.3467 17.0652,1.0657 C16.2382,0.7967 15.3692,0.9977 14.5292,1.1927 C14.0032,1.3147 13.5052,1.4307 13.0362,1.4307 C12.5682,1.4307 12.0702,1.3157 11.5442,1.1927 C10.7072,0.9987 9.8392,0.7967 9.0072,1.0657 C8.1412,1.3467 7.5502,2.0357 6.9782,2.7007 C6.6382,3.0967 6.3152,3.4707 5.9622,3.7287 C5.6002,3.9917 5.1402,4.1847 4.6532,4.3897 C3.8492,4.7277 3.0172,5.0777 2.4892,5.8047 C1.9672,6.5217 1.8892,7.4177 1.8152,8.2827 C1.7692,8.8127 1.7262,9.3137 1.5862,9.7467 C1.4542,10.1527 1.2012,10.5677 0.9332,11.0077 C0.4742,11.7607 0.0002,12.5397 0.0002,13.4677 C0.0002,14.3937 0.4742,15.1737 0.9332,15.9277 C1.2012,16.3667 1.4542,16.7817 1.5862,17.1877 C1.7262,17.6197 1.7692,18.1207 1.8152,18.6507 C1.8892,19.5167 1.9672,20.4127 2.4902,21.1307 C3.0172,21.8557 3.8482,22.2057 4.6532,22.5447 C5.1402,22.7487 5.6002,22.9427 5.9622,23.2057 C6.3152,23.4637 6.6382,23.8377 6.9782,24.2337 C7.5502,24.8987 8.1412,25.5877 9.0072,25.8687 C9.2952,25.9627 9.5872,25.9987 9.8812,25.9987 C10.4352,25.9987 10.9952,25.8687 11.5432,25.7417 C12.0702,25.6187 12.5682,25.5037 13.0362,25.5037 C13.5052,25.5037 14.0032,25.6187 14.5302,25.7417 C15.3692,25.9367 16.2392,26.1397 17.0652,25.8687 C17.9312,25.5877 18.5232,24.8987 19.0962,24.2327 C19.4352,23.8377 19.7582,23.4637 20.1112,23.2057 C20.4722,22.9427 20.9322,22.7487 21.4202,22.5447 C22.2242,22.2057 23.0552,21.8557 23.5832,21.1307 C24.1062,20.4117 24.1832,19.5157 24.2582,18.6487 C24.3042,18.1197 24.3462,17.6187 24.4862,17.1867 C24.6182,16.7827 24.8702,16.3677 25.1382,15.9297 C25.5972,15.1747 26.0722,14.3947 26.0722,13.4677 C26.0722,12.5397 25.5972,11.7597 25.1382,11.0057" id="Fill-1" fill="#333332" mask="url(#mask-2)"></path>
                </g>
                <path d="M20.8682,12.2573 C20.9122,12.0403 20.5562,11.7253 20.5452,11.6923 C20.5642,11.6633 20.6902,11.5083 20.7592,11.3573 C20.8452,11.1643 20.8762,11.0183 20.8762,11.0183 L20.8572,10.9603 C20.8572,10.9603 20.5962,10.9393 20.3512,11.0003 C20.1392,11.0533 20.0792,11.0793 20.0792,11.0793 L19.5192,10.4643 L19.4002,10.4803 C19.4002,10.4803 19.2772,10.7173 19.3842,11.0393 C19.3842,11.0393 18.7512,11.3913 17.7202,11.3913 C17.7202,10.7113 17.3072,10.9863 16.1762,10.3333 C15.7692,10.1013 15.9982,9.7033 15.9982,9.7033 C13.8222,8.9573 10.8072,7.6273 10.8072,7.6273 L10.6932,7.7973 C10.6932,7.7973 11.6682,8.7053 13.2232,10.2453 L13.1202,10.4863 C12.2742,10.0763 11.8392,9.5343 11.8392,9.5343 L11.7292,9.6753 C11.7292,9.6753 12.3322,11.2173 13.5092,12.4603 C14.6862,13.7033 15.6262,13.6013 15.6262,13.6013 L15.6282,13.7703 C13.0462,13.7703 11.7732,11.5943 11.7732,11.5943 C11.7732,11.5943 11.0332,11.6473 10.3802,11.8323 C9.7282,12.0183 9.4202,12.2363 9.4202,12.2363 C9.4202,12.2363 8.3772,14.8333 6.9822,15.6903 C5.4942,16.6033 3.7482,16.5923 3.7482,16.5923 L3.7482,16.7103 C3.7482,16.7103 5.9512,16.9393 7.3622,16.0153 C8.5852,15.2153 9.1392,14.0043 9.1392,14.0043 L9.2082,14.0333 C9.2082,14.0333 9.0832,14.5303 8.7402,15.0773 C8.3972,15.6233 8.0922,16.0983 8.0922,16.0983 C8.0922,16.0983 8.0432,16.4083 8.0292,16.7103 C8.0142,17.0133 8.0342,17.4053 8.0692,17.4923 C8.1052,17.5783 8.4132,17.8923 8.4132,17.8923 L9.0132,17.8923 C9.3002,17.8923 8.8232,17.4363 8.7912,17.3143 C8.7602,17.1943 8.8372,16.4773 8.8372,16.4773 C8.8372,16.4773 9.5852,15.6883 10.1762,15.2933 C10.7642,14.8993 11.2102,14.7203 11.2102,14.7203 L11.2532,14.8003 C11.2532,14.8003 11.1002,14.8723 10.7852,15.1033 C10.4712,15.3353 10.2792,15.5113 10.2792,15.5113 C10.2792,15.5113 10.2242,15.6863 10.2242,16.0653 C10.2242,16.4453 10.1962,16.5863 10.3392,16.7493 C10.4832,16.9113 11.2432,17.8923 11.2432,17.8923 L11.7272,17.8923 C11.9582,17.8923 12.0602,17.4453 12.0602,17.4453 C12.0602,17.4453 11.7912,17.2823 11.5442,17.2823 C11.5442,17.2823 11.1482,16.5973 11.1202,16.5123 C11.0942,16.4273 11.2642,16.0043 11.4442,15.7003 C11.6382,15.3723 11.8372,15.1783 11.8372,15.1783 C11.8372,15.1783 12.0042,15.2373 12.2132,15.2573 C12.4212,15.2783 12.5972,15.2643 12.5972,15.2643 C12.5972,14.5303 14.4832,15.1453 14.4832,15.1453 C14.4832,15.1453 14.2412,15.4103 13.9672,15.9733 C13.8042,16.3143 13.7662,16.4473 13.7092,16.6743 C13.6572,16.8753 13.6422,17.0053 13.6422,17.0053 L14.1682,17.9313 L15.1452,17.9313 C15.3482,17.9313 15.4322,17.5253 15.4322,17.5253 C15.4322,17.5253 15.1582,17.3453 14.8812,17.3453 L14.7192,16.9063 C14.7192,16.9063 14.8912,16.2973 15.8002,15.5633 C16.7082,14.8283 17.3942,14.4993 17.3942,14.4993 L17.4962,14.7003 L16.9452,15.5553 C18.1802,16.2023 18.6492,17.9263 18.6492,17.9263 C18.6492,17.9263 19.3342,17.9313 19.6432,17.9313 C19.9542,17.9313 19.9162,17.2903 19.9162,17.2903 C19.9162,17.2903 19.5332,17.1033 19.2012,17.1033 L18.3402,14.9023 C18.3402,14.9023 18.3082,14.6033 18.3302,14.3393 C18.3542,14.0753 18.4312,13.8623 18.4312,13.8623 C18.4312,13.8623 19.0962,13.4283 19.4892,13.7083 C19.8832,13.9893 20.1042,13.9983 20.1042,13.9983 L20.3212,13.8723 C20.3212,13.8723 19.5952,13.3713 20.1312,13.1163 C20.5202,12.9313 20.8952,13.4173 20.8952,13.4173 C21.1292,13.1433 21.0982,12.9703 21.0982,12.9703 C21.0982,12.9703 20.8002,12.6013 20.8682,12.2573" id="Fill-4" fill="#333332"></path>
            </g>
        </g>
    </g>
</svg>