<?xml version="1.0" encoding="UTF-8" standalone="no"?>
<svg width="27px" height="24px" viewBox="0 0 27 24" version="1.1" xmlns="http://www.w3.org/2000/svg" xmlns:xlink="http://www.w3.org/1999/xlink">
    <!-- Generator: Sketch 40.2 (33826) - http://www.bohemiancoding.com/sketch -->
    <title>unlock</title>
    <desc>Created with Sketch.</desc>
    <defs>
        <polygon id="path-1" points="26.278 23.9999 26.278 0.157 0 0.157 0 23.9999"></polygon>
    </defs>
    <g id="Page-1" stroke="none" stroke-width="1" fill="none" fill-rule="evenodd">
        <g id="A4-Copy" transform="translate(-351.000000, -577.000000)">
            <g id="unlock" transform="translate(351.000000, 576.000000)">
                <g id="Group-3" transform="translate(0.000000, 0.842800)">
                    <mask id="mask-2" fill="white">
                        <use xlink:href="#path-1"></use>
                    </mask>
                    <g id="Clip-2"></g>
                    <path d="M16.5615,10.9189 L16.5615,22.4999 C16.5615,22.7749 16.3365,22.9999 16.0615,22.9999 L1.4995,22.9999 C1.2245,22.9999 0.9995,22.7749 0.9995,22.4999 L0.9995,10.9189 C0.9995,10.6439 1.2245,10.4189 1.4995,10.4189 L16.0615,10.4189 C16.3365,10.4189 16.5615,10.6439 16.5615,10.9189 M20.1145,0.1569 C16.7155,0.1569 13.9505,2.9229 13.9505,6.3209 L13.9505,9.4189 L1.4995,9.4189 C0.6725,9.4189 -0.0005,10.0919 -0.0005,10.9189 L-0.0005,22.4999 C-0.0005,23.3269 0.6725,23.9999 1.4995,23.9999 L16.0615,23.9999 C16.8885,23.9999 17.5615,23.3269 17.5615,22.4999 L17.5615,10.9189 C17.5615,10.0919 16.8885,9.4189 16.0615,9.4189 L14.9505,9.4189 L14.9505,6.3209 C14.9505,3.4739 17.2665,1.1569 20.1145,1.1569 C22.9615,1.1569 25.2785,3.4739 25.2785,6.3209 L25.2785,9.9669 L26.2785,9.9669 L26.2785,6.3209 C26.2785,2.9229 23.5125,0.1569 20.1145,0.1569" id="Fill-1" fill="#333332" mask="url(#mask-2)"></path>
                </g>
                <path d="M8.2671,16.2924 L7.9021,18.8544 L8.6181,18.8544 L8.9441,18.8544 L9.6601,18.8544 L9.2951,16.2924 C9.5181,16.1304 9.6741,15.8794 9.6741,15.5814 C9.6741,15.0884 9.2741,14.6884 8.7811,14.6884 C8.2881,14.6884 7.8881,15.0884 7.8881,15.5814 C7.8881,15.8794 8.0431,16.1304 8.2671,16.2924" id="Fill-4" fill="#333332"></path>
            </g>
        </g>
    </g>
</svg>