<?xml version="1.0" encoding="UTF-8" standalone="no"?>
<svg width="25px" height="25px" viewBox="0 0 25 25" version="1.1" xmlns="http://www.w3.org/2000/svg" xmlns:xlink="http://www.w3.org/1999/xlink">
    <!-- Generator: Sketch 40.2 (33826) - http://www.bohemiancoding.com/sketch -->
    <title>wait</title>
    <desc>Created with Sketch.</desc>
    <defs>
        <polygon id="path-1" points="0 0.296 0 1.296 4.4979 1.296 4.4979 0.296 0 0.296"></polygon>
        <polygon id="path-3" points="5.337 1.2959 5.337 0.2959 0.8391 0.2959 0.8391 1.2959 5.337 1.2959"></polygon>
    </defs>
    <g id="Page-1" stroke="none" stroke-width="1" fill="none" fill-rule="evenodd">
        <g id="A4-Copy" transform="translate(-321.000000, -160.000000)">
            <g id="wait" transform="translate(321.000000, 160.000000)">
                <path d="M8.7246,5.291 L6.4546,1.412 L5.5916,1.918 L7.8576,5.791 C8.1326,5.604 8.4246,5.441 8.7246,5.291" id="Fill-1" fill="#333332"></path>
                <path d="M12.1685,4.4704 C12.3375,4.4704 12.5025,4.4854 12.6685,4.4954 L12.6685,0.0004 L11.6685,0.0004 L11.6685,4.4954 C11.8355,4.4854 11.9995,4.4704 12.1685,4.4704" id="Fill-3" fill="#333332"></path>
                <g id="Group-7" transform="translate(0.000000, 11.335900)">
                    <mask id="mask-2" fill="white">
                        <use xlink:href="#path-1"></use>
                    </mask>
                    <g id="Clip-6"></g>
                    <path d="M4.4709,0.832 C4.4709,0.651 4.4859,0.474 4.4979,0.296 L-0.0001,0.296 L-0.0001,1.296 L4.4939,1.296 C4.4849,1.142 4.4709,0.989 4.4709,0.832" id="Fill-5" fill="#333332" mask="url(#mask-2)"></path>
                </g>
                <path d="M5.8264,7.8095 L1.9614,5.5125 L1.4504,6.3725 L5.3174,8.6705 C5.4704,8.3725 5.6374,8.0835 5.8264,7.8095" id="Fill-8" fill="#333332"></path>
                <path d="M16.4878,5.7968 L18.7818,1.9368 L17.9228,1.4248 L15.6228,5.2958 C15.9218,5.4468 16.2128,5.6098 16.4878,5.7968" id="Fill-10" fill="#333332"></path>
                <path d="M19.0295,8.6914 L22.9065,6.4224 L22.4005,5.5594 L18.5245,7.8274 C18.7125,8.1024 18.8775,8.3924 19.0295,8.6914" id="Fill-12" fill="#333332"></path>
                <path d="M18.5183,16.516 L22.3713,18.806 L22.8833,17.946 L19.0253,15.654 C18.8733,15.952 18.7063,16.242 18.5183,16.516" id="Fill-14" fill="#333332"></path>
                <path d="M15.6123,19.0449 L17.8823,22.9239 L18.7453,22.4179 L16.4793,18.5459 C16.2043,18.7319 15.9123,18.8949 15.6123,19.0449" id="Fill-16" fill="#333332"></path>
                <path d="M5.2761,15.5799 L1.3951,17.8509 L1.9011,18.7139 L5.7721,16.4489 C5.5861,16.1729 5.4251,15.8799 5.2761,15.5799" id="Fill-18" fill="#333332"></path>
                <g id="Group-22" transform="translate(19.000000, 11.335900)">
                    <mask id="mask-4" fill="white">
                        <use xlink:href="#path-3"></use>
                    </mask>
                    <g id="Clip-21"></g>
                    <path d="M0.8391,0.2959 C0.8511,0.4739 0.8661,0.6509 0.8661,0.8319 C0.8661,0.9889 0.8521,1.1419 0.8421,1.2959 L5.3371,1.2959 L5.3371,0.2959 L0.8391,0.2959 Z" id="Fill-20" fill="#333332" mask="url(#mask-4)"></path>
                </g>
                <path d="M12.1685,19.8656 C11.9995,19.8656 11.8355,19.8506 11.6685,19.8406 L11.6685,24.3356 L12.6685,24.3356 L12.6685,19.8406 C12.5025,19.8506 12.3375,19.8656 12.1685,19.8656" id="Fill-23" fill="#333332"></path>
                <path d="M7.781,18.4885 L5.489,22.3445 L6.349,22.8565 L8.638,19.0035 C8.341,18.8495 8.054,18.6785 7.781,18.4885" id="Fill-25" fill="#333332"></path>
            </g>
        </g>
    </g>
</svg>