<?xml version="1.0" encoding="UTF-8" standalone="no"?>
<svg width="21px" height="26px" viewBox="0 0 21 26" version="1.1" xmlns="http://www.w3.org/2000/svg" xmlns:xlink="http://www.w3.org/1999/xlink">
    <!-- Generator: Sketch 40.2 (33826) - http://www.bohemiancoding.com/sketch -->
    <title>weirdshort</title>
    <desc>Created with Sketch.</desc>
    <defs></defs>
    <g id="Page-1" stroke="none" stroke-width="1" fill="none" fill-rule="evenodd">
        <g id="A4-Copy" transform="translate(-307.000000, -27.000000)">
            <g id="weirdshort" transform="translate(307.000000, 27.000000)">
                <path d="M14.9865,11.3764 L12.7275,11.3764 L12.7275,15.1764 C12.7275,15.1764 13.7545,16.0494 14.9865,16.0494 C16.2185,16.0494 17.2455,15.1764 17.2455,15.1764 L17.2455,11.3764 L14.9865,11.3764 L14.9865,11.3764 Z" id="Stroke-1" stroke="#333332"></path>
                <path d="M3.274,4.6626 L2.5,4.9156 C1.4,5.2476 0.5,5.8156 0.5,6.9156 L0.5,23.0996 C0.5,24.1996 1.4,25.0996 2.5,25.0996 L17.725,25.0996 C18.825,25.0996 19.725,24.1996 19.725,23.0996 L19.725,6.9156 C19.725,5.8156 18.813,5.1466 17.702,4.7636 L17.249,4.6406" id="Stroke-3" stroke="#333332"></path>
                <path d="M7.901,7.7677 C4.942,6.5877 2.991,4.6767 2.95,4.6757 C2.95,4.6757 3.62,1.4977 4.285,1.0707 C4.95,0.6427 8.677,0.4997 10.244,0.4997 C11.811,0.4997 15.655,0.6147 16.32,1.0417 C16.985,1.4697 17.713,4.7387 17.713,4.7387 C17.713,4.7387 15.327,6.5877 7.744,7.8347 L7.763,25.0297" id="Stroke-5" stroke="#333332"></path>
                <path d="M4.7492,14.1277 C4.7492,14.5377 4.4172,14.8697 4.0072,14.8697 C3.5972,14.8697 3.2652,14.5377 3.2652,14.1277 C3.2652,13.7177 3.5972,13.3857 4.0072,13.3857 C4.4172,13.3857 4.7492,13.7177 4.7492,14.1277" id="Fill-7" fill="#333332"></path>
                <path d="M10.4904,5.1964 C10.4904,5.6064 10.1584,5.9384 9.7484,5.9384 C9.3384,5.9384 9.0064,5.6064 9.0064,5.1964 C9.0064,4.7864 9.3384,4.4544 9.7484,4.4544 C10.1584,4.4544 10.4904,4.7864 10.4904,5.1964" id="Fill-9" fill="#333332"></path>
                <path d="M4.0638,1.1965 L7.7488,3.7795" id="Stroke-11" stroke="#333332"></path>
                <polyline id="Stroke-13" stroke="#333332" points="16.4667 1.1682 7.7597 3.4462 7.7487 7.8422"></polyline>
                <path d="M0.4985,11.9465 L7.8315,11.9465" id="Stroke-15" stroke="#333332"></path>
            </g>
        </g>
    </g>
</svg>