<?xml version="1.0" encoding="UTF-8" standalone="no"?>
<svg width="26px" height="26px" viewBox="0 0 26 26" version="1.1" xmlns="http://www.w3.org/2000/svg" xmlns:xlink="http://www.w3.org/1999/xlink">
    <!-- Generator: Sketch 40.2 (33826) - http://www.bohemiancoding.com/sketch -->
    <title>xing</title>
    <desc>Created with Sketch.</desc>
    <defs>
        <polygon id="path-1" points="12.53605 26 25.072 26 25.072 0.928 12.53605 0.928 0.0001 0.928 0.0001 26 12.53605 26"></polygon>
    </defs>
    <g id="Page-1" stroke="none" stroke-width="1" fill="none" fill-rule="evenodd">
        <g id="A4-Copy" transform="translate(-313.000000, -559.000000)">
            <g id="xing" transform="translate(313.000000, 558.000000)">
                <polygon id="Fill-1" fill="#333332" points="15.395 7.6744 10.917 15.3174 10.919 15.3174 13.777 20.1374 16.716 20.1374 13.859 15.3174 13.857 15.3174 18.334 7.6744"></polygon>
                <polygon id="Fill-2" fill="#333332" points="11.6841 12.7344 9.8811 9.7954 7.1181 9.7954 8.9211 12.7344 8.9031 12.7344 6.6161 16.2224 9.3991 16.2224 11.6851 12.7344"></polygon>
                <g id="Group-5" transform="translate(0.000000, 0.072300)">
                    <mask id="mask-2" fill="white">
                        <use xlink:href="#path-1"></use>
                    </mask>
                    <g id="Clip-4"></g>
                    <path d="M12.5361,25 C6.1751,25 1.0001,19.825 1.0001,13.464 C1.0001,7.103 6.1751,1.928 12.5361,1.928 C18.8971,1.928 24.0721,7.103 24.0721,13.464 C24.0721,19.825 18.8971,25 12.5361,25 M12.5361,0.928 C5.6241,0.928 0.0001,6.552 0.0001,13.464 C0.0001,20.376 5.6241,26 12.5361,26 C19.4481,26 25.0721,20.376 25.0721,13.464 C25.0721,6.552 19.4481,0.928 12.5361,0.928" id="Fill-3" fill="#333332" mask="url(#mask-2)"></path>
                </g>
            </g>
        </g>
    </g>
</svg>