<?xml version="1.0" encoding="UTF-8" standalone="no"?>
<svg width="25px" height="25px" viewBox="0 0 25 25" version="1.1" xmlns="http://www.w3.org/2000/svg" xmlns:xlink="http://www.w3.org/1999/xlink">
    <!-- Generator: Sketch 40.2 (33826) - http://www.bohemiancoding.com/sketch -->
    <title>zoomout</title>
    <desc>Created with Sketch.</desc>
    <defs></defs>
    <g id="Page-1" stroke="none" stroke-width="1" fill="none" fill-rule="evenodd">
        <g id="A4-Copy" transform="translate(-518.000000, -207.000000)" fill="#333332">
            <g id="zoomout" transform="translate(518.000000, 206.000000)">
                <g id="Group-3" transform="translate(0.000000, 0.664100)">
                    <path d="M10.1201,19.5762 C7.6831,19.5762 5.3931,18.6282 3.6711,16.9052 C1.9481,15.1822 1.0001,12.8922 1.0001,10.4562 C1.0001,8.0192 1.9481,5.7292 3.6711,4.0072 C5.3931,2.2842 7.6831,1.3362 10.1201,1.3362 C12.5561,1.3362 14.8471,2.2842 16.5691,4.0072 C18.2921,5.7292 19.2401,8.0192 19.2401,10.4562 C19.2401,12.8922 18.2921,15.1822 16.5691,16.9052 C14.8471,18.6282 12.5561,19.5762 10.1201,19.5762 L10.1201,19.5762 Z M24.6641,24.2932 L17.6131,17.2412 C19.3041,15.3772 20.2401,12.9912 20.2401,10.4562 C20.2401,7.7532 19.1871,5.2112 17.2761,3.3002 C15.3641,1.3892 12.8231,0.3362 10.1201,0.3362 C7.4171,0.3362 4.8751,1.3892 2.9641,3.3002 C1.0531,5.2112 0.0001,7.7532 0.0001,10.4562 C0.0001,13.1592 1.0531,15.7012 2.9641,17.6122 C4.8751,19.5232 7.4171,20.5762 10.1201,20.5762 C12.6551,20.5762 15.0401,19.6402 16.9061,17.9482 L23.9571,25.0002 L24.6641,24.2932 Z" id="Fill-1"></path>
                </g>
                <polygon id="Fill-4" points="4.145 11.4901 16.107 11.4901 16.107 10.5901 4.145 10.5901"></polygon>
            </g>
        </g>
    </g>
</svg>