<?xml version="1.0" encoding="UTF-8" standalone="no"?>
<svg width="25px" height="25px" viewBox="0 0 25 25" version="1.1" xmlns="http://www.w3.org/2000/svg" xmlns:xlink="http://www.w3.org/1999/xlink">
    <!-- Generator: Sketch 40.2 (33826) - http://www.bohemiancoding.com/sketch -->
    <title>zoomin</title>
    <desc>Created with Sketch.</desc>
    <defs></defs>
    <g id="Page-1" stroke="none" stroke-width="1" fill="none" fill-rule="evenodd">
        <g id="A4-Copy" transform="translate(-479.000000, -222.000000)" fill="#333332">
            <g id="zoomin" transform="translate(479.000000, 221.000000)">
                <g id="Group-3" transform="translate(0.000000, 0.628900)">
                    <path d="M10.1191,19.6113 C7.6831,19.6113 5.3931,18.6633 3.6711,16.9403 C1.9481,15.2173 1.0001,12.9273 1.0001,10.4913 C1.0001,8.0543 1.9481,5.7643 3.6711,4.0423 C5.3931,2.3193 7.6831,1.3713 10.1191,1.3713 C12.5561,1.3713 14.8461,2.3193 16.5681,4.0423 C20.1241,7.5973 20.1241,13.3843 16.5681,16.9403 C14.8461,18.6633 12.5561,19.6113 10.1191,19.6113 L10.1191,19.6113 Z M24.6291,24.3633 L17.5781,17.3123 C21.2071,13.3463 21.1141,7.1733 17.2751,3.3353 C15.3641,1.4243 12.8221,0.3713 10.1191,0.3713 C7.4171,0.3713 4.8751,1.4243 2.9641,3.3353 C1.0531,5.2463 0.0001,7.7883 0.0001,10.4913 C0.0001,13.1943 1.0531,15.7363 2.9641,17.6473 C4.8751,19.5583 7.4171,20.6113 10.1191,20.6113 C12.6711,20.6113 15.0731,19.6633 16.9421,17.9503 L23.9921,25.0003 L24.6291,24.3633 Z" id="Fill-1"></path>
                </g>
                <polygon id="Fill-4" points="10.5752 5.0596 9.6752 5.0596 9.6752 10.5896 4.1442 10.5896 4.1442 11.4906 9.6752 11.4906 9.6752 17.0206 10.5752 17.0206 10.5752 11.4906 16.1052 11.4906 16.1052 10.5896 10.5752 10.5896"></polygon>
            </g>
        </g>
    </g>
</svg>