<svg id="Ebene_1" data-name="Ebene 1" xmlns="http://www.w3.org/2000/svg" viewBox="0 0 673.17 99.56"><defs><style>.cls-1{fill:#fff;}</style></defs><title>OUTFITTERY_logo_white</title><path class="cls-1" d="M266.42,84.81c0-8.83-6.47-16.18-15.59-16.18s-15.44,7.21-15.44,16v.15c0,8.82,6.47,16.18,15.59,16.18s15.44-7.21,15.44-16Zm-15.59,26.62c-15.88,0-27.28-11.84-27.28-26.47v-.15c0-14.63,11.55-26.62,27.43-26.62S278.26,70,278.26,84.66v.15c0,14.63-11.54,26.62-27.43,26.62" transform="translate(-32.8 -17.22)"/><path class="cls-1" d="M309.8,111.35c-13.82,0-22.28-7.72-22.28-22.87V59.07h11.32V88.19c0,8.38,4.19,12.72,11.1,12.72S321,96.72,321,88.56V59.07h11.32v29c0,15.59-8.75,23.24-22.57,23.24" transform="translate(-32.8 -17.22)"/><polygon class="cls-1" points="334.42 52.3 334.42 93.33 323.1 93.33 323.1 52.3 307.44 52.3 307.44 41.85 350.08 41.85 350.08 52.3 334.42 52.3"/><polygon class="cls-1" points="370.08 52.15 370.08 63.1 394.64 63.1 394.64 73.4 370.08 73.4 370.08 93.33 358.76 93.33 358.76 41.85 397.95 41.85 397.95 52.15 370.08 52.15"/><rect class="cls-1" x="407.51" y="41.85" width="11.33" height="51.47"/><polygon class="cls-1" points="455.01 52.3 455.01 93.33 443.68 93.33 443.68 52.3 428.02 52.3 428.02 41.85 470.67 41.85 470.67 52.3 455.01 52.3"/><polygon class="cls-1" points="502.65 52.3 502.65 93.33 491.33 93.33 491.33 52.3 475.67 52.3 475.67 41.85 518.31 41.85 518.31 52.3 502.65 52.3"/><polygon class="cls-1" points="526.99 93.32 526.99 41.85 565.81 41.85 565.81 51.93 538.24 51.93 538.24 62.37 562.51 62.37 562.51 72.44 538.24 72.44 538.24 83.25 566.18 83.25 566.18 93.32 526.99 93.32"/><path class="cls-1" d="M640.53,76.65c0-4.85-3.38-7.35-8.9-7.35H620.38V84.08h11.47c5.51,0,8.68-2.94,8.68-7.28Zm-.22,33.9-11-16.47h-8.9v16.47H609.06V59.07h23.53c12.13,0,19.41,6.4,19.41,17v.15c0,8.31-4.49,13.53-11,16l12.57,18.38Z" transform="translate(-32.8 -17.22)"/><polygon class="cls-1" points="653.39 72.81 653.39 93.33 642.07 93.33 642.07 73.03 622.29 41.85 635.52 41.85 647.8 62.52 660.31 41.85 673.17 41.85 653.39 72.81"/><path class="cls-1" d="M200.65,68.85s-2.88-3.57-2.23-6.89c.42-2.1-3-5.14-3.12-5.46a20.25,20.25,0,0,0,2.07-3.24A17.81,17.81,0,0,0,198.49,50l-.18-.56a17.5,17.5,0,0,0-4.89.38,20.61,20.61,0,0,0-2.63.77l-5.42-5.95-1.15.16a7.42,7.42,0,0,0-.16,5.4s-6.12,3.4-16.1,3.4c0-6.57-4-3.91-14.93-10.22-3.93-2.24-1.72-6.09-1.72-6.09-21.06-7.2-50.22-20.06-50.22-20.06L100,18.86s9.44,8.77,24.48,23.65l-1,2.34a38.47,38.47,0,0,1-12.4-9.2L110,37s5.83,14.9,17.22,26.91,20.48,11,20.48,11l0,1.63c-25,0-37.29-21-37.29-21A77.21,77.21,0,0,0,97,57.85a33,33,0,0,0-9.28,3.9S77.58,86.84,64.09,95.12c-14.39,8.82-31.28,8.72-31.28,8.72V105s21.31,2.21,35-6.72A51.7,51.7,0,0,0,85,78.84l.67.27A39.32,39.32,0,0,1,81.1,89.2c-3.32,5.28-6.27,9.87-6.27,9.87s-.48,3-.61,5.92,0,6.71.39,7.55a30.48,30.48,0,0,0,3.33,3.86h5.79c2.78,0-1.83-4.41-2.14-5.58s.44-8.1.44-8.1S89.27,95.1,95,91.3a61.24,61.24,0,0,1,10-5.54l.41.77a32.73,32.73,0,0,0-4.53,2.93C97.84,91.69,96,93.4,96,93.4a19.9,19.9,0,0,0-.53,5.36c0,3.67-.27,5,1.11,6.6s8.75,11,8.75,11H110c2.23,0,3.22-4.32,3.22-4.32a11.49,11.49,0,0,0-5-1.57s-3.84-6.62-4.1-7.45,1.4-4.91,3.13-7.84a26.89,26.89,0,0,1,3.8-5.05,16.78,16.78,0,0,0,3.64.77,23.13,23.13,0,0,0,3.71.06c0-7.09,18.25-1.15,18.25-1.15a36.27,36.27,0,0,0-5,8,29.54,29.54,0,0,0-2.49,6.77,27.61,27.61,0,0,0-.65,3.2l5.09,8.95h9.46c2,0,2.77-3.92,2.77-3.92a11.3,11.3,0,0,0-5.33-1.75l-1.56-4.24s1.67-5.88,10.46-13a87.88,87.88,0,0,1,15.42-10.29l1,1.95-5.33,8.26c11.95,6.25,16.49,22.91,16.49,22.91s6.63.05,9.62.05,2.63-6.2,2.63-6.2a19,19,0,0,0-6.91-1.8L174,87.51a33.2,33.2,0,0,1-.09-5.43,20.31,20.31,0,0,1,1-4.61s6.43-4.19,10.23-1.49,6,2.81,6,2.81l2.1-1.22s-7-4.84-1.84-7.3c3.76-1.79,7.39,2.9,7.39,2.9,2.27-2.64,2-4.31,2-4.31" transform="translate(-32.8 -17.22)"/></svg>